<svg id="Layer_1" data-name="Layer 1" xmlns="http://www.w3.org/2000/svg" viewBox="0 0 12 12"><defs><style>.cls-1{fill:#00ac71;}.cls-2{fill:none;stroke:#fff;stroke-linecap:round;stroke-linejoin:bevel;stroke-width:1.6px;}</style></defs><path class="cls-1" d="M6,0A5.99792,5.99792,0,0,0,1.7568,1.7568a5.90456,5.90456,0,0,0-.7464.9096A6.05835,6.05835,0,0,0,.456,3.7032a6.00144,6.00144,0,0,0,1.3008,6.54,5.90456,5.90456,0,0,0,.9096.7464,6.05835,6.05835,0,0,0,1.0368.5544,6.00144,6.00144,0,0,0,6.54-1.3008,5.90456,5.90456,0,0,0,.7464-.9096,6.1492,6.1492,0,0,0,.5544-1.0368,6.00144,6.00144,0,0,0-1.3008-6.54,5.90456,5.90456,0,0,0-.9096-.7464A6.1492,6.1492,0,0,0,8.2968.456,6.0134,6.0134,0,0,0,6,0Z"/><line class="cls-2" x1="6.0001" y1="7.79997" x2="3.6001" y2="5.39997"/><line class="cls-2" x1="6" y1="7.79997" x2="8.4" y2="5.39997"/></svg>