<svg id="Layer_1" data-name="Layer 1" xmlns="http://www.w3.org/2000/svg" viewBox="0 0 12 12"><defs><style>.cls-1{fill:#959595;}.cls-2{fill:none;stroke:#fff;stroke-linecap:round;stroke-linejoin:bevel;stroke-width:1.6px;}</style></defs><path class="cls-1" d="M12,6a5.99792,5.99792,0,0,1-1.7568,4.2432,5.90456,5.90456,0,0,1-.9096.7464,6.05835,6.05835,0,0,1-1.0368.5544,6.00144,6.00144,0,0,1-6.54-1.3008,5.90456,5.90456,0,0,1-.7464-.9096A6.05835,6.05835,0,0,1,.456,8.2968a6.00144,6.00144,0,0,1,1.3008-6.54,5.90456,5.90456,0,0,1,.9096-.7464A6.1492,6.1492,0,0,1,3.7032.456a6.00144,6.00144,0,0,1,6.54,1.3008,5.90456,5.90456,0,0,1,.7464.9096,6.1492,6.1492,0,0,1,.5544,1.0368A6.0134,6.0134,0,0,1,12,6Z"/><line class="cls-2" x1="4.19995" y1="6" x2="6.59995" y2="8.4"/><line class="cls-2" x1="4.19995" y1="5.99998" x2="6.59995" y2="3.59998"/></svg>