<svg id="Layer_1" data-name="Layer 1" xmlns="http://www.w3.org/2000/svg" viewBox="0 0 20 20"><defs><style>.cls-1{fill:none;stroke:#d7d7d7;stroke-width:1.4px;}.cls-2{fill:#d7d7d7;}</style></defs><path class="cls-1" d="M.7,16V4A3.3,3.3,0,0,1,4,.7H16A3.3,3.3,0,0,1,19.3,4V16A3.3,3.3,0,0,1,16,19.3H4A3.3,3.3,0,0,1,.7,16Z"/><path class="cls-2" d="M14.62891,12.168a.7404.7404,0,0,0,.50781-.17188.60215.60215,0,0,0,.20312-.457h1.0586a1.44809,1.44809,0,0,1-.23438.78711,1.54647,1.54647,0,0,1-.63086.55469,1.97438,1.97438,0,0,1-.88476.19726,1.8349,1.8349,0,0,1-1.42969-.57617,2.28,2.28,0,0,1-.52344-1.59179v-.07422a2.254,2.254,0,0,1,.51953-1.5586,1.81355,1.81355,0,0,1,1.42578-.582,1.77774,1.77774,0,0,1,1.27149.45117,1.59749,1.59749,0,0,1,.48633,1.20118h-1.0586a.76934.76934,0,0,0-.20312-.53321.75669.75669,0,0,0-1.11133.082,1.662,1.662,0,0,0-.20117.93164v.11719a1.68278,1.68278,0,0,0,.19922.9375A.6888.6888,0,0,0,14.62891,12.168Zm-3.582-.33594a.36374.36374,0,0,0-.20508-.32617,2.32941,2.32941,0,0,0-.65821-.21289q-1.50781-.31641-1.50781-1.28125a1.16133,1.16133,0,0,1,.4668-.93945,1.883,1.883,0,0,1,1.2207-.377,2.02669,2.02669,0,0,1,1.28711.37891,1.19413,1.19413,0,0,1,.48242.98437h-1.1289a.54627.54627,0,0,0-.15625-.40039A.66124.66124,0,0,0,10.35938,9.5a.67564.67564,0,0,0-.44141.12891.4069.4069,0,0,0-.15625.32812.34786.34786,0,0,0,.17773.30274,1.82829,1.82829,0,0,0,.59961.19921,4.89661,4.89661,0,0,1,.71094.18946,1.168,1.168,0,0,1,.89453,1.13672,1.10249,1.10249,0,0,1-.49609.93554,2.14,2.14,0,0,1-1.28125.35742,2.23522,2.23522,0,0,1-.94336-.18945,1.58282,1.58282,0,0,1-.64649-.51953,1.20714,1.20714,0,0,1-.23437-.71289H9.61328a.58937.58937,0,0,0,.22266.46094.88313.88313,0,0,0,.55468.16015.81744.81744,0,0,0,.49024-.123A.38288.38288,0,0,0,11.04688,11.832ZM6.25,9.60938a.70693.70693,0,0,0-.54492.22656,1.17039,1.17039,0,0,0-.26758.64844H7.00781v-.08985a.83451.83451,0,0,0-.20312-.58008A.72961.72961,0,0,0,6.25,9.60938Zm.12891,3.46874a2.07487,2.07487,0,0,1-1.51368-.57031,2.02721,2.02721,0,0,1-.584-1.51953v-.10937a2.5533,2.5533,0,0,1,.24609-1.13868,1.80615,1.80615,0,0,1,.69727-.77343,1.957,1.957,0,0,1,1.0293-.27149,1.75407,1.75407,0,0,1,1.36523.54688A2.22219,2.22219,0,0,1,8.11719,10.793v.46094H5.42578a1.04875,1.04875,0,0,0,.33008.66406.99778.99778,0,0,0,.69726.25,1.21853,1.21853,0,0,0,1.01954-.47266l.55468.6211a1.69461,1.69461,0,0,1-.6875.56054A2.25547,2.25547,0,0,1,6.37891,13.07812Z"/></svg>