<svg id="Layer_1" data-name="Layer 1" xmlns="http://www.w3.org/2000/svg" viewBox="0 0 24 24"><defs><style>.cls-1{fill:#959595;}</style></defs><path class="cls-1" d="M11.837,8.90149a2.92725,2.92725,0,1,0,2.927,2.927A2.927,2.927,0,0,0,11.837,8.90149Z"/><path class="cls-1" d="M17.48059,7.45325a1.26831,1.26831,0,1,1,1.26978-1.26831A1.26768,1.26768,0,0,1,17.48059,7.45325Zm-5.6438,9.80444a5.42908,5.42908,0,1,1,5.42871-5.429A5.42854,5.42854,0,0,1,11.83679,17.25769ZM22.34631,7.46936c-.17456-3.7146-2.1687-5.96631-6.15063-6.15015-1.947-.09082-6.769-.08593-8.717,0A6.3241,6.3241,0,0,0,3.038,3.03064c-2.03466,2.03418-1.77441,4.7771-1.77441,8.7981,0,4.11572-.22876,6.79418,1.77441,8.79809,2.04322,2.04224,4.825,1.7749,8.79883,1.7749,4.07691,0,5.48413.00244,6.92554-.55542,1.95947-.76123,3.4397-2.51294,3.584-5.65918C22.43787,14.23914,22.432,9.41809,22.34631,7.46936Z"/></svg>