<svg id="Layer_1" data-name="Layer 1" xmlns="http://www.w3.org/2000/svg" viewBox="0 0 22 22"><defs><style>.cls-1{fill:#959595;}</style></defs><path class="cls-1" d="M7.3877,5.42773a1.28188,1.28188,0,1,0-.03125,2.55665h.01562A1.28222,1.28222,0,1,0,7.3877,5.42773ZM6.14258,8.99316v7.397h2.46v-7.397Zm7.62012,1.76709c.81542,0,1.24609.57862,1.24609,1.67334v3.95655h2.458V12.14941c0-2.084-1.05762-3.32812-2.82813-3.32812A2.43577,2.43577,0,0,0,12.4209,10.041V8.99316H9.96c.02832.56641.00977,5.25635.001,7.24659-.001.09228-.001.14453-.001.15039H12.4209V12.25879a1.7284,1.7284,0,0,1,.08105-.59912A1.35081,1.35081,0,0,1,13.7627,10.76025ZM11.32129,21.61084a10.28882,10.28882,0,1,1,10.28711-10.29A10.30184,10.30184,0,0,1,11.32129,21.61084Z"/></svg>