<svg id="Layer_1" data-name="Layer 1" xmlns="http://www.w3.org/2000/svg" viewBox="0 0 30 30"><defs><style>.cls-1{fill:#00ac71;}.cls-2{fill:none;stroke:#00ac71;stroke-linejoin:round;stroke-width:1.4px;}.cls-3{fill:#fff;}</style></defs><path class="cls-1" d="M9.58434,11.66651h11.3845A1.53845,1.53845,0,0,1,22.50729,13.205V23.46126a1.53845,1.53845,0,0,1-1.53845,1.53845H9.58434A1.53845,1.53845,0,0,1,8.0459,23.46126V13.205A1.53844,1.53844,0,0,1,9.58434,11.66651Z"/><path class="cls-2" d="M9.58434,11.66651h11.3845A1.53845,1.53845,0,0,1,22.50729,13.205V23.46126a1.53845,1.53845,0,0,1-1.53845,1.53845H9.58434A1.53845,1.53845,0,0,1,8.0459,23.46126V13.205A1.53844,1.53844,0,0,1,9.58434,11.66651Z"/><path class="cls-2" d="M19.27668,11.6666v-3a3.84634,3.84634,0,0,0-4-3.66663,3.84634,3.84634,0,0,0-4,3.66663v3"/><circle class="cls-3" cx="15.27649" cy="18.33308" r="1.76921"/></svg>