<svg id="Layer_1" data-name="Layer 1" xmlns="http://www.w3.org/2000/svg" xmlns:xlink="http://www.w3.org/1999/xlink" viewBox="0 0 60 60"><defs><style>.cls-1{fill:none;}.cls-2{fill:#e0e0e0;}.cls-3{fill:#ebebeb;}.cls-4{fill:#ffbe9d;}.cls-5{fill:#eb996e;}.cls-6{fill:#00ac71;}.cls-7{fill:#263238;}.cls-8{fill:#455a64;}.cls-9{opacity:0.2;isolation:isolate;}.cls-10{clip-path:url(#clip-path);}</style><clipPath id="clip-path"><rect class="cls-1" width="60" height="60"/></clipPath></defs><path class="cls-2" d="M4.483,27.6534s.03107.05993.08821.178l.25154.525A9.90625,9.90625,0,0,0,6.09925,30.1879a10.58327,10.58327,0,0,0,1.16123,1.12132c.10824.10088.235.18379.35742.27716l.37893.2804q.20344.12792.41471.261a4.687,4.687,0,0,0,.43768.25743q.22864.12036.46523.24519c.15876.08115.32856.1458.4963.22135q.12679.05478.25537.11059c.08571.03742.17672.06319.26582.09558q.26928.09213.54666.187a10.45066,10.45066,0,0,0,2.43467.40412,9.30982,9.30982,0,0,0,5.37241-1.51526,10.39271,10.39271,0,0,0,2.35881-2.08255A10.01391,10.01391,0,0,0,22.731,27.17786c.04948-.13431.10309-.26773.14963-.404l.11752-.41723.05906-.20956a1.51375,1.51375,0,0,0,.05036-.2122q.04065-.21474.08129-.43093a7.32072,7.32072,0,0,0,.11782-1.7693,5.41265,5.41265,0,0,0-.387-1.76089,3.67218,3.67218,0,0,0-1.081-1.46653,3.25231,3.25231,0,0,0-1.69478-.72986,2.53374,2.53374,0,0,0-.93516.07216,2.44241,2.44241,0,0,0-.84371.42281,3.04777,3.04777,0,0,0-1.03177,1.58978,3.1901,3.1901,0,0,0,.04432,1.92438,4.21124,4.21124,0,0,0,1.03649,1.64337A5.51952,5.51952,0,0,0,19.999,26.52928a9.5975,9.5975,0,0,0,3.70267.74681,26.39524,26.39524,0,0,0,7.14052-.79144,28.62689,28.62689,0,0,0,6.08313-2.31433c.90527-.47377,1.75442-.97759,2.549-1.49539.79349-.52,1.52321-1.0652,2.20521-1.60332A28.92318,28.92318,0,0,0,45.075,17.84375a26.46876,26.46876,0,0,0,2.17016-2.79593c.14153-.19763.25861-.39542.37657-.57567.11443-.18248.2287-.34874.32075-.51176.18792-.32355.35655-.592.47657-.81809l.27892-.51132c.06318-.115.09735-.173.09735-.173s-.02945.06036-.09043.17671l-.2723.51515c-.118.22739-.28452.49733-.47052.82236-.09116.16376-.20456.33076-.3181.51411-.11708.18115-.23328.37967-.37407.57819a26.18073,26.18073,0,0,1-2.16281,2.80769,28.79826,28.79826,0,0,1-3.39354,3.24172c-.6823.54048-1.41246,1.088-2.20668,1.61039-.79526.5203-1.6456,1.02646-2.55219,1.50245a28.62163,28.62163,0,0,1-6.09521,2.32641,26.42085,26.42085,0,0,1-7.16026.79807,9.66429,9.66429,0,0,1-3.73211-.7527,5.59072,5.59072,0,0,1-1.6073-1.11454,4.28425,4.28425,0,0,1-1.0549-1.67343,3.26408,3.26408,0,0,1-.04536-1.969,3.12464,3.12464,0,0,1,1.05873-1.6294,2.51848,2.51848,0,0,1,.87051-.43606,2.611,2.611,0,0,1,.96314-.07408,3.32556,3.32556,0,0,1,1.7341.74694,3.74512,3.74512,0,0,1,1.10217,1.496,5.48341,5.48341,0,0,1,.39159,1.78549A7.38975,7.38975,0,0,1,23.26,25.5162q-.04133.21783-.08233.43445a1.56181,1.56181,0,0,1-.051.21384l-.05964.211-.11884.42046c-.04714.1371-.10118.27156-.1511.40689a10.07694,10.07694,0,0,1-1.701,2.89166,10.44368,10.44368,0,0,1-2.3762,2.0927,9.35877,9.35877,0,0,1-5.40878,1.516,10.489,10.489,0,0,1-2.44675-.41147q-.27832-.0961-.54872-.18939c-.08939-.03284-.1807-.0589-.26671-.0966q-.12922-.05656-.25624-.11193c-.16834-.07629-.33873-.14167-.49778-.22355l-.46655-.24771a4.63813,4.63813,0,0,1-.43872-.25978q-.21162-.13411-.4153-.26332l-.37951-.28261c-.12253-.09426-.24948-.17775-.35772-.27953a10.53052,10.53052,0,0,1-1.16034-1.1297,9.733,9.733,0,0,1-1.26785-1.844c-.10736-.23166-.18924-.40854-.245-.529C4.50918,27.71524,4.483,27.6534,4.483,27.6534Z"/><path class="cls-2" d="M9.70264,41.02225s.047.00779.13784.02665l.40265.08571c.17746.03844.39615.08585.654.14182.25846.05612.56212.09248.9007.14934a25.63139,25.63139,0,0,0,5.80067.20117,31.40638,31.40638,0,0,0,3.97024-.58895A35.69456,35.69456,0,0,0,25.993,39.75513a56.28191,56.28191,0,0,0,9.44737-4.69805c.81043-.47186,1.589-.97419,2.364-1.45694q.57127-.37775,1.13368-.74975c.18674-.125.37584-.24506.5586-.37274q.27369-.192.54519-.38231.54233-.38151,1.07464-.75594.52155-.38946,1.03265-.771.25558-.19088.50838-.37951c.168-.12637.32885-.26037.49217-.38894q.48754-.38923.96388-.76935a53.98194,53.98194,0,0,0,6.24881-5.94057c.20485-.22871.41249-.44534.6013-.66845q.279-.33777.54358-.65786c.34946-.429.692-.82324.9892-1.21026q.437-.587.81206-1.09113l.3583-.481c.05655-.07674.11354-.15022.16568-.22444q.07533-.11311.14638-.22061c.38-.571.67523-1.0147.87671-1.31763q.1502-.22354.22958-.34166c.05214-.07674.08056-.115.08056-.115s-.024.04109-.07393.11914q-.07686.11929-.22325.34593c-.19883.3047-.49012.75138-.86507,1.32617q-.07047.108-.14507.22179c-.05168.07452-.10838.14845-.1645.22562q-.16965.23042-.35581.4832-.37266.50541-.80777,1.096c-.29586.38849-.63723.7845-.98551,1.21512q-.26378.32119-.5421.66036c-.18822.22386-.39544.44137-.59984.67082a53.5108,53.5108,0,0,1-6.24468,5.95912q-.47606.38106-.964.77126c-.16332.129-.32414.26332-.49233.39q-.25293.18909-.50853.3804l-1.03323.77258q-.5326.3753-1.07523.75755-.2717.19063-.54563.38291c-.1829.128-.372.24814-.55889.37347q-.56286.37243-1.13472.75093c-.77551.48334-1.55487.98641-2.366,1.45856a55.98987,55.98987,0,0,1-9.46253,4.69864,35.54427,35.54427,0,0,1-4.43488,1.27861,31.21761,31.21761,0,0,1-3.97953.58082,25.2848,25.2848,0,0,1-5.80935-.22576c-.33872-.05921-.64224-.09794-.90056-.15641-.25758-.0589-.47583-.10869-.653-.14918q-.26244-.061-.40116-.09308C9.74844,41.03505,9.70264,41.02225,9.70264,41.02225Z"/><path class="cls-3" d="M16.01509,35.54144a1.88255,1.88255,0,0,0,.18438.37259,1.98993,1.98993,0,0,0-.70483-.25567,4.279,4.279,0,0,0-1.21527.04065l-.03668.00515a2.73389,2.73389,0,0,0,1.02265.98511,1.85835,1.85835,0,0,0,.26037.1044q-.1151.06606-.2265.13889a9.44253,9.44253,0,0,0-1.44074,1.38064,5.03714,5.03714,0,0,0,2.16177-.31015c.04183-.016.08335-.033.12459-.05035a1.91231,1.91231,0,0,0-.089.35019,4.28263,4.28263,0,0,0,.0402,1.21512l.005.03683a2.73887,2.73887,0,0,0,.98465-1.023,1.91076,1.91076,0,0,0,.17863-.59128,1.8767,1.8767,0,0,0,.15979.26612,2.53367,2.53367,0,0,0,.9415.74856l-.0031-.03137a4.1189,4.1189,0,0,0-.20263-1.02307,2.16129,2.16129,0,0,0-.56537-.81543,6.20458,6.20458,0,0,0-.52046-.39881,6.20469,6.20469,0,0,0-.03652-.65463,2.16017,2.16017,0,0,0-.35551-.92633,4.10883,4.10883,0,0,0-.73134-.74356l-.02416-.02032A2.533,2.533,0,0,0,16.01509,35.54144Z"/><path class="cls-2" d="M18.21469,35.95135c.01076.01783-.625.42341-1.41983.90555-.79526.48233-1.44839.85858-1.45929.84076-.01076-.01782.62486-.42325,1.42-.90555C17.55051,36.30994,18.2038,35.93353,18.21469,35.95135Z"/><path class="cls-2" d="M16.69327,36.8797a1.66926,1.66926,0,0,1-.10353.69968,1.66944,1.66944,0,0,1,.10353-.69968Z"/><path class="cls-2" d="M16.40268,37.09171c-.01149.01812-.11737-.02976-.24815-.08277-.13048-.05374-.23946-.09381-.23505-.11471.00383-.02.12591-.01209.26376.04461C16.32109,36.99481,16.41386,37.07477,16.40268,37.09171Z"/><path class="cls-3" d="M39.29651,18.13815a2.52581,2.52581,0,0,0,3.77408-.46139S40.79956,16.05547,39.29651,18.13815Z"/><path class="cls-2" d="M43.899,17.5327a15.71421,15.71421,0,0,1-1.69214.26317,15.68081,15.68081,0,0,1-1.704.17024,15.64155,15.64155,0,0,1,1.69226-.26332A15.65428,15.65428,0,0,1,43.899,17.5327Z"/><path class="cls-2" d="M40.86465,17.48355c.01325-.0224.15564.03769.31809.13387.16244.09631.28351.19247.27026.21472-.01312.02223-.15551-.03771-.31811-.134C40.97244,17.60194,40.85138,17.50578,40.86465,17.48355Z"/><path class="cls-2" d="M42.34644,17.7173c.0184.01811-.08246.15007-.22516.29439-.14286.14447-.2735.24667-.2919.22856-.01841-.01825.08233-.15007.22519-.29454C42.19742,17.80139,42.328,17.699,42.34644,17.7173Z"/><path class="cls-3" d="M51.44965,32.20392a2.16089,2.16089,0,0,0,.005-3.25275S49.83942,30.70883,51.44965,32.20392Z"/><path class="cls-2" d="M51.41931,28.23257c.01312-.00015.02637.65549.02933,1.46415.00308.809-.00516,1.4646-.0184,1.4646-.01313.00015-.02637-.65549-.02933-1.4643C51.39783,28.88837,51.40607,28.23257,51.41931,28.23257Z"/><path class="cls-2" d="M51.05847,30.80359a1.80526,1.80526,0,0,1,.35788-.46289,1.81016,1.81016,0,0,1-.35788.46289Z"/><path class="cls-2" d="M51.41284,29.57007a2.08807,2.08807,0,0,1,.38968.49408,2.08807,2.08807,0,0,1-.38968-.49408Z"/><path class="cls-4" d="M37.43652,12.52567a33.27826,33.27826,0,0,0,3.51828-2.178,4.16186,4.16186,0,0,1,.77066-.77067c.402-.30161,4.12134-1.90994,4.12134-1.90994s.83768-.23446,1.0387.26818c0,0-1.97693,2.24483-2.21155,2.54644A11.4926,11.4926,0,0,1,42.89819,11.621a13.56946,13.56946,0,0,0-1.60833,1.77579,21.46578,21.46578,0,0,1-3.14969,2.41243Z"/><path class="cls-4" d="M46.88553,8.02386A3.06533,3.06533,0,0,0,48.0036,6.45352a3.89762,3.89762,0,0,1,.38233-1.24266s.13665-.519-.06818-.49159c-.20487.02724-.54624.32767-.72385.91484,0,0-.273.4234-.35492.34137a1.96819,1.96819,0,0,1-.24579-.80557c-.09573-.49173-.40969-1.52954-.5599-1.54309-.15024-.01369-.16394.13652-.15024.36862.0137.23224.36862,1.66606.17746,1.67961-.19116.0137-.6337-1.38875-.91483-1.5294-.082-.04094-.20486.05464-.20486.05464l.30045,1.01057-.30045-.16392a3.0597,3.0597,0,0,0,0,.38232c.0137.19115.54623,1.2836.53253,1.47491a.42828.42828,0,0,1-.21841.30043s-.77848-.34152-.77848-.17761.17762.25949.38248.4097c.20471.15022.25684-.03255.24579.1757-.0112.20838-.0137.46611.10913.52074A8.33086,8.33086,0,0,0,46.88553,8.02386Z"/><path class="cls-5" d="M46.609,7.43841a.44342.44342,0,0,0-.19251-.02224,2.12965,2.12965,0,0,0-.46139.14609,6.23583,6.23583,0,0,0-.60233.344,1.3134,1.3134,0,0,1,.57172-.41427,1.51373,1.51373,0,0,1,.48834-.12989C46.5527,7.35579,46.61987,7.4337,46.609,7.43841Z"/><path class="cls-6" d="M36.05542,55.21277l-.33107,2.88577s2.822,1.30582,2.81285,1.84512l-5.61864-.44107.3315-4.51764Z"/><path class="cls-2" d="M34.00562,57.71854a.23034.23034,0,0,0-.17923.24948.22124.22124,0,0,0,.24566.17965.24266.24266,0,0,0,.18851-.26507.22957.22957,0,0,0-.27631-.1586"/><path class="cls-7" d="M32.90442,59.62024l.03166-.43768,5.40068.45843s.24152.12842.19956.30249Z"/><path class="cls-7" d="M35.81647,58.07745c-.00308.02741-.14124.029-.28305.10663-.144.07392-.223.18732-.24726.1745-.0249-.00735.02884-.16818.20233-.25918C35.6611,58.0069,35.82443,58.0527,35.81647,58.07745Z"/><path class="cls-7" d="M36.38739,58.3674c.00412.0271-.11826.06436-.22061.17319-.10544.10559-.13889.22931-.16614.22589-.02606.00238-.03238-.15991.09735-.2926C36.22656,58.34,36.38885,58.34119,36.38739,58.3674Z"/><path class="cls-7" d="M36.66647,59.099c-.02548.00384-.05288-.13623.0293-.281.0813-.14532.2153-.19439.22519-.17065.0137.02368-.076.0979-.14169.2178C36.71078,58.98325,36.69385,59.09842,36.66647,59.099Z"/><path class="cls-7" d="M35.81906,57.41119c-.0134.02417-.13638-.02356-.2922-.02517-.15595-.00486-.28071.03769-.29322.01309-.01428-.02106.11148-.1134.29514-.109C35.71243,57.29324,35.83423,57.39072,35.81906,57.41119Z"/><path class="cls-6" d="M30.29739,55.41928,30.132,58.31946s2.89238,1.14194,2.91388,1.68078l-5.63455-.1184.07217-4.52927Z"/><path class="cls-2" d="M28.39423,58.03891a.23018.23018,0,0,0-.16449.25922.22123.22123,0,0,0,.2555.16552.24286.24286,0,0,0,.1729-.27554.22966.22966,0,0,0-.285-.14258"/><path class="cls-7" d="M27.4044,60.00031l.00649-.43885,5.41806.14844s.24858.11426.21648.29041Z"/><path class="cls-7" d="M30.22331,58.29282c-.00162.02752-.13946.03711-.27656.12268-.13962.082-.21178.19983-.237.18835-.02518-.00589.0193-.16952.18733-.27023C30.06412,58.23138,30.2298,58.26776,30.22331,58.29282Z"/><path class="cls-7" d="M30.80923,58.54965c.00574.0268-.11444.07114-.21044.18555-.09913.11148-.12548.23682-.15273.23505-.02606.00384-.04167-.15772.08026-.29764C30.64694,58.53152,30.80908,58.52344,30.80923,58.54965Z"/><path class="cls-7" d="M31.13065,59.26392c-.0252.00531-.06054-.133.01324-.28217.07275-.14978.20383-.20645.21487-.1832.01517.02283-.07009.10208-.12886.2255C31.16833,59.146,31.158,59.26187,31.13065,59.26392Z"/><path class="cls-7" d="M30.18813,57.62772c-.01194.02487-.13741-.01578-.29322-.00855-.1558.00412-.27791.05374-.2919.02988-.01546-.02014.10486-.11957.2885-.12561C30.07487,57.51608,30.20212,57.60635,30.18813,57.62772Z"/><path class="cls-7" d="M24.00023,6.68822a2.15731,2.15731,0,0,1,.25639.10618,4.30341,4.30341,0,0,0,.70719.25243,1.62813,1.62813,0,0,0,1.07566-.07408,1.12882,1.12882,0,0,0,.46714-.42768,4.30733,4.30733,0,0,0,.30264-.63517,4.31084,4.31084,0,0,1,.72766-1.17182,4.37233,4.37233,0,0,1,.84357-.74666,3.91613,3.91613,0,0,1,.666-.36376c.08144-.03755.14846-.05758.19248-.07422a.26106.26106,0,0,1,.06923-.01989,2.7049,2.7049,0,0,1-.2492.12121,4.50475,4.50475,0,0,0-1.46856,1.12956,4.36032,4.36032,0,0,0-.71044,1.15548,4.24614,4.24614,0,0,1-.31015.64592,1.19354,1.19354,0,0,1-.5.45095,1.66286,1.66286,0,0,1-1.1191.06288,3.75729,3.75729,0,0,1-.7066-.278c-.08012-.03991-.14139-.07231-.18277-.095A.2461.2461,0,0,1,24.00023,6.68822Z"/><path class="cls-7" d="M34.15833,13.03152a.32112.32112,0,0,1-.00251-.08084,1.56042,1.56042,0,0,1,.01544-.23195,3.00587,3.00587,0,0,1,.23224-.82206c.139-.33416.35126-.70852.57791-1.12515a4.89317,4.89317,0,0,0,.56376-1.41939,3.70757,3.70757,0,0,0-.0763-1.5179,6.71139,6.71139,0,0,0-.42737-1.17964c-.15008-.32561-.28482-.58333-.37539-.76271l-.10367-.20706a.331.331,0,0,1-.03183-.07451.31115.31115,0,0,1,.04535.06715l.11636.20029c.09882.17524.24109.42943.39823.75372a6.39637,6.39637,0,0,1,.4468,1.18567,3.70671,3.70671,0,0,1,.08335,1.5484,4.83878,4.83878,0,0,1-.5773,1.43986c-.2309.41618-.44623.78509-.59009,1.11277a3.23917,3.23917,0,0,0-.2526.80483C34.16876,12.92,34.16672,13.032,34.15833,13.03152Z"/><path class="cls-7" d="M30.67508,3.30712a2.07437,2.07437,0,0,0-2.15707.625,6.394,6.394,0,0,0-1.16446,2.061A5.57167,5.57167,0,0,1,26.13474,8.0174a6.10406,6.10406,0,0,0-1.077.9867c-.29762.45183-.33047,1.03885-.62809,1.49082-.75492,1.14635-2.69681.82825-3.56143,1.89433a6.38571,6.38571,0,0,0-.63445,1.30864,1.3018,1.3018,0,0,1-1.088.84651,1.703,1.703,0,0,0,1.93308.33342c.06921.62221-1.01941.935-.90335,1.55031a.87019.87019,0,0,0,.5063.53047,6.70848,6.70848,0,0,0,7.53094-.95137c.74755-.69055,1.32234-1.54442,2.00508-2.299a4.626,4.626,0,0,1,2.52892-1.6054Z"/><path class="cls-7" d="M27.5423,7.80882a4.971,4.971,0,0,1,.57112-3.40871,4.14407,4.14407,0,0,1,2.57339-1.511,3.79083,3.79083,0,0,1,1.66341.10207,3.46421,3.46421,0,0,1,1.605,1.37005,4.39579,4.39579,0,0,1,1.03635,3.44111l-4.56891,4.2153c-1.07036-.2399-1.76-.30146-2.28224-1.26608A9.40151,9.40151,0,0,1,27.5423,7.80882Z"/><path class="cls-4" d="M28.5069,5.41908,31.589,3.54537c1.03546-.44269,2.1528.65624,2.55116,1.70951a20.0055,20.0055,0,0,1,1.06947,3.55053,2.09376,2.09376,0,0,1-1.06726,2.38532l-.008.00443c.00972.038.087.31677.1975.70174l.37009,1.197c-.00414,1.5886-.6402,2.91771-2.70992,2.71492L28.13991,6.23128A.65908.65908,0,0,1,28.5069,5.41908Z"/><path class="cls-5" d="M34.13626,11.19612a4.765,4.765,0,0,1-2.59489.09853,2.39652,2.39652,0,0,0,2.719.35122Z"/><path class="cls-7" d="M31.56161,3.32791a3.85183,3.85183,0,0,1,.028,2.15927,2.442,2.442,0,0,1-.26891.75594.70835.70835,0,0,1-.53547.32488c.19822-.48319.59585-1.1004.47464-1.60848A5.50119,5.50119,0,0,1,30.85164,6.633a1.86,1.86,0,0,1-1.273,1.07462l-.063-.38231a1.33373,1.33373,0,0,1-.25314.81043.68.68,0,0,1-.771.22782c-.05788-.95578-.87774-1.78859-.7611-2.73907a2.30174,2.30174,0,0,1,1.15828-1.53735,5.28678,5.28678,0,0,1,2.63849-.82765"/><path class="cls-7" d="M31.4903,3.36305l.019.03712-.0056.00426Z"/><path class="cls-7" d="M31.50928,3.40009l.0975-.07526c.29321-.26833.46271-.52855,1.12-.20294a3.38986,3.38986,0,0,1,1.00469.82677,4.34373,4.34373,0,0,1,.69952.99423,4.98762,4.98762,0,0,1,.41353,1.37682,1.61738,1.61738,0,0,1-.81131-.76934,4.81344,4.81344,0,0,0-.619-.95681,2.89776,2.89776,0,0,1,.30278.901.394.394,0,0,1-.03814.25346.16516.16516,0,0,1-.2243.061,2.0472,2.0472,0,0,0-.2966-1.087,5.799,5.799,0,0,0-.68582-.91057,5.60871,5.60871,0,0,1,.4284,1.85781.4854.4854,0,0,1-.03845.26847.44642.44642,0,0,1-.35315.17879.93629.93629,0,0,0-.39761.08939A5.38448,5.38448,0,0,0,31.50928,3.40009Z"/><path class="cls-7" d="M27.50285,3.6522a1.001,1.001,0,0,1,.18247-.08439c.11943-.04948.29292-.11884.50838-.2022.43119-.16568,1.02955-.38953,1.7042-.59733a5.83817,5.83817,0,0,1,.96933-.24064,1.1,1.1,0,0,1,.7957.17157.74167.74167,0,0,1,.306.45639.51148.51148,0,0,1,.00309.15139c-.00618.03417-.01061.0514-.01311.051a1.29469,1.29469,0,0,0-.01929-.19616.735.735,0,0,0-.30809-.41824,1.05966,1.05966,0,0,0-.75638-.1458,6.27339,6.27339,0,0,0-.95474.24373c-.67215.2072-1.27228.42237-1.7079.57508l-.51677.17923A1.01837,1.01837,0,0,1,27.50285,3.6522Z"/><path class="cls-7" d="M19.35373,12.37207a.13366.13366,0,0,1,.03372-.01561l.1022-.039c.04537-.01606.10384-.02813.17188-.0464a2.40854,2.40854,0,0,1,.24049-.03549,4.78719,4.78719,0,0,1,.66448-.00839,5.70964,5.70964,0,0,0,.87272-.00722,1.5492,1.5492,0,0,0,.93428-.42133,2.61919,2.61919,0,0,0,.61794-1.02235c.14507-.4019.23666-.845.38689-1.2917a2.58159,2.58159,0,0,1,.776-1.22485,1.41006,1.41006,0,0,1,.67864-.3103c.24636-.03667.48672-.01164.71557-.02945a1.03213,1.03213,0,0,0,.61235-.23225,1.788,1.788,0,0,0,.40367-.50116,10.57511,10.57511,0,0,0,.49762-1.10923,9.42065,9.42065,0,0,1,.44475-.96948,3.14836,3.14836,0,0,1,1.00881-1.15739,1.976,1.976,0,0,1,.37362-.19234c.04492-.01752.08042-.02695.10382-.03461a.13931.13931,0,0,1,.03623-.00883,1.31841,1.31841,0,0,1-.13416.05773,2.22105,2.22105,0,0,0-.363.20293,3.19393,3.19393,0,0,0-.97758,1.15843,9.63736,9.63736,0,0,0-.43357.96741,10.35585,10.35585,0,0,1-.49511,1.12043,1.85512,1.85512,0,0,1-.41884.523,1.10715,1.10715,0,0,1-.65285.25036c-.23769.01841-.47656-.0056-.70984.02989a1.33772,1.33772,0,0,0-.642.29454,2.51726,2.51726,0,0,0-.753,1.18936c-.14933.44019-.2427.8842-.3916,1.29155a2.66653,2.66653,0,0,1-.64078,1.04459,1.60147,1.60147,0,0,1-.97168.429,5.56447,5.56447,0,0,1-.88081-.00383,5.06778,5.06778,0,0,0-.66006-.00472A2.42193,2.42193,0,0,0,19.35373,12.37207Z"/><path class="cls-7" d="M29.43738,25.15289a12.27743,12.27743,0,0,0-2.18857,3.36042c-.75314,1.854-.42223,10.77984-.42223,10.77984l.15773,4.67951a51.8371,51.8371,0,0,0-.39335,7.41357,45.68679,45.68679,0,0,0,.7088,5.52084l3.1286.15021,3.32-24.31851L32.91782,43.954,32.181,57.05728l3.99011-.039s1.28612-11.38367,1.54634-13.22748c.2941-2.08386.71352-4.15536.71352-4.15536a57.86046,57.86046,0,0,0,.43607-8.43944,29.98,29.98,0,0,0-2.05057-7.25968l-7.07633,1.27463"/><path class="cls-4" d="M14.83133.14051a.64228.64228,0,0,0-.26847.64755,1.80639,1.80639,0,0,0,.26847.78965S13.157.07733,12.96748.01415a.3333.3333,0,0,0-.42634.3159c.01576.221,1.01012.97919,1.14473,1.16873s.00824.1106-.11811.07893c-.12636-.03151-1.10571-.79187-1.153-.76712-.04742.02488-.52133.10382-.25272.46714.26848.36316,1.04238.71072,1.13723.85284.09469.14211.20352.16714.18762.30926-.01576.14226-.83031-.20986-.83031-.20986l-.40588-.21015a.21834.21834,0,0,0-.28717.30691.60023.60023,0,0,0,.13533.15139,4.51986,4.51986,0,0,0,1.0898.537s.30014.17377.28424.34756c-.01577.17377-1.4057.71072-1.4057.71072s-.07893.2212.11061.30014.54651-.12577.54651-.12577a3.3975,3.3975,0,0,1,1.04871-.285,11.85639,11.85639,0,0,0,1.4216.58451,2.37416,2.37416,0,0,0,.72648,0L16.575,3.15041S15.88961,1.72,15.76325,1.4356c-.12636-.28423-.55285-.39483-.63178-.71072A1.7078,1.7078,0,0,0,14.83133.14051Z"/><path class="cls-4" d="M15.21069,4.162s3.343,3.827,4.22531,5.09113a29.25372,29.25372,0,0,0,3.705,3.64227,48.61386,48.61386,0,0,0,3.9623,3.86643,15.513,15.513,0,0,0,1.61055-.10192l-.23461-3.5517s-5.6961-4.892-5.93071-5.093c-.23445-.201-6.33834-5.16136-6.33834-5.16136Z"/><path class="cls-5" d="M14.66431,1.234c.01133-.00338.05124.1106.1667.26744a1.04574,1.04574,0,0,1,.18.30736.35091.35091,0,0,1-.038.21987.48887.48887,0,0,0-.06774.19,1.90112,1.90112,0,0,0,.20574.71515,1.577,1.577,0,0,1,.12694.29188,1.14045,1.14045,0,0,1-.1754-.26744,1.67937,1.67937,0,0,1-.234-.743.53761.53761,0,0,1,.07673-.21913.28723.28723,0,0,0,.03637-.17364,1.18249,1.18249,0,0,0-.15581-.29115A.61778.61778,0,0,1,14.66431,1.234Z"/><path class="cls-5" d="M20.15781,7.906a.40174.40174,0,0,1,.20912.0866.92182.92182,0,0,1,.39424.96889.401.401,0,0,1-.08923.20809,1.99007,1.99007,0,0,1,.03578-.21723.99215.99215,0,0,0-.37259-.91587C20.23071,7.95278,20.153,7.91729,20.15781,7.906Z"/><path class="cls-6" d="M34.55145,12.57207a3.21451,3.21451,0,0,1,.40367.11708l2.50565-.16361,1.09584,3.28353-.8278.53621a6.843,6.843,0,0,1,.43562,2.379,8.99764,8.99764,0,0,1-.30161,1.67534l-.2346,4.69084-1.50775,2.513H32.76979L29.15108,24.789l-.43563-3.61885L26.9061,16.94835l-1.28789-.871.95283-4.62958a4.66958,4.66958,0,0,1,2.044.91013l.469.43562a1.36868,1.36868,0,0,1,.87126,0l.56949-.10058S32.84,14.47244,34.012,14.13254C35.00549,13.84433,34.55145,12.57207,34.55145,12.57207Z"/><path class="cls-7" d="M30.73232,11.70158c.02267-.5047-.41869-.9443-.3919-1.44885a3.39591,3.39591,0,0,1,.25876-.80115C30.928,8.40347,30.107,7.177,30.63,6.21106l-2.3326.56831A3.49258,3.49258,0,0,1,28.47983,8.906a8.37964,8.37964,0,0,0-.21149,2.15338,12.96835,12.96835,0,0,0,.4072,1.65075,5.96013,5.96013,0,0,1-.46949,4.052,2.04412,2.04412,0,0,0,1.54148-1.80715,5.47665,5.47665,0,0,1,.04594-1.68417C30.02277,12.69594,30.70448,12.32,30.73232,11.70158Z"/><path class="cls-8" d="M29.07611,24.36745l-.83017,2.20831s-6.16943,8.607-5.99,9.32439c.17923.71721,3.54155,3.49664,4.5278,3.04834a11.03973,11.03973,0,0,0,4.39322-4.1243c.85181-1.83808,3.27263-6.99339,3.27263-6.99339l.762-1.43456-.85167-.58275Z"/><path class="cls-8" d="M37.68552,24.94881a36.40621,36.40621,0,0,1,1.71508,13.477q-.77669.093-1.55337.18585a52.82592,52.82592,0,0,1-.54624-6.40979,11.98488,11.98488,0,0,0-1.844-6.08563q1.12111-.60172,2.24246-1.20348"/><path class="cls-7" d="M30.83749,27.6817a1.7576,1.7576,0,0,1-.39025-.08969,8.226,8.226,0,0,1-1.772-.762,1.75994,1.75994,0,0,1-.33357-.22134,2.50957,2.50957,0,0,1,.35949.17378c.219.11206.52368.26184.868.41014.34446.14786.66271.266.89466.3477A2.50709,2.50709,0,0,1,30.83749,27.6817Z"/><g class="cls-9"><g class="cls-10"><path d="M26.83629,34.23477l-.14934.0109a3.64421,3.64421,0,0,0,4.05479.74429,1.31344,1.31344,0,0,0,.88126-1.10318A9.10627,9.10627,0,0,1,26.83629,34.23477Z"/></g></g><path class="cls-8" d="M34.54117,26.40218a2.94848,2.94848,0,0,0-2.08917.61955,4.251,4.251,0,0,0-.84827,1.526,7.94605,7.94605,0,0,1-1.67976,3.3738,6.17172,6.17172,0,0,1-3.3205,1.20276c-.0321.43652-.0271.95639.33195,1.20657a1.14516,1.14516,0,0,0,.35654.14786,5.82789,5.82789,0,0,0,1.07388.19043,5.02381,5.02381,0,0,0,4.45124-1.90772C34.06593,31.03,34.1646,28.94965,34.87091,26.935"/><path class="cls-7" d="M34.87094,26.935a.42331.42331,0,0,1-.01709.06378l-.05713.18408c-.05214.16112-.12253.401-.20588.71176-.085.31031-.17762.69306-.28557,1.13752-.10868.44415-.22974.95135-.39969,1.50274a8.16359,8.16359,0,0,1-.7359,1.736,5.04339,5.04339,0,0,1-.61029.85886,4.45366,4.45366,0,0,1-.845.73178,5.26093,5.26093,0,0,1-2.23909.81809,5.58353,5.58353,0,0,1-1.26918.01251,5.79381,5.79381,0,0,1-.64121-.106q-.15994-.03534-.31869-.08041a1.1514,1.1514,0,0,1-.31237-.12989.73939.73939,0,0,1-.24136-.26229,1.09072,1.09072,0,0,1-.11075-.32975,2.69674,2.69674,0,0,1-.01636-.66226l.00222-.03018.03-.00473a9.62528,9.62528,0,0,0,2.25147-.54093,3.647,3.647,0,0,0,.936-.55282,3.46656,3.46656,0,0,0,.68656-.77847,7.90854,7.90854,0,0,0,.787-1.75591,15.28093,15.28093,0,0,1,.58967-1.57373,3.72083,3.72083,0,0,1,.37584-.62884,2.77368,2.77368,0,0,1,.21973-.25611,1.369,1.369,0,0,1,.25226-.194,3.171,3.171,0,0,1,.97021-.36537,2.71621,2.71621,0,0,1,.64946-.06612,1.03469,1.03469,0,0,1,.22533.02783c-.00073.005-.07732-.01224-.22562-.01341a2.872,2.872,0,0,0-.64313.07908,3.19429,3.19429,0,0,0-.95489.3723,1.34711,1.34711,0,0,0-.24271.18984,2.78416,2.78416,0,0,0-.21368.2536,3.7069,3.7069,0,0,0-.36641.62338,15.57,15.57,0,0,0-.57863,1.57108A7.91839,7.91839,0,0,1,30.529,31.2515a3.53206,3.53206,0,0,1-.69851.79614,3.71274,3.71274,0,0,1-.953.56579,9.65716,9.65716,0,0,1-2.26825.54859l.03224-.03491a2.62364,2.62364,0,0,0,.01561.643.77574.77574,0,0,0,.31826.54138,2.15479,2.15479,0,0,0,.60617.2,5.75913,5.75913,0,0,0,.63295.10486,5.52288,5.52288,0,0,0,1.25136-.01132,5.2,5.2,0,0,0,2.20935-.80234,4.38254,4.38254,0,0,0,.834-.71808,4.98919,4.98919,0,0,0,.60558-.84564,8.17025,8.17025,0,0,0,.739-1.72024c.1726-.548.29735-1.05371.41-1.49686.11177-.44357.20881-.82559.29822-1.13516.08792-.31.16317-.54886.22-.70865l.06452-.18189A.40793.40793,0,0,1,34.87094,26.935Z"/><path class="cls-7" d="M27.92035,34.58847a1.89786,1.89786,0,0,0-.17276-1.66415.58786.58786,0,0,1,.1626.204,1.52465,1.52465,0,0,1,.12738,1.22717A.589.589,0,0,1,27.92035,34.58847Z"/><path class="cls-7" d="M27.96262,33.51483a2.91317,2.91317,0,0,1-.65918.08261,2.89831,2.89831,0,0,1-.66434.00605,2.91138,2.91138,0,0,1,.65918-.08262A2.896,2.896,0,0,1,27.96262,33.51483Z"/><path class="cls-7" d="M28.08694,33.9957a3.10316,3.10316,0,0,1-.68554.0527,3.10019,3.10019,0,0,1-.68717-.024,3.11583,3.11583,0,0,1,.68555-.05273A3.11058,3.11058,0,0,1,28.08694,33.9957Z"/><path class="cls-8" d="M35.95859,26.77647a4.90733,4.90733,0,0,1,1.38122,3.80178,21.11765,21.11765,0,0,1-.753,4.09808,8.97638,8.97638,0,0,0-.19452,4.13107q-.66228.09475-1.3244.18982a5.56318,5.56318,0,0,1-1.4677-4.33755,17.41055,17.41055,0,0,1,1.14708-3.729,5.28207,5.28207,0,0,0,.14066-3.81605"/><path class="cls-7" d="M34.888,27.11455a.45591.45591,0,0,1,.0274.058l.07319.17363a3.69457,3.69457,0,0,1,.177.7035,4.68144,4.68144,0,0,1,.01221,1.14972,7.75745,7.75745,0,0,1-.3237,1.4917c-.17.54093-.40058,1.11765-.63164,1.74207a9.792,9.792,0,0,0-.564,2.04336,5.44748,5.44748,0,0,0,.18924,2.32111,5.51961,5.51961,0,0,0,1.2481,2.17312l-.03326-.01162c.20618-.0296.42783-.06128.65079-.09323.23077-.03315.46005-.066.67358-.09659l-.0318.04712a7.0448,7.0448,0,0,1-.09778-2.54041,19.96988,19.96988,0,0,1,.46421-2.316c.17877-.72882.34829-1.4201.45578-2.07547a8.83486,8.83486,0,0,0,.1296-1.83438,5.17613,5.17613,0,0,0-.73562-2.52231,3.96823,3.96823,0,0,0-.43781-.571l-.13168-.13329a.40378.40378,0,0,1-.04315-.04727.3935.3935,0,0,1,.04831.04167l.13739.12858a3.70744,3.70744,0,0,1,.45126.56567,5.14392,5.14392,0,0,1,.76416,2.53525,8.8092,8.8092,0,0,1-.12106,1.847c-.10514.659-.27289,1.35269-.44959,2.08182a20.13336,20.13336,0,0,0-.458,2.30859,6.99166,6.99166,0,0,0,.09835,2.513l.01.04126-.04181.00589c-.21341.03064-.44284.06348-.67346.09659-.223.032-.44461.06363-.65079.09323l-.01974.00281-.0137-.01443a5.5838,5.5838,0,0,1-1.26357-2.2042,5.50539,5.50539,0,0,1-.18689-2.3522,9.797,9.797,0,0,1,.57451-2.05557c.23432-.62458.46729-1.19907.63959-1.73633a7.80469,7.80469,0,0,0,.33267-1.48019,4.74525,4.74525,0,0,0,.00061-1.14121,3.95324,3.95324,0,0,0-.16244-.70247l-.06614-.17569C34.89371,27.13574,34.888,27.11455,34.888,27.11455Z"/><path class="cls-7" d="M36.17584,37.74139a6.32912,6.32912,0,0,0-.92471.01618,6.32859,6.32859,0,0,0-.89658.22784.7667.7667,0,0,1,.2424-.1318,2.61343,2.61343,0,0,1,1.31028-.17557A.764.764,0,0,1,36.17584,37.74139Z"/><path class="cls-7" d="M35.40524,38.96222a4.85459,4.85459,0,0,1-.55331-1.08362,4.83613,4.83613,0,0,1,.55331,1.08362Z"/><path class="cls-7" d="M36.09705,38.86407a5.21574,5.21574,0,0,1-.50086-1.15795,5.19559,5.19559,0,0,1,.50086,1.15795Z"/><path class="cls-7" d="M34.19653,26.34364c-.00912.00295-.03076-.02885-.04165-.08865a.43035.43035,0,0,1,.17892-.41441c.05109-.033.089-.039.09323-.03034.01029.01929-.10885.09249-.171.24256C34.18948,26.20094,34.21774,26.33791,34.19653,26.34364Z"/><path class="cls-8" d="M35.91843,26.02086a1.28312,1.28312,0,0,0-.93308-.41545.81274.81274,0,0,0-.83636.7153.89823.89823,0,0,0,.65152.91455,1.00466,1.00466,0,0,0,1.06375-.41811A.75089.75089,0,0,0,35.91843,26.02086Z"/><path class="cls-7" d="M35.17548,25.76221c.00485-.00634.09365.05713.17627.20823a.88511.88511,0,0,1-.31635,1.17994.47345.47345,0,0,1-.25684.09217c-.00412-.01251.096-.04167.22651-.13725a.89678.89678,0,0,0,.29794-1.11114C35.23776,25.8463,35.16559,25.77089,35.17548,25.76221Z"/><path class="cls-7" d="M35.83508,25.91493c.00678-.00545.05786.04065.1066.139a.797.797,0,0,1-.08585.8119c-.06832.08585-.12783.12016-.13327.11354-.00839-.00912.03638-.05685.08851-.14433a.91739.91739,0,0,0,.08041-.76064C35.85892,25.97812,35.825,25.92215,35.83508,25.91493Z"/><g class="cls-9"><g class="cls-10"><path d="M35.937,26.77469a1.3707,1.3707,0,0,1-1.00644.4586.69179.69179,0,0,0,.5206.36009.53432.53432,0,0,0,.48584-.81869Z"/></g></g><g class="cls-9"><g class="cls-10"><path d="M31.22331,28.07205a1.2018,1.2018,0,0,0-.55314-.32205c-.76743-.277-1.59494-.7511-2.36235-1.02811a16.23724,16.23724,0,0,0,2.261,1.83322c.19395.116.4474.22635.63135.095A.41436.41436,0,0,0,31.22331,28.07205Z"/></g></g><g class="cls-9"><g class="cls-10"><path d="M37.579,29.45178a3.53578,3.53578,0,0,0-1.28918-2.38812,8.74235,8.74235,0,0,1,.98257,2.27988,6.63314,6.63314,0,0,1-.03665,2.369l.08615.44785A6.71844,6.71844,0,0,0,37.579,29.45178Z"/></g></g><path class="cls-7" d="M30.80905,28.70993a.446.446,0,0,1-.11914-.05847c-.07437-.04154-.17923-.106-.30646-.18955a9.31344,9.31344,0,0,1-1.7958-1.55088c-.10105-.1137-.18012-.2081-.2321-.27555a.45054.45054,0,0,1-.07512-.10927,4.151,4.151,0,0,1,.34683.34784c.211.21723.5097.51.85887.81191.34947.30147.6826.55432.92824.73149A4.12538,4.12538,0,0,1,30.80905,28.70993Z"/><path class="cls-6" d="M9.24614,30.94476a1.70313,1.70313,0,0,0-.15567.33991,1.78765,1.78765,0,0,0-.221-.637,3.84673,3.84673,0,0,0-.71735-.82529l-.02445-.02283a2.46088,2.46088,0,0,0-.10794,1.27255,1.66408,1.66408,0,0,0,.0748.24094q-.11154-.04284-.22546-.07938a8.478,8.478,0,0,0-1.78064-.223A4.53076,4.53076,0,0,0,7.53059,32.344c.0349.02018.07025.03946.10574.05848a1.71037,1.71037,0,0,0-.29484.13638,3.85385,3.85385,0,0,0-.82559.71689l-.02283.02444a2.4606,2.4606,0,0,0,1.27227.10751,1.71475,1.71475,0,0,0,.51412-.2106,1.67874,1.67874,0,0,0-.09514.26245,2.27874,2.27874,0,0,0,.01119,1.0817l.02018-.02005a3.69725,3.69725,0,0,0,.59924-.72147,1.94259,1.94259,0,0,0,.24874-.857,5.58425,5.58425,0,0,0-.01664-.58936v0a5.59851,5.59851,0,0,0,.43621-.3966,1.94391,1.94391,0,0,0,.44535-.77347,3.70182,3.70182,0,0,0,.10426-.93207l.00059-.02841A2.27757,2.27757,0,0,0,9.24614,30.94476Z"/><path class="cls-7" d="M10.20708,32.71286c-.00634.01767-.64991-.19632-1.43721-.47787-.78745-.28159-1.42056-.5243-1.41423-.542.00634-.01782.64975.19617,1.43721.47788C9.58015,32.45248,10.21341,32.69519,10.20708,32.71286Z"/><path class="cls-7" d="M8.69637,32.17694c.00957.01621-.10515.10193-.25625.19147a.77358.77358,0,0,1-.29086.133c-.00972-.0162.105-.10189.2561-.19159A.77117.77117,0,0,1,8.69637,32.17694Z"/><path class="cls-7" d="M8.38354,32.09442c-.01914.00223-.04579-.09881-.0829-.22015-.03638-.12165-.07026-.22046-.05317-.22916.0162-.0087.07982.08115.11841.20941C8.4049,31.98251,8.40181,32.09253,8.38354,32.09442Z"/><path class="cls-6" d="M50.67242,13.95815a1.45522,1.45522,0,0,0,.12915.29307,1.53021,1.53021,0,0,0-.53369-.22092,3.292,3.292,0,0,0-.93676-.01045l-.02845.00266a2.10638,2.10638,0,0,0,.7533.79333,1.43382,1.43382,0,0,0,.1969.08925q-.091.04706-.17908.09926a7.2659,7.2659,0,0,0-1.15637,1.01321,3.88046,3.88046,0,0,0,1.67462-.16464c.03269-.01076.06522-.02238.09763-.03445a1.46985,1.46985,0,0,0-.08057.26655,3.29678,3.29678,0,0,0-.01074.93663l.00265.02843a2.10784,2.10784,0,0,0,.79291-.75343,1.46933,1.46933,0,0,0,.15772-.449,1.458,1.458,0,0,0,.114.21029,1.95248,1.95248,0,0,0,.69894.60852l-.00131-.0243a3.16963,3.16963,0,0,0-.12091-.79451,1.66279,1.66279,0,0,0-.4072-.647,4.76169,4.76169,0,0,0-.3869-.32474v0a4.78106,4.78106,0,0,0-.00558-.50513,1.66629,1.66629,0,0,0-.24182-.72531,3.1692,3.1692,0,0,0-.53754-.59732l-.01782-.01649A1.9517,1.9517,0,0,0,50.67242,13.95815Z"/><path class="cls-7" d="M52.35144,14.34906c.00766.01414-.49557.30441-1.124.64828-.62854.344-1.14429.61118-1.15192.597-.00781-.014.49542-.30426,1.124-.64829C51.82788,14.60222,52.34363,14.33493,52.35144,14.34906Z"/><path class="cls-7" d="M51.14853,15.01143a1.29016,1.29016,0,0,1-.10367.535,1.28355,1.28355,0,0,1,.10367-.535Z"/><path class="cls-7" d="M50.91763,15.16461c-.00955.0134-.08938-.027-.1882-.07231-.09851-.04581-.18115-.08041-.177-.09631.00369-.01532.0975-.005.20148.04329C50.85815,15.08714,50.92676,15.15179,50.91763,15.16461Z"/><path class="cls-8" d="M44.27618,24.535a1.92831,1.92831,0,0,0,1.92173-2.17533S44.07956,22.584,44.27618,24.535Z"/><path class="cls-7" d="M46.598,21.85747a11.98028,11.98028,0,0,1-.8331,1.00747,11.96055,11.96055,0,0,1-.887.96035,11.94616,11.94616,0,0,1,.8331-1.00748A11.98974,11.98974,0,0,1,46.598,21.85747Z"/><path class="cls-7" d="M44.84012,23.36644c-.00369-.01944.10794-.05728.24945-.08453.14169-.02739.25949-.03373.26318-.01444.00385.01944-.10794.0573-.24948.08469C44.96161,23.37939,44.84393,23.38588,44.84012,23.36644Z"/><path class="cls-7" d="M45.80484,22.7493a.58152.58152,0,0,1,.02063.28232c-.00839.15478-.03122.27937-.051.27835a.58056.58056,0,0,1-.02063-.28232C45.76227,22.87286,45.7851,22.74828,45.80484,22.7493Z"/><path class="cls-8" d="M23.35693,25.2402a1.92821,1.92821,0,0,0,2.9021-.05169S24.66293,23.7778,23.35693,25.2402Z"/><path class="cls-7" d="M26.89951,25.14459a12.00953,12.00953,0,0,1-1.30556.066,11.98343,11.98343,0,0,1-1.30747-.0056,11.91649,11.91649,0,0,1,1.3057-.066A11.88636,11.88636,0,0,1,26.89951,25.14459Z"/><path class="cls-7" d="M24.59943,24.8671c.01178-.0159.11515.04095.23091.1268.11575.086.2.16862.18821.18438-.01178.0159-.11517-.04094-.23092-.1268C24.67188,24.96548,24.58765,24.883,24.59943,24.8671Z"/><path class="cls-7" d="M25.706,25.162c.01252.01516-.07437.10736-.19424.20575s-.22723.16568-.23976.15036.07452-.10736.1944-.20574C25.58615,25.214,25.69351,25.14668,25.706,25.162Z"/><path class="cls-8" d="M44.55115,34.95166a1.4208,1.4208,0,0,0,.57171-2.06076A1.51191,1.51191,0,0,0,44.55115,34.95166Z"/><path class="cls-7" d="M45.22592,32.42935a8.83352,8.83352,0,0,1-.227.93607,8.76386,8.76386,0,0,1-.278.92218,8.83092,8.83092,0,0,1,.22708-.936A8.85,8.85,0,0,1,45.22592,32.42935Z"/><path class="cls-7" d="M44.54794,33.99585c-.00866-.01163.05316-.07272.13816-.13651s.161-.106.16964-.09439-.053.07276-.138.13651S44.55679,34.00751,44.54794,33.99585Z"/><path class="cls-7" d="M44.98813,33.27594c.0134-.00574.06021.07513.10455.18027.04447.10531.06952.19528.05609.20086s-.06021-.0751-.1047-.18039C44.99976,33.37152,44.9747,33.28156,44.98813,33.27594Z"/><path class="cls-8" d="M9.06409,20.15076a1.59217,1.59217,0,0,0,1.586,1.79683S10.68273,20.189,9.06409,20.15076Z"/><path class="cls-7" d="M11.02058,22.32677a9.85839,9.85839,0,0,1-.74032-.78554,9.89214,9.89214,0,0,1-.69629-.82486,9.86119,9.86119,0,0,1,.74033.78555A9.83675,9.83675,0,0,1,11.02058,22.32677Z"/><path class="cls-7" d="M9.96378,20.73224c.01635-.00119.03593.09425.04388.21309.008.1187.00118.21589-.01517.21708-.01635.001-.03593-.0944-.04388-.21325C9.9408,20.83046,9.94758,20.73326,9.96378,20.73224Z"/><path class="cls-7" d="M10.3708,21.58586a.48117.48117,0,0,1-.23343-.01208c-.12591-.02268-.22576-.05419-.22281-.07024a.481.481,0,0,1,.23342.01207C10.2739,21.53828,10.37375,21.56966,10.3708,21.58586Z"/><path class="cls-8" d="M14.44569,42.16269a2.26167,2.26167,0,0,0,3.329-.7128S15.61987,40.1853,14.44569,42.16269Z"/><path class="cls-7" d="M18.50191,41.25513c.00294.01355-.66492.17172-1.49155.3533-.82707.18158-1.49965.318-1.50259.30441-.003-.01343.66478-.17157,1.49183-.3533C17.82623,41.37793,18.499,41.24173,18.50191,41.25513Z"/><path class="cls-7" d="M15.7919,41.45352a1.8873,1.8873,0,0,1,.5527.26392,1.889,1.889,0,0,1-.5527-.26392Z"/><path class="cls-7" d="M17.13219,41.54367a2.17651,2.17651,0,0,1-.41944.50766,2.1853,2.1853,0,0,1,.41944-.50766Z"/><path class="cls-6" d="M16.47388,30.30316A1.49783,1.49783,0,0,0,18.43536,31.415,1.594,1.594,0,0,0,16.47388,30.30316Z"/><path class="cls-7" d="M18.881,31.63879c-.00442.008-.40455-.20764-.89378-.48156s-.88214-.50251-.87773-.51044c.00457-.008.40471.20764.89393.48157C18.49248,31.40228,18.88554,31.63071,18.881,31.63879Z"/><path class="cls-7" d="M17.45233,30.54443a1.24675,1.24675,0,0,1,.15729.3739.63949.63949,0,0,1-.09381-.18054A.63209.63209,0,0,1,17.45233,30.54443Z"/><path class="cls-7" d="M18.076,31.17892a1.43918,1.43918,0,0,1-.43106.06672,1.452,1.452,0,0,1,.43106-.06672Z"/><path class="cls-6" d="M54.70184,25.24532a1.51615,1.51615,0,0,0,.52414-2.22127A1.61349,1.61349,0,0,0,54.70184,25.24532Z"/><path class="cls-7" d="M55.31683,22.52779c.00913.00206-.08688.4521-.21444,1.005-.12738.55314-.238.99966-.24695.9976s.08688-.452.21441-1.00511C55.19724,22.97238,55.30783,22.52573,55.31683,22.52779Z"/><path class="cls-7" d="M54.65887,24.22644a1.26995,1.26995,0,0,1,.31855-.2589,1.26069,1.26069,0,0,1-.31855.2589Z"/><path class="cls-7" d="M55.0983,23.4406a1.45678,1.45678,0,0,1,.18719.39982,1.46614,1.46614,0,0,1-.18719-.39982Z"/></svg>