<svg id="Layer_1" data-name="Layer 1" xmlns="http://www.w3.org/2000/svg" viewBox="0 0 60 60"><defs><style>.cls-1{fill:#102048;}.cls-2{fill:#fff;}.cls-3{fill:#f9b384;}.cls-4{fill:#464646;}.cls-5{fill:#e28b6d;}.cls-6{fill:#00ac71;}.cls-7{fill:#eb5d60;opacity:0.4;}.cls-8{fill:#d3dfff;}.cls-9{fill:#1f3c88;}</style></defs><path class="cls-1" d="M17.62341,56.127l.69953,2.69678a1.54511,1.54511,0,0,0,1.6148,1.12744c2.29358-.156,7.05921-.71777,9.79438-2.73388l-.77753-3.88648a27.74473,27.74473,0,0,0-10.323,1.02173A1.48963,1.48963,0,0,0,17.62341,56.127Z"/><path class="cls-2" d="M22.00659,58.2738a.09094.09094,0,0,1-.08752-.06665l-.93921-3.36291a.09091.09091,0,1,1,.17511-.04895l.93915,3.36316a.09089.09089,0,0,1-.06305.11206A.09435.09435,0,0,1,22.00659,58.2738Z"/><path class="cls-2" d="M24.03662,57.81909a.09082.09082,0,0,1-.08758-.06665l-.93915-3.36279a.09087.09087,0,1,1,.17505-.04883l.93921,3.363a.091.091,0,0,1-.06311.11206A.0937.0937,0,0,1,24.03662,57.81909Z"/><polygon points="26.394 41.549 17.654 44.143 24.145 53.038 33.464 53.779 46.318 48.344 41.433 40.994 26.394 41.549"/><path d="M37.17,42.78467c19.195-5.68238,22.28,11.28235-7.66943,14.37048a14.4897,14.4897,0,0,1-2.785-4.9823L42.53143,44.864Z"/><path class="cls-3" d="M37.98529,54.94275a8.31,8.31,0,0,1-1.75787-.85547l-3.085.96765.707,3.35584,3.20477.65124A6.88976,6.88976,0,0,0,37.98529,54.94275Z"/><path class="cls-4" d="M26.78406,52.29053l-.137-.2356c3.29944-1.91772,11.751-6.52417,18.95154-7.883l.05054.26806C38.49,45.79077,30.07135,50.38013,26.78406,52.29053Z"/><path d="M26.3941,41.54907C8.52734,38.15186,3.9,55.32251,33.8493,58.41064a10.87955,10.87955,0,0,0,2.37806-4.32348,136.3085,136.3085,0,0,0-15.38178-8.791Z"/><path class="cls-4" d="M36.15414,54.20215c-.85-.54077-1.73553-1.11267-2.67315-1.718-4.70655-3.03906-10.0412-6.48328-14.57355-8.44739l.10852-.25c4.55292,1.9729,9.89752,5.42371,14.613,8.46814.93719.60523,1.82238,1.17688,2.67163,1.71729Z"/><path class="cls-1" d="M46.89606,53.94336c-2.28919-1.41419-6.727,1.02942-7.84082,1.15283a2.68164,2.68164,0,0,1-1.06995-.1532,6.8896,6.8896,0,0,1-.93121,4.11914l.54443.1106a16.02605,16.02605,0,0,0,7.75513.57654A3.22691,3.22691,0,0,0,46.89606,53.94336Z"/><path class="cls-2" d="M43.77576,58.569a.086.086,0,0,1-.02747-.00427.09068.09068,0,0,1-.05933-.11377,4.65726,4.65726,0,0,0-.39709-3.693.09088.09088,0,0,1,.14941-.10351,4.85326,4.85326,0,0,1,.42115,3.8512A.09113.09113,0,0,1,43.77576,58.569Z"/><path class="cls-2" d="M41.98053,58.90979a.10117.10117,0,0,1-.02734-.00415.09118.09118,0,0,1-.05945-.11414,4.65737,4.65737,0,0,0-.39685-3.69311.09083.09083,0,0,1,.14929-.10352,4.85392,4.85392,0,0,1,.4209,3.85132A.09094.09094,0,0,1,41.98053,58.90979Z"/><path class="cls-3" d="M23.23315,19.41028s4.49976-3.82642,4.33307-4.55347c-.11908-.51965-1.39361.24256-1.39361.24256s1.78753-2.1211,1.69665-2.37854c-.16241-.46033-1.3988.3977-1.3988.3977s.83563-1.20276.43616-1.3988c-.39954-.19593-1.27045.54516-1.27045.54516s.50885-.66772.26984-.84289c-.23914-.1753-1.27051.54516-1.27051.54516s.37-.842-.41626-.52282c-.78626.31933-6.2995,5.37878-6.2995,5.37878Z"/><path class="cls-5" d="M25.07422,14.87183a.09067.09067,0,0,1-.06134-.02393,4.128,4.128,0,0,0-1.96509-1.13916.09082.09082,0,0,1,.05353-.17358,4.27329,4.27329,0,0,1,2.03424,1.17871.09085.09085,0,0,1-.06134.158Z"/><path class="cls-5" d="M23.71857,16.94739l-.0127-.0011a.09078.09078,0,0,1-.07745-.10254A1.52488,1.52488,0,0,1,24.2373,15.635a1.1793,1.1793,0,0,1,1.06226.04724.09081.09081,0,1,1-.072.16675,1.01471,1.01471,0,0,0-.90118-.05542,1.389,1.389,0,0,0-.51807,1.07544A.09082.09082,0,0,1,23.71857,16.94739Z"/><path class="cls-5" d="M23.50635,13.12231a.09081.09081,0,0,1-.06232-.15686l1.129-1.06445a.091.091,0,0,1,.12469.13245l-1.129,1.06408A.091.091,0,0,1,23.50635,13.12231Z"/><path class="cls-5" d="M24.55151,13.4856a.0907.0907,0,0,1-.06555-.15369l1.08454-1.13a.0908.0908,0,1,1,.13116.12561l-1.08453,1.13A.091.091,0,0,1,24.55151,13.4856Z"/><path class="cls-5" d="M25.61957,14.122a.09092.09092,0,0,1-.06647-.153l.85089-.91259a.09093.09093,0,1,1,.133.124l-.85083.91272A.09179.09179,0,0,1,25.61957,14.122Z"/><path class="cls-6" d="M40.23083,45.00281l-16.45178.63635L21.96118,30.64172s5.50769-5.22424,7.62659-7.14782l3.57727-.18348C44.26367,28.3551,42.44617,34.65613,40.23083,45.00281Z"/><path class="cls-6" d="M33.1651,23.31042s12.69763,1.08582,16.70062,9.78541c3.91693,8.51232-12.17987,11.54345-12.17987,11.54345Z"/><path class="cls-6" d="M18.65094,25.17468l5.247-6.38525-4.90662-2.97376A63.984,63.984,0,0,0,9.6322,24.11255a6.92931,6.92931,0,0,0-1.60992,2.78308,5.989,5.989,0,0,0-.154,2.613,5.04505,5.04505,0,0,0,4.45819,4.22351c1.999.23388,9.6347-.36365,15.81549-2.18164L29.9599,24.5343C29.0257,24.00427,22.08307,23.91235,18.65094,25.17468Z"/><path class="cls-3" d="M34.32709,19.97607l-.00226.23279L34.288,23.82507l-.00463.3916a2.25185,2.25185,0,0,1-4.50348-.00231l-.04383-4.46875Z"/><path class="cls-1" d="M34.32483,20.20874,34.288,23.82483a5.72852,5.72852,0,0,1-2.83715-2.994Z"/><path class="cls-3" d="M35.11993,13.89868c.72022.86414,2.82337,5.7616.69141,7.43262-2.39893,1.88025-6.04993-1.21008-6.04993-1.21008l-.48974-5.704,3.16906-.83557Z"/><path d="M27.65723,13.58423s-7.02912,3.66589-1.29773,14.23364a2.846,2.846,0,1,0,5.01184-2.69421c-.93756-1.66541-1.84241-3.81006-1.4563-5.40589Z"/><path class="cls-6" d="M26.97646,13.97508a1.90144,1.90144,0,1,1-.41217.61686A1.88348,1.88348,0,0,1,26.97646,13.97508Z"/><path d="M30.66,17.60425c-.20544-1.18616-.33062-1.99976.86823-2.61109,0,0,4.2254.76819,5.0321-.8258.80658-1.59412-.42254-4.11023-2.99609-2.36231-6.58777-1.287-7.47125,4.87818-5.47382,6.93323l1.97144-.30249A.71779.71779,0,0,0,30.66,17.60425Z"/><path class="cls-1" d="M33.93159,17.32666a.28087.28087,0,1,1-.19863.08227A.27064.27064,0,0,1,33.93159,17.32666Z"/><path class="cls-1" d="M35.833,16.39038a.28089.28089,0,1,1-.19863.08227A.27064.27064,0,0,1,35.833,16.39038Z"/><path class="cls-1" d="M35.63849,18.47229a.07966.07966,0,0,1-.05762-.1344c.11255-.11865.236-.2854.18421-.40613-.05384-.12549-.28162-.17968-.38587-.17968-.22412,0-.33166-.39881-.35095-.47876a.07948.07948,0,1,1,.15454-.03724c.041.16846.13355.35682.19641.35682.1073,0,.4353.05053.532.276.0691.16089-.00317.35571-.215.57849A.07979.07979,0,0,1,35.63849,18.47229Z"/><path class="cls-1" d="M35.65289,19.53821a.07955.07955,0,0,1-.04437-.01367,1.06388,1.06388,0,0,0-1.06818-.05469.07948.07948,0,1,1-.0794-.1377,1.21,1.21,0,0,1,1.23663.06055.07964.07964,0,0,1-.04468.14551Z"/><path class="cls-1" d="M33.80847,16.39111c.15985.30054-.11859.36084-.44488.53418-.32618.17359-.66028.23706-.73645.09351-.0763-.14331.12634-.40039.45263-.57373C33.40607,16.272,33.68481,16.1582,33.80847,16.39111Z"/><path class="cls-1" d="M34.99835,15.84814c.07031.26844.27063.15076.56183.07447.2912-.07593.52631-.22254.49292-.35047-.03357-.128-.29675-.16992-.58795-.094C35.174,15.55444,34.94415,15.64014,34.99835,15.84814Z"/><path class="cls-7" d="M32.07363,18.30956a.82826.82826,0,1,1-.266.57539A.798.798,0,0,1,32.07363,18.30956Z"/><path class="cls-3" d="M28.48061,18.1427a.99667.99667,0,0,1,.33908-.28056,1.11321,1.11321,0,0,1,.44109-.11929,1.28611,1.28611,0,0,1,.476.06014,1.43614,1.43614,0,0,1,.77238.596,1.28618,1.28618,0,0,1,.17884.44516,1.11345,1.11345,0,0,1-.00358.45693.998.998,0,0,1-.52452.67969,1.11325,1.11325,0,0,1-.4411.11929,1.28608,1.28608,0,0,1-.476-.06014,1.43614,1.43614,0,0,1-.77238-.59605,1.28618,1.28618,0,0,1-.17884-.44516,1.11328,1.11328,0,0,1,.00358-.45693A.99663.99663,0,0,1,28.48061,18.1427Z"/><path class="cls-1" d="M29.9826,19.337a.07933.07933,0,0,1-.07952-.07947.6971.6971,0,0,0-.30616-.58069.561.561,0,0,0-.52276-.06958.07954.07954,0,0,1-.06-.14734.71977.71977,0,0,1,.67145.08484.85565.85565,0,0,1,.37646.71277A.07932.07932,0,0,1,29.9826,19.337Z"/><rect class="cls-1" x="15.10166" y="26.63554" width="4.22799" height="0.18181" transform="translate(-14.09598 21.22525) rotate(-47.24797)"/><path class="cls-1" d="M38.8031,38.45459l-.053-.17371a10.84458,10.84458,0,0,0,5.95453-3.69653l.142.1134A11,11,0,0,1,38.8031,38.45459Z"/><path class="cls-8" d="M40.07336,31.41516H22.30042a1.20761,1.20761,0,0,0-1.15729,1.25208V45.35645a1.20757,1.20757,0,0,0,1.15729,1.25219H40.07336a1.20757,1.20757,0,0,0,1.15729-1.25219V32.66724A1.20762,1.20762,0,0,0,40.07336,31.41516Z"/><path class="cls-9" d="M32.12512,37.84644H30.24866a.4914.4914,0,0,0-.48572.49585v1.33984a.49156.49156,0,0,0,.48572.49585h1.87646a.49158.49158,0,0,0,.48584-.49585V38.34229A.49142.49142,0,0,0,32.12512,37.84644Zm0,.36377a.12733.12733,0,0,1,.12219.13208v1.33984a.12733.12733,0,0,1-.12219.13208H30.24866a.12728.12728,0,0,1-.12207-.13208V38.34229a.12728.12728,0,0,1,.12207-.13208h1.87646"/><path class="cls-1" d="M19.67152,14.23024a1.57064,1.57064,0,1,1,.303.53267A1.55564,1.55564,0,0,1,19.67152,14.23024Z"/><path class="cls-1" d="M23.0504,16.01741a.84814.84814,0,0,1,.05024-.675.89416.89416,0,0,1,1.194-.39687.879.879,0,0,1,.39406,1.18555.89416.89416,0,0,1-1.194.39686A.84814.84814,0,0,1,23.0504,16.01741Z"/><path class="cls-1" d="M10.93947,3.28825a6.18409,6.18409,0,1,1-.99759.68883A6.16922,6.16922,0,0,1,10.93947,3.28825Z"/><path class="cls-2" d="M12.69831,11.9334a.86844.86844,0,0,1,.3112-.67457,1.18271,1.18271,0,0,1,1.49388.02607.92173.92173,0,0,1-.02373,1.3596,1.18269,1.18269,0,0,1-1.49388-.02608A.86843.86843,0,0,1,12.69831,11.9334Zm.25909-1.69688a3.6422,3.6422,0,0,1,.20714-1.28644,2.01736,2.01736,0,0,1,.613-.80922,3.9812,3.9812,0,0,0,.64053-.624,1.03679,1.03679,0,0,0,.22649-.63128q.01475-.84485-.71261-.85755a.67493.67493,0,0,0-.547.23671,1.04713,1.04713,0,0,0-.22983.662l-1.89113-.033a2.25623,2.25623,0,0,1,.7354-1.73055,2.81107,2.81107,0,0,1,1.958-.58986,2.92022,2.92022,0,0,1,1.923.61,2.023,2.023,0,0,1,.65678,1.65131,1.90984,1.90984,0,0,1-.19938.84163,2.85579,2.85579,0,0,1-.60665.76736l-.65388.58744a1.51388,1.51388,0,0,0-.38989.53328,2.14007,2.14007,0,0,0-.12975.70013Z"/><rect class="cls-1" x="7.91797" y="59.8501" width="44.16329" height="0.14984"/></svg>