<svg id="Layer_1" data-name="Layer 1" xmlns="http://www.w3.org/2000/svg" viewBox="0 0 73 73"><defs><style>.cls-1{fill:#fff;}.cls-2,.cls-3{fill:none;stroke-width:2.6px;}.cls-2{stroke:#fff;stroke-linejoin:round;}.cls-3{stroke:#00ac71;stroke-linecap:round;stroke-miterlimit:10;}</style></defs><path class="cls-1" d="M36.2998,1.3q1.71945,0,3.4306.16854t3.39756.504q1.6864.33544,3.33181.83458t3.234,1.15713q1.58856.658,3.105,1.46853t2.94607,1.76581q1.42968.95528,2.75882,2.04607t2.545,2.30663q1.21582,1.21582,2.30662,2.545t2.04607,2.7588q.95528,1.42967,1.76582,2.94608t1.46853,3.105q.658,1.58856,1.15714,3.234t.83456,3.3318q.33546,1.68641.504,3.39756T71.2998,36.3q0,1.71945-.16852,3.4306t-.504,3.39756q-.33543,1.6864-.83456,3.3318t-1.15714,3.234q-.658,1.58856-1.46853,3.105T65.40123,55.745q-.95526,1.42968-2.04607,2.75882t-2.30662,2.545q-1.21582,1.21583-2.545,2.30662t-2.75881,2.04607q-1.42966.95528-2.94608,1.76581t-3.105,1.46854q-1.58854.658-3.23395,1.15714t-3.33181.83456q-1.68639.33546-3.39756.504T36.2998,71.3q-1.71943,0-3.43059-.16852t-3.39757-.504q-1.68639-.33545-3.3318-.83456t-3.234-1.15714q-1.58854-.658-3.105-1.46854t-2.94608-1.76581q-1.42965-.95526-2.7588-2.04607t-2.545-2.30662q-1.21584-1.21583-2.30663-2.545T7.19837,55.745q-.95527-1.42967-1.76581-2.94608T3.964,49.69392q-.658-1.58856-1.15713-3.234t-.83457-3.3318q-.33544-1.68641-.504-3.39756T1.2998,36.3q0-1.71944.16854-3.4306t.504-3.39756q.33544-1.68639.83457-3.3318t1.15713-3.234q.658-1.58854,1.46854-3.105T7.19837,16.855q.95526-1.42966,2.04607-2.75881t2.30663-2.545q1.21583-1.21583,2.545-2.30663t2.7588-2.04607q1.42967-.95528,2.94608-1.76581t3.105-1.46853q1.58856-.658,3.234-1.15713t3.3318-.83458q1.68641-.33544,3.39757-.504T36.2998,1.3Z"/><path class="cls-2" d="M36.2998,1.3q1.71945,0,3.4306.16854t3.39756.504q1.6864.33544,3.33181.83458t3.234,1.15713q1.58856.658,3.105,1.46853t2.94607,1.76581q1.42968.95528,2.75882,2.04607t2.545,2.30663q1.21582,1.21582,2.30662,2.545t2.04607,2.7588q.95528,1.42967,1.76582,2.94608t1.46853,3.105q.658,1.58856,1.15714,3.234t.83456,3.3318q.33546,1.68641.504,3.39756T71.2998,36.3q0,1.71945-.16852,3.4306t-.504,3.39756q-.33543,1.6864-.83456,3.3318t-1.15714,3.234q-.658,1.58856-1.46853,3.105T65.40123,55.745q-.95526,1.42968-2.04607,2.75882t-2.30662,2.545q-1.21582,1.21583-2.545,2.30662t-2.75881,2.04607q-1.42966.95528-2.94608,1.76581t-3.105,1.46854q-1.58854.658-3.23395,1.15714t-3.33181.83456q-1.68639.33546-3.39756.504T36.2998,71.3q-1.71943,0-3.43059-.16852t-3.39757-.504q-1.68639-.33545-3.3318-.83456t-3.234-1.15714q-1.58854-.658-3.105-1.46854t-2.94608-1.76581q-1.42965-.95526-2.7588-2.04607t-2.545-2.30662q-1.21584-1.21583-2.30663-2.545T7.19837,55.745q-.95527-1.42967-1.76581-2.94608T3.964,49.69392q-.658-1.58856-1.15713-3.234t-.83457-3.3318q-.33544-1.68641-.504-3.39756T1.2998,36.3q0-1.71944.16854-3.4306t.504-3.39756q.33544-1.68639.83457-3.3318t1.15713-3.234q.658-1.58854,1.46854-3.105T7.19837,16.855q.95526-1.42966,2.04607-2.75881t2.30663-2.545q1.21583-1.21583,2.545-2.30663t2.7588-2.04607q1.42967-.95528,2.94608-1.76581t3.105-1.46853q1.58856-.658,3.234-1.15713t3.3318-.83458q1.68641-.33544,3.39757-.504T36.2998,1.3Z"/><line class="cls-3" x1="30.87256" y1="46.70909" x2="51.78165" y2="25.8"/><line class="cls-3" x1="21.59961" y1="37.43639" x2="30.87234" y2="46.70911"/></svg>