<svg id="Layer_1" data-name="Layer 1" xmlns="http://www.w3.org/2000/svg" viewBox="0 0 20 19"><defs><style>.cls-1{fill:#ffa700;}.cls-2{fill:none;stroke:#ffa700;stroke-miterlimit:10;stroke-width:2.6px;}</style></defs><path class="cls-1" d="M10.18374,1.63907l2.045,5.08024a.48432.48432,0,0,0,.47358.34442l4.908-.04305a.50059.50059,0,0,1,.30137.90411L13.77866,11.0246a.47091.47091,0,0,0-.17222.55968L15.09177,16.643a.50337.50337,0,0,1-.775.55969l-4.30529-2.94913a.48438.48438,0,0,0-.58122,0L5.125,17.20269a.50259.50259,0,0,1-.775-.55969L5.8354,11.60581a.50132.50132,0,0,0-.17221-.55969L1.53011,7.92479a.50059.50059,0,0,1,.30137-.90411l4.908.04305a.48432.48432,0,0,0,.47358-.34442l2.045-5.08024A.48538.48538,0,0,1,10.18374,1.63907Z"/><path class="cls-2" d="M10.18374,1.63907l2.045,5.08024a.48432.48432,0,0,0,.47358.34442l4.908-.04305a.50059.50059,0,0,1,.30137.90411L13.77866,11.0246a.47091.47091,0,0,0-.17222.55968L15.09177,16.643a.50337.50337,0,0,1-.775.55969l-4.30529-2.94913a.48438.48438,0,0,0-.58122,0L5.125,17.20269a.50259.50259,0,0,1-.775-.55969L5.8354,11.60581a.50132.50132,0,0,0-.17221-.55969L1.53011,7.92479a.50059.50059,0,0,1,.30137-.90411l4.908.04305a.48432.48432,0,0,0,.47358-.34442l2.045-5.08024A.48538.48538,0,0,1,10.18374,1.63907Z"/></svg>