<svg id="Layer_1" data-name="Layer 1" xmlns="http://www.w3.org/2000/svg" xmlns:xlink="http://www.w3.org/1999/xlink" viewBox="0 0 60 60"><defs><style>.cls-1{fill:none;}.cls-2{fill:#500000;}.cls-16,.cls-17,.cls-2,.cls-3,.cls-6,.cls-7,.cls-8{fill-rule:evenodd;}.cls-3{fill:#a7e5ec;}.cls-4,.cls-7{fill:#ffb5b5;}.cls-5,.cls-6{fill:#00ac71;}.cls-9{clip-path:url(#clip-path);}.cls-10{isolation:isolate;}.cls-11{clip-path:url(#clip-path-2);}.cls-12{fill:#eceeee;}.cls-13{clip-path:url(#clip-path-3);}.cls-14{clip-path:url(#clip-path-4);}.cls-15,.cls-17{fill:#d3dfff;}.cls-16{fill:#bcceff;}.cls-18{fill:#fff;}.cls-19{fill:#a7a7a7;}</style><clipPath id="clip-path"><path class="cls-1" d="M35.98755,58.396c.03857-.13892.27563-.9563-.498-.31311a4.67128,4.67128,0,0,1-3.49682.7594c-.80933-.1355-.95093-.12049-1.39258.13952-.30591.18018-.17017.5304-.27173.76477,4.96753.70044,7.1123-.25805,7.34912-.39917-.05566-.74365-.38818-.70434-.25024-1.03528C37.32129,58.1228,36.33789,58.28516,35.98755,58.396Z"/></clipPath><clipPath id="clip-path-2"><rect class="cls-1" x="30.25" y="57.25" width="7.5" height="2.75"/></clipPath><clipPath id="clip-path-3"><path class="cls-1" d="M21.01489,58.396c.03809-.13892.27539-.9563-.49853-.31311a4.66951,4.66951,0,0,1-3.49658.7594c-.80933-.1355-.95069-.12049-1.39234.13952-.3064.18018-.17016.5304-.27173.76477,4.96729.70044,7.11231-.25805,7.34912-.39917-.05566-.74365-.38867-.70434-.25048-1.03528C22.34839,58.1228,21.365,58.28516,21.01489,58.396Z"/></clipPath><clipPath id="clip-path-4"><rect class="cls-1" x="15.25" y="57.25" width="7.5" height="2.75"/></clipPath></defs><polygon class="cls-2" points="42.385 37.853 39.055 38.062 39.941 57.708 40.867 57.697 42.385 37.853"/><polygon class="cls-2" points="46.723 36.921 43.38 38.062 44.266 57.708 45.191 57.697 46.723 36.921"/><polygon class="cls-2" points="30.632 37.853 27.303 38.062 28.188 57.708 29.114 57.697 30.632 37.853"/><path class="cls-3" d="M40.10815,13.67786s6.46094-.32434,7.64014,2.35778c1.17944,2.68238.3169,16.65674-.68823,20.68873-.51538,2.06652-2.83643,2.97827-5.34351,3.50292-2.50708.52442-14.02685-.35986-14.02685-.35986s-3.21949-1.46423-.78394-3.36352L37.36328,26.922Z"/><path class="cls-4" d="M43.27319,28.42261s.41944-8.38318.49561-8.99182c.29565-2.35486.47949-4.44495-.6377-5.45984a9.1397,9.1397,0,0,0-2.36792-1.76233,6.76145,6.76145,0,0,0-4.29687.58581c-.89722.54139-1.62744,3.09412-1.98438,4.79248-.45019,2.14258-.71655,8.0647-.71655,8.0647.7876,2.29627,8.17529,4.13794,9.50781,2.771"/><path class="cls-5" d="M36.4978,12.7373s-.99194,1.70313.45728,2.24353c3.45312,1.28821,3.86157-2.88793,3.86157-2.88793.82056.2196,3.22754,1.33874,3.49292,2.83825.646,3.65552.38428,19.09558.38428,19.09558l-13.17261-.74914s.719-11.31726,1.19287-14.68152C33.49268,13.06482,36.4978,12.7373,36.4978,12.7373Z"/><path d="M39.89648,10.741c.8252.50415,1.751-2.02,2.12818-2.75537a2.44547,2.44547,0,0,0,.09692-2.47522,1.813,1.813,0,0,1-.28418-.51514.96453.96453,0,0,1,.09986-.54334C42.33838,3.35815,41.58643,2.051,40.77.93018a2.32274,2.32274,0,0,0-.72339-.68885,2.34766,2.34766,0,0,0-1.156-.24145C36.29.00879,34.88794,1.72705,32.29932,1.78564c-.7566.01685-1.54175-.11523-2.30005-.10449a2.39766,2.39766,0,0,0-1.91382.71363A1.28265,1.28265,0,0,0,28.60107,4.208a2.56977,2.56977,0,0,0,1.46241.16614c-.65577.58239-.38477,1.75439.39673,2.472A4.48678,4.48678,0,0,0,33.3894,7.88892a9.54207,9.54207,0,0,1,2.272.075C36.97974,8.29541,38.71631,10.02039,39.89648,10.741Z"/><path class="cls-4" d="M38.2251,14.60571a2.92008,2.92008,0,0,0,2.46045-2.36865l-.73047-3.06848a1.625,1.625,0,0,0-2.19824-1.09265,2.03852,2.03852,0,0,0-1.22168,2.368l.16381,3.30884C36.81226,14.65137,37.6521,14.68762,38.2251,14.60571Z"/><path class="cls-4" d="M35.23364,12.84436c1.80738,1.62732,3.8999-1.09644,4.66309-2.10315,1.13891-1.50317,1.74512-7.50268-1.19458-8.72168C35.762.7998,32.43945,3.02661,31.63354,4.69482,30.82739,6.36365,33.96289,11.7002,35.23364,12.84436Z"/><path class="cls-4" d="M39.03271,7.11768c-.12988.80993.12208,1.49267.51929,1.5354,1.32984.14209,1.95117-.20142,2.0813-1.01111a1.2571,1.2571,0,0,0-1.08838-1.4917,1.16835,1.16835,0,0,0-1.51221.96741"/><path d="M31.2793,4.32275a4.10327,4.10327,0,0,1,2.18237-1.93994,17.52065,17.52065,0,0,1,2.6626-.87268,8.90453,8.90453,0,0,1,2.72119-.3772c1.7373.10242,2.12524,2.1001,2.10254,3.36268-.01172.6477.59326,1.13354.13721,1.62658a1.864,1.864,0,0,1-.9939.32691c-.37207.04773.69458,1.95788-.05249,2.28735A3.31871,3.31871,0,0,1,38.43066,7.228a12.98449,12.98449,0,0,1-.69238-2.31275c-.10522-.24646-.37182-.66613-.56055-.61914a.81792.81792,0,0,0-.69311.32947c-.20313.19531-.35718.443-.5415.654a5.73629,5.73629,0,0,1-1.08863.99012,3.02542,3.02542,0,0,1-2.77173.45874,1.5485,1.5485,0,0,1-.88525-1.001.14167.14167,0,0,1-.05664-.08814,2.35693,2.35693,0,0,1-.04053-.50317,4.18991,4.18991,0,0,1,.04492-.78271c.00855-.06019.09058-.06495.134-.03077-.01856.04322-.0354.08716-.05127.132l.01953.47693a1.99247,1.99247,0,0,0,.0144.63843l.00977.03442.00415.01514.001.02331c-.00562-.02429-.0105-.04858-.0149-.07287a3.08285,3.08285,0,0,1-.0476-1.07544,2.21254,2.21254,0,0,0-.114.6416,2.4129,2.4129,0,0,0,.09717.59131.18191.18191,0,0,0,.12793.0332c-.0188-.04663-.03565-.09411-.04956-.14111l-.02832-.688a2.13764,2.13764,0,0,1,.051-.25256c.001-.10218.00415-.20362.00708-.30249A.06327.06327,0,0,0,31.2793,4.32275Z"/><path class="cls-6" d="M22.0415,37.78857l15.39161-.25268a15.8037,15.8037,0,0,0,4.833-1.09009,5.68464,5.68464,0,0,0,2.4441-2.417l-.44117-.97193-9.13965-3.51306-13.47314.86829Z"/><path class="cls-7" d="M37.2417,55.2749c.32324-.42871.06079,3.13928-.177,3.56018-.16822.29712-1.77442.65406-1.7024.31726.39307-1.83911-.292-3.15173-.15966-3.50122C35.38135,55.18018,36.927,55.692,37.2417,55.2749Z"/><path class="cls-7" d="M22.269,55.2749c.32349-.42871.06128,3.13928-.17675,3.56018-.16822.29712-1.77466.65406-1.70264.31726.39306-1.83911-.292-3.15173-.15943-3.50122C20.40894,55.18018,21.95435,55.692,22.269,55.2749Z"/><path class="cls-8" d="M35.98755,58.396c.03857-.13892.27563-.9563-.498-.31311a4.67128,4.67128,0,0,1-3.49682.7594c-.80933-.1355-.95093-.12049-1.39258.13952-.30591.18018-.17017.5304-.27173.76477,4.96753.70044,7.1123-.25805,7.34912-.39917-.05566-.74365-.38818-.70434-.25024-1.03528C37.32129,58.1228,36.33789,58.28516,35.98755,58.396Z"/><g class="cls-9"><g class="cls-10"><g class="cls-11"><path class="cls-12" d="M35.31177,59.13452l.34131.05664S35.25366,59.11633,35.31177,59.13452Zm-3.24683.48535a8.89684,8.89684,0,0,0,3.65137-.188,12.018,12.018,0,0,0-1.283-.3236,2.372,2.372,0,0,0-1.16821.10217c-.33106.09888-.49268.1936-.66993.24878C32.41992,59.51392,32.24268,59.5686,32.06494,59.61987Zm4.1814-.35437q.22559-.07965.448-.17517c.49951-.1875,1.19458-.51794,1.22045-.52978.50489-.2461,1.52125.23974-.57543,1.03466-2.58985,1.26612-5.3982.98475-8.05713.27955l-.90625-.31031-.08423-.14465.38647-.033c.41407.07837.823.16455,1.23877.2583l-.508-.29089c-.1294-.14221-.12281-.20752.04394-.34619.32422-.19361.43774.05835.43774.05835a11.24793,11.24793,0,0,0,1.53809.44018c.48071-.10217,2.22-.80676,3.44556-.51221,0,0,.66089.0857,1.00122.17127C36,59.197,36.124,59.23,36.24634,59.2655Z"/></g></g></g><path class="cls-8" d="M21.01489,58.396c.03809-.13892.27539-.9563-.49853-.31311a4.66951,4.66951,0,0,1-3.49658.7594c-.80933-.1355-.95069-.12049-1.39234.13952-.3064.18018-.17016.5304-.27173.76477,4.96729.70044,7.11231-.25805,7.34912-.39917-.05566-.74365-.38867-.70434-.25048-1.03528C22.34839,58.1228,21.365,58.28516,21.01489,58.396Z"/><g class="cls-13"><g class="cls-10"><g class="cls-14"><path class="cls-12" d="M20.33887,59.13452l.34131.05664S20.28076,59.11633,20.33887,59.13452Zm-3.24634.48535a8.89564,8.89564,0,0,0,3.65112-.188,12.05792,12.05792,0,0,0-1.28271-.3236,2.37077,2.37077,0,0,0-1.16822.10217c-.33129.09888-.49267.1936-.67041.24878C17.44678,59.51392,17.27,59.5686,17.09253,59.61987Zm4.18115-.35437q.22523-.07965.448-.17517c.49976-.1875,1.19434-.51794,1.2207-.52978.5044-.2461,1.52124.23974-.57568,1.03466-2.5896,1.26612-5.39844.98475-8.05737.27955l-.9065-.31031-.08374-.14465.38648-.033c.41381.07837.82275.16455,1.23877.2583l-.50782-.29089c-.12988-.14221-.123-.20752.04346-.34619.32446-.19361.438.05835.438.05835a11.24779,11.24779,0,0,0,1.53808.44018c.481-.10217,2.21973-.80676,3.44532-.51221,0,0,.66137.0857,1.00146.17127C21.02759,59.197,21.15112,59.23,21.27368,59.2655Z"/></g></g></g><path class="cls-8" d="M36.01367,29.82227c-1.11963.21411-2.95483,4.69189-2.46484,8.97424.42724,3.735,1.16235,18.56128,1.16235,18.56128l3.39185-.14124s2.02441-16.38171,2.16675-19.70349C40.41187,34.19116,37.13379,29.6084,36.01367,29.82227Z"/><path class="cls-8" d="M21.26953,29.82227c-1.12012.21411-2.95508,4.69189-2.46484,8.97424.42724,3.735,1.12964,18.6925,1.12964,18.6925l2.88842-.08325s2.56031-16.57092,2.70264-19.8927C25.66748,34.19116,22.3894,29.6084,21.26953,29.82227Z"/><path class="cls-6" d="M42.35645,13.514c.84033.01184,3.53808-.56861,4.10717,5.49377.26221,2.79029-.19653,7.42188-2.26269,9.76526-2.27735,2.58313-2.69361.43958-2.342-2.35229.21923-1.7406.04077-3.67481-.43409-7.48377C41.04614,15.90283,41.51733,13.50183,42.35645,13.514Z"/><path class="cls-7" d="M44.47144,30.47925c.40014-.42676,1.999-1.50244-.79786-4.67078-1.28759-1.45825-3.8562-3.43115-6.043-3.51062-2.41065-.0874-1.52515,1.14063.05957,2.29224a21.71254,21.71254,0,0,1,3.58252,3.77661C42.6272,29.99963,44.07153,30.90527,44.47144,30.47925Z"/><path class="cls-6" d="M40.95435,23.415a22.16628,22.16628,0,0,0-.14429-7.72546A2.15416,2.15416,0,0,1,43.969,13.23584c3.81934,1.73535,2.603,9.8197,2.55762,9.82446C45.32373,24.44519,40.95435,23.415,40.95435,23.415Z"/><path class="cls-7" d="M35.41748,22.32227l-.00708-.01795a10.11782,10.11782,0,0,1-.31836-1.05481c-.01733-.17578-.031-.44275-.03418-.46655-.04639-.37195.04932-.3114.06665-.321.376-.207.52979.60059,1.14258,1.23121a3.02382,3.02382,0,0,0,.429.35021c.15357-.0028,1.52613.30774,1.67237.32081.09009.00769,1.26025,2.28869.51221,2.36706a19.638,19.638,0,0,0-3.35279.38257,9.11014,9.11014,0,0,0-1.45849,1.066c-.39893.34314-1.46875,1.47229-1.498,1.35449a.65733.65733,0,0,1,.14282-.45752,9.14691,9.14691,0,0,1,.9707-1.363q.18714-.20417.3733-.40784c.0642-.07019.1831-.21936.1831-.21936s-.14844.11365-.22339.16931c-.14331.10632-.27563.25-.42261.34863-.4331.29-1.54589,1.39868-1.7456,1.47461-.05542.02051-.18652.10974-.21582-.01-.04077-.168.69922-1.06018.91382-1.27759.45117-.45654.92773-.98022,1.04712-1.11084.01465-.01611.12646-.11523.12744-.13928.002-.03808-.13208.05664-.14112.05957-.13232.05017-2.46,1.60095-2.45532,1.49561a1.21987,1.21987,0,0,1,.4021-.64636,8.68559,8.68559,0,0,1,1.446-1.16553c.17065-.12171.342-.23633.50952-.36914.02588-.02075.18652-.10572.18848-.14917.00146-.02722-.11573.06335-.13306.0697-.106.0404-.24292.14441-.363.18957a10.42019,10.42019,0,0,0-1.303.6886c-.16723.09412-.60522.39856-.646.3291-.13062-.2257,1.54077-1.38806,1.87133-1.57373A17.17871,17.17871,0,0,1,35.41748,22.32227Z"/><rect class="cls-15" x="26.71675" y="27.64282" width="13.95853" height="1.2545"/><polygon class="cls-16" points="33.267 28.65 31.646 14.743 15.012 15.809 17.594 28.65 33.267 28.65"/><polygon class="cls-17" points="32.349 28.752 30.727 14.846 14.094 15.912 16.676 28.753 32.349 28.752"/><path class="cls-18" d="M22.81781,20.34568a1.35613,1.35613,0,0,1,.61446-.04782,1.56278,1.56278,0,0,1,.60567.2267,1.87225,1.87225,0,0,1,.50469.4667,2.13971,2.13971,0,0,1,.42611,1.3435,1.87232,1.87232,0,0,1-.14344.67226,1.56274,1.56274,0,0,1-.3643.53434,1.35482,1.35482,0,0,1-1.14416.36289,1.56276,1.56276,0,0,1-.60567-.22669,1.87253,1.87253,0,0,1-.50468-.4667,2.13985,2.13985,0,0,1-.42612-1.3435,1.87259,1.87259,0,0,1,.14344-.67227,1.56274,1.56274,0,0,1,.3643-.53434A1.35606,1.35606,0,0,1,22.81781,20.34568Z"/><rect class="cls-19" x="6.42212" y="28.68262" width="47.15657" height="1.95676"/></svg>