<svg id="Layer_1" data-name="Layer 1" xmlns="http://www.w3.org/2000/svg" viewBox="0 0 60 60"><defs><style>.cls-1{fill:#e0e5fd;}.cls-2{fill:#8798ea;}.cls-3{fill:#abb9fc;}.cls-4{fill:#00744c;}.cls-5{fill:#00ac71;}.cls-6{fill:#35374c;}.cls-7{fill:#282936;opacity:0.5412;}.cls-8,.cls-9{fill:#3b3c52;}.cls-13,.cls-9{opacity:0.3608;}.cls-10{fill:#e3b6a9;}.cls-11{fill:#c2c7f1;}.cls-12{fill:#c26591;opacity:0.5294;}.cls-13{fill:#4e6321;}.cls-14{fill:#3c3b52;}.cls-15{fill:#efc362;}</style></defs><path class="cls-1" d="M46.22655,39.21425a23.62674,23.62674,0,0,1-.85363,6.92245l-.00158.00473c-1.7838,5.91437-6.74359,9.99-18.34145,9.61205-15.74071-.51241-18.6-15.14862-19.92023-28.83327C6.03714,15.81647,9.37531,7.644,19.3958,4.95445a31.31007,31.31007,0,0,1,8.10382-.95456C41.66454,3.99989,46.16687,29.84991,46.22655,39.21425Z"/><path class="cls-2" d="M45.37134,46.14148c-1.7838,5.91435-6.74359,9.98994-18.34145,9.612-15.74071-.51241-18.6-15.14862-19.92023-28.83327C6.03714,15.8165,9.37531,7.64406,19.3958,4.95448c-8.6053,5.24591-10.74265,14.803-7.22542,29.34127C15.686,48.834,24.55922,53.06253,30.30539,53.07166,36.05,53.08237,43.26175,51.20677,45.37134,46.14148Z"/><path class="cls-3" d="M23.51016,17.72339C12.2825,19.72241,17.18068,35.76012,19.6626,40.251c2.48172,4.49092,3.53949,9.809,9.27429,10.04541s13.062-2.36357,13.771-4.25446c.70919-1.891-2.53525-11.74692-2.53525-11.74692s-.44867-9.97467-3.55655-12.5942C33.50821,19.08116,27.23962,17.05952,23.51016,17.72339Z"/><path class="cls-2" d="M38.54333,44.77153c-2.051,3.83354-9.0415,5.18114-11.43688,4.57448a10.16253,10.16253,0,0,1-4.64-3.476c-.9823-1.73062-1.76922-3.74718-2.80365-5.61926a21.91088,21.91088,0,0,1-1.27142-2.859c-.85559-4.11824-.83029-9.0087.778-10.67506,2.18366-2.25969,4.30326-3.85163,4.45526-5.25118.11765-1.09851-1.12832-2.54738-.878-3.57725q.36681-.094.76325-.16394c3.07187-.54715,7.86542.72723,11.19833,2.6576.32053,1.21471.34879,2.8423,1.10306,3.36995,1.15961.808,2.95273,5.87433,3.40735,8.25321C39.67169,34.384,38.54333,44.77153,38.54333,44.77153Z"/><path class="cls-4" d="M53.79321,50.85281c.09061,1.44309,4.265-.39865,4.81742-1.19662,0,0-2.28583,6.56839-3.47559,6.56839-1.18982,0-4.43317-3.421-4.43317-3.421l.38932-1.95075Z"/><path class="cls-5" d="M55.135,56.22443c-1.29492.55557,1.94092-7.612,3.47562-7.42783S56.80722,55.50717,55.135,56.22443Z"/><path class="cls-6" d="M54.289,41.39572a61.46112,61.46112,0,0,1-1.181,9.45755H50.40472a39.32519,39.32519,0,0,1-2.44015-7.14908,16.75864,16.75864,0,0,1-.37952-2.64657,19.82639,19.82639,0,0,1-8.24127.50625,47.957,47.957,0,0,1-5.25046-1.3692c-2.32235-.72513-4.14441-1.41656-4.14441-1.41656l.13761-.17447,2.95569-3.73892,7.95532-1.19629.93176-.14081,5.65576,1.75311C52.60153,35.82242,54.37463,37.17319,54.289,41.39572Z"/><path class="cls-7" d="M47.96454,43.70419a16.76212,16.76212,0,0,1-.37952-2.64657,19.827,19.827,0,0,1-8.24127.50625,47.957,47.957,0,0,1-5.25046-1.3692l-4.00677-1.591-.35037-.13922-.66388-2.76593,8.55651-2.98938,3.36872.95929,5.659,1.61c-1.36779,2.457,1.38462,5.363,1.9888,6.23645.60422.87366,2.32236-.537,3.41156,0C53.14606,42.052,48.83029,41.79489,47.96454,43.70419Z"/><path class="cls-4" d="M49.56088,53.21732c1.243,2.70047,3.08472,3.98962,4.06684,3.5599L53.198,52.29593l-1.77942-.76743Z"/><path class="cls-5" d="M53.62769,56.77719c-2.18735.36463-1.78009-3.86832-1.65741-5.92435s1.84155-1.87191,2.02569-.27575C54.18011,52.173,55.101,56.53162,53.62769,56.77719Z"/><path class="cls-8" d="M51.419,51.52783l-1.85737,1.689c-7.60018-2.19544-12.07513-9.11951-12.07513-9.11951-4.22238,4.89713-8.95114,5.99548-12.75589,0a6.99817,6.99817,0,0,1,3.32587-4.7196,11.26608,11.26608,0,0,1,2.13717-1.10608c3.29993-1.30652,7.68918-1.56052,10.39386-1.57578a4.99468,4.99468,0,0,1,4.10315,2.1189,58.69359,58.69359,0,0,1,4.29731,7.43045C50.4505,49.18723,51.419,51.52783,51.419,51.52783Z"/><path class="cls-7" d="M51.419,51.528l-1.85737,1.689C41.9614,51.02158,37.48645,44.0975,37.48645,44.0975c-4.22238,4.89713-8.95114,5.99549-12.75589,0a6.99819,6.99819,0,0,1,3.32587-4.7196l3.18515-.589c-3.71753,7.30038,5.21991,5.59772,6.83239,4.26679,1.61249-1.33249,3.13471-2.66657,3.85529-2.74.72058-.07355-3.07959,2.73382-.39935,5.92962,2.67871,3.19739,8.86093,5.18936,7.458,0C50.4505,49.18738,51.419,51.528,51.419,51.528Z"/><path d="M32.89542,15.16769H32.7822s-1.12607,4.30959-3.04609,5.91593a2.4515,2.4515,0,0,1-1.11358.56451c-2.59006.47888-4.84674-2.47224-5.27347-4.49617a2.22235,2.22235,0,0,1,.59961-2.21686,2.129,2.129,0,0,1,.65475-.43287s.16993-3.19283,1.28214-3.13474c1.06937.05512.89032.47887.87662.511.06881-.0918,2.39572-3.18509,3.99591-2.8486,1.62475.34265.485,2.73539.485,2.73539s2.05149-2.07907,2.73539-.88278c.68386,1.19646-1.33863,2.64972-1.33863,2.64972s1.73795-.02756,1.9093.59981C34.7189,14.75763,34.4635,15.35744,32.89542,15.16769Z"/><path d="M29.73611,21.08382a2.45176,2.45176,0,0,1-1.11358.56454c-2.59006.47885-4.84674-2.47227-5.27347-4.4962a2.22231,2.22231,0,0,1,.59961-2.21684c.38568.50026.90121,1.504,2.07767.23259h.54608Z"/><path class="cls-5" d="M36.616,33.904,24.7887,44.8685a12.16706,12.16706,0,0,1-1.5084-1.61861h-.00161A11.77039,11.77039,0,0,1,21.48718,39.95a14.70016,14.70016,0,0,1-.66229-2.67114,30.00576,30.00576,0,0,1-.1485-6.40709c.30753-5.05157,1.83435-8.42487,7.89862-8.51054a7.45912,7.45912,0,0,1,4.83744.33195c1.61859.87048,2.67269,7.30811,3.049,10.016C36.564,33.44336,36.616,33.904,36.616,33.904Z"/><path class="cls-9" d="M34.097,28.9104c-6.22629,2.33517-8.804-2.19351-8.804-2.19351l-2.01322,7.23685,4.30805,1.32757,7.5003-.78094Z"/><path class="cls-9" d="M36.616,33.904,24.78873,44.8685a12.16575,12.16575,0,0,1-1.5084-1.61859c2.05765-.15607,6.47727-5.07617,5.31611-5.33316-1.03864-.228-4.614,2.20456-7.1092,2.03323a14.69818,14.69818,0,0,1-.66232-2.67114l3.80017-3.3259,11.83643-1.24383C36.56406,33.44336,36.616,33.904,36.616,33.904Z"/><path class="cls-10" d="M29.94928,32.44745a3.24979,3.24979,0,0,1,3.57989.26083c.57364.41727,0,1.51264,0,1.51264a6.0532,6.0532,0,0,0-.8345-.41727,6.12759,6.12759,0,0,1-3.21512.41727C27.47879,33.90793,29.94928,32.44745,29.94928,32.44745Z"/><path class="cls-5" d="M21.83243,25.89568c2.72449-2.03167,4.26745-.24628,4.1358,3.2648l-.13183,3.51109a30.90953,30.90953,0,0,1,4.32434-1.1087s.07409,2.40222,0,3.26461c0,0-4.2013,4.06562-6.97318,4.37348-2.77191.30807-2.21756-5.17424-2.46384-7.69969C20.47726,28.97565,20.88593,26.60152,21.83243,25.89568Z"/><path class="cls-11" d="M33.04886,34.38336l2.06656-8.3708a1.9111,1.9111,0,0,1,1.85547-1.45308H48.829a1.19289,1.19289,0,0,1,1.15576,1.48819l-2.39309,8.75294Z"/><path class="cls-1" d="M33.87918,34.38336l2.06641-8.3708a1.91118,1.91118,0,0,1,1.8554-1.45308h11.8584a1.193,1.193,0,0,1,1.1557,1.48819L48.422,34.80061Z"/><path class="cls-11" d="M44.996,35.21808H29.90973a.41725.41725,0,1,1,0-.8345H44.996a.41725.41725,0,1,1,0,.8345Z"/><path class="cls-1" d="M48.55258,35.21808H33.46609a.41725.41725,0,0,1,0-.8345H48.55258a.41725.41725,0,1,1,0,.8345Z"/><path class="cls-11" d="M43.508,29.65659c-.19889,1.08834-.69214,1.90985-1.10181,1.83508-.40955-.075-.58054-1.01776-.38165-2.10608s.69213-1.91,1.10186-1.83508C43.53589,27.62527,43.70685,28.56827,43.508,29.65659Z"/><path class="cls-10" d="M33.57214,15.86771c.26261,3.85406-.35037,5.56221-2.54016,5.78109v.89789a1.20445,1.20445,0,0,1-2.4089,0V21.6488s-1.75186-.74443-2.10224-1.83943c-.35037-1.09482,0-.17518,0-.17518l-.1557-4.46723H33.629Z"/><path class="cls-10" d="M26.63126,17.95561c-.55085-1.00426-1.19876-.58314-1.32831,0s1.03656,2.00267,1.32831,1.50347A2.48719,2.48719,0,0,0,26.63126,17.95561Z"/><path d="M25.42355,14.67288c1.17258,1.42482,4.4971,2.16576,5.70005,1.82382,1.2033-.342-.50644-1.45327-.50644-1.45327s2.23108,1.53875,3.25271,1.02584c1.02143-.5129-1.73309-1.76678-1.73309-1.76678Z"/><path class="cls-12" d="M31.032,21.64886a20.36034,20.36034,0,0,1-2.095.05179l2.095.84609Z"/><path class="cls-12" d="M26.57263,18.22507c-.491-.51538-.73218-.30367-.69934.23188s.67844.91929.88751.76587C26.96985,19.06921,26.57263,18.22507,26.57263,18.22507Z"/><path class="cls-5" d="M7.36856,45.06476c-2.17805-.80008-3.37819-.489-4.04489-1.378a7.62588,7.62588,0,0,1,2.75594,0Z"/><path class="cls-5" d="M6.07962,43.68686a9.25676,9.25676,0,0,1-4.10457-4.03681C1.30222,38.56592.9285,37.669.66678,37.59415A5.44418,5.44418,0,0,1,3.02161,39.052c1.27087,1.27072,1.79416,1.45767,2.80331,2.46683a7.0443,7.0443,0,0,1,2.01848,3.546H7.36859Z"/><path class="cls-5" d="M6.83423,43.31287c-1.42992-2.19474-.14658-3.45508-1.86893-5.94312-2.01849-2.9155-1.38306-5.831-1.08394-7.66254A5.27172,5.27172,0,0,0,5.19,33.91275c1.75642,2.0741,3.47578,2.87738,3.62518,5.97049a17.55541,17.55541,0,0,1-.4485,5.18149H7.36856Z"/><path class="cls-5" d="M8.13562,45.06491c-.47922-2.05588.45532-5.56433.53011-9.04047.07478-3.47631-1.86893-6.05532,1.00917-9.30731,0,0-.59806.59809.22433,2.99027.82221,2.39221,2.65375,4.8966,1.75676,8.1112-.89716,3.21442-2.83017,5.84726-2.81683,7.24631Z"/><path class="cls-5" d="M8.83919,45.06491c-.29895-2.467,2.21876-6.31195,4.34926-7.17172a4.72474,4.72474,0,0,1-1.15873,3.43051,17.83218,17.83218,0,0,0-2.41116,3.74121Z"/><path class="cls-5" d="M9.61859,45.06485c.09374-1.63968,1.51418-2.21457,2.97183-2.63724a12.1834,12.1834,0,0,0-2.05571,2.63724Z"/><path class="cls-13" d="M10.30266,45.25189a6.937,6.937,0,0,1,.70582-1.70343c-.10269-.07074-.73988.9744-1.05987,1.5163a3.902,3.902,0,0,1,.212-2.63727c.63878-1.22086,1.24193-2.14331,1.24193-2.14331S9.34459,42.6615,9.238,43.863a7.6982,7.6982,0,0,1,.142-2.7659c.35493-1.55808,1.27737-3.04837.94035-4.89362s-.7018-3.81421-.7018-3.81421.15325,1.87613.33,3.50159c.17659,1.62549-.30492,2.47717-.77376,4.21588-.469,1.73868-.20644,4.21268-.40866,4.19986s-.52168.44849-.52168.44849-.21418-2.66129-.53276-4.93222c-.31879-2.27106-.28331-2.57688-1.66707-3.932a5.20862,5.20862,0,0,1-1.5614-2.1835s.93455,1.85736,1.70919,3.06384A5.51673,5.51673,0,0,1,7.2155,40.639a12.549,12.549,0,0,0,.28384,3.66766,16.23194,16.23194,0,0,0-2.48384-2.8277A10.70933,10.70933,0,0,1,2.78,39.397a10.42527,10.42527,0,0,0,2.05817,2.66132,16.97232,16.97232,0,0,1,2.53037,2.66132L4.73166,44.01l2.98009,1.24194Z"/><path class="cls-14" d="M12.65329,45.72705l-1.40273,8.0806a.79817.79817,0,0,1-.09848.27017.814.814,0,0,1-.70494.40515h-5.047a.8147.8147,0,0,1-.80484-.68375L3.27962,45.71857a.81626.81626,0,0,1,.80624-.947h7.76259A.81669.81669,0,0,1,12.65329,45.72705Z"/><path class="cls-7" d="M11.15208,54.07782a.814.814,0,0,1-.70494.40515h-5.047a.8147.8147,0,0,1-.80484-.68375L3.27962,45.71857a.81626.81626,0,0,1,.80624-.947H6.75507C4.28,48.61566,8.40828,53.08307,11.15208,54.07782Z"/><path class="cls-15" d="M19.66275,40.25067c1.03445,1.87207,1.82138,3.88864,2.80368,5.61923a20.18573,20.18573,0,0,1-2.8544-4.5462,19.08039,19.08039,0,0,1-1.22067-3.932A21.919,21.919,0,0,0,19.66275,40.25067Z"/></svg>