<svg id="Layer_1" data-name="Layer 1" xmlns="http://www.w3.org/2000/svg" viewBox="0 0 60 60"><defs><style>.cls-1{fill:#ed985f;}.cls-2{fill:#ffb27d;}.cls-3{fill:#00ac71;}.cls-4{fill:#101010;}.cls-5{fill:#233862;}.cls-6{fill:#2b478b;}.cls-7{fill:#2b2b2b;}.cls-8{fill:#fff;}.cls-9{fill:#d3dfff;}.cls-10{fill:#8ba6f0;}</style></defs><path class="cls-1" d="M25.77045,18.89893s11.04168,4.81066,13.046,4.72326S53.171,19.86035,53.171,19.86035L52.85663,21.985s-9.53119,5.48168-12.8634,5.7926c-3.28058.30615-14.498-2.94434-15.58106-3.63062S22.62317,19.59363,25.77045,18.89893Z"/><path d="M24.11139,1.202s-4.07337-.77356-6.102.70788c-3.675,2.6836-3.87238,11.93579-5.24963,13.314-1.37732,1.37829-4.69751.79028-4.99311,7.92187-.29547,7.13159,1.3219,7.72779-.60431,10.91126s.81494,6.36975.81494,6.36975-1.1228-1.75733-.6416-3.02588c0,0,.46735,2.79944,2.24579,3.45569,1.77844.65613,2.04157,1.1372,2.32556,2.09961,0,0,15.17218-7.77454,15.18879-13.28882.01641-5.51441,2.98559-10.97669,1.52758-13.36621a5.28546,5.28546,0,0,1,.729,2.15954,2.8433,2.8433,0,0,0-.64154-3.23681c-1.51642-1.56031,1.77881-4.78968,1.291-8.52979A5.98906,5.98906,0,0,0,24.11139,1.202Z"/><path class="cls-2" d="M27.1123,24.15271a10.62029,10.62029,0,0,1-3.71209,1.57983c-5.722,1.322-7.91474-3.51416-8.73828-6.83374a4.91832,4.91832,0,0,1,1.93866-.59546c.41351-.04882.84851-.08129,1.20861-.09912.64258-.49206,1.6-2.50622,1.81171-5.63342l.269.07214,4.50959,1.23426s-.20655,1.43347-.3078,2.78857a5.36551,5.36551,0,0,0,.11023,2.32129c.35192.07629.563.12622.563.12622l.00232.00427A29.02061,29.02061,0,0,1,27.1123,24.15271Z"/><path class="cls-1" d="M24.39972,13.8783s-.20728,1.43237-.30768,2.78833c-2.55493-.25574-3.74054-2.68824-4.20209-4.02246Z"/><path class="cls-2" d="M25.16254,15.22388s-6.06409-.3346-5.79761-4.10791c.26648-3.77307-.33667-6.35755,3.54639-6.30347s4.53277,1.547,4.75018,2.82812S26.74689,15.21362,25.16254,15.22388Z"/><path d="M27.632,5.52966c-.855-1.2019-1.58032-1.00354-2.00116-.69091a4.24484,4.24484,0,0,0-5.50647.48034,7.22578,7.22578,0,0,1-2.66272,4.089s1.05505.76111,3.647.28919a4.33668,4.33668,0,0,0,2.16358-1.27466,14.17406,14.17406,0,0,1-2.64508,2.7959c3.14093-1.18714,4.66516-5.328,4.81878-5.76636a4.76068,4.76068,0,0,1,1.19452,1.8551c.233.98267,1.23834,2.51856,1.81958,2.49243A6.27649,6.27649,0,0,0,27.632,5.52966Z"/><path class="cls-3" d="M12.93475,36.48206c-.5476-2.79956-2.33325-13.98426-.5476-17.58326.64129-1.29309,3.15759-1.40966,5.91839-1.29626.85907.55469,4.13251,2.65051,5.47717,2.38892.01447-.00281.04059-.009.07526-.01783.63318-.1582.87225-.603.34406-.98657a12.05137,12.05137,0,0,1,3.06549.18787,22.66961,22.66961,0,0,1,3.546,1.519,8.13535,8.13535,0,0,1-3.22364,3.16589c.32666,2.922-.15911,4.21106-3.19042,10.96009a12.82978,12.82978,0,0,0,.34558,10.84082S9.66632,57.78442,9.58234,51.61157C9.51947,46.96436,13.63458,40.06018,12.93475,36.48206Z"/><path class="cls-4" d="M25.49249,58.84363A2.80272,2.80272,0,0,0,27.50922,57.616q.10921-.16315.23321-.35108c1.71631-2.59826,2.3841-10.55554,6.24475-19.03259.94049-2.06372,4.316-2.43494,5.23639-4.76819,0,0,2.26544-7.56189-4.33606-7.78491-6.60162-.223-17.68,21.04053-17.85492,23.27051C16.863,51.10986,12.668,60.29077,25.49249,58.84363Z"/><path class="cls-5" d="M51.73077,58.66956H42.33472a3.9047,3.9047,0,0,1,.26562-2.51831,1.81107,1.81107,0,0,0-.06769-2.16285,3.64988,3.64988,0,0,0,1.58252.298,3.30969,3.30969,0,0,0,1.39734-.49146,33.81517,33.81517,0,0,0,2.67713,2.81238C48.80371,57.04846,51.54169,56.89124,51.73077,58.66956Z"/><path d="M39.43835,27.865c.5658,4.2417,2.77515,17.62952,6.67267,24.16126,1.25653,2.10571-3.16589,3.28625-3.18963,3.28a7.522,7.522,0,0,1-2.03675-1.51135c-3.16418-2.85156-9.58752-10.92651-9.58752-17.40027,0-3.15661-.05536-9.18506,2.24005-10.71728C34.95068,24.73376,39.21356,26.1803,39.43835,27.865Z"/><path d="M19.88959,58.6698s.34826-.48474.95532-1.405a33.28437,33.28437,0,0,0,2.49243-6.00915c1.01917-2.89844,2.22833-6.46424,3.73908-10.17444.46624-1.14514.96142-2.30432,1.488-3.46167.94055-2.06385,3.52735-1.77869,4.44776-4.1117,0,0,3.59124-8.088-3.01038-8.311-6.6015-.22315-19.14569,21.63574-19.86664,23.75268C9.34607,51.267,5.49591,60.89014,19.88959,58.6698Z"/><path class="cls-6" d="M44.83344,58.66956H35.43732a3.90514,3.90514,0,0,1,.26562-2.51831,1.81146,1.81146,0,0,0-.06756-2.16285,3.64911,3.64911,0,0,0,1.58252.298,3.31039,3.31039,0,0,0,1.39721-.49146A33.816,33.816,0,0,0,41.2923,56.6073C41.90625,57.04846,44.64441,56.89124,44.83344,58.66956Z"/><path class="cls-7" d="M23.3374,51.25537c1.01917-2.89831,2.22821-6.46423,3.739-10.17432-.39447-2.81091-1.24572-5.26989-2.67694-6.2611C24.39941,34.82,20.92719,45.57678,23.3374,51.25537Z"/><path d="M33.95349,27.56445c.5658,4.24158,1.36267,17.93018,5.26013,24.46192,1.25653,2.10571-3.16583,3.28613-3.18969,3.2799a7.52315,7.52315,0,0,1-2.03681-1.5111c-3.16412-2.85169-9.5874-10.92664-9.5874-17.40039,0-3.1565,3.70441-8.932,5.99976-10.46412A2.30885,2.30885,0,0,1,33.95349,27.56445Z"/><path class="cls-8" d="M26.29785,13.05383a5.59533,5.59533,0,0,0-2.18646-.09594s.08563.62927,1.27539.6914A.949.949,0,0,0,26.29785,13.05383Z"/><polygon class="cls-9" points="44.178 17.474 40.261 28.665 50.674 26.329 54.349 15.416 44.178 17.474"/><polygon class="cls-10" points="40.468 28.101 40.286 27.781 43.993 17.191 44.178 17.474 40.468 28.101"/><polygon class="cls-10" points="43.993 17.191 53.865 15.27 54.349 15.416 44.178 17.474 43.993 17.191"/><path class="cls-2" d="M47.18457,19.09473c-.33862-.06507-1.06512-.33887-1.8006-.54126a1.50954,1.50954,0,0,0,.53205-.59485c.13128-.41455.21862-.54785-.21875-.41663-.43744.13123-1.96778.833-1.96778.833l.00385.00208a4.056,4.056,0,0,0-1.67066,1.48315s-10.76562,3.7843-12.06085,3.84924c-2.00366.10071-15.3399-4.81067-15.3399-4.81067-3.14728.69471-2.44117,4.56189-1.35822,5.24817,1.083.68628,10.67932,4.17725,16.36652,4.2428,2.88061.03345,13.35882-6.70129,13.35882-6.70129a4.45889,4.45889,0,0,1,2.18714-.38477c.96234.17505,3.19317,0,3.67425-.78735C49.37158,19.729,47.75323,19.2041,47.18457,19.09473Z"/><path class="cls-3" d="M21.5329,21.32117a7.3271,7.3271,0,0,1-5.28919,4.635s-6.76458-2.084-3.39642-6.69251C12.84729,19.26367,16.17749,16.78906,21.5329,21.32117Z"/><path class="cls-2" d="M54.17419,19.379l-.00073.001a1.038,1.038,0,0,0-.03589-.30688s-.965-1.52637-1.28088-1.58887c-.96265-.18994-.96265,1.0774-.75855,1.89478a3.322,3.322,0,0,0,.79688,1.4115l-.00012.00012L52.85669,21.985A2.555,2.555,0,0,0,54.17419,19.379Z"/></svg>