<svg id="Layer_1" data-name="Layer 1" xmlns="http://www.w3.org/2000/svg" viewBox="0 0 73 73"><defs><style>.cls-1{fill:#00ac71;}.cls-2,.cls-3{fill:none;stroke-width:2.6px;}.cls-2{stroke:#00ac71;stroke-linejoin:round;}.cls-3{stroke:#fff;stroke-linecap:round;stroke-miterlimit:10;}</style></defs><path class="cls-1" d="M36.30005,1.2998q1.71944,0,3.4306.16855t3.39755.504q1.68642.33544,3.33181.83458T49.694,3.964q1.58856.658,3.105,1.46853T55.745,7.19837q1.42967.95527,2.75881,2.04607t2.545,2.30663q1.21584,1.21583,2.30663,2.545t2.04606,2.7588q.95527,1.42967,1.76582,2.94608t1.46854,3.105q.658,1.58856,1.15713,3.234t.83457,3.3318q.33546,1.68641.504,3.39757t.16853,3.43059q0,1.71945-.16853,3.4306t-.504,3.39756q-.33545,1.6864-.83457,3.33181t-1.15713,3.234q-.658,1.58856-1.46854,3.105t-1.76582,2.94607q-.95526,1.42968-2.04606,2.75882t-2.30663,2.545q-1.21583,1.21582-2.545,2.30662T55.745,65.40123q-1.42965.95528-2.94607,1.76582t-3.105,1.46853q-1.58855.658-3.23395,1.15714t-3.33181.83456q-1.68639.33546-3.39755.504t-3.4306.16852q-1.71944,0-3.4306-.16852t-3.39756-.504q-1.6864-.33543-3.33181-.83456t-3.23395-1.15714q-1.58856-.658-3.105-1.46853t-2.94607-1.76582q-1.42966-.95526-2.75881-2.04607t-2.545-2.30662q-1.21583-1.21582-2.30663-2.545T7.19861,55.74476Q6.24335,54.3151,5.4328,52.79868t-1.46854-3.105q-.658-1.58854-1.15712-3.23395T1.97256,43.128q-.33544-1.68639-.504-3.39756t-.16853-3.4306q0-1.71943.16853-3.43059t.504-3.39757q.33545-1.68639.83458-3.3318t1.15712-3.234q.658-1.58854,1.46854-3.105t1.76581-2.94607q.95528-1.42966,2.04607-2.75881t2.30663-2.545q1.21582-1.21582,2.545-2.30663t2.75881-2.04607q1.42966-.95527,2.94607-1.76581t3.105-1.46853q1.58855-.658,3.234-1.15713t3.33181-.83458q1.68641-.33543,3.39756-.504T36.30005,1.2998Z"/><path class="cls-2" d="M36.30005,1.2998q1.71944,0,3.4306.16855t3.39755.504q1.68642.33544,3.33181.83458T49.694,3.964q1.58856.658,3.105,1.46853T55.745,7.19837q1.42967.95527,2.75881,2.04607t2.545,2.30663q1.21584,1.21583,2.30663,2.545t2.04606,2.7588q.95527,1.42967,1.76582,2.94608t1.46854,3.105q.658,1.58856,1.15713,3.234t.83457,3.3318q.33546,1.68641.504,3.39757t.16853,3.43059q0,1.71945-.16853,3.4306t-.504,3.39756q-.33545,1.6864-.83457,3.33181t-1.15713,3.234q-.658,1.58856-1.46854,3.105t-1.76582,2.94607q-.95526,1.42968-2.04606,2.75882t-2.30663,2.545q-1.21583,1.21582-2.545,2.30662T55.745,65.40123q-1.42965.95528-2.94607,1.76582t-3.105,1.46853q-1.58855.658-3.23395,1.15714t-3.33181.83456q-1.68639.33546-3.39755.504t-3.4306.16852q-1.71944,0-3.4306-.16852t-3.39756-.504q-1.6864-.33543-3.33181-.83456t-3.23395-1.15714q-1.58856-.658-3.105-1.46853t-2.94607-1.76582q-1.42966-.95526-2.75881-2.04607t-2.545-2.30662q-1.21583-1.21582-2.30663-2.545T7.19861,55.74476Q6.24335,54.3151,5.4328,52.79868t-1.46854-3.105q-.658-1.58854-1.15712-3.23395T1.97256,43.128q-.33544-1.68639-.504-3.39756t-.16853-3.4306q0-1.71943.16853-3.43059t.504-3.39757q.33545-1.68639.83458-3.3318t1.15712-3.234q.658-1.58854,1.46854-3.105t1.76581-2.94607q.95528-1.42966,2.04607-2.75881t2.30663-2.545q1.21582-1.21582,2.545-2.30663t2.75881-2.04607q1.42966-.95527,2.94607-1.76581t3.105-1.46853q1.58855-.658,3.234-1.15713t3.33181-.83458q1.68641-.33543,3.39756-.504T36.30005,1.2998Z"/><line class="cls-3" x1="30.87305" y1="46.7089" x2="51.78214" y2="25.7998"/><line class="cls-3" x1="21.6001" y1="37.43604" x2="30.87282" y2="46.70876"/></svg>