<svg id="Layer_1" data-name="Layer 1" xmlns="http://www.w3.org/2000/svg" viewBox="0 0 25 24"><defs><style>.cls-1{fill:#959595;}.cls-2{fill:none;stroke:#000;stroke-miterlimit:10;opacity:0;}</style></defs><path class="cls-1" d="M9.88965,8.02344v7.0747l6.39453-3.52392L9.88965,8.02393ZM12.335,20.6875c-.06055-.00049-6.17773-.06348-8.0498-.25342-.09082-.01806-.2002-.03222-.32325-.04785a3.3788,3.3788,0,0,1-2.2832-1.02832A5.67963,5.67963,0,0,1,.7373,16.85742l-.001-.01025A40.37341,40.37341,0,0,1,.5,12.78516v-1.9126a40.37318,40.37318,0,0,1,.23633-4.062l.001-.01026A5.67963,5.67963,0,0,1,1.67871,4.2998a3.16325,3.16325,0,0,1,2.2207-1.04931l.03223-.00342c.043-.00439.082-.0083.11816-.01318C7.32227,2.981,12.27734,2.978,12.32715,2.978h.01074c.04981,0,5.00684.00293,8.2793.25586.03418.00439.07129.0083.11133.01269l.03808.00391A3.17311,3.17311,0,0,1,22.99121,4.2998a5.70286,5.70286,0,0,1,.93945,2.50049l.001.00977c.03906.35449.2334,2.21533.2334,4.0625v1.9126c0,1.84716-.19434,3.708-.2334,4.0625l-.001.00976a5.70282,5.70282,0,0,1-.93945,2.50049,3.14437,3.14437,0,0,1-2.21875,1.05078q-.085.00879-.15527.01758C17.35059,20.67627,12.38379,20.6875,12.335,20.6875Z"/><path class="cls-2" d="M9.88965,8.02344v7.0747l6.39453-3.52392L9.88965,8.02393ZM12.335,20.6875c-.06055-.00049-6.17773-.06348-8.0498-.25342-.09082-.01806-.2002-.03222-.32325-.04785a3.3788,3.3788,0,0,1-2.2832-1.02832A5.67963,5.67963,0,0,1,.7373,16.85742l-.001-.01025A40.37341,40.37341,0,0,1,.5,12.78516v-1.9126a40.37318,40.37318,0,0,1,.23633-4.062l.001-.01026A5.67963,5.67963,0,0,1,1.67871,4.2998a3.16325,3.16325,0,0,1,2.2207-1.04931l.03223-.00342c.043-.00439.082-.0083.11816-.01318C7.32227,2.981,12.27734,2.978,12.32715,2.978h.01074c.04981,0,5.00684.00293,8.2793.25586.03418.00439.07129.0083.11133.01269l.03808.00391A3.17311,3.17311,0,0,1,22.99121,4.2998a5.70286,5.70286,0,0,1,.93945,2.50049l.001.00977c.03906.35449.2334,2.21533.2334,4.0625v1.9126c0,1.84716-.19434,3.708-.2334,4.0625l-.001.00976a5.70282,5.70282,0,0,1-.93945,2.50049,3.14437,3.14437,0,0,1-2.21875,1.05078q-.085.00879-.15527.01758C17.35059,20.67627,12.38379,20.6875,12.335,20.6875Z"/></svg>