<svg id="Layer_1" data-name="Layer 1" xmlns="http://www.w3.org/2000/svg" xmlns:xlink="http://www.w3.org/1999/xlink" viewBox="0 0 257 200"><defs><style>.cls-1{fill:none;}.cls-2{fill:#e0e0e0;}.cls-3{fill:#ebebeb;}.cls-4{fill:#ffbe9d;}.cls-5{fill:#eb996e;}.cls-6{fill:#00ac71;}.cls-7{fill:#263238;}.cls-8{fill:#455a64;}.cls-9{opacity:0.2;isolation:isolate;}.cls-10{clip-path:url(#clip-path);}</style><clipPath id="clip-path"><rect class="cls-1" width="257" height="200"/></clipPath></defs><path class="cls-2" d="M64.70758,94.13309s.07768.14984.22052.44507c.14323.299.35346.73785.62885,1.31256a24.767,24.767,0,0,0,3.19131,4.57858,26.45819,26.45819,0,0,0,2.903,2.80328c.2706.25217.5876.45948.89355.6929q.46444.34347.94731.701.50862.31985,1.03676.65244a11.7142,11.7142,0,0,0,1.09422.64358q.57159.3009,1.16306.613c.39688.20285.82139.36447,1.24074.55334q.317.137.63841.27649c.21428.09354.4418.158.66455.239q.67322.2303,1.36665.46762a26.12619,26.12619,0,0,0,6.08663,1.01025,23.274,23.274,0,0,0,13.43094-3.78812,25.98145,25.98145,0,0,0,5.897-5.20632,25.035,25.035,0,0,0,4.21632-7.18342c.12371-.33578.25772-.66934.37407-1.00991q.14636-.51966.2938-1.043l.14764-.52393a3.78271,3.78271,0,0,0,.1259-.53049q.10162-.53686.20323-1.0773a18.301,18.301,0,0,0,.29454-4.42325,13.53087,13.53087,0,0,0-.96754-4.40219,9.18014,9.18014,0,0,0-2.7024-3.66629,8.13035,8.13035,0,0,0-4.23693-1.82464,6.33445,6.33445,0,0,0-2.33788.18039,6.10612,6.10612,0,0,0-2.10927,1.057,7.61958,7.61958,0,0,0-2.5794,3.97446A7.97472,7.97472,0,0,0,96.944,84.466a10.52792,10.52792,0,0,0,2.5912,4.1084,13.7985,13.7985,0,0,0,3.96226,2.74844,23.99364,23.99364,0,0,0,9.25661,1.867,65.98729,65.98729,0,0,0,17.85118-1.97861A71.567,71.567,0,0,0,145.813,85.42545c2.26317-1.18442,4.386-2.444,6.37235-3.73847,1.9837-1.3,3.808-2.663,5.513-4.00827a72.31158,72.31158,0,0,0,8.4886-8.06961,66.17213,66.17213,0,0,0,5.42539-6.98978c.3538-.49408.64651-.98852.94142-1.43914.286-.45621.57174-.87186.80186-1.27942.46979-.80887.89136-1.48,1.19142-2.0452.30521-.5596.53862-.98743.6973-1.27829.15794-.28757.24336-.43259.24336-.43259s-.07362.15091-.22606.44178c-.155.29309-.38254.72384-.68075,1.28787-.29489.56845-.71131,1.24332-1.1763,2.05588-.22789.40939-.5114.8269-.79526,1.28527-.29269.45289-.58318.94916-.93517,1.44547a65.4572,65.4572,0,0,1-5.407,7.0192,71.99777,71.99777,0,0,1-8.4838,8.10421c-1.70575,1.3512-3.53116,2.72007-5.51669,4.026-1.98813,1.30075-4.114,2.56613-6.38042,3.75611a71.55362,71.55362,0,0,1-15.23793,5.816,66.05085,66.05085,0,0,1-17.90054,1.99514,24.16,24.16,0,0,1-9.33022-1.88171,13.97641,13.97641,0,0,1-4.01823-2.78632A10.71091,10.71091,0,0,1,96.76213,84.526a8.15981,8.15981,0,0,1-.11339-4.92245,7.81166,7.81166,0,0,1,2.64679-4.07346,6.29676,6.29676,0,0,1,2.17627-1.09018,6.52814,6.52814,0,0,1,2.40785-.18518,8.3141,8.3141,0,0,1,4.33522,1.86734,9.3628,9.3628,0,0,1,2.75541,3.73993,13.70942,13.70942,0,0,1,.979,4.46368,18.47365,18.47365,0,0,1-.29932,4.46448q-.10329.54456-.20581,1.08612a3.90246,3.90246,0,0,1-.12741.53458l-.14909.52762q-.14912.52738-.29711,1.05111c-.11782.34275-.25294.6789-.37774,1.01725a25.19239,25.19239,0,0,1-4.2524,7.22909,26.10865,26.10865,0,0,1-5.94047,5.23172,23.39687,23.39687,0,0,1-13.52185,3.79,26.2228,26.2228,0,0,1-6.11684-1.02866q-.69582-.24027-1.3718-.47348c-.22348-.08209-.45175-.14725-.66676-.24151q-.32307-.1414-.64061-.27982c-.42082-.19073-.8468-.35419-1.24443-.55887q-.59313-.31485-1.16637-.61929a11.58417,11.58417,0,0,1-1.09678-.64945q-.52906-.33522-1.03826-.65829-.48376-.36007-.94877-.70651c-.30632-.23563-.62369-.44437-.89429-.69883a26.32812,26.32812,0,0,1-2.90083-2.82421,24.3306,24.3306,0,0,1-3.1696-4.6099c-.26841-.57913-.4731-1.02133-.61263-1.32245C64.7731,94.28769,64.70758,94.13309,64.70758,94.13309Z"/><path class="cls-2" d="M77.75673,127.55463s.11745.01953.34459.06665q.3474.074,1.00661.21429c.44364.09607.99038.2146,1.635.35455.64614.14026,1.4053.23121,2.25175.3733a64.07625,64.07625,0,0,0,14.50157.50293,78.515,78.515,0,0,0,9.92557-1.47236,89.22229,89.22229,0,0,0,11.06061-3.20715c7.6672-2.70306,15.54721-6.99853,23.61828-11.745,2.02607-1.17969,3.97257-2.43549,5.90989-3.64234q1.42817-.94437,2.83419-1.87439c.46683-.31256.93958-.61264,1.39649-.93185q.68421-.47992,1.363-.95575,1.35576-.95376,2.68656-1.88983,1.30389-.97366,2.58163-1.9274.639-.47718,1.27094-.94876c.42-.31592.82211-.65094,1.23041-.97235q1.21884-.97312,2.40969-1.92337a134.95223,134.95223,0,0,0,15.62192-14.85132c.51212-.57178,1.03122-1.11334,1.50327-1.67115q.69749-.84438,1.35891-1.64462c.87366-1.07248,1.73005-2.05807,2.473-3.02563q1.0924-1.46736,2.03012-2.72782.46829-.62841.89578-1.20242c.14136-.19183.28384-.37555.41418-.5611q.18832-.28275.36594-.55151c.94989-1.42743,1.68808-2.53671,2.19177-3.294q.37547-.55889.57395-.85415c.13034-.19184.20138-.28754.20138-.28754s-.06.10272-.18481.29782q-.19218.29823-.55814.86484c-.497.76175-1.22528,1.87842-2.16266,3.3154q-.17619.27007-.36267.55447c-.12918.18631-.27093.37113-.41125.564q-.42412.576-.8895,1.208-.93163,1.26351-2.01941,2.73993c-.73965.97122-1.59308,1.96124-2.46377,3.03778q-.65941.803-1.35526,1.65087c-.47052.55964-.98855,1.10343-1.49957,1.677a133.7729,133.7729,0,0,1-15.61163,14.8977q-1.1901.9527-2.41,1.92813c-.40829.32254-.81036.6583-1.2308.97492q-.63236.47277-1.27134.951-1.27844.956-2.58306,1.93142-1.33151.93824-2.68805,1.89389-.67923.47658-1.36408.95725c-.45724.32-.93.62033-1.39721.93368q-1.40712.9311-2.83677,1.87732c-1.93878,1.20832-3.88714,2.466-5.915,3.64637-8.07586,4.74939-15.96765,9.046-23.65618,11.74652a88.86252,88.86252,0,0,1-11.08713,3.19653,78.05311,78.05311,0,0,1-9.94878,1.452,63.21287,63.21287,0,0,1-14.52328-.5644c-.8468-.148-1.60559-.24487-2.25139-.39105-.64394-.14721-1.18956-.27166-1.63246-.37292q-.6561-.15245-1.0029-.23273C77.87123,127.58667,77.75673,127.55463,77.75673,127.55463Z"/><path class="cls-3" d="M93.5377,113.85284a4.708,4.708,0,0,0,.461.93146,4.97459,4.97459,0,0,0-1.76208-.63922,10.699,10.699,0,0,0-3.03815.10162c-.03058.004-.06113.00849-.0917.01288a6.83463,6.83463,0,0,0,2.55661,2.46277,4.64893,4.64893,0,0,0,.65094.261q-.28776.16515-.56626.34723a23.60789,23.60789,0,0,0-3.60184,3.4516,12.5925,12.5925,0,0,0,5.40439-.7754c.10456-.0401.20838-.08245.31147-.12585a4.78079,4.78079,0,0,0-.22236.87549,10.70633,10.70633,0,0,0,.1005,3.03778l.01251.092a6.84689,6.84689,0,0,0,2.46161-2.55731,4.7769,4.7769,0,0,0,.44659-1.47821,4.69177,4.69177,0,0,0,.39948.66528,6.3343,6.3343,0,0,0,2.35373,1.8714l-.00775-.07843a10.29645,10.29645,0,0,0-.50659-2.55768,5.40289,5.40289,0,0,0-1.4134-2.03857,15.51808,15.51808,0,0,0-1.30114-.997,15.52,15.52,0,0,0-.09131-1.63654,5.40007,5.40007,0,0,0-.88877-2.31579,10.27,10.27,0,0,0-1.82833-1.85889l-.0604-.05084A6.33294,6.33294,0,0,0,93.5377,113.85284Z"/><path class="cls-2" d="M99.0367,114.87738c.02688.04456-1.56253,1.05847-3.54956,2.26386-1.98813,1.20581-3.62094,2.14642-3.6482,2.10186-.02688-.04455,1.56217-1.0581,3.5499-2.26385C97.37627,115.7738,99.00948,114.83282,99.0367,114.87738Z"/><path class="cls-2" d="M95.23312,117.19833a4.17307,4.17307,0,0,1-.25882,1.74921,4.17425,4.17425,0,0,1,.25882-1.74921Z"/><path class="cls-2" d="M94.50667,117.72849c-.02872.04534-.2934-.07441-.62036-.20691-.32621-.13434-.59864-.2345-.58762-.28681.00958-.05.31479-.03021.65939.11157C94.30272,117.48624,94.53465,117.68613,94.50667,117.72849Z"/><path class="cls-3" d="M151.741,70.34506s5.01934,4.39817,9.43518-1.15347C161.17615,69.19159,155.4986,65.13837,151.741,70.34506Z"/><path class="cls-2" d="M163.247,68.83115a39.27615,39.27615,0,0,1-4.23029.65792,39.19038,39.19038,0,0,1-4.26007.4256,39.10677,39.10677,0,0,1,4.23059-.65829A39.13685,39.13685,0,0,1,163.247,68.83115Z"/><path class="cls-2" d="M155.66125,68.70822c.03315-.056.3891.09424.79523.33469.40607.24075.70874.48117.67566.53677-.03284.0556-.38879-.09424-.79529-.335C155.93073,69.00421,155.62805,68.76382,155.66125,68.70822Z"/><path class="cls-2" d="M159.36581,69.29285c.046.04528-.20611.37518-.56286.736-.35718.36117-.68378.6167-.7298.57141-.046-.04562.20587-.37518.563-.73636C158.99326,69.50308,159.31979,69.24719,159.36581,69.29285Z"/><path class="cls-3" d="M182.12366,105.50888a5.4022,5.4022,0,0,0,.01257-8.13184S178.09808,101.77121,182.12366,105.50888Z"/><path class="cls-2" d="M182.04776,95.58109c.03284-.00037.06592,1.63873.07336,3.66033.00769,2.0224-.01294,3.66144-.046,3.66144-.03283.00043-.06591-1.63867-.0733-3.6607C181.994,97.22055,182.01468,95.58109,182.04776,95.58109Z"/><path class="cls-2" d="M181.14581,102.00833a4.51017,4.51017,0,0,1,.89472-1.15723,4.52746,4.52746,0,0,1-.89472,1.15723Z"/><path class="cls-2" d="M182.03162,98.92447a5.22138,5.22138,0,0,1,.97418,1.23523,5.2207,5.2207,0,0,1-.97418-1.23523Z"/><path class="cls-4" d="M147.091,56.31369s7.70655-4.27228,8.7956-5.44492a10.40494,10.40494,0,0,1,1.92669-1.92663c1.00507-.754,10.30323-4.77484,10.30323-4.77484s2.09423-.58612,2.59674.67044c0,0-4.94226,5.61206-5.52881,6.36609-.58612.754-4.43939,2.84814-4.43939,2.84814a33.92593,33.92593,0,0,0-4.02082,4.43945c-.75409,1.34012-7.87414,6.031-7.87414,6.031Z"/><path class="cls-4" d="M170.71326,45.05936s2.41967-1.77533,2.79516-3.92582a9.74444,9.74444,0,0,1,.95581-3.10662s.34168-1.29746-.17041-1.229c-.5122.0681-1.3656.81919-1.80963,2.28708,0,0-.68262,1.0585-.88727.85343a4.92,4.92,0,0,1-.6145-2.0139c-.23932-1.22933-1.02423-3.82383-1.39972-3.8577-.37561-.03424-.40985.34129-.37561.92152.03424.58061.92157,4.16513.44367,4.199-.47791.03425-1.58429-3.47185-2.287-3.82347-.20508-.10234-.51221.13659-.51221.13659l.75116,2.52642-.75116-.40979a7.65106,7.65106,0,0,0,0,.95578c.0343.47789,1.3656,3.209,1.33136,3.68724a1.07079,1.07079,0,0,1-.54608.75107s-1.94617-.85378-1.94617-.444.444.64873.95624,1.02424c.51178.37556.64209-.08136.61444.43925-.028.52094-.03424,1.16525.27283,1.30185A20.82686,20.82686,0,0,0,170.71326,45.05936Z"/><path class="cls-5" d="M170.02188,43.59592a1.10785,1.10785,0,0,0-.48126-.05561,5.322,5.322,0,0,0-1.1535.36524,15.585,15.585,0,0,0-1.5058.86,3.28431,3.28431,0,0,1,1.42926-1.03564,3.784,3.784,0,0,1,1.22088-.32474C169.8812,43.38934,170.0491,43.58414,170.02188,43.59592Z"/><path class="cls-6" d="M143.63818,163.03125l-.82763,7.21436s7.05487,3.26452,7.0321,4.61279l-14.04651-1.10266.82874-11.29407Z"/><path class="cls-2" d="M138.51373,169.29565a.576.576,0,0,0-.44806.62378.553.553,0,0,0,.61414.4491.60668.60668,0,0,0,.47131-.66272.574.574,0,0,0-.69079-.39648"/><path class="cls-7" d="M135.7608,174.05l.07917-1.09424,13.50158,1.14612s.60382.321.4989.75622Z"/><path class="cls-7" d="M143.04089,170.19272c-.00775.06848-.35308.07251-.70764.2666-.36011.18469-.55743.46826-.61816.43616-.06226-.01831.07214-.42041.50586-.64795C142.65247,170.01633,143.06079,170.13083,143.04089,170.19272Z"/><path class="cls-7" d="M144.46814,170.91782c.01031.06775-.29559.16088-.55151.43286-.26355.264-.34717.57336-.41535.56482-.06512.00586-.08093-.39978.24341-.73157C144.0661,170.84921,144.4718,170.85226,144.46814,170.91782Z"/><path class="cls-7" d="M145.16592,172.74655c-.06372.00965-.1322-.34057.07325-.70239.20324-.3634.53827-.48609.563-.42664.03425.05921-.19.24475-.35424.54444C145.2767,172.45724,145.23434,172.74521,145.16592,172.74655Z"/><path class="cls-7" d="M143.04733,168.52725c-.03351.06043-.34094-.05884-.73053-.06286-.38983-.01221-.70172.09423-.733.03271-.0357-.05261.27875-.28357.73785-.27234C142.78073,168.23245,143.08524,168.4761,143.04733,168.52725Z"/><path class="cls-6" d="M129.24329,163.54758l-.41346,7.25036s7.231,2.85486,7.28467,4.20191l-14.0863-.296.18048-11.32312Z"/><path class="cls-2" d="M124.48541,170.09622a.57558.57558,0,0,0-.41125.64807.55316.55316,0,0,0,.63879.41382.60717.60717,0,0,0,.43225-.68884.57419.57419,0,0,0-.71246-.35645"/><path class="cls-7" d="M122.01089,175.00006l.01624-1.097,13.545.37109s.62146.28564.5412.72595Z"/><path class="cls-7" d="M129.05811,170.73108c-.004.06885-.3487.09277-.69141.30676-.34906.205-.52942.49951-.59241.47083-.063-.01465.04822-.42383.46832-.67554C128.6601,170.57751,129.07434,170.66846,129.05811,170.73108Z"/><path class="cls-7" d="M130.52286,171.37329c.01434.067-.28614.17786-.52613.46387-.2478.27868-.31372.592-.38183.58764-.06513.00953-.10419-.39428.20068-.74414C130.1171,171.328,130.52243,171.30774,130.52286,171.37329Z"/><path class="cls-7" d="M131.32639,173.15887c-.063.01331-.15131-.33239.03314-.70544.18188-.37439.50952-.51611.53717-.458.0379.05713-.17523.25525-.32215.56372C131.42062,172.864,131.39487,173.15375,131.32639,173.15887Z"/><path class="cls-7" d="M128.97009,169.06845c-.02978.06213-.3435-.03955-.733-.02136-.38946.01025-.69476.13428-.72974.07458-.03863-.05029.26215-.29882.72126-.314C128.687,168.78928,129.00507,169.015,128.97009,169.06845Z"/><path class="cls-7" d="M113.50037,41.72079a5.39388,5.39388,0,0,1,.641.26545,10.75732,10.75732,0,0,0,1.76794.631,4.0702,4.0702,0,0,0,2.68915-.18519,2.82221,2.82221,0,0,0,1.16785-1.06918,10.77182,10.77182,0,0,0,.75659-1.58791,10.77724,10.77724,0,0,1,1.81915-2.92957,10.93181,10.93181,0,0,1,2.10889-1.86662,9.78922,9.78922,0,0,1,1.66488-.90938c.20359-.09388.37113-.14395.48117-.18557a.6521.6521,0,0,1,.1731-.0497,6.77673,6.77673,0,0,1-.623.303,11.26226,11.26226,0,0,0-3.67138,2.82387,10.90021,10.90021,0,0,0-1.7761,2.88869,10.614,10.614,0,0,1-.77536,1.61479,2.98389,2.98389,0,0,1-1.25,1.12735,4.15688,4.15688,0,0,1-2.7977.15721,9.393,9.393,0,0,1-1.76651-.69511c-.20032-.09978-.35346-.18078-.45691-.23746A.615.615,0,0,1,113.50037,41.72079Z"/><path class="cls-7" d="M138.89551,57.57909a.80174.80174,0,0,1-.00629-.20212,3.89,3.89,0,0,1,.03864-.57987,7.51446,7.51446,0,0,1,.58056-2.05514c.3476-.83539.87812-1.7713,1.44477-2.81284a12.23154,12.23154,0,0,0,1.40936-3.54846,9.2683,9.2683,0,0,0-.19074-3.79474,16.77743,16.77743,0,0,0-1.06842-2.94906c-.37518-.814-.712-1.45835-.93847-1.90677-.10456-.20874-.19031-.37995-.25916-.51764a.82951.82951,0,0,1-.07959-.18631.77457.77457,0,0,1,.11341.16791c.07733.13327.1734.29858.29089.5007.247.43811.60272,1.07358.99554,1.88431a15.98714,15.98714,0,0,1,1.117,2.96414,9.26671,9.26671,0,0,1,.20837,3.871,12.097,12.097,0,0,1-1.44324,3.59964c-.57727,1.04043-1.11554,1.96271-1.47522,2.78189a8.09663,8.09663,0,0,0-.63147,2.01209C138.92157,57.30037,138.91644,57.58018,138.89551,57.57909Z"/><path class="cls-7" d="M130.18742,33.26826a5.18591,5.18591,0,0,0-5.39264,1.56254,15.98555,15.98555,0,0,0-2.91113,5.15257,13.92885,13.92885,0,0,1-3.047,5.06053,15.25843,15.25843,0,0,0-2.69244,2.46674c-.74405,1.12956-.82617,2.5971-1.57022,3.727-1.8873,2.86588-6.742,2.07062-8.90353,4.73581a15.96666,15.96666,0,0,0-1.58612,3.27158,3.25446,3.25446,0,0,1-2.72,2.11627,4.25736,4.25736,0,0,0,4.83265.83355c.173,1.55552-2.5485,2.33753-2.25837,3.87574a2.17564,2.17564,0,0,0,1.26575,1.32617,16.7711,16.7711,0,0,0,18.82724-2.37842c1.86887-1.72635,3.30585-3.861,5.0127-5.74753a11.565,11.565,0,0,1,6.32223-4.01346Z"/><path class="cls-7" d="M122.35565,44.52185c-.18262-3.001-.3836-6.1216,1.4278-8.52171a10.36009,10.36009,0,0,1,6.43347-3.77745,9.47669,9.47669,0,0,1,4.15845.25515c1.74994.45763,2.85742,2.03342,4.01239,3.4251,2.314,2.78856,3.26934,7.14218,2.59082,8.60272L129.5564,55.04385c-2.67591-.59974-4.4-.75364-5.70557-3.16517C122.96167,50.23662,122.46906,46.38591,122.35565,44.52185Z"/><path class="cls-4" d="M124.76718,38.54826l7.70508-4.68425c2.58868-1.10673,5.382,1.64057,6.37787,4.27375a50.01293,50.01293,0,0,1,2.6737,8.87626c.62915,4.42728-2.34008,5.78437-2.66815,5.96329l-.0199.011c.0243.095.2176.79193.49378,1.75433l.92517,2.99252c-.01031,3.97147-1.60046,7.29422-6.77472,6.78727L123.8497,40.57874A1.64768,1.64768,0,0,1,124.76718,38.54826Z"/><path class="cls-5" d="M138.84067,52.99057a11.91257,11.91257,0,0,1-6.48725.24634S134.8,55.91312,139.151,54.115Z"/><path class="cls-7" d="M132.40384,33.32021c.74853,1.74772.34906,3.51753.07,5.39814a6.10434,6.10434,0,0,1-.67225,1.88983,1.77083,1.77083,0,0,1-1.33868.8122c.49554-1.208,1.48962-2.751,1.18658-4.02118a13.75249,13.75249,0,0,1-1.0205,4.18355,4.64986,4.64986,0,0,1-3.18256,2.68655l-.15753-.95578a3.33482,3.33482,0,0,1-.63287,2.02606,1.70011,1.70011,0,0,1-1.92743.56955c-.14466-2.38943-2.19428-4.47145-1.90271-6.84762a5.75427,5.75427,0,0,1,2.89569-3.84337,13.21713,13.21713,0,0,1,6.59619-2.06911"/><path class="cls-7" d="M132.22565,33.40749c.0166.03057.03131.06186.04754.09278l-.014.01067C132.24817,33.47635,132.23706,33.44211,132.22565,33.40749Z"/><path class="cls-7" d="M132.27313,33.50026l.24378-.18814c.733-.67081,1.15674-1.32137,2.79992-.50736a8.47587,8.47587,0,0,1,2.51172,2.06693,10.85986,10.85986,0,0,1,1.74878,2.48555,12.46882,12.46882,0,0,1,1.03382,3.442,4.04323,4.04323,0,0,1-2.02826-1.92334,12.03329,12.03329,0,0,0-1.54743-2.392,7.24466,7.24466,0,0,1,.757,2.25247.98507.98507,0,0,1-.09534.63364.413.413,0,0,1-.56079.15242,5.1183,5.1183,0,0,0-.74145-2.71749,14.50121,14.50121,0,0,0-1.71454-2.2764,14.02247,14.02247,0,0,1,1.071,4.64451,1.21346,1.21346,0,0,1-.09613.67117,1.11611,1.11611,0,0,1-.88287.447,2.3409,2.3409,0,0,0-.994.22348A13.46109,13.46109,0,0,0,132.27313,33.50026Z"/><path class="cls-7" d="M122.257,34.13094a2.50526,2.50526,0,0,1,.45618-.211c.29858-.12371.7323-.29711,1.27093-.5055,1.078-.4142,2.57385-.97381,4.2605-1.49331a14.59658,14.59658,0,0,1,2.42328-.6016,2.74987,2.74987,0,0,1,1.98926.42893,1.85438,1.85438,0,0,1,.76507,1.141,1.27571,1.27571,0,0,1,.00769.37848c-.01544.08543-.02649.12849-.03277.12739a3.23136,3.23136,0,0,0-.04822-.4904,1.83722,1.83722,0,0,0-.77021-1.04559,2.649,2.649,0,0,0-1.89093-.3645,15.68881,15.68881,0,0,0-2.38684.60931c-1.68036.518-3.18066,1.05592-4.26971,1.43771-.518.17968-.95136.32988-1.29193.44808A2.5436,2.5436,0,0,1,122.257,34.13094Z"/><path class="cls-7" d="M101.88414,55.93a.33543.33543,0,0,1,.08432-.039c.06812-.02616.152-.0582.25549-.09757.11341-.04013.25959-.07034.42969-.116a6.02968,6.02968,0,0,1,.60123-.08871,11.97164,11.97164,0,0,1,1.66116-.021,14.2729,14.2729,0,0,0,2.18182-.018,3.8729,3.8729,0,0,0,2.3357-1.05335,6.54762,6.54762,0,0,0,1.5448-2.55584c.36267-1.00473.59167-2.11258.96722-3.22922a6.45375,6.45375,0,0,1,1.93988-3.0621,3.525,3.525,0,0,1,1.69657-.77576c.61593-.09168,1.21682-.02908,1.78894-.07361a2.58049,2.58049,0,0,0,1.53085-.58063,4.47036,4.47036,0,0,0,1.00919-1.25288,26.43885,26.43885,0,0,0,1.244-2.77309,23.55333,23.55333,0,0,1,1.11185-2.42366,7.87129,7.87129,0,0,1,2.522-2.89348,4.94143,4.94143,0,0,1,.93406-.48083c.1123-.04381.20105-.06737.25955-.08652a.3487.3487,0,0,1,.09057-.02209,3.29139,3.29139,0,0,1-.33538.14433,5.55066,5.55066,0,0,0-.90757.50734,7.98457,7.98457,0,0,0-2.44394,2.896,24.09093,24.09093,0,0,0-1.08389,2.41852,25.89116,25.89116,0,0,1-1.23779,2.801,4.63654,4.63654,0,0,1-1.04709,1.30739,2.76774,2.76774,0,0,1-1.63211.62589c-.59421.046-1.19141-.014-1.7746.07474a3.3439,3.3439,0,0,0-1.60486.73635,6.29316,6.29316,0,0,0-1.88244,2.97336c-.37332,1.10047-.60675,2.21051-.979,3.22888A6.667,6.667,0,0,1,109.5425,54.612a4.00361,4.00361,0,0,1-2.4292,1.07248,13.90639,13.90639,0,0,1-2.202-.00958,12.6708,12.6708,0,0,0-1.65015-.01178A6.0542,6.0542,0,0,0,101.88414,55.93Z"/><path class="cls-7" d="M127.09332,87.88187a30.6943,30.6943,0,0,0-5.47143,8.401c-1.88282,4.63489-1.05554,26.94946-1.05554,26.94946l.39434,11.69867s-1.41784,11.36737-.9834,18.53381a114.222,114.222,0,0,0,1.772,13.802l7.82147.37554,8.3-60.79589-2.07648,28.03778-1.84192,32.75811,9.97522-.09759s3.21527-28.459,3.86585-33.06848c.73523-5.2096,1.78375-10.38837,1.78375-10.38837s1.66968-13.71142,1.09015-21.09845c-.5791-7.387-4.98132-17.7146-5.12641-18.14905L127.85028,88.027"/><path class="cls-4" d="M90.57829,25.35112A1.60572,1.60572,0,0,0,89.90712,26.97a4.51625,4.51625,0,0,0,.67117,1.97412s-4.18573-3.75093-4.65957-3.90887a.83326.83326,0,0,0-1.06586.78973c.0394.55261,2.5253,2.448,2.86182,2.92182s.0206.27648-.29529.19732c-.31589-.07878-2.76425-1.97966-2.88242-1.9178-.11856.06221-1.30331.25957-.6318,1.16785.6712.90791,2.60592,1.77679,2.843,2.13209.23676.35527.50879.41786.46906.77315-.0394.35565-2.07574-.52464-2.07574-.52464l-1.01471-.52538a.54586.54586,0,0,0-.71793.76726,1.50033,1.50033,0,0,0,.33835.37848,11.29921,11.29921,0,0,0,2.72445,1.34236s.75034.43443.71061.8689c-.03943.43443-3.51422,1.77679-3.51422,1.77679s-.19733.553.27652.75035,1.36627-.31444,1.36627-.31444a8.49389,8.49389,0,0,1,2.62173-.7124,29.64841,29.64841,0,0,0,3.554,1.46128,5.93572,5.93572,0,0,0,1.81619,0l1.63467-3.49213s-1.71347-3.57605-2.02935-4.287c-.31589-.71059-1.38211-.98707-1.57944-1.77681A4.26914,4.26914,0,0,0,90.57829,25.35112Z"/><path class="cls-4" d="M91.52675,35.40515s8.35748,9.56734,10.5632,12.72774c2.27972,3.26642,9.26248,9.10564,9.26248,9.10564s9.06809,9.58242,9.90567,9.666a38.77734,38.77734,0,0,0,4.02637-.25476l-.58652-8.87921s-14.24017-12.23-14.82669-12.73252c-.58612-.50256-15.84576-12.90333-15.84576-12.90333Z"/><path class="cls-5" d="M90.16087,28.08516c.02835-.00847.12812.27647.41675.66859a2.61406,2.61406,0,0,1,.44992.76838.87727.87727,0,0,1-.095.54968,1.2222,1.2222,0,0,0-.16937.47493,4.753,4.753,0,0,0,.51434,1.78787,3.94057,3.94057,0,0,1,.31735.72971,2.851,2.851,0,0,1-.43847-.6686,4.19825,4.19825,0,0,1-.585-1.85745,1.34391,1.34391,0,0,1,.19183-.54782.71815.71815,0,0,0,.09094-.4341,2.95672,2.95672,0,0,0-.38953-.72787A1.54426,1.54426,0,0,1,90.16087,28.08516Z"/><path class="cls-5" d="M103.89436,44.76485a1.00368,1.00368,0,0,1,.5228.21649,2.30451,2.30451,0,0,1,.9856,2.42221,1.002,1.002,0,0,1-.22309.5202,4.98909,4.98909,0,0,1,.08945-.54306,2.4803,2.4803,0,0,0-.93146-2.28964C104.07661,44.88191,103.88222,44.7932,103.89436,44.76485Z"/><path class="cls-6" d="M139.87836,56.43013a8.03579,8.03579,0,0,1,1.00915.29269l6.2641-.409,2.73956,8.20877-2.06951,1.34051c.25146,1.42411,1.34014,3.35034,1.089,5.94745a22.49049,22.49049,0,0,1-.754,4.18833l-.58649,11.72705-3.76941,6.28244h-8.37665l-9.04669-7.03614-1.08905-9.047-4.52337-10.55442-3.2197-2.17737,2.38208-11.57388s3.6022.68372,5.10986,2.2753L126.21,56.98384a3.42176,3.42176,0,0,1,2.17816,0l1.42371-.25146s5.788,4.44864,8.71789,3.59887C141.01343,59.61076,139.87836,56.43013,139.87836,56.43013Z"/><path class="cls-7" d="M130.33063,54.25339c.0567-1.26172-1.04669-2.36072-.97974-3.62207a8.49161,8.49161,0,0,1,.64691-2.00287c.82215-2.62027-1.2304-5.6864.077-8.10126L124.24329,41.948a8.73126,8.73126,0,0,1,.45617,5.3164,20.94945,20.94945,0,0,0-.52874,5.38343,32.432,32.432,0,0,0,1.018,4.12686A14.9,14.9,0,0,1,124.015,66.90454a5.11031,5.11031,0,0,0,3.8537-4.51785c.09235-1.412-.40942-2.89606.11481-4.21042C128.55676,56.73929,130.26105,55.79935,130.33063,54.25339Z"/><path class="cls-8" d="M126.19019,85.91806l-2.07541,5.52075s-15.4235,21.51746-14.975,23.31079c.44809,1.793,8.85382,8.74158,11.31943,7.62085,2.46533-1.12072,8.85348-5.71551,10.983-10.31073,2.12949-4.59515,8.18152-17.48333,8.18152-17.48333L141.52863,90.99l-2.12919-1.45691Z"/><path class="cls-8" d="M147.71353,87.37155a91.01543,91.01543,0,0,1,4.28772,33.69226q-1.94173.23245-3.88342.4646c-1.07294-5.25751-.94068-10.67554-1.3656-16.02435-.42487-5.34876-1.49146-10.84747-4.60987-15.214q2.8028-1.50431,5.60614-3.00867"/><path class="cls-7" d="M130.59344,94.20383a4.39477,4.39477,0,0,1-.97564-.22425,20.56458,20.56458,0,0,1-4.42981-1.9049,4.399,4.399,0,0,1-.83393-.55341,6.27859,6.27859,0,0,1,.89869.43445c.54748.28015,1.3092.6546,2.17,1.02539.86115.36963,1.65674.66492,2.23663.8692A6.2612,6.2612,0,0,1,130.59344,94.20383Z"/><g class="cls-9"><g class="cls-10"><path d="M120.59067,110.58594l-.37335.02722a9.11053,9.11053,0,0,0,10.137,1.86078c1.13061-.53021,2.2536-1.51026,2.20312-2.75794A22.766,22.766,0,0,1,120.59067,110.58594Z"/></g></g><path class="cls-8" d="M139.85266,91.00513a7.37085,7.37085,0,0,0-5.2229,1.54889,10.62675,10.62675,0,0,0-2.12067,3.815c-1.08166,2.98663-1.85156,6.29462-4.1994,8.43445-2.20862,2.01312-5.34771,2.55291-8.30115,3.00683-.08026,1.09131-.06774,2.391.82984,3.01642a2.86288,2.86288,0,0,0,.89136.36969,14.56357,14.56357,0,0,0,2.68469.476,12.5593,12.5593,0,0,0,11.128-4.76922c3.12213-4.32868,3.36877-9.52942,5.13458-14.566"/><path class="cls-7" d="M140.677,92.33707a1.064,1.064,0,0,1-.04272.15948c-.03461.11188-.08209.26434-.14282.46021-.13031.40277-.30628,1.0025-.51471,1.77935-.21241.77576-.444,1.73267-.71393,2.84375-.27167,1.11042-.57434,2.37842-.99921,3.7569a20.40943,20.40943,0,0,1-1.83972,4.34,12.61111,12.61111,0,0,1-1.5257,2.14709,11.1337,11.1337,0,0,1-2.11261,1.82947,13.15227,13.15227,0,0,1-5.59765,2.04517,13.95964,13.95964,0,0,1-3.173.03131,14.4794,14.4794,0,0,1-1.603-.26508q-.3999-.08835-.79676-.201a2.88,2.88,0,0,1-.78088-.3247,1.84882,1.84882,0,0,1-.60339-.65577,2.72738,2.72738,0,0,1-.27692-.82434,6.743,6.743,0,0,1-.04089-1.65564l.00555-.0755.07514-.01178a24.06419,24.06419,0,0,0,5.6286-1.35229,9.11659,9.11659,0,0,0,2.34008-1.38208,8.66589,8.66589,0,0,0,1.71644-1.94617,19.77263,19.77263,0,0,0,1.96752-4.38977,38.20389,38.20389,0,0,1,1.47419-3.93426,9.30288,9.30288,0,0,1,.93957-1.57215,6.93733,6.93733,0,0,1,.54932-.6402,3.42048,3.42048,0,0,1,.63061-.48492,7.9285,7.9285,0,0,1,2.42554-.91339,6.78626,6.78626,0,0,1,1.62366-.16528,2.5851,2.5851,0,0,1,.56329.06958c-.00183.01251-.1933-.03064-.564-.03357a7.18033,7.18033,0,0,0-1.60779.19775,7.985,7.985,0,0,0-2.38727.93073,3.36886,3.36886,0,0,0-.60675.47454,6.9503,6.9503,0,0,0-.53418.634,9.26538,9.26538,0,0,0-.916,1.55841A38.91614,38.91614,0,0,0,131.79,98.69467a19.79308,19.79308,0,0,1-1.9679,4.4336,8.82987,8.82987,0,0,1-1.74621,1.99035,9.2816,9.2816,0,0,1-2.38245,1.41449,24.14107,24.14107,0,0,1-5.67053,1.3714l.08057-.08728a6.55651,6.55651,0,0,0,.03906,1.60742,1.93892,1.93892,0,0,0,.79559,1.35346,5.38677,5.38677,0,0,0,1.51544.5,14.4081,14.4081,0,0,0,1.58234.26214,13.80822,13.80822,0,0,0,3.12836-.02832,13.00011,13.00011,0,0,0,5.52337-2.00586,10.9571,10.9571,0,0,0,2.085-1.79516,12.47463,12.47463,0,0,0,1.51392-2.11408,20.4249,20.4249,0,0,0,1.84747-4.3006c.43146-1.37.74335-2.63427,1.025-3.74212.27942-1.10895.522-2.064.74554-2.83789.21979-.775.4079-1.37213.55-1.77161.06854-.19336.12231-.34424.16132-.45471A1.03244,1.03244,0,0,1,140.677,92.33707Z"/><path class="cls-7" d="M123.30072,111.4707a4.7445,4.7445,0,0,0-.43188-4.16034,1.46916,1.46916,0,0,1,.40649.51,3.8114,3.8114,0,0,1,.31842,3.06787A1.472,1.472,0,0,1,123.30072,111.4707Z"/><path class="cls-7" d="M123.40637,108.78635a14.37513,14.37513,0,0,1-3.30877.22162,14.38246,14.38246,0,0,1,3.30877-.22162Z"/><path class="cls-7" d="M123.71716,109.98846a15.413,15.413,0,0,1-3.43176.07178,15.39552,15.39552,0,0,1,3.43176-.07178Z"/><path class="cls-8" d="M143.39621,91.94061c2.5824,2.33124,3.54736,6.027,3.45306,9.50434-.0946,3.47778-1.10559,6.85431-1.88244,10.24517-.77686,3.39124-1.32135,6.95032-.48633,10.32758q-1.65573.23694-3.311.47455a13.90787,13.90787,0,0,1-3.66919-10.84381c.33941-3.2425,1.81213-6.23792,2.86767-9.32245,1.05585-3.08417,1.68176-6.56372.35163-9.5401"/><path class="cls-7" d="M140.71967,92.786a1.14766,1.14766,0,0,1,.06848.14508c.04419.10529.10492.24927.183.43408a9.23924,9.23924,0,0,1,.44257,1.75873,11.701,11.701,0,0,1,.03051,2.87427,19.38761,19.38761,0,0,1-.80926,3.72925c-.42487,1.35229-1.00141,2.79406-1.579,4.3551a24.47837,24.47837,0,0,0-1.4101,5.1084,13.61787,13.61787,0,0,0,.47309,5.80273,13.79865,13.79865,0,0,0,3.12024,5.4328l-.08313-.029c.51544-.074,1.06951-.1532,1.62695-.23309.5769-.08289,1.15008-.165,1.6839-.24146l-.07947.1178a17.61238,17.61238,0,0,1-.24445-6.351,49.91871,49.91871,0,0,1,1.16053-5.78992c.4469-1.822.87072-3.55023,1.1394-5.1886a22.08577,22.08577,0,0,0,.324-4.58594,12.941,12.941,0,0,0-1.839-6.30572,9.92306,9.92306,0,0,0-1.09449-1.42737c-.13995-.14179-.24932-.25226-.32922-.33325a1.0187,1.0187,0,0,1-.10791-.11817.974.974,0,0,1,.12079.10419c.08362.07806.19739.18445.3435.32141a9.26835,9.26835,0,0,1,1.12812,1.41419,12.85959,12.85959,0,0,1,1.9104,6.33807,22.02212,22.02212,0,0,1-.30268,4.61761c-.26281,1.64753-.68219,3.38172-1.124,5.20447a50.34844,50.34844,0,0,0-1.145,5.77149,17.48071,17.48071,0,0,0,.24591,6.28247l.025.10315-.10449.01471c-.53351.07659-1.10712.15869-1.68366.24145-.55743.08-1.11151.15906-1.62695.23309l-.04938.007-.03424-.03607a13.95933,13.95933,0,0,1-3.15888-5.5105,13.76236,13.76236,0,0,1-.46722-5.88043,24.49521,24.49521,0,0,1,1.43622-5.13891c.58581-1.56141,1.16821-2.99762,1.599-4.34083a19.51148,19.51148,0,0,0,.83166-3.70043,11.86346,11.86346,0,0,0,.00153-2.853,9.879,9.879,0,0,0-.40613-1.75617c-.07031-.18707-.12518-.33245-.16534-.43927C140.734,92.83893,140.71967,92.786,140.71967,92.786Z"/><path class="cls-7" d="M143.93936,119.35257a10.018,10.018,0,0,0-4.55322.61005,1.91581,1.91581,0,0,1,.606-.32953,6.53356,6.53356,0,0,1,3.27563-.43891A1.91061,1.91061,0,0,1,143.93936,119.35257Z"/><path class="cls-7" d="M142.01282,122.40509a12.13772,12.13772,0,0,1-1.3833-2.70905,12.09068,12.09068,0,0,1,1.3833,2.70905Z"/><path class="cls-7" d="M143.7424,122.15909a13.04113,13.04113,0,0,1-1.25214-2.8949,12.98478,12.98478,0,0,1,1.25214,2.8949Z"/><path class="cls-7" d="M138.99115,90.85852c-.02283.00739-.0769-.07214-.10413-.22162a1.07588,1.07588,0,0,1,.44733-1.036c.12769-.08246.22235-.09759.233-.07587.02576.04822-.27209.23121-.42743.60639C138.97351,90.50177,139.04419,90.84418,138.99115,90.85852Z"/><path class="cls-8" d="M143.29578,90.05148a3.20765,3.20765,0,0,0-2.33265-1.03857,2.03185,2.03185,0,0,0-2.09088,1.78821,2.24554,2.24554,0,0,0,1.62879,2.28637,2.51162,2.51162,0,0,0,2.65936-1.04528A1.87721,1.87721,0,0,0,143.29578,90.05148Z"/><path class="cls-7" d="M141.43842,89.40463c.01214-.01587.23419.14282.44067.52057a2.21267,2.21267,0,0,1-.79083,2.94983,1.18336,1.18336,0,0,1-.64209.23041c-.01032-.03125.24011-.10413.56628-.34308a2.242,2.242,0,0,0,.74481-2.77789C141.59418,89.61484,141.4137,89.4263,141.43842,89.40463Z"/><path class="cls-7" d="M143.08737,89.78683c.017-.01361.14466.10163.26654.3476a1.99267,1.99267,0,0,1-.21466,2.02972c-.17077.2146-.31958.30042-.33313.28388-.021-.02283.09094-.14215.22125-.36084a2.29373,2.29373,0,0,0,.201-1.90161C143.147,89.94479,143.06229,89.8049,143.08737,89.78683Z"/><g class="cls-9"><g class="cls-10"><path d="M143.34216,91.93585a3.42657,3.42657,0,0,1-2.51605,1.14655,1.72952,1.72952,0,0,0,1.30145.9002,1.33582,1.33582,0,0,0,1.2146-2.04675Z"/></g></g><g class="cls-9"><g class="cls-10"><path d="M131.55811,95.17975a3.00456,3.00456,0,0,0-1.38288-.80512c-1.91852-.69256-3.9873-1.87774-5.90582-2.57025a40.59584,40.59584,0,0,0,5.65259,4.583c.48486.2901,1.11847.56586,1.57831.23743A1.03582,1.03582,0,0,0,131.55811,95.17975Z"/></g></g><g class="cls-9"><g class="cls-10"><path d="M147.4473,98.62921a8.83951,8.83951,0,0,0-3.2229-5.97027,21.85652,21.85652,0,0,1,2.45642,5.69964c.49,2.22785.13,3.652-.09168,5.92243l.21539,1.11962A16.79578,16.79578,0,0,0,147.4473,98.62921Z"/></g></g><path class="cls-7" d="M130.52246,96.774a1.117,1.117,0,0,1-.29785-.14618c-.18591-.10382-.44806-.26508-.76617-.47388a23.28451,23.28451,0,0,1-4.48945-3.8772c-.25262-.28424-.45031-.52026-.58026-.68884a1.1252,1.1252,0,0,1-.1878-.27319,10.37627,10.37627,0,0,1,.86706.86963c.52759.543,1.27423,1.275,2.14716,2.02972.87366.75366,1.70648,1.3858,2.32062,1.82874A10.31168,10.31168,0,0,1,130.52246,96.774Z"/><path class="cls-6" d="M76.61537,102.36136a4.25942,4.25942,0,0,0-.38917.84979,4.46915,4.46915,0,0,0-.55262-1.59241,9.617,9.617,0,0,0-1.79338-2.06323l-.06111-.05707a6.15236,6.15236,0,0,0-.26987,3.1814,4.1612,4.1612,0,0,0,.187.6023q-.27888-.10713-.56366-.19843a21.19245,21.19245,0,0,0-4.45157-.55737,11.32714,11.32714,0,0,0,3.60551,3.333c.08725.05042.17562.09864.26435.14618a4.278,4.278,0,0,0-.73709.34095,9.63549,9.63549,0,0,0-2.064,1.79223c-.01877.02057-.03792.0409-.05707.0611a6.15173,6.15173,0,0,0,3.18064.2688,4.28693,4.28693,0,0,0,1.28529-.52649,4.19644,4.19644,0,0,0-.23784.65613,5.69655,5.69655,0,0,0,.028,2.70422l.05044-.05017a9.24456,9.24456,0,0,0,1.49809-1.80365,4.85638,4.85638,0,0,0,.62183-2.1424,13.9552,13.9552,0,0,0-.0416-1.47338v0a13.981,13.981,0,0,0,1.09053-.99152,4.859,4.859,0,0,0,1.11336-1.93366,9.25438,9.25438,0,0,0,.26067-2.33013l.00146-.071A5.69457,5.69457,0,0,0,76.61537,102.36136Z"/><path class="cls-7" d="M79.01769,106.78122c-.01582.04419-1.62474-.49078-3.593-1.19464-1.96862-.704-3.55138-1.31073-3.53556-1.35492.01584-.04456,1.62438.49042,3.593,1.1947C77.4504,106.13028,79.03353,106.73709,79.01769,106.78122Z"/><path class="cls-7" d="M75.24094,105.44183c.02392.04053-.26288.25483-.64061.4787a1.93442,1.93442,0,0,1-.72716.3324c-.02429-.04053.26251-.25476.64026-.47894A1.92811,1.92811,0,0,1,75.24094,105.44183Z"/><path class="cls-7" d="M74.459,105.23526c-.04785.00562-.11448-.247-.20726-.55035-.09094-.30414-.17562-.55115-.13292-.57288.04052-.02179.19954.20282.296.5235C74.51237,104.95554,74.50465,105.23056,74.459,105.23526Z"/><path class="cls-6" d="M180.18042,59.89523a3.63322,3.63322,0,0,0,.32288.73267,3.82617,3.82617,0,0,0-1.33423-.55228,8.22858,8.22858,0,0,0-2.34192-.02612l-.07111.00662a5.26561,5.26561,0,0,0,1.88324,1.98334,3.58159,3.58159,0,0,0,.49225.22311q-.22751.11765-.44769.24814a18.16412,18.16412,0,0,0-2.89093,2.533,9.70128,9.70128,0,0,0,4.18652-.41159c.08173-.02688.163-.056.24408-.08615a3.67329,3.67329,0,0,0-.20142.66638,8.24114,8.24114,0,0,0-.02685,2.34159l.00665.071a5.2693,5.2693,0,0,0,1.98224-1.88354,3.674,3.674,0,0,0,.39429-1.12256,3.63661,3.63661,0,0,0,.285.52572,4.88158,4.88158,0,0,0,1.74732,1.5213l-.0033-.06076a7.92473,7.92473,0,0,0-.30225-1.98626,4.15668,4.15668,0,0,0-1.018-1.61737,11.90185,11.90185,0,0,0-.96723-.81186v0a11.95906,11.95906,0,0,0-.014-1.26279,4.16542,4.16542,0,0,0-.60456-1.81329,7.92029,7.92029,0,0,0-1.34381-1.49329l-.04455-.04123A4.87924,4.87924,0,0,0,180.18042,59.89523Z"/><path class="cls-7" d="M184.3779,60.87238c.01916.03537-1.23889.761-2.80994,1.62072-1.57135.86005-2.86072,1.52793-2.87976,1.49256-.01953-.035,1.23853-.76065,2.80988-1.6207C183.069,61.50528,184.35837,60.83707,184.3779,60.87238Z"/><path class="cls-7" d="M181.3707,62.52841a3.224,3.224,0,0,1-.25916,1.33759,3.20881,3.20881,0,0,1,.25916-1.33759Z"/><path class="cls-7" d="M180.7934,62.91165c-.02387.03351-.22345-.06741-.47046-.18075-.24628-.11454-.45288-.201-.44257-.24079.00922-.0383.24371-.01257.50366.10822C180.64471,62.718,180.81622,62.87961,180.7934,62.91165Z"/><path class="cls-8" d="M164.18994,86.33658a4.82069,4.82069,0,0,0,4.80426-5.43823S163.69836,81.459,164.18994,86.33658Z"/><path class="cls-7" d="M169.99448,79.64328a29.94446,29.94446,0,0,1-2.08277,2.51868,29.89623,29.89623,0,0,1-2.21747,2.40088,29.86237,29.86237,0,0,1,2.08271-2.51868A29.97336,29.97336,0,0,1,169.99448,79.64328Z"/><path class="cls-7" d="M165.59964,83.4155c-.00922-.04859.26984-.14319.6236-.21131.35424-.06848.64874-.08429.658-.03607.00964.04859-.26984.14325-.62366.21167C165.90335,83.44791,165.60916,83.46414,165.59964,83.4155Z"/><path class="cls-7" d="M168.01154,81.87289a1.45335,1.45335,0,0,1,.05157.70581c-.02093.387-.078.69843-.12738.69587a1.45126,1.45126,0,0,1-.05157-.70581C167.90515,82.18179,167.96222,81.87033,168.01154,81.87289Z"/><path class="cls-8" d="M111.89215,88.10019a4.82047,4.82047,0,0,0,7.25519-.12921S115.15714,84.44424,111.89215,88.10019Z"/><path class="cls-7" d="M120.74857,87.86124a30.00359,30.00359,0,0,1-3.26389.165,29.96832,29.96832,0,0,1-3.26862-.014,29.77156,29.77156,0,0,1,3.2642-.165A29.72453,29.72453,0,0,1,120.74857,87.86124Z"/><path class="cls-7" d="M114.99844,87.16763c.02945-.03979.28791.10236.57727.317.2894.215.5.42157.47055.461-.02944.03973-.28793-.10236-.5773-.317C115.17957,87.4136,114.969,87.20743,114.99844,87.16763Z"/><path class="cls-7" d="M117.76489,87.90469c.03128.03791-.18594.26838-.48562.51435s-.56809.41424-.5994.37591c-.03128-.03827.18631-.26837.486-.51434C117.46521,88.0347,117.73361,87.86642,117.76489,87.90469Z"/><path class="cls-8" d="M164.87729,112.37823a3.552,3.552,0,0,0,1.42926-5.15185S162.979,109.30585,164.87729,112.37823Z"/><path class="cls-7" d="M166.56427,106.07251a22.09833,22.09833,0,0,1-.56738,2.34015,21.91175,21.91175,0,0,1-.69507,2.30542,22.08464,22.08464,0,0,1,.56769-2.34009A22.12406,22.12406,0,0,1,166.56427,106.07251Z"/><path class="cls-7" d="M164.8692,109.98868c-.02167-.029.13288-.18183.3454-.34125.2124-.15936.4024-.265.42407-.236.02179.02905-.13251.18188-.345.34125C165.0813,109.91214,164.89136,110.01785,164.8692,109.98868Z"/><path class="cls-7" d="M165.9697,108.18915c.0335-.01435.15051.1878.26135.45062.11114.26331.17383.48822.14026.5022-.03351.014-.15058-.18775-.26178-.451C165.99875,108.4281,165.93613,108.20319,165.9697,108.18915Z"/><path class="cls-8" d="M76.16029,75.37689A3.98044,3.98044,0,0,0,80.12515,79.869S80.20688,75.47266,76.16029,75.37689Z"/><path class="cls-7" d="M81.05144,80.81662a24.6429,24.6429,0,0,1-1.8508-1.96381,24.72882,24.72882,0,0,1-1.74071-2.06213,24.66019,24.66019,0,0,1,1.8508,1.96387A24.598,24.598,0,0,1,81.05144,80.81662Z"/><path class="cls-7" d="M78.40942,76.83044c.04088-.003.08983.23566.10971.53272.0199.29675.003.53973-.03791.54272-.04088.00257-.08985-.236-.10971-.53314C78.352,77.076,78.36893,76.833,78.40942,76.83044Z"/><path class="cls-7" d="M79.42709,78.96436a1.20369,1.20369,0,0,1-.58355-.03022c-.31478-.0567-.5644-.13543-.557-.1756a1.20314,1.20314,0,0,1,.58356.03016C79.18484,78.8454,79.43448,78.92383,79.42709,78.96436Z"/><path class="cls-8" d="M89.61409,130.40579a5.65412,5.65412,0,0,0,8.32254-1.782S92.54951,125.46237,89.61409,130.40579Z"/><path class="cls-7" d="M99.75467,128.13675c.00735.03387-1.66229.42926-3.72885.88324-2.06766.45392-3.74909.79486-3.75647.761-.00736-.03357,1.66195-.4289,3.72958-.88324C98.06549,128.44376,99.74731,128.10324,99.75467,128.13675Z"/><path class="cls-7" d="M92.97954,128.633a4.72086,4.72086,0,0,1,1.38174.65979,4.7199,4.7199,0,0,1-1.38174-.65979Z"/><path class="cls-7" d="M96.33028,128.85834a5.44163,5.44163,0,0,1-1.04859,1.2691,5.46527,5.46527,0,0,1,1.04859-1.2691Z"/><path class="cls-6" d="M94.68448,100.75726a3.74455,3.74455,0,0,0,4.90369,2.77967S98.31281,99.60187,94.68448,100.75726Z"/><path class="cls-7" d="M100.70227,104.09613c-.011.02-1.01138-.5191-2.23444-1.20392-1.22305-.68475-2.20535-1.25622-2.1943-1.27606.01144-.0199,1.01175.5191,2.2348,1.20392C99.731,103.50488,100.71368,104.07593,100.70227,104.09613Z"/><path class="cls-7" d="M97.13063,101.36029a3.11865,3.11865,0,0,1,.39322.93475,1.59871,1.59871,0,0,1-.23453-.45135A1.58115,1.58115,0,0,1,97.13063,101.36029Z"/><path class="cls-7" d="M98.68987,102.94635a3.59844,3.59844,0,0,1-1.07767.16681,3.62916,3.62916,0,0,1,1.07767-.16681Z"/><path class="cls-6" d="M190.254,88.1134a3.7903,3.7903,0,0,0,1.31036-5.5531S188.10242,84.91547,190.254,88.1134Z"/><path class="cls-7" d="M191.7915,81.31921c.02277.00519-.21722,1.13025-.53613,2.51239-.31848,1.38288-.59491,2.49915-.61737,2.494-.02252-.00512.21722-1.12988.536-2.51275C191.49249,82.43073,191.769,81.31409,191.7915,81.31921Z"/><path class="cls-7" d="M190.14648,85.56528a3.17459,3.17459,0,0,1,.79639-.64722,3.15376,3.15376,0,0,1-.79639.64722Z"/><path class="cls-7" d="M191.24515,83.60077a3.64186,3.64186,0,0,1,.468.99951,3.66606,3.66606,0,0,1-.468-.99951Z"/></svg>