<svg id="Layer_1" data-name="Layer 1" xmlns="http://www.w3.org/2000/svg" xmlns:xlink="http://www.w3.org/1999/xlink" viewBox="0 0 257 200"><defs><style>.cls-1{fill:none;}.cls-2{fill:#e0e0e0;}.cls-3{fill:#f5f5f5;}.cls-4{fill:#ebebeb;}.cls-5{fill:#fafafa;}.cls-6{opacity:0.302;isolation:isolate;}.cls-7{clip-path:url(#clip-path);}.cls-8{fill:#fff;}.cls-9{fill:#263238;}.cls-10{fill:#455a64;}.cls-11{fill:#00ac71;}.cls-12{fill:#ffbe9d;}.cls-13{fill:#eb996e;}</style><clipPath id="clip-path"><rect class="cls-1" width="257" height="200"/></clipPath></defs><path class="cls-2" d="M146.05653,179.00342c0,1.02386-6.52546,1.85364-14.575,1.85364s-14.575-.82978-14.575-1.85364c0-1.02393,6.52549-1.8537,14.575-1.8537S146.05653,177.97949,146.05653,179.00342Z"/><path class="cls-3" d="M106.23073,67.48395a6.92118,6.92118,0,1,0,9.78651-.17209A6.92155,6.92155,0,0,0,106.23073,67.48395ZM102.792,58.89044a15.80594,15.80594,0,0,1,3.85736-1.67633l.79459-3.8181,6.451-.11336.92816,3.78778a15.79256,15.79256,0,0,1,3.91423,1.53981l3.2603-2.13723,4.64148,4.48173-2.02052,3.33251a15.812,15.812,0,0,1,1.676,3.8585l3.8177.79457.11336,6.45066-3.78742.92852a15.7943,15.7943,0,0,1-1.53979,3.91385l2.13685,3.26067-4.481,4.64149-3.33327-2.0209a15.79558,15.79558,0,0,1-3.85809,1.676l-.79461,3.81846-6.45063.113-.92852-3.78777a15.809,15.809,0,0,1-3.91386-1.53981l-3.2603,2.13725-4.64149-4.48175,2.02052-3.33287a15.80087,15.80087,0,0,1-1.67633-3.85776L91.9,76.06474l-.11336-6.451,3.78778-.92851a15.8083,15.8083,0,0,1,1.53981-3.91385L94.97737,61.511l4.481-4.64149Z"/><path class="cls-4" d="M141.93016,77.09949a5.27618,5.27618,0,1,0,7.32379,1.42833A5.27626,5.27626,0,0,0,141.93016,77.09949Zm-1.19635-6.95418a12.05512,12.05512,0,0,1,3.14243-.636l1.19973-2.72009,4.82746.9416.08938,2.97151a12.04838,12.04838,0,0,1,2.67334,1.77062l2.7706-1.07442,2.74741,4.07957-2.03662,2.16344a12.034,12.034,0,0,1,.636,3.14284l2.71973,1.19975-.94162,4.82739-2.9715.0898a12.05571,12.05571,0,0,1-1.77063,2.673l1.07444,2.7706-4.07923,2.74779-2.16342-2.037a12.04892,12.04892,0,0,1-3.14322.636l-1.19974,2.72009-4.82742-.942-.08938-2.97151a12.05346,12.05346,0,0,1-2.673-1.77062l-2.771,1.07442-2.74744-4.07958,2.037-2.163a12.03007,12.03007,0,0,1-.63633-3.14322l-2.72009-1.19974.942-4.827,2.97186-.09018a12.05972,12.05972,0,0,1,1.77023-2.67258l-1.0744-2.771L138.57,68.10832Z"/><path class="cls-2" d="M192.57126,143.78018s.02356-.052.0722-.15191l.04081-.08378c.01309-.03179.02355-.06811.037-.107a1.53384,1.53384,0,0,0,.0752-.2746c.00973-.0531.02279-.10885.03143-.16873l.01383-.19a1.294,1.294,0,0,0,.00189-.20914,2.1835,2.1835,0,0,0-.01312-.22708,4.25515,4.25515,0,0,0-.26035-1.05643,9.76505,9.76505,0,0,0-1.52634-2.56338,21.92379,21.92379,0,0,0-2.75149-2.85327,34.103,34.103,0,0,0-3.8342-2.90006,39.10793,39.10793,0,0,0-4.814-2.69726c-.88025-.41224-1.79981-.79944-2.75638-1.14588a23.9586,23.9586,0,0,0-2.98423-.881,12.883,12.883,0,0,0-3.19445-.34641,5.43621,5.43621,0,0,0-1.61164.27869,3.06449,3.06449,0,0,0-.73059.37827,1.96758,1.96758,0,0,0-.81668,1.38339,3.05784,3.05784,0,0,0,.02243.82226,5.40633,5.40633,0,0,0,.5365,1.54581,12.86708,12.86708,0,0,0,1.85031,2.62808,23.99144,23.99144,0,0,0,2.21652,2.18436c.76691.66928,1.551,1.28616,2.33817,1.85666a39.06176,39.06176,0,0,0,4.692,2.90491,34.10246,34.10246,0,0,0,4.39492,1.94983,21.947,21.947,0,0,0,3.82895,1.025,9.78043,9.78043,0,0,0,2.9816.09317,4.25787,4.25787,0,0,0,1.05011-.284,2.17845,2.17845,0,0,0,.205-.09875,1.28436,1.28436,0,0,0,.18219-.10251l.15936-.10437c.04788-.03665.09055-.07483.13245-.10925a1.47645,1.47645,0,0,0,.20349-.199c.02771-.0303.05462-.05685.076-.08383l.05346-.07629c.0636-.09091.09763-.13654.09763-.13654s-.03027.04788-.09241.14029l-.05234.07742c-.021.02732-.04788.05463-.07486.08567a1.50991,1.50991,0,0,1-.20236.20239c-.0419.03479-.08417.07373-.13244.11075l-.15937.10623a1.32121,1.32121,0,0,1-.18255.10477,2.1058,2.1058,0,0,1-.20575.10061,4.26258,4.26258,0,0,1-1.05387.29142,9.7636,9.7636,0,0,1-2.99093-.08268,21.8596,21.8596,0,0,1-3.83866-1.01754,34.04266,34.04266,0,0,1-4.40432-1.94535,39.00508,39.00508,0,0,1-4.70206-2.90414c-.789-.57089-1.575-1.18814-2.34378-1.85855a24.02379,24.02379,0,0,1-2.22366-2.18924,12.91562,12.91562,0,0,1-1.86042-2.64078,5.472,5.472,0,0,1-.54242-1.56448,3.12884,3.12884,0,0,1-.02285-.84064,2.03326,2.03326,0,0,1,.84249-1.42719,3.1344,3.1344,0,0,1,.74671-.38681,5.48793,5.48793,0,0,1,1.6311-.2821,12.91788,12.91788,0,0,1,3.21054.34866,23.99063,23.99063,0,0,1,2.99167.8848c.95847.34787,1.87912.73621,2.7609,1.15a39.06938,39.06938,0,0,1,4.81768,2.70621,34.07736,34.07736,0,0,1,3.8353,2.91092,21.891,21.891,0,0,1,2.74967,2.86484,9.75412,9.75412,0,0,1,1.52145,2.57684,4.275,4.275,0,0,1,.25589,1.06357,2.209,2.209,0,0,1,.0116.22858,1.26032,1.26032,0,0,1-.00336.21023l-.01535.19116c-.00934.05985-.02283.11637-.0333.16947a1.48855,1.48855,0,0,1-.07894.27536c-.01386.03888-.02469.07519-.03815.107l-.04267.08341C192.59857,143.73041,192.57126,143.78018,192.57126,143.78018Z"/><path class="cls-2" d="M194.59924,133.61548s-.01721-.05426-.04715-.16089l-.025-.08975c-.01163-.03256-.02808-.06659-.04416-.1044a1.514,1.514,0,0,0-.12646-.25516c-.02805-.046-.05536-.0965-.08866-.147-.037-.04789-.07556-.098-.11633-.15116a1.3192,1.3192,0,0,0-.1377-.15707,2.09638,2.09638,0,0,0-.16122-.16049,4.26232,4.26232,0,0,0-.89746-.61542,9.77178,9.77178,0,0,0-2.84506-.8967,21.958,21.958,0,0,0-3.95273-.29782,34.07922,34.07922,0,0,0-4.7919.38834,39.03435,39.03435,0,0,0-5.38782,1.19152c-.93152.27829-1.875.60117-2.82.97977a23.93947,23.93947,0,0,0-2.81326,1.3288,12.88894,12.88894,0,0,0-2.61459,1.86825,5.42735,5.42735,0,0,0-1.01719,1.28055,3.07148,3.07148,0,0,0-.2933.76843,1.9683,1.9683,0,0,0,.31165,1.57608,3.05868,3.05868,0,0,0,.56414.59894,5.418,5.418,0,0,0,1.42908.79648,12.87574,12.87574,0,0,0,3.13013.72913,23.92669,23.92669,0,0,0,3.10837.15451c1.01794-.01087,2.01342-.07263,2.98083-.17063a39.0579,39.0579,0,0,0,5.435-.95544,34.13651,34.13651,0,0,0,4.57751-1.47061A21.93989,21.93989,0,0,0,191.4957,137.86a9.764,9.764,0,0,0,2.28689-1.915,4.26,4.26,0,0,0,.59482-.91132,2.22518,2.22518,0,0,0,.08756-.20987,1.28772,1.28772,0,0,0,.06732-.1979l.04974-.18406c.01123-.05908.01758-.116.02582-.16946a1.52834,1.52834,0,0,0,.01987-.284c0-.0411.00219-.07891.00033-.11334l-.01083-.09241c-.01309-.11038-.018-.1672-.018-.1672s.00937.05609.02472.16647l.0123.09278c.00266.03442.00076.0722.00116.1137a1.51713,1.51713,0,0,1-.01648.28583c-.00781.0535-.01385.11112-.02469.17059-.01532.05875-.0314.12085-.04864.18555a1.31173,1.31173,0,0,1-.06623.19977,2.17532,2.17532,0,0,1-.08676.21176,4.25908,4.25908,0,0,1-.59256.91913,9.75955,9.75955,0,0,1-2.28692,1.92929,21.86885,21.86885,0,0,1-3.542,1.79569,34.04553,34.04553,0,0,1-4.58163,1.48031,38.99446,38.99446,0,0,1-5.44205.96256c-.9689.09915-1.96631.16162-2.98608.17321a23.98709,23.98709,0,0,1-3.11664-.15338,12.90289,12.90289,0,0,1-3.14621-.73251,5.46933,5.46933,0,0,1-1.44629-.80618,3.13357,3.13357,0,0,1-.57684-.612,2.03377,2.03377,0,0,1-.321-1.62622,3.11849,3.11849,0,0,1,.29966-.78562,5.49942,5.49942,0,0,1,1.02917-1.29626,12.9339,12.9339,0,0,1,2.62805-1.87686,23.9666,23.9666,0,0,1,2.82148-1.33106c.94683-.3786,1.8926-.70145,2.826-.9798a39.01851,39.01851,0,0,1,5.39676-1.18737,34.06011,34.06011,0,0,1,4.79938-.38083,21.87507,21.87507,0,0,1,3.9595.30789,9.7526,9.7526,0,0,1,2.85065.91015,4.25575,4.25575,0,0,1,.89859.62327,2.12,2.12,0,0,1,.16089.16275,1.24581,1.24581,0,0,1,.13763.15936l.1156.15265c.03293.05127.06028.10214.08793.1485a1.49871,1.49871,0,0,1,.1246.25814c.01532.03818.0314.07257.04227.1055l.02392.09052C194.58655,133.56012,194.59924,133.61548,194.59924,133.61548Z"/><path class="cls-2" d="M187.12436,122.94641s-.05353-.0198-.156-.06134l-.08642-.03516c-.03256-.01083-.07-.01834-.10926-.0292a1.52089,1.52089,0,0,0-.27944-.05649c-.05353-.00595-.11036-.01495-.17023-.01947q-.09087-.00055-.19077-.0007a1.25146,1.25146,0,0,0-.2084.01269,2.09093,2.09093,0,0,0-.22592.02881,4.25385,4.25385,0,0,0-1.03629.33222,9.77627,9.77627,0,0,0-2.45187,1.69916,21.94585,21.94585,0,0,0-2.65686,2.94158,34.12459,34.12459,0,0,0-2.62918,4.025,39.099,39.099,0,0,0-2.35947,4.98825c-.35056.90683-.6734,1.85031-.95322,2.829a24.01855,24.01855,0,0,0-.67337,3.03772,12.88462,12.88462,0,0,0-.12533,3.2109,5.42105,5.42105,0,0,0,.389,1.58844,3.06822,3.06822,0,0,0,.42762.70255,1.96929,1.96929,0,0,0,1.43655.71979,3.07457,3.07457,0,0,0,.81854-.07932,5.39749,5.39749,0,0,0,1.505-.6416,12.85174,12.85174,0,0,0,2.49451-2.02689,23.96286,23.96286,0,0,0,2.02652-2.36206c.615-.81106,1.17617-1.63555,1.69134-2.46048a39.10054,39.10054,0,0,0,2.57492-4.88089,34.17151,34.17151,0,0,0,1.6423-4.5184,21.93915,21.93915,0,0,0,.7587-3.89068,9.77457,9.77457,0,0,0-.11224-2.98087,4.2612,4.2612,0,0,0-.35578-1.028,2.24064,2.24064,0,0,0-.11221-.19788,1.3138,1.3138,0,0,0-.11523-.17435l-.11487-.15225c-.04-.04526-.08115-.08493-.1182-.12421a1.50285,1.50285,0,0,0-.21249-.18966c-.03217-.02506-.06061-.05014-.08905-.06995l-.07965-.04791c-.095-.05722-.14328-.08829-.14328-.08829s.05011.02695.14664.08267l.08081.04679c.02877.01907.05758.04413.09051.06884a1.52268,1.52268,0,0,1,.21588.18815c.03742.0393.07932.07894.11969.1242.037.04828.07633.09876.1171.15192a1.31434,1.31434,0,0,1,.11709.17468c.03592.064.08231.12567.11451.19827a4.26936,4.26936,0,0,1,.36322,1.03177,9.745,9.745,0,0,1,.12344,2.98944,21.87626,21.87626,0,0,1-.75079,3.8993,34.03791,34.03791,0,0,1-1.63709,4.5281,39.0319,39.0319,0,0,1-2.57342,4.89066c-.51514.82678-1.07706,1.65313-1.69284,2.46646a23.92538,23.92538,0,0,1-2.03061,2.36917,12.919,12.919,0,0,1-2.5065,2.03772,5.46412,5.46412,0,0,1-1.52338.64908,3.1232,3.1232,0,0,1-.83719.08081,2.03471,2.03471,0,0,1-1.48181-.74259,3.14124,3.14124,0,0,1-.43735-.71792,5.49126,5.49126,0,0,1-.39355-1.60785,12.91565,12.91565,0,0,1,.12646-3.227,23.963,23.963,0,0,1,.67673-3.0452c.281-.9805.60492-1.92584.957-2.8338a39.05191,39.05191,0,0,1,2.368-4.99277,34.01715,34.01715,0,0,1,2.63968-4.02646,21.89374,21.89374,0,0,1,2.66886-2.94082,9.75294,9.75294,0,0,1,2.46606-1.695,4.25445,4.25445,0,0,1,1.043-.32846c.07779-.018.15488-.018.22745-.02768a1.31174,1.31174,0,0,1,.21023-.01123c.067.00113.13092.00186.19153.00259.06061.00489.11746.015.17136.02137a1.49979,1.49979,0,0,1,.28015.05984c.0397.0112.07675.01947.10928.03067l.086.03705C187.07312,122.92285,187.12436,122.94641,187.12436,122.94641Z"/><path class="cls-2" d="M167.37735,145.069a.53425.53425,0,1,1-.74112.147A.5342.5342,0,0,1,167.37735,145.069Z"/><path class="cls-2" d="M193.72574,122.96292a.53434.53434,0,1,1-.62778-.42013A.534.534,0,0,1,193.72574,122.96292Z"/><path class="cls-2" d="M171.029,146.13556a.1358.1358,0,1,1-.15973-.10663A.13589.13589,0,0,1,171.029,146.13556Z"/><path class="cls-2" d="M170.95862,130.88605a.13595.13595,0,1,1-.15973-.107A.13571.13571,0,0,1,170.95862,130.88605Z"/><path class="cls-2" d="M193.15933,133.90131a.13577.13577,0,1,1-.15976-.10663A.13588.13588,0,0,1,193.15933,133.90131Z"/><path class="cls-2" d="M193.77844,127.32458a.13578.13578,0,1,1-.15973-.10662A.1359.1359,0,0,1,193.77844,127.32458Z"/><path class="cls-2" d="M178.15735,135.21362a2.60142,2.60142,0,1,1-.28032.97549A2.5767,2.5767,0,0,1,178.15735,135.21362Z"/><path class="cls-3" d="M163.63332,53.1405a23.10542,23.10542,0,0,0-5.1001-7.95529A49.095,49.095,0,0,0,145.305,35.31154c-4.97406-2.44515-13.08684-4.61643-18.99428-4.58463a15.462,15.462,0,0,0-7.3672,1.1455,4.95845,4.95845,0,0,0-3.30968,4.04591,5.93848,5.93848,0,0,0,2.33627,4.7657c6.01593,4.24007,10.57213,4.46153,16.40624,6.32906s11.83809,4.63325,14.98468,9.8228c1.70776,2.81623,2.6808,6.42071,5.64407,7.91525,2.872,1.44815,6.66126.0419,8.42215-2.62209C165.1881,59.46544,164.76945,56.1161,163.63332,53.1405Z"/><path class="cls-2" d="M83.64844,106.3696s-.14591.0853-.43547.2428c-.2873.16049-.725.38159-1.27793.70892a47.06344,47.06344,0,0,0-4.70582,3.06277A48.36391,48.36391,0,0,0,67.03568,120.5264a31.46194,31.46194,0,0,0-3.22775,5.29687,24.60385,24.60385,0,0,0-1.202,3.11328A18.199,18.199,0,0,0,61.94,132.351a13.10847,13.10847,0,0,0,.19154,3.60523,12.56914,12.56914,0,0,0,.49531,1.79233,11.77988,11.77988,0,0,0,.804,1.7134,14.90575,14.90575,0,0,0,5.62425,5.42743,23.79257,23.79257,0,0,0,7.928,2.64493c1.41971.23642,2.87048.395,4.34145.50842.73549.06287,1.47732.08793,2.22291.12046q1.119.04765,2.24948.09689c.75306.04712,1.51212.0314,2.27417.031q1.14363-.00279,2.29811-.006c.77028.01422,1.54241-.04941,2.31905-.07782q1.1644-.05383,2.33963-.10849a116.57986,116.57986,0,0,0,19.18695-2.87946,180.02964,180.02964,0,0,0,35.28832-12.58966,81.33084,81.33084,0,0,0,14.24954-8.00241,35.65765,35.65765,0,0,0,5.48546-4.96286q.294-.33439.5851-.66626c.19229-.22223.36476-.459.54655-.6861q.26937-.34346.53534-.68347.24637-.35523.49008-.706a16.20463,16.20463,0,0,0,1.67075-2.88285,13.48989,13.48989,0,0,0,1.30974-5.99868,7.30551,7.30551,0,0,0-2.07329-4.9625,8.12,8.12,0,0,0-4.24082-2.09607,11.46941,11.46941,0,0,0-4.02647.003,18.99924,18.99924,0,0,0-3.12711.82416c-.88624.30866-1.621.61353-2.21356.86121-.58772.2525-1.03663.44592-1.34266.57724-.30188.13165-.45865.19415-.45865.19415s.15152-.07483.4508-.21213c.29966-.13656.74521-.34042,1.33516-.59555.59033-.25366,1.32321-.56454,2.20984-.87951a18.86432,18.86432,0,0,1,3.13347-.84436,11.51941,11.51941,0,0,1,4.056-.01944,8.20617,8.20617,0,0,1,4.30031,2.10992,7.41716,7.41716,0,0,1,2.12078,5.0343,13.61162,13.61162,0,0,1-1.30785,6.06119,16.36248,16.36248,0,0,1-1.67786,2.9079q-.24408.35352-.49121.71042-.26708.34227-.53682.688c-.18257.22858-.35539.46689-.54844.691q-.29178.33334-.58658.67038a35.77517,35.77517,0,0,1-5.50154,4.99277,81.32813,81.32813,0,0,1-14.26976,8.03534,179.53393,179.53393,0,0,1-35.32048,12.617c-12.96974,3.0336-25.84821,3.88245-37.30584,2.30185a23.94507,23.94507,0,0,1-7.98334-2.67331,15.06152,15.06152,0,0,1-5.67962-5.49633,11.94762,11.94762,0,0,1-.81254-1.738,12.76632,12.76632,0,0,1-.49905-1.817,13.24887,13.24887,0,0,1-.18855-3.64825,18.31912,18.31912,0,0,1,.67788-3.44324,24.66217,24.66217,0,0,1,1.21545-3.13052,31.54511,31.54511,0,0,1,3.25281-5.31223,48.13559,48.13559,0,0,1,10.24816-10.12921,45.264,45.264,0,0,1,4.73164-3.0358C83.03827,106.66068,83.64844,106.3696,83.64844,106.3696Z"/><path class="cls-4" d="M192.28955,73.253,187.6073,90.47476l-14.21887,3.93106a.9847.9847,0,0,0-.648,1.14812l15.55664-4.00177.54846-.17023,18.44135-4.93776,2.04675-8.16815,2.66022-9.57588a.75676.75676,0,0,0-.83088-1.02992L192.78265,72.718A.71821.71821,0,0,0,192.28955,73.253Z"/><polygon class="cls-5" points="193.247 73.808 188.988 89.491 205.695 84.907 209.435 69.448 193.247 73.808"/><path class="cls-2" d="M211.163,67.67026a.3653.3653,0,0,1-.01382.09128c-.01575.06959-.03482.15637-.05875.26411-.05871.24466-.13992.5836-.24353,1.01456-.22262.89486-.54025,2.17018-.93417,3.75262-.81253,3.19409-1.9397,7.62309-3.21277,12.62744l-.01422.05426-.0546.015c-.85632.23043-1.75866.47361-2.67486.72015-5.61789,1.49939-10.7023,2.85626-14.3988,3.84277-1.8346.47959-3.32352.869-4.36915,1.14251-.50653.12832-.90493.22894-1.19076.30152-.12756.02994-.23007.05425-.31088.07332a.05477.05477,0,1,1-.00489-.01907c.07935-.02394.18-.05425.30567-.09239.28354-.08083.67862-.19342,1.18106-.33634,1.04184-.28807,2.52518-.69769,4.35306-1.20272,3.69275-1.00074,8.77194-2.377,14.38382-3.89777.91656-.24617,1.81887-.48859,2.67556-.71866l-.06805.0692c1.29776-4.998,2.44662-9.42137,3.27487-12.61134.41788-1.5761.75495-2.84656.99136-3.738.11747-.42722.20951-.76354.2761-1.006.03106-.10588.05612-.19116.076-.25963A.355.355,0,0,1,211.163,67.67026Z"/><path class="cls-4" d="M77.29853,127.72056a7.06375,7.06375,0,1,1-1.12009.81413A7.04613,7.04613,0,0,1,77.29853,127.72056Z"/><g class="cls-6"><g class="cls-7"><path class="cls-8" d="M78.49442,134.04568a1.152,1.152,0,1,1,.47138-1.5596A1.152,1.152,0,0,1,78.49442,134.04568Z"/></g></g><g class="cls-6"><g class="cls-7"><path class="cls-8" d="M80.65337,131.03531a.67016.67016,0,1,1,.27422-.9072A.66991.66991,0,0,1,80.65337,131.03531Z"/></g></g><path class="cls-2" d="M76.12151,128.5845c-.09316.08567-8.10269-2.5177-8.45808-.55029s5.56551,6.27145,12.21742,9.0806c6.65229,2.80948,13.93194,4.73086,14.55445,2.80426s-6.4989-6.07581-6.4989-6.07581l-.07557.9921s4.405,2.45563,4.10726,4.13833c-.29815,1.68271-5.74434.25849-11.77074-2.64114-6.02642-2.89929-10.93089-6.1929-10.36113-7.41733.56976-1.22406,5.5513.44406,5.5513.44406Z"/><g class="cls-6"><g class="cls-7"><path class="cls-8" d="M83.41949,128.03308c-.0333.08234-.61764-.14777-1.59217-.24017a6.50207,6.50207,0,0,0-6.3646,3.248c-.49681.8436-.65355,1.45191-.73961,1.43021a2.85538,2.85538,0,0,1,.39768-1.6109,6.109,6.109,0,0,1,1.01232-1.51511,6.12586,6.12586,0,0,1,3.92807-2.00442,6.09113,6.09113,0,0,1,1.82076.06958A2.85852,2.85852,0,0,1,83.41949,128.03308Z"/></g></g><path class="cls-3" d="M73.266,22.11247l.36363,1.67485a1.936,1.936,0,0,1-.5604,1.817L61.82294,36.25542a2.81783,2.81783,0,0,0,.5215,4.48173l7.10794,4.13307a2.9811,2.9811,0,0,0,4.40319-1.90716l3.46792-15.034a1.93662,1.93662,0,0,1,1.36174-1.4287l1.43281-.40366Z"/><path class="cls-2" d="M75.38226,33.95016a5.03306,5.03306,0,0,1-2.10133-1.2843c-.56078-.57425-.97565-1.27382-1.5065-1.87574a3.01986,3.01986,0,0,0-2.03549-1.15561L62.72415,36.503a2.394,2.394,0,0,0,.47138,3.78029l6.3717,3.70474a2.39373,2.39373,0,0,0,3.51581-1.4504Z"/><g class="cls-6"><g class="cls-7"><path class="cls-8" d="M64.48019,39.9691c-.01646.02319-.18069-.0404-.3842-.278a1.98269,1.98269,0,0,1-.40141-1.23227A2.59828,2.59828,0,0,1,63.851,37.561a3.815,3.815,0,0,1,.48446-.90756,15.51868,15.51868,0,0,1,1.51661-1.6857,33.38362,33.38362,0,0,1,4.19331-3.93594,33.43061,33.43061,0,0,1-3.83754,4.28348,20.61178,20.61178,0,0,0-1.50238,1.60826,3.70779,3.70779,0,0,0-.47064.78786,2.4196,2.4196,0,0,0-.18854.75906,2.05926,2.05926,0,0,0,.21061,1.11258C64.38853,39.82358,64.50526,39.9388,64.48019,39.9691Z"/></g></g><path class="cls-5" d="M74.47283,35.00964a1.42229,1.42229,0,0,1-.27346-.02206c-.17471-.02208-.4276-.05649-.73736-.1216a4.25588,4.25588,0,0,1-1.0531-.35988,2.79246,2.79246,0,0,1-.54956-.36961,3.49146,3.49146,0,0,1-.47959-.523c-.2918-.38757-.52075-.78486-.76354-1.1193a3.41546,3.41546,0,0,0-.75644-.78113,1.86544,1.86544,0,0,0-.66067-.309c-.16984-.03666-.26822-.03628-.26785-.04638a.19269.19269,0,0,1,.07108-.00637,1.148,1.148,0,0,1,.20426.015,1.76042,1.76042,0,0,1,.69321.28918,3.33715,3.33715,0,0,1,.79047.78449c.25028.3367.48223.73324.76878,1.11334a3.48545,3.48545,0,0,0,.46465.5099,2.76435,2.76435,0,0,0,.52748.36176,4.45348,4.45348,0,0,0,1.02653.37222c.30451.07333.55517.11859.72763.15189A1.488,1.488,0,0,1,74.47283,35.00964Z"/><path class="cls-3" d="M88.02731,20.25319A3.47255,3.47255,0,0,0,86.868,18.35536a6.40568,6.40568,0,0,0-3.45147-1.76912,5.17226,5.17226,0,0,0-3.92808,1.09986,4.77569,4.77569,0,0,0-1.78671,3.4814c-.12794.88026.79123,1.62472,1.67972,1.67186a5.27689,5.27689,0,0,0,2.52032-.7759,4.19817,4.19817,0,0,1,2.55025-.60454c.88588.16573,1.7205.87352,2.585.618A1.63235,1.63235,0,0,0,88.02731,20.25319Z"/><path class="cls-3" d="M93.89584,18.79568a1.67007,1.67007,0,0,0-1.85817-1.62921c-.52523-.01123-1.08975.64794-1.22593,1.15523a1.43471,1.43471,0,0,0,.46652,1.41934,1.74232,1.74232,0,0,0,1.48032.34867A1.35623,1.35623,0,0,0,93.89584,18.79568Z"/><path class="cls-2" d="M45.23189,74.71535l-.19379.5215a1.22469,1.22469,0,0,0,.06248.99286l10.58559,20.258a1.2251,1.2251,0,0,0,.76579.61465l.59969.162a1.23117,1.23117,0,0,0,.41487.03853l12.35922-.97118a1.22412,1.22412,0,0,0,.98276-1.79793L59.60078,73.60912a1.22372,1.22372,0,0,0-1.17468-.642l-12.143.95433A1.22292,1.22292,0,0,0,45.23189,74.71535Z"/><polygon class="cls-5" points="46.007 74.426 57.237 95.42 69.962 94.42 58.818 73.42 46.007 74.426"/><path class="cls-2" d="M58.53159,90.35506a1.88739,1.88739,0,1,1-.994,2.47729A1.88759,1.88759,0,0,1,58.53159,90.35506Z"/><path class="cls-8" d="M59.29326,91.208l-.052.34194a.09217.09217,0,0,0,.05687.09915l.06434.0258a.10683.10683,0,0,1,.08006.13617c-.02469.076-.2181.544-.2181.544s-.04751.12456-.144.08342l-.09353-.03741a.07883.07883,0,0,0-.09091.02356l-.2383.29779a.07873.07873,0,0,0,.00636.1055l.08717.08529a.14621.14621,0,0,0,.05611.03479.31732.31732,0,0,0,.17994.00485,1.37964,1.37964,0,0,0,.65655-.88324c.20314-.58621.01085-.80918-.03366-.86531a.26932.26932,0,0,0-.15749-.07556l-.0696.00112A.09162.09162,0,0,0,59.29326,91.208Z"/><path class="cls-2" d="M63.472,92.75905a1.88729,1.88729,0,1,1,2.66062-.20912A1.88722,1.88722,0,0,1,63.472,92.75905Z"/><path class="cls-8" d="M63.89809,91.6981l.32921-.10549a.09126.09126,0,0,0,.0636-.09464l-.00523-.06921a.1068.1068,0,0,1,.08642-.13245c.0793-.01121.58435-.04562.58435-.04562s.13242-.01311.1384.09164l.00787.10065a.07868.07868,0,0,0,.06172.07069l.37261.08156a.07865.07865,0,0,0,.09165-.05273l.03778-.116a.14947.14947,0,0,0,.00636-.06546.31594.31594,0,0,0-.07556-.16348,1.37842,1.37842,0,0,0-1.083-.196c-.6154.0782-.72987.34941-.76017.41413a.26626.26626,0,0,0,.00187.17472c.00748.0142.0202.03814.03218.06209A.09189.09189,0,0,0,63.89809,91.6981Z"/><path class="cls-4" d="M58.0374,82.26813a1.33857,1.33857,0,0,0,.29442-1.72013,2.47912,2.47912,0,0,0-2.37367-1.47284c-.88476.12571-1.25512.98838-.82715,1.927a2.64629,2.64629,0,0,0,1.74631,1.43655c-2.28352.72989-.94348,3.377-.94348,3.377l6.2591-.49157S60.63816,82.27786,58.0374,82.26813Z"/><path class="cls-4" d="M65.42667,87.45168a36.09714,36.09714,0,0,1-5.03318.57424,36.03367,36.03367,0,0,1-5.062.21885,36.12485,36.12485,0,0,1,5.03392-.57462A36.05327,36.05327,0,0,1,65.42667,87.45168Z"/><path class="cls-4" d="M68.41461,159.22534l.41.68128a4.66593,4.66593,0,0,0,1.92962,1.77694l.71268.35242-.68125.41a4.66855,4.66855,0,0,0-1.777,1.92963l-.3524.71268-.40965-.68125a4.66656,4.66656,0,0,0-1.93-1.777l-.71266-.35242.68123-.41a4.66345,4.66345,0,0,0,1.777-1.92962Z"/><path class="cls-4" d="M176.238,25.34845l.41.68123a4.66811,4.66811,0,0,0,1.9296,1.777l.71267.3524-.68124.40964a4.667,4.667,0,0,0-1.777,1.93l-.35239.71268-.41-.68124a4.66112,4.66112,0,0,0-1.92963-1.777l-.71264-.3524.68121-.41a4.66587,4.66587,0,0,0,1.777-1.92961Z"/><path class="cls-4" d="M180.92621,35.918l.35654.59221a4.056,4.056,0,0,0,1.67709,1.54468l.61951.306-.5922.35651a4.05574,4.05574,0,0,0-1.54468,1.67711l-.306.6195-.3565-.59221a4.05526,4.05526,0,0,0-1.6771-1.54428l-.61953-.30639.59219-.35653a4.04994,4.04994,0,0,0,1.54428-1.67709Z"/><path class="cls-4" d="M60.5061,151.53052l.28994.48221a3.29951,3.29951,0,0,0,1.36509,1.257l.50429.24952-.48184.29a3.3,3.3,0,0,0-1.25736,1.36506l-.24915.50427-.29031-.48181a3.30061,3.30061,0,0,0-1.36509-1.25739l-.50429-.24911.48184-.29032a3.298,3.298,0,0,0,1.25736-1.36508Z"/><path class="cls-4" d="M184.26434,156.8139l.28992.48185a3.3005,3.3005,0,0,0,1.36511,1.25735l.50428.24918-.48182.28991a3.30136,3.30136,0,0,0-1.25738,1.36545l-.24951.50434-.29-.48224a3.29964,3.29964,0,0,0-1.36508-1.257l-.50431-.24951.48188-.28992a3.29906,3.29906,0,0,0,1.25732-1.36548Z"/><path class="cls-4" d="M56.89528,18.88171l.29031.48185a3.3005,3.3005,0,0,0,1.36509,1.25737l.50429.24914-.48184.28993a3.30125,3.30125,0,0,0-1.25736,1.36547l-.24952.50428-.28994-.4822a3.29954,3.29954,0,0,0-1.36509-1.257l-.50429-.24953.48184-.28993a3.30148,3.30148,0,0,0,1.25736-1.36546Z"/><path class="cls-4" d="M200.69562,106.94159l.29.48187a3.30425,3.30425,0,0,0,1.36544,1.25736l.50431.24911-.48224.29035a3.29963,3.29963,0,0,0-1.257,1.36508l-.24954.5043-.28989-.48187a3.29925,3.29925,0,0,0-1.36551-1.25733l-.5039-.24957.48184-.28992a3.305,3.305,0,0,0,1.25735-1.36508Z"/><path class="cls-4" d="M55.66335,53.644l.28992.48185a3.299,3.299,0,0,0,1.36548,1.25735l.50391.24953-.48184.28993a3.3027,3.3027,0,0,0-1.25736,1.36511l-.24915.50427-.28993-.48184a3.30373,3.30373,0,0,0-1.36547-1.25735l-.50429-.24916.48222-.2903a3.29966,3.29966,0,0,0,1.257-1.3651Z"/><path class="cls-9" d="M205.62181,175.90585c0,.0539-33.19635.09729-74.137.09729-40.95446,0-74.144-.04339-74.144-.09729s33.18958-.09762,74.144-.09762C172.42546,175.80823,205.62181,175.852,205.62181,175.90585Z"/><path class="cls-10" d="M152.01259,151.53571l-46.38117-.107a3.04448,3.04448,0,1,1,.01421-6.026l46.38081.1066a3.04462,3.04462,0,1,1-.01385,6.0264Z"/><path class="cls-10" d="M152.01259,144.22009l-46.38117-.1066a3.04464,3.04464,0,1,1,.01421-6.02639l46.38081.1066a3.04462,3.04462,0,1,1-.01385,6.02639Z"/><path class="cls-10" d="M150.1481,152.62988l-42.46733-.09759a3.187,3.187,0,1,0-.015,6.37393l4.66168.01083,6.15735,11.78574a4.0951,4.0951,0,0,0,3.61907,2.19784l15.17509.03516a4.09366,4.09366,0,0,0,3.64823-2.21954l6.03689-11.71948,3.1694.00747a3.18719,3.18719,0,0,0,.01459-6.37436Z"/><path class="cls-9" d="M164.7343,103.2197h.00412s-.11409.17656-.34119.51213q-.3434.50559-1.01192,1.48893l-.74858,1.098c-.27085.40778-.53573.87465-.84024,1.3696q-.45174.74577-.97306,1.60751c-.355.56977-.664,1.217-1.0299,1.881q-.2682.50172-.55179,1.03215-.14139.26544-.28657.538-.13128.27947-.26559.566-.5376,1.147-1.1283,2.4077-.52638,1.28843-1.09912,2.69092c-.34867.94724-.69394,1.93936-1.04935,2.96851a60.14667,60.14667,0,0,0-1.73659,6.775,39.35631,39.35631,0,0,0-.75531,7.8382l.00112.0632h-.061c-13.4628.00676-30.28207.015-49.51278.0247h-.07819l-.00636-.0782a50.87913,50.87913,0,0,0-4.46826-16.74066,65.24152,65.24152,0,0,0-4.40207-8.1057q-1.25586-1.98089-2.67484-3.89514c-.92851-1.28467-1.97787-2.49115-3.00665-3.73727l-.12421-.15041h.1994l-.07406.15077a47.99518,47.99518,0,0,1-9.23622-20.35639c-.20127-.9491-.32509-1.915-.47286-2.88021-.06023-.48447-.10587-.97154-.15937-1.45825l-.07557-.73138-.04676-.73473c-.02731-.49044-.07183-.9809-.08455-1.47359q-.01569-.739-.03142-1.47994c-.02207-.4942.01459-.98876.01983-1.48445.01533-.4953.0187-.99174.04376-1.48817A49.38787,49.38787,0,0,1,80.80225,59.611a48.2615,48.2615,0,0,1,20.23443-26.23354,49.0247,49.0247,0,0,1,7.19437-3.74064,46.72794,46.72794,0,0,1,7.57594-2.42045,48.34158,48.34158,0,0,1,15.315-1.03065,49.79535,49.79535,0,0,1,7.31893,1.24763,51.49875,51.49875,0,0,1,6.855,2.29026,47.83743,47.83743,0,0,1,11.80069,7.12515,48.42548,48.42548,0,0,1,8.77118,9.42363,47.23341,47.23341,0,0,1,5.616,10.46588c.36772.875.63262,1.77586.93787,2.649.28842.87951.51176,1.76689.76542,2.63255.19715.88027.416,1.74407.58585,2.60562q.11559.64871.22931,1.28879c.07556.42647.15788.84885.20238,1.27419a48.69925,48.69925,0,0,1,.39692,9.62677,47.90985,47.90985,0,0,1-3.34335,15.018,49.51947,49.51947,0,0,1-2.4006,5.09414c-.79311,1.42645-1.51737,2.60262-2.13762,3.53q-.47082.69134-.82976,1.21732-.37708.50562-.63335.84922c-.33333.44368-.48373.64382-.52264.69584.03741-.052.18222-.25216.50279-.69622q.25367-.34959.62888-.866.35464-.52746.82155-1.22145c.61425-.93039,1.33251-2.10881,2.11926-3.53639a49.89056,49.89056,0,0,0,2.38116-5.0949,47.96381,47.96381,0,0,0,3.30483-14.99588,48.6536,48.6536,0,0,0-.41077-9.60319c-.04491-.42386-.12758-.8451-.20387-1.27045q-.11391-.638-.2301-1.28467c-.17058-.85931-.39019-1.7205-.58768-2.59814-.25443-.86269-.47774-1.74742-.76657-2.624-.30564-.87054-.57048-1.76839-.9386-2.64041a47.12233,47.12233,0,0,0-5.61005-10.42885,48.317,48.317,0,0,0-8.75062-9.38547,47.68424,47.68424,0,0,0-11.76476-7.09222,51.36136,51.36136,0,0,0-6.8315-2.27792,49.64939,49.64939,0,0,0-7.29272-1.239,48.18335,48.18335,0,0,0-15.25664,1.0329,46.54574,46.54574,0,0,0-7.54527,2.41371,48.873,48.873,0,0,0-7.1648,3.72755,48.085,48.085,0,0,0-20.151,26.13066A49.24694,49.24694,0,0,0,78.864,71.44794c-.02507.4942-.02844.98876-.04378,1.48219-.00523.49345-.04189.98613-.0202,1.47845q.01572.73794.03143,1.47435c.01272.49044.05724.979.08417,1.4676l.04638.73174.07483.72838c.0535.48484.09877.97.159,1.45226.147.96144.2701,1.92325.47025,2.869a47.82818,47.82818,0,0,0,9.19467,20.27784l.11786.15113h-.19229l.07406-.15076c1.02056,1.23714,2.07291,2.44812,3.007,3.741q1.42479,1.91521,2.68081,3.90712a65.36884,65.36884,0,0,1,4.41066,8.13034,51.03351,51.03351,0,0,1,4.47353,16.80168l-.08418-.0782c19.23071.00973,36.05.018,49.51278.0247l-.05946.06285a39.40061,39.40061,0,0,1,.76952-7.86436,60.01222,60.01222,0,0,1,1.75305-6.784c.358-1.03029.70593-2.02276,1.0572-2.97075q.57689-1.40233,1.10733-2.69166.59484-1.26036,1.13655-2.40735l.26746-.566q.14589-.27218.28845-.53757.28563-.52977.55553-1.0314c.36887-.66367.68011-1.31012,1.03775-1.87912q.52469-.85971.98015-1.60491c.30713-.4938.57464-.95958.84733-1.36621q.41808-.60493.75608-1.09425c.45042-.6502.79348-1.14513,1.02542-1.48.23156-.33256.355-.50239.355-.50239Z"/><path class="cls-9" d="M85.47893,90.09807a.50687.50687,0,0,1-.043-.10512c-.02768-.08156-.06322-.18555-.10773-.31575-.09466-.29178-.22746-.69994-.39656-1.21957q-.12795-.40009-.28244-.88361c-.09392-.32548-.17583-.68463-.2746-1.06808-.18481-.76915-.43808-1.63671-.59631-2.62133q-.13692-.73566-.28581-1.53831c-.09578-.53571-.14554-1.10024-.22446-1.68083-.17508-1.16048-.23195-2.413-.31987-3.72831a52.29724,52.29724,0,0,1,.38907-8.558,52.30116,52.30116,0,0,1,1.906-8.35483c.43509-1.24426.82416-2.43616,1.30225-3.508.23043-.53871.42909-1.06993.664-1.56038q.35746-.73343.68535-1.40663c.41488-.90718.89038-1.6756,1.27345-2.36769.19752-.343.37186-.66777.54956-.95621q.2772-.42421.50728-.77626c.30153-.45566.53833-.81366.70743-1.06955l.1878-.27535a.51557.51557,0,0,1,.06958-.09014.51894.51894,0,0,1-.05313.10138c-.04413.0737-.10063.16758-.17171.28581-.1616.26037-.388.62475-.67562,1.08827q-.2228.3552-.492.78374c-.17247.29066-.3423.61726-.53461.96219-.37333.69545-.83871,1.46647-1.24462,2.3748q-.321.67281-.67188,1.40736c-.23047.49083-.425,1.02167-.65169,1.56-.46988,1.07068-.85145,2.26033-1.28056,3.50159a53.32879,53.32879,0,0,0-1.884,8.326,53.27922,53.27922,0,0,0-.40253,8.52465c.08229,1.31049.13318,2.55886.30078,3.716.07518.57912.12082,1.1425.21248,1.67709q.142.80022.27235,1.53533c.14927.98389.39243,1.85106.56676,2.621.09354.38345.16985.74371.25888,1.06993q.14476.48429.26525.88624c.15374.52374.275.93526.36137,1.2293.03667.13281.06621.23867.08942.32136A.47947.47947,0,0,1,85.47893,90.09807Z"/><path class="cls-9" d="M99.76849,39.75664a31.246,31.246,0,0,1-2.57457,2.35011,31.19993,31.19993,0,0,1-2.70214,2.20271,31.34169,31.34169,0,0,1,2.575-2.35049A31.33685,31.33685,0,0,1,99.76849,39.75664Z"/><path class="cls-9" d="M165.24609,95.52629a.31274.31274,0,0,1,.03217-.08566l.11151-.242q.16325-.33725.44592-.92029.14814-.30132.32624-.66289c.11407-.24469.227-.51553.355-.80359.248-.57948.5578-1.2278.82867-1.97375q.21432-.55554.44855-1.16159c.15411-.40441.28467-.83612.43652-1.27681.31464-.8784.572-1.84134.86121-2.84879a48.32126,48.32126,0,0,0,1.63373-13.49948c-.04041-1.04747-.061-2.04446-.15711-2.97262-.04236-.46425-.06586-.91468-.11938-1.34414q-.0825-.64365-.15863-1.2349c-.0849-.78937-.2312-1.49231-.334-2.11445-.05536-.31013-.10028-.60043-.153-.86492q-.08643-.39334-.15863-.72164c-.08979-.4216-.16126-.75569-.21326-1-.02057-.1055-.037-.19116-.05084-.2615a.35337.35337,0,0,1-.01087-.0909.31747.31747,0,0,1,.03034.086l.06958.257q.09145.36361.24914.99286.07965.32661.17548.719c.05835.2641.10846.554.16907.86378.11334.6214.26934,1.32508.36358,2.11556l.17175,1.23716c.05726.43019.085.88175.13056,1.34714.10321.93114.13019,1.93111.17548,2.98233a47.00426,47.00426,0,0,1-1.63971,13.55c-.2948,1.01009-.55933,1.9749-.88135,2.854-.15564.44144-.29035.87315-.44861,1.27756q-.24069.60435-.46161,1.16047c-.28021.74485-.59936,1.3909-.85748,1.96739-.13312.28658-.251.55629-.3703.79871q-.187.358-.34229.65656-.30313.57291-.47888.90495c-.052.0939-.0943.17059-.12872.23306A.317.317,0,0,1,165.24609,95.52629Z"/><path class="cls-11" d="M78.60815,115.26242l.0262,5.18842s8.61407-4.87976,6.08626-9.52051Z"/><path class="cls-11" d="M79.44877,103.27545s-6.2-2.27115-10.91331,1.9502l4.833,2.7276Z"/><path class="cls-3" d="M73.36848,107.95316c.1964.25741,5.23968,7.30923,5.23968,7.30923l13.17625-9.33871a4.81223,4.81223,0,1,0-5.717-7.74018Z"/><path class="cls-9" d="M73.36848,107.95319a.941.941,0,0,1,.10587-.09015c.08154-.0651.19041-.15189.32957-.26264.30266-.23755.73438-.57611,1.28617-1.00894,1.13579-.884,2.76462-2.15219,4.77354-3.716,1.01346-.78562,2.12192-1.6453,3.31194-2.56781q.89446-.6919,1.84807-1.42908.477-.36812.96742-.74707a5.09252,5.09252,0,0,1,1.09537-.6416,4.3799,4.3799,0,0,1,1.25436-.34679,4.71357,4.71357,0,0,1,1.3318,0,4.86864,4.86864,0,0,1,2.487,1.10285,5.00252,5.00252,0,0,1,.94049,1.05386,5.20015,5.20015,0,0,1,.60755,1.30148,4.97374,4.97374,0,0,1-.03516,2.90007,4.85648,4.85648,0,0,1-1.56937,2.29361c-.73136.56116-1.47059,1.05344-2.18774,1.57047-1.43954,1.01831-2.83046,2.00183-4.15852,2.94119-2.65688,1.87427-5.0631,3.57156-7.10756,5.0137l-.058.04117-.04078-.058c-1.60565-2.26669-2.90752-4.10465-3.8151-5.386-.43957-.62622-.78337-1.1163-1.02354-1.45862-.11035-.15972-.19714-.28506-.26112-.3782a1.05669,1.05669,0,0,1-.0823-.12759,1.50761,1.50761,0,0,1,.10288.13018c.0692.09317.16235.21888.28133.379.24914.34046.60566.82755,1.06169,1.45041.91618,1.26257,2.23077,3.07437,3.85176,5.30814l-.09914-.01648c2.0381-1.45151,4.43686-3.15927,7.08511-5.04514,1.32657-.94235,2.71525-1.9285,4.15255-2.94943.71191-.51474,1.46573-1.019,2.17614-1.56522a4.6658,4.6658,0,0,0,1.50614-2.20273,4.78739,4.78739,0,0,0,.03517-2.78558,5.01171,5.01171,0,0,0-.58286-1.25023,4.81467,4.81467,0,0,0-.90271-1.0142,4.6881,4.6881,0,0,0-2.38938-1.06469,4.54454,4.54454,0,0,0-1.282-.00262,5.309,5.309,0,0,0-.62027.12085,5.21966,5.21966,0,0,0-.58809.20987,9.59913,9.59913,0,0,0-2.0209,1.35275q-.94947.72668-1.84207,1.40961c-1.18964.90834-2.29848,1.75456-3.31156,2.52818-2.028,1.54169-3.6718,2.79157-4.818,3.66321-.56714.428-1.01082.76282-1.32172.99737l-.34865.25925A1.36179,1.36179,0,0,1,73.36848,107.95319Z"/><path class="cls-11" d="M79.68221,107.5495l-8.23511,5.92129s.35427.90421.58023.81217c.18893-.07669,6.39153-4.30029,8.40271-5.67139a.6495.6495,0,1,0-.74783-1.06207Z"/><path class="cls-8" d="M88.2256,103.83322a2.75313,2.75313,0,1,1-2.92473-2.5701A2.75338,2.75338,0,0,1,88.2256,103.83322Z"/><path class="cls-9" d="M88.2256,103.83322c-.02133.00266-.02582-.24426-.16388-.65393a2.745,2.745,0,0,0-1.09872-1.40475,2.68136,2.68136,0,0,0-2.55251-.205,2.63979,2.63979,0,0,0-1.17242,1.00934,2.6549,2.6549,0,0,0,.20237,3.13907,2.63874,2.63874,0,0,0,1.29253.85034,2.6796,2.6796,0,0,0,2.505-.53122,2.74351,2.74351,0,0,0,.90907-1.53418c.08417-.42426.05686-.66968.07857-.66968a.63972.63972,0,0,1,.02132.17584,2.19267,2.19267,0,0,1-.02806.50693,2.74248,2.74248,0,0,1-.89411,1.621,2.78769,2.78769,0,0,1-1.14625.61466,2.82831,2.82831,0,0,1-1.49378-.01761,2.79781,2.79781,0,0,1-1.38456-.89823,2.82187,2.82187,0,0,1-.21622-3.35568,2.795,2.795,0,0,1,1.25734-1.06842,2.82967,2.82967,0,0,1,1.47922-.2095,2.78487,2.78487,0,0,1,1.21582.4624,2.74112,2.74112,0,0,1,1.09463,1.49228,2.16641,2.16641,0,0,1,.09314.49942A.63925.63925,0,0,1,88.2256,103.83322Z"/><path class="cls-11" d="M92.40131,105.403A10.65011,10.65011,0,0,0,96.03685,96.472a11.74206,11.74206,0,0,0-9.96947,1.71151C90.0295,98.741,92.14879,101.13931,92.40131,105.403Z"/><path class="cls-12" d="M139.40759,87.78835l1.52823,14.12834,9.09924,3.03285.3689,4.40094-12.84329-.85933s-3.95651.09688-4.81955-5.11958l-.2095-13.70748Z"/><path class="cls-12" d="M158.29193,109.276a.63172.63172,0,0,1-.67975.18744.71036.71036,0,0,1-.14514-.07147c-.32025-.20459-.09915-.90869-.09915-.90869l-1.60489-.71717a18.5922,18.5922,0,0,0-3.57455,1.55741c-1.02207.72726-2.802-.55069-2.802-.55069l.25852-3.75559,3.82406-1.976s-.23342.11633.11747-.34979c.35089-.46576,1.26858-.012,1.26858-.012.21924-.21847.87726-.14364.87726-.14364l2.62509,1.02728a1.91919,1.91919,0,0,1,1.13129,1.211l.66626,2.11514a5.29407,5.29407,0,0,1,.0827,1.74222.5605.5605,0,0,1-.725.1893s-.35989.82263-.59292.79309A1.913,1.913,0,0,1,158.29193,109.276Z"/><path class="cls-13" d="M152.93327,108.90305a.96713.96713,0,0,0,.19306-.08c.14065-.0625.32281-.14368.54956-.24433a19.45627,19.45627,0,0,1,2.10354-.75567l-.0404-.003c.47772.21734,1.01645.4624,1.59967.728l-.03854-.086a1.91215,1.91215,0,0,0-.07706.41784.78454.78454,0,0,0,.0838.4534.428.428,0,0,0,.19528.16092.607.607,0,0,0,.23194.0763.708.708,0,0,0,.47811-.12082.72312.72312,0,0,0,.09913-.07972l.02246-.02282.01123-.01157.00522-.00564.00073-.00074c.024-.00262-.205.01834-.10773.00974l.0015.00149.00335.00223.04715.03555q.0948.07014.19641.13395a1.91142,1.91142,0,0,0,.21436.11782.87912.87912,0,0,0,.12122.04676.29347.29347,0,0,0,.16311.01083.51268.51268,0,0,0,.2226-.17844,1.82852,1.82852,0,0,0,.14438-.20837,4.26376,4.26376,0,0,0,.23306-.44592l-.116.04193a.65811.65811,0,0,0,.68088-.04828.53449.53449,0,0,0,.20462-.30676,1.57122,1.57122,0,0,0,.02618-.34006,9.32885,9.32885,0,0,0-.14364-1.32806l-.00077-.00525-.00222-.006c-.11295-.3599-.23307-.74186-.35465-1.1283q-.1139-.36025-.22561-.71491a3.4137,3.4137,0,0,0-.26783-.70556,1.86669,1.86669,0,0,0-.50091-.56452,2.4341,2.4341,0,0,0-.65283-.32583c-.87055-.33783-1.70029-.65991-2.47654-.96109l-.01046-.00409-.0094-.00113a2.466,2.466,0,0,0-.47885-.00037.78945.78945,0,0,0-.46051.16907l.10141-.00409a.96822.96822,0,0,0-.88254-.18146,1.1328,1.1328,0,0,0-.61127.572l.02994-.02993c-1.09726.563-1.99246,1.02243-2.63294,1.35089q-.44443.23511-.71228.37674a1.55745,1.55745,0,0,0-.24316.14288,1.55583,1.55583,0,0,0,.26037-.10886c.18293-.08642.425-.20129.72837-.34494.64685-.31573,1.551-.75717,2.65875-1.29849l.01794-.0086.012-.02134a1.00237,1.00237,0,0,1,.5368-.49493.82483.82483,0,0,1,.74149.162l.05273.0404.049-.04529a.66477.66477,0,0,1,.3696-.12158,2.30416,2.30416,0,0,1,.44516.00376l-.01977-.00486c.77435.30524,1.60226.63224,2.47088.97492a2.27758,2.27758,0,0,1,.6109.30487,1.69912,1.69912,0,0,1,.45234.51178,3.2824,3.2824,0,0,1,.25177.67114q.11165.35463.22479.71527c.122.38608.24246.768.3558,1.12793l-.00262-.01123a9.27678,9.27678,0,0,1,.144,1.29852,1.434,1.434,0,0,1-.021.30039.36073.36073,0,0,1-.14069.2084.488.488,0,0,1-.499.0329l-.08078-.03592-.03522.07782a4.02776,4.02776,0,0,1-.22031.42722.84994.84994,0,0,1-.27124.31613.16929.16929,0,0,1-.06994-.01047.764.764,0,0,1-.09989-.03778,1.83091,1.83091,0,0,1-.19641-.10663c-.064-.03964-.12683-.08194-.18741-.1257l-.04452-.03329-.00263-.00187-.00113-.00073c.09693-.009-.13281.01157-.10925.00971l-.00034.00073-.00451.00452-.00861.009-.01758.01831a.60558.60558,0,0,1-.07782.0636.55291.55291,0,0,1-.37146.09765.45666.45666,0,0,1-.18145-.05911.28251.28251,0,0,1-.13617-.10474,1.08419,1.08419,0,0,1,.00149-.74859l.01609-.0621-.055-.02393c-.587-.25742-1.129-.4953-1.60974-.70593l-.02057-.009-.01983.006a16.79651,16.79651,0,0,0-2.09687.8103c-.23755.113-.41824.20651-.53793.27347A1.01124,1.01124,0,0,0,152.93327,108.90305Z"/><path class="cls-13" d="M155.06268,103.75467a3.36869,3.36869,0,0,0,.80024.48856,8.974,8.974,0,0,0,2.19036.75231l-.0733-.08453c.01044.14551.022.29889.04224.45377a6.90875,6.90875,0,0,0,.81219,2.49228,5.81458,5.81458,0,0,0,.43433.667c.116.14776.18664.22369.19678.21625.02471-.018-.21961-.35242-.51551-.94425a7.69264,7.69264,0,0,1-.7445-2.45413c-.01978-.15076-.03138-.3-.04261-.4418l-.00525-.07068-.068-.01349a10.79006,10.79006,0,0,1-2.17468-.68387C155.38519,103.9024,155.07617,103.73145,155.06268,103.75467Z"/><path class="cls-13" d="M157.21527,106.01126a4.46538,4.46538,0,0,0,1.15631,3.16419c.046-.03257-.39914-.65619-.71451-1.53235C157.3335,106.77032,157.27173,106.00677,157.21527,106.01126Z"/><path class="cls-13" d="M149.13988,107.54352c-.003.00415.0217.02881.07293.07257a2.03607,2.03607,0,0,0,.24057.174,3.00254,3.00254,0,0,0,1.03327.40439,3.046,3.046,0,0,0,1.68158-.15039,3.17906,3.17906,0,0,0,1.60943-1.39688l-.116.03741a7.19051,7.19051,0,0,0,1.93484.61014,7.02254,7.02254,0,0,0,.7508.0827,2.29032,2.29032,0,0,0,.75088-.04452.56306.56306,0,0,0,.33853-.22672.5176.5176,0,0,0-.18219-.71939l-.29178-.16052c-.77032-.41635-1.48147-.75678-2.08712-1.02313-.60605-.266-1.10474-.46015-1.45264-.58585a3.15675,3.15675,0,0,0-.54807-.17282,3.69229,3.69229,0,0,0,.52149.23978c.339.1459.82864.35766,1.425.63784s1.29812.63108,2.05944,1.05347q.142.0797.28733.16162a.3435.3435,0,0,1,.11822.47284.38634.38634,0,0,1-.23871.14926,2.153,2.153,0,0,1-.68945.03482,7.06124,7.06124,0,0,1-.73175-.08154,7.18758,7.18758,0,0,1-1.88849-.5881l-.07556-.03556-.04038.07294a3.06166,3.06166,0,0,1-1.51025,1.34119,2.99552,2.99552,0,0,1-1.60568.18106,3.23074,3.23074,0,0,1-1.02237-.346C149.26,107.61685,149.14815,107.53308,149.13988,107.54352Z"/><path class="cls-9" d="M160.116,160.344a.77858.77858,0,0,0-.01047-.35244,2.33394,2.33394,0,0,0-.35617-.896,1.23881,1.23881,0,0,0-.2121-.25885.40265.40265,0,0,0-.39844-.08981.28568.28568,0,0,0-.17657.17734.38524.38524,0,0,0,.00824.239,2.43442,2.43442,0,0,0,.18555.3595c.13806.23269.25213.46426.42871.72613a.50894.50894,0,0,0,.47326.21326,1.01766,1.01766,0,0,0,.45716-.20276,3.95652,3.95652,0,0,0,.67151-.61877,4.02157,4.02157,0,0,0,.26449-.34455,1.14586,1.14586,0,0,0,.199-.39581.37524.37524,0,0,0-.202-.43134.44816.44816,0,0,0-.42535.09616,2.62223,2.62223,0,0,0-.44855.5084,3.39064,3.39064,0,0,0-.43957.85293.87409.87409,0,0,0-.0767.34308,6.74529,6.74529,0,0,1,.636-1.10773,2.68949,2.68949,0,0,1,.43094-.45489.28233.28233,0,0,1,.25253-.06659.18854.18854,0,0,1,.08231.22147.991.991,0,0,1-.17395.31982,3.9711,3.9711,0,0,1-.25516.324,3.9132,3.9132,0,0,1-.63861.58326.83514.83514,0,0,1-.358.16534.29717.29717,0,0,1-.287-.13245c-.147-.21359-.28769-.47732-.42349-.69656a2.49688,2.49688,0,0,1-.17767-.321c-.03556-.10062-.01575-.16574.05423-.19376.16125-.06659.318.11557.42724.27A3.37093,3.37093,0,0,1,160.116,160.344Z"/><polygon class="cls-12" points="150.983 160.656 146.448 170.484 139.131 167.104 143.821 154.94 150.983 160.656"/><path class="cls-11" d="M147.30566,169.82843l-2.64941,5.05228s6.78174,7.01254,6.145,8.58l-15.94312-7.644,4.38-10.13443Z"/><path class="cls-2" d="M140.05835,171.826a.72221.72221,0,0,0-.80655.5271.69437.69437,0,0,0,.51587.804.7615.7615,0,0,0,.85107-.56262.72008.72008,0,0,0-.62924-.77667"/><path class="cls-8" d="M134.85815,175.81622l.66327-1.27081,15.03778,7.80417s.56192.64941.24207,1.11069Z"/><path class="cls-9" d="M144.95377,174.92282c-.03965.07709-.44593-.07443-.9491-.00784-.50467.05353-.8638.29593-.92069.23083-.06469-.0494.2746-.45938.88514-.52939C144.57889,174.54126,145.005,174.85962,144.95377,174.92282Z"/><path class="cls-9" d="M146.29462,176.41644c-.01834.0842-.419.055-.84137.25739-.428.19-.66553.514-.74146.4736-.079-.0228.08563-.50467.61539-.74631C145.855,176.1546,146.32864,176.34161,146.29462,176.41644Z"/><path class="cls-9" d="M146.28485,178.87286c-.07892-.01757-.00073-.45825.40366-.789.40219-.33334.85-.32547.85147-.245.01346.08532-.33258.20053-.66031.477C146.54562,178.58441,146.36566,178.902,146.28485,178.87286Z"/><path class="cls-9" d="M145.71414,172.97617c-.06659.05535-.37222-.22333-.82638-.40439-.45078-.19043-.86417-.20691-.87278-.29331-.018-.07779.45453-.20575.98691.01532C145.53534,172.51044,145.78186,172.93314,145.71414,172.97617Z"/><path class="cls-9" d="M148.79906,168.517l11.95334-29.9151s-.26864-5.10388-1.20873-6.71588c-.94012-1.61161-29.41566-11.01392-29.41566-11.01392s-7.2531-1.74634-12.08837,0c-4.83565,1.74591-8.46219,7.79028-7.7903,11.14822.67151,3.35795,3.75786,6.07956,3.75786,6.07956l20.68784.36774,11.41311,4.16373-7.68592,22.02826Z"/><polygon class="cls-12" points="159.431 148.075 159.7 158.895 151.642 159.092 150.481 146.108 159.431 148.075"/><path class="cls-11" d="M160.18005,157.92865l-.147,5.70319s9.18085,3.29809,9.3017,4.986l-17.68012.1792-.54391-11.027Z"/><path class="cls-2" d="M154.55887,162.921a.72222.72222,0,0,0-.49121.829.69429.69429,0,0,0,.81781.49377.76165.76165,0,0,0,.51516-.88061.72037.72037,0,0,0-.90719-.41937"/><path class="cls-8" d="M151.65454,168.79745l.03406-1.43319,16.9386.364s.79046.33447.70739.89Z"/><path class="cls-9" d="M160.31982,163.539c-.00222.0864-.43356.12982-.85519.4119-.42944.27084-.64459.64682-.72461.61352-.07974-.01608.04376-.53348.56076-.86566C159.81439,163.36169,160.33777,163.45969,160.31982,163.539Z"/><path class="cls-9" d="M162.18137,164.28735c.0206.08338-.35163.23383-.64124.60193-.30035.3595-.37033.75531-.45639.75232-.08078.01459-.14587-.49048.223-.94122C161.67111,164.24622,162.17874,164.205,162.18137,164.28735Z"/><path class="cls-9" d="M163.25681,166.49628c-.07819.0191-.20276-.41114.01422-.88587.21322-.47693.61837-.66742.65579-.59594.04938.07037-.20987.327-.38193.71978C163.36343,166.12256,163.34247,166.48694,163.25681,166.49628Z"/><path class="cls-9" d="M160.14252,161.45691c-.03553.07928-.4328-.03595-.92029.00223-.48853.028-.8664.19565-.91235.12195-.0506-.06171.31683-.38495.89184-.422C159.77631,161.118,160.18408,161.38879,160.14252,161.45691Z"/><path class="cls-9" d="M154.7252,118.03375a5.01542,5.01542,0,0,1,5.36539,4.85245c.53723,5.23859,1.06473,29.68463,1.06473,29.68463l-11.28256.94013-1.74634-24.98288-17.99841-7.656S151.5016,117.36221,154.7252,118.03375Z"/><path class="cls-9" d="M134.82484,110.96509s2.93,8.21527,2.37183,9.13074c-.55778.91577-8.093,4.68334-8.093,4.68334l-18.85437,7.24112a15.79875,15.79875,0,0,1-1.93672-7.812c0-4.73163,6.55838-13.24322,6.55838-13.24322Z"/><path class="cls-10" d="M129.23616,120.45306a.44927.44927,0,0,0,.08865.04755c.06885.03177.15714.07254.26749.12378.24878.11075.59784.26562,1.0445.46466.92553.40326,2.25469.98239,3.91909,1.7074,3.3628,1.44739,8.07651,3.47653,13.53092,5.82474l-.061-.086c.171,2.46756.35614,5.133.54734,7.89056.45864,6.44577.88134,12.38913,1.21582,17.09125l.00637.08526.08454-.0075c3.43127-.30115,6.2475-.54843,8.21939-.72165.96969-.09052,1.731-.16159,2.26333-.21137.25028-.02578.44666-.04638.59144-.06134a1.25766,1.25766,0,0,0,.20129-.02957,1.29357,1.29357,0,0,0-.20352.00412c-.14517.00937-.34192.0217-.59333.03745-.53311.03924-1.29589.095-2.26705.16607-1.97342.15564-4.79151.37821-8.22577.64908l.09091.07782c-.32285-4.70322-.731-10.64734-1.17356-17.09421-.19418-2.75753-.382-5.42263-.55557-7.89019l-.00445-.06177-.05649-.0239c-5.4664-2.32058-10.19055-4.32574-13.56046-5.75631-1.67413-.70182-3.01153-1.26261-3.94268-1.65317q-.67842-.27832-1.05719-.43357c-.11335-.04492-.20389-.08044-.2746-.10815A.42106.42106,0,0,0,129.23616,120.45306Z"/><path class="cls-10" d="M114.241,121.2746a2.74371,2.74371,0,0,0,.52936-.14441c.37448-.12085.85071-.27426,1.41972-.45755a30.97625,30.97625,0,0,1,4.7511-1.20087,13.9245,13.9245,0,0,1,4.8637.06287,19.504,19.504,0,0,1,1.94908.56451,2.35074,2.35074,0,0,0-.49045-.248,8.71381,8.71381,0,0,0-1.42683-.462,13.06983,13.06983,0,0,0-4.92692-.12531,26.45185,26.45185,0,0,0-4.76718,1.26746c-.59446.211-1.07144.392-1.39953.52185A2.73844,2.73844,0,0,0,114.241,121.2746Z"/><path class="cls-10" d="M116.90649,116.94434a13.80656,13.80656,0,0,1,1.64829-.00937c.50766.03518,1.11183.11337,1.78447.19116.67189.07971,1.40924.17023,2.17241.315a10.10232,10.10232,0,0,1,3.69464,1.37033,11.37323,11.37323,0,0,1,1.28091,1.03214,1.42117,1.42117,0,0,0-.27383-.35462,5.62088,5.62088,0,0,0-.92366-.801,9.45732,9.45732,0,0,0-3.73879-1.45377c-.77288-.14663-1.51585-.23156-2.19036-.30114-.67376-.06736-1.282-.13019-1.79793-.147a6.79425,6.79425,0,0,0-1.22032.0546A1.40877,1.40877,0,0,0,116.90649,116.94434Z"/><path class="cls-9" d="M125.23438,50.92432a8.05334,8.05334,0,0,0-5.90632,1.68945,10.87437,10.87437,0,0,0-4.0029,5.12073,10.76476,10.76476,0,0,0-.398,6.81912,8.6,8.6,0,0,0,4.23559,5.26961,8.69319,8.69319,0,0,0,8.956-.97567,10.89067,10.89067,0,0,0,4.08931-8.228,10.4561,10.4561,0,0,0-1.655-6.21757,7.96443,7.96443,0,0,0-5.3186-3.47766"/><path class="cls-9" d="M119.06433,58.302a12.00306,12.00306,0,0,0,.31986-2.63629A5.76639,5.76639,0,0,1,123.02646,51.42a8.40991,8.40991,0,0,1,5.75293.10474,7.7214,7.7214,0,0,1,3.61644,2.35648A6.08422,6.08422,0,0,1,133.514,59.345l-9.9107-1.44367A11.04946,11.04946,0,0,1,120.6,59.8777a2.04684,2.04684,0,0,1-1.03438.165.9233.9233,0,0,1-.771-.636A1.95855,1.95855,0,0,1,119.06433,58.302Z"/><path class="cls-12" d="M128.99149,54.26094l-8.65261,1.83312a1.6158,1.6158,0,0,0-1.508,1.58169l.10364,18.72528a5.81668,5.81668,0,0,0,1.21957,3.53116l.82526,1.06433a4.27017,4.27017,0,0,0,7.12964-.53122,2.05409,2.05409,0,0,0,.1994-.49045,3.81156,3.81156,0,0,0,.08156-.42276l.16459-1.82522c.08455-1.66736.09615-3.3613.09653-3.346,0,0,3.54087-.44742,4.44808-5.00958a49.0762,49.0762,0,0,0,.40776-9.08359C133.44031,57.52686,131.74675,54.07726,128.99149,54.26094Z"/><path class="cls-13" d="M128.65019,74.38152a11.688,11.688,0,0,1-6.08439-1.87838s1.42233,3.23786,6.0335,2.98647Z"/><path class="cls-9" d="M117.47849,56.96571c.89672-2.63479,4.81356-6.22505,7.58567-5.9759l4.38,2.747a4.2791,4.2791,0,0,1-2.96738,3.215c-.7886.223-1.734.26974-2.21319.93489-.48969.67863-.23156,1.68646-.68871,2.38753-.63373.97152-2.31084.89149-2.79268,1.94644-.21023.46089-.11635,1.01831-.33482,1.47546a2.98073,2.98073,0,0,1-2.50237,1.14066c-.63934-.217-.61952-1.31236-.81816-1.89073a3.03876,3.03876,0,0,1-.05273-2.03962C117.38011,59.61435,117.05051,58.22269,117.47849,56.96571Z"/><path class="cls-12" d="M119.83273,65.41707c.01273-.34194-.35128-1.16309-.68686-1.22893-.896-.17584-2.52366-.16611-2.62806,2.12265-.14179,3.129,3.02874,2.62659,3.03846,2.53679C119.56375,68.77763,119.78972,66.59735,119.83273,65.41707Z"/><path class="cls-13" d="M118.65428,67.61865c-.01346-.01047-.05649.03592-.15039.07369a.54345.54345,0,0,1-.40774-.01009,1.34952,1.34952,0,0,1-.569-1.23827,1.80066,1.80066,0,0,1,.18779-.77365.62925.62925,0,0,1,.42911-.39955.2777.2777,0,0,1,.315.16387c.03779.08941.01532.15075.03144.15675.00859.00861.06958-.049.05049-.17957a.35017.35017,0,0,0-.11449-.20166.41094.41094,0,0,0-.29777-.09314.76629.76629,0,0,0-.59145.459,1.85427,1.85427,0,0,0-.22858.8638,1.41568,1.41568,0,0,0,.734,1.38716.58544.58544,0,0,0,.502-.05985C118.64531,67.69421,118.66476,67.625,118.65428,67.61865Z"/><path class="cls-9" d="M116.80809,56.15392c.01048-.979-1.21246-1.61948-2.16566-1.841a4.071,4.071,0,0,0-2.82074.53871,2.00522,2.00522,0,0,0-1.12044,1.22818c-.11223.56154.428,1.23079.96445,1.02992a1.85494,1.85494,0,1,0,1.79643,3.17313,4.14426,4.14426,0,0,1-1.62659,2.221,4.6544,4.6544,0,0,0,4.97255-6.35Z"/><path class="cls-11" d="M114.63606,61.13094a2.8032,2.8032,0,0,1-.11671-.93937,6.89164,6.89164,0,0,1,1.43991-4.27447,2.80367,2.80367,0,0,1,.66142-.67676,10.42147,10.42147,0,0,0-1.54468,2.75937A10.43209,10.43209,0,0,0,114.63606,61.13094Z"/><path class="cls-9" d="M128.53508,52.79074c.28806,1.27419,2.22441,2.9075,3.07436,3.89963,1.62136,1.89259,1.94119,2.52109,1.9255,6.75143a8.96022,8.96022,0,0,0,1.29328-4.54123,6.82861,6.82861,0,0,0-1.81217-4.4866,5.31829,5.31829,0,0,0-4.481-1.62323"/><path class="cls-11" d="M141.80637,87.6069s-3.37253-5.62312-4.30854-6.76039a7.50307,7.50307,0,0,0-2.76275-2.02577,5.71362,5.71362,0,0,0-1.31273-.38831l-4.85024-1.074a3.54081,3.54081,0,0,1-3.47728,3.51543c-3.46866.205-6.38965-4.62689-6.38965-4.62689s-5.60368.86642-6.94445,1.55626c-1.34079.68947-3.44811,1.56562-4.60746,7.37169l-.81367,5.68,9.66232.893.92479,14.35766,4.79149,3.33735s13.28474,3.45372,14.13358,3.68193S136.982,91.74785,136.982,91.74785A22.843,22.843,0,0,0,141.80637,87.6069Z"/><path class="cls-11" d="M135.447,85.19243a2.06013,2.06013,0,0,1,.18631.41414c.11072.27049.2514.66964.40814,1.16795a22.86457,22.86457,0,0,1,.988,8.07013c-.0318.5215-.07257.94273-.11447,1.23192a2.02645,2.02645,0,0,1-.08118.44668,2.08178,2.08178,0,0,1,.00635-.45379c.01871-.2903.03818-.71117.05237-1.23042a26.85689,26.85689,0,0,0-.98239-8.026c-.13916-.50055-.25925-.90421-.3479-1.18141A2.03537,2.03537,0,0,1,135.447,85.19243Z"/><path class="cls-12" d="M135.03471,108.71112l-18.1922-3.95988-.8406-13.00341L107.91158,91s.29928,8.88942.61053,11.53209c.44781,3.80086,2.69429,8.9874,4.0085,10.02366s23.32117.569,23.32117.569Z"/><path class="cls-12" d="M145.36145,111.068a.70271.70271,0,0,1-.67749.39469.80924.80924,0,0,1-.17621-.03553c-.40216-.12905-.36438-.94836-.36438-.94836l-1.92813-.315a20.64884,20.64884,0,0,0-3.39908,2.68829c-.89224,1.07181-3.16751.20392-3.16751.20392l-.789-4.10953,3.54874-3.209s-.21775.19116.02694-.40928c.24466-.60009,1.35987-.373,1.35987-.373.17355-.297.90194-.40329.90194-.40329l3.11255.35879a2.13177,2.13177,0,0,1,1.5596.97977l1.3165,2.08374a5.88231,5.88231,0,0,1,.58319,1.84882.62248.62248,0,0,1-.725.40927s-.153.98608-.4123,1.02054A2.12917,2.12917,0,0,1,145.36145,111.068Z"/><path class="cls-13" d="M138.73648,108.11664c.00336.03253.41711-.00565,1.08228.02316a9.42891,9.42891,0,0,1,2.54016.47546,8.973,8.973,0,0,1,1.30969.56006c.376.21137.76843.38572.88889.65955a.37773.37773,0,0,1-.034.37112.52843.52843,0,0,1-.23493.19828.82685.82685,0,0,1-.27273.04037c-.00784.00415.09653.08569.29815.03256a.58112.58112,0,0,0,.30039-.20724.49755.49755,0,0,0,.07333-.48709.99206.99206,0,0,0-.3872-.43769c-.16947-.11111-.34714-.22448-.54508-.33111a8.15452,8.15452,0,0,0-3.934-1.01453A3.58132,3.58132,0,0,0,138.73648,108.11664Z"/><path class="cls-13" d="M138.51874,110.10129c.00335.05911,1.27.00635,2.82632.09726,1.557.08569,2.80951.28171,2.81961.22336a3.11681,3.11681,0,0,0-.81027-.19681,18.22252,18.22252,0,0,0-4.00818-.22745A3.11985,3.11985,0,0,0,138.51874,110.10129Z"/><path class="cls-13" d="M145.34348,110.989a1.43629,1.43629,0,0,0,.03891-.33145,7.19819,7.19819,0,0,0,.00186-.91168,3.855,3.855,0,0,0-.0868-.6311,1.93229,1.93229,0,0,0-.30563-.67823,4.25321,4.25321,0,0,0-1.16644-1.19452,5.8534,5.8534,0,0,0-1.48892-.75231,5.36561,5.36561,0,0,0-1.34455-.20466c-.385-.01382-.69467-.00521-.909.00263a1.09259,1.09259,0,0,0-.33259.034,10.19152,10.19152,0,0,0,1.233.10327,5.84565,5.84565,0,0,1,1.29889.23907,6.10239,6.10239,0,0,1,1.43057.74146,4.269,4.269,0,0,1,1.12829,1.13464,2.36587,2.36587,0,0,1,.40366,1.21808C145.31955,110.51166,145.30045,110.99011,145.34348,110.989Z"/><path class="cls-13" d="M140.84715,105.34271c-.00036.02954.46576.04187,1.20948.12754a3.2258,3.2258,0,0,1,2.51507,1.14926,10.56973,10.56973,0,0,1,1.57123,2.44177,6.25708,6.25708,0,0,1,.2944,1.16531.8556.8556,0,0,0,.01837-.32995,3.12424,3.12424,0,0,0-.18145-.884,9.24457,9.24457,0,0,0-1.54767-2.51733,3.39083,3.39083,0,0,0-.60492-.61127,2.20447,2.20447,0,0,0-.73248-.34417,6.67046,6.67046,0,0,0-1.31943-.20951A4.72814,4.72814,0,0,0,140.84715,105.34271Z"/><path class="cls-13" d="M139.497,112.18881a1.1044,1.1044,0,0,0,.18481-.14105c.13318-.107.306-.24579.52112-.41861a21.62844,21.62844,0,0,1,2.04563-1.40887l-.0438.00821c.575.098,1.2233.20837,1.92551.32812l-.06586-.08157a2.13644,2.13644,0,0,0,.03592.471.87569.87569,0,0,0,.21848.46351.48057.48057,0,0,0,.25589.11749.684.684,0,0,0,.27084.01608.78848.78848,0,0,0,.47961-.26562.80925.80925,0,0,0,.08378-.11371l.0176-.03107.00861-.01572.00449-.00784.00039-.00073c.02506-.00974-.21515.07818-.113.04114l.00186.00113.00415.00149.06094.02506c.08154.03216.16425.06134.24915.08792a2.16368,2.16368,0,0,0,.26376.06582.97849.97849,0,0,0,.14325.01575.32728.32728,0,0,0,.1785-.03445.57186.57186,0,0,0,.1889-.25513,2.08445,2.08445,0,0,0,.09577-.26486,4.69587,4.69587,0,0,0,.12384-.54544l-.11261.07782a.73106.73106,0,0,0,.71826-.24506.59652.59652,0,0,0,.13241-.38791,1.72618,1.72618,0,0,0-.06842-.37262,10.40283,10.40283,0,0,0-.53125-1.38644l-.00262-.00522-.00372-.006c-.2237-.35425-.46128-.731-.70182-1.11182q-.22389-.35463-.44522-.704a3.78263,3.78263,0,0,0-.48816-.68237,2.07141,2.07141,0,0,0-.69882-.46427,2.70512,2.70512,0,0,0-.79385-.165c-1.03138-.116-2.01453-.22634-2.93409-.32995l-.01235-.00113-.01047.00149a2.72118,2.72118,0,0,0-.51474.13581.87679.87679,0,0,0-.44708.31238l.10815-.0337a1.07756,1.07756,0,0,0-1,.05576,1.25833,1.25833,0,0,0-.49457.78824l.02359-.0408c-1.0191.91656-1.85071,1.6644-2.44552,2.19937-.2742.2529-.49344.45453-.65879.60718a1.77211,1.77211,0,0,0-.22073.22259,1.69754,1.69754,0,0,0,.24878-.19083q.25814-.21711.685-.57757c.60531-.523,1.45153-1.254,2.48855-2.15l.01682-.01459.00674-.02619a1.11565,1.11565,0,0,1,.43622-.6846.91669.91669,0,0,1,.84283-.03628l.06809.02841.04-.06207a.73637.73637,0,0,1,.36252-.23609,2.591,2.591,0,0,1,.47958-.12231l-.0228.00036c.91879.10852,1.90155.22446,2.93259.346a2.52375,2.52375,0,0,1,.74258.15451,1.88068,1.88068,0,0,1,.6315.42163,3.65925,3.65925,0,0,1,.46128.64945q.2205.34959.44479.7048c.24057.38047.47849.75678.70258,1.11109l-.006-.01123a10.33271,10.33271,0,0,1,.523,1.35427,1.564,1.564,0,0,1,.06284.3288.4036.4036,0,0,1-.09164.26453.54341.54341,0,0,1-.5271.17654l-.09726-.01572-.01575.09391a4.4249,4.4249,0,0,1-.11557.52148.94229.94229,0,0,1-.20129.41678.18772.18772,0,0,1-.07856.00858.77225.77225,0,0,1-.11783-.01233,1.9501,1.9501,0,0,1-.24166-.05872c-.07969-.02432-.159-.052-.23679-.08194l-.05728-.02286-.00336-.00146-.00149-.00073c.10138-.037-.13916.0505-.11447.04187l-.00037.00073-.00336.006-.00674.01233-.01386.02469a.64588.64588,0,0,1-.06546.09015.61381.61381,0,0,1-.37146.2106.50789.50789,0,0,1-.21179-.01233.31147.31147,0,0,1-.17618-.0737,1.20687,1.20687,0,0,1-.211-.805l-.00039-.07111-.06549-.01007c-.704-.11-1.35385-.21176-1.93033-.30154l-.02472-.00409-.01944.01233a18.5697,18.5697,0,0,0-2.02353,1.46612c-.223.18891-.39053.34043-.50055.44666A1.10829,1.10829,0,0,0,139.497,112.18881Z"/><path class="cls-2" d="M165.28688,99.11389l-23.96237.19455a1.50448,1.50448,0,0,0-1.63669,1.14212l-2.61871,17.46494H124.72673a.71961.71961,0,1,0,0,1.43921h39.42062l2.69428-18.43277A1.57266,1.57266,0,0,0,165.28688,99.11389Z"/><path class="cls-9" d="M165.28685,99.11389a1.27465,1.27465,0,0,1,.37784.03559,1.58277,1.58277,0,0,1,1.21136,1.37179,4.434,4.434,0,0,1-.08792.98538c-.10022.70594-.21585,1.51886-.34567,2.43241-.5275,3.66174-1.28766,8.93881-2.22177,15.42611l-.00937.0636h-.064c-10.20065.006-23.60586.01386-38.24444.0228h-1.02918a.99887.99887,0,0,1-.54431-.10361.81633.81633,0,0,1,.00337-1.42755.99755.99755,0,0,1,.53983-.10141h.50691q2.02576.00056,4.00551.00076c2.63818.00074,5.20787.00147,7.68407.0026l-.092.07931c.94236-6.25458,1.82188-12.08948,2.61087-17.32391a1.35554,1.35554,0,0,1,.44329-.91242,1.78447,1.78447,0,0,1,.91617-.40441,7.98907,7.98907,0,0,1,.96631-.034q.47419-.00284.94086-.00638,1.86643-.01236,3.60748-.02432c2.31906-.01459,4.46378-.02805,6.41138-.04038,3.89026-.0202,6.992-.03595,9.12732-.04681,1.06094-.00223,1.881-.00336,2.44177-.00446.27383.0011.48334.00223.63037.003.14176.00147.214.00635.214.00635s-.0722.00635-.214.0101c-.147.003-.35654.00748-.63037.01309-.56079.00824-1.38046.01984-2.44177.03516-2.135.024-5.2363.05835-9.127.10178-1.94757.01907-4.09188.0404-6.41134.0632q-1.73955.01684-3.60745.03442-.46638.00449-.94089.009a7.922,7.922,0,0,0-.94235.03442,1.62969,1.62969,0,0,0-.83573.36853,1.19159,1.19159,0,0,0-.38946.81811c-.7811,5.23557-1.65165,11.07157-2.585,17.32767l-.012.07932h-.08043c-2.4762.00113-5.04589.00186-7.68407.00262q-1.97862.00056-4.00551.00076h-.50691a.80489.80489,0,0,0-.4463.07743.623.623,0,0,0-.00263,1.08935.79982.79982,0,0,0,.45.079h1.02918c14.63858.009,28.04379.01682,38.24444.0228l-.0733.06323c.96143-6.48355,1.74365-11.75766,2.2865-15.41672.1369-.91284.25885-1.72467.36472-2.42981a4.4331,4.4331,0,0,0,.09765-.97082,1.53252,1.53252,0,0,0-.278-.74481,1.56663,1.56663,0,0,0-.8855-.6109A3.1576,3.1576,0,0,0,165.28685,99.11389Z"/><path class="cls-8" d="M150.78929,109.0123a1.50016,1.50016,0,1,0,1.50018-1.50015A1.5,1.5,0,0,0,150.78929,109.0123Z"/><path class="cls-9" d="M138.04027,119.19348c.03406.00559.79648-4.44171,1.70331-9.93207.90719-5.49179,1.61462-9.94735,1.581-9.953-.034-.00561-.79645,4.441-1.70364,9.9328C138.7144,114.73157,138.00664,119.18784,138.04027,119.19348Z"/></svg>