<svg xmlns="http://www.w3.org/2000/svg" viewBox="0 0 401 400"><defs><style>.cls-1{isolation:isolate;}.cls-2{fill:#2d2d2d;}.cls-3{fill:#d2e8f9;opacity:0.302;}.cls-4{fill:#5f7391;}.cls-5{fill:#ffb288;}.cls-14,.cls-6,.cls-8,.cls-9{fill:none;}.cls-6{stroke:#2b2b2b;}.cls-14,.cls-6,.cls-8{stroke-miterlimit:10;stroke-width:0.5px;}.cls-7{fill:#00ac71;}.cls-8{stroke:#057e54;}.cls-9{stroke:#b4e8fd;stroke-linecap:round;stroke-linejoin:round;stroke-width:5px;}.cls-10{fill:#ffa700;}.cls-11{fill:#ef8417;}.cls-12,.cls-17{fill:#fdae2b;}.cls-12{mix-blend-mode:multiply;opacity:0.502;}.cls-13{fill:#26387a;}.cls-14{stroke:#2d2d2d;}.cls-15{fill:#ef9467;}.cls-16{fill:#1d1d1d;}.cls-18{fill:#e2e8ed;}.cls-19{fill:#adadad;}</style></defs><g class="cls-1"><g id="Layer_1" data-name="Layer 1"><path class="cls-2" d="M400.307,330.1951c-2.701-5.153-13.676-9.292-18.588-10.23-26.217-5.004-53.677-4.305-80.235-4.221-28.923.091-56.519,4.72-85.203,6.864-14.916,1.111-30.68-.89-45.631-1.409q-36.93-1.2795-73.844-3.003c-21.218-.99-43.24,1.23-61.956,12.928-2.127,1.331-4.276,2.936-5.244,5.323-6.08,14.988,69.693,13.105,79.565,13.362,49.797,1.296,99.627,1.966,149.43.618,37.03-1.003,75.622-.942,112.346-6.167,8.121-1.156,19.173-1.57,26.189-6.349C401.018,335.26608,401.578,332.61908,400.307,330.1951Z"/><path class="cls-3" d="M38.198,193.86531l-.58683-.00424.00723-1,.58684.00424Zm7.87511.97118a32.84394,32.84394,0,0,0-3.84987-.70023l.12161-.99258a33.83894,33.83894,0,0,1,3.967.72172Zm7.24266,3.023a19.86339,19.86339,0,0,0-3.52562-1.83088l.37582-.92669a20.85414,20.85414,0,0,1,3.70269,1.92431Zm4.107,5.88382a5.24829,5.24829,0,0,0-1.25546-3.32111l.79248-.60992a6.2092,6.2092,0,0,1,1.4627,3.95422Zm-4.66779,5.07031a10.48371,10.48371,0,0,0,3.123-1.93643l.68717.7265a11.46116,11.46116,0,0,1-3.41826,2.12991Zm-7.77917,1.8334a37.31866,37.31866,0,0,0,3.89355-.63019l.21558.97651a38.31122,38.31122,0,0,1-3.99814.64752Zm-7.97917.27719q2.51035.00431,3.99846-.02887l.02227.99976q-1.5.03342-4.02247.02911Zm-7.96979.00409,4.07114-.016.00393,1-4.07113.016Zm-8.23761.354q1.85259-.16237,4.068-.25122l.04013.9992q-2.19142.08794-4.02086.24823Zm-7.91742,1.47854a23.68006,23.68006,0,0,1,3.99167-.99084l.16714.9859a22.69263,22.69263,0,0,0-3.82119.94623Zm-6.4864,4.9339a14.842,14.842,0,0,1,2.89434-2.91934l.60932.79291a13.84906,13.84906,0,0,0-2.70093,2.72275Zm-2.664,7.71808a13.70385,13.70385,0,0,1,.73714-4.07138l.94552.3255a12.71015,12.71015,0,0,0-.68312,3.776Zm1.99625,7.9812a15.8282,15.8282,0,0,1-1.53669-3.85351l.96942-.24549a14.83312,14.83312,0,0,0,1.44016,3.61109Zm5.57209,5.96909a23.55935,23.55935,0,0,1-3.0912-2.64356l.715-.69909a22.56358,22.56358,0,0,0,2.96046,2.53106Zm7.16368,3.82617a37.69524,37.69524,0,0,1-3.7089-1.69809l.46691-.88428a36.71472,36.71472,0,0,0,3.61059,1.6528Zm7.65285,2.349q-2.05506-.48129-3.9155-1.0481l.29142-.9566q1.82948.55742,3.85211,1.03107Zm8.05432,1.46359q-2.09924-.28935-4.02017-.63418l.1767-.98426q1.90011.34117,3.98.62778Zm7.97455.85626q-2.08728-.17193-3.95918-.37011l.10525-.99445q1.85949.19689,3.93605.36792Zm8.24535.55783-4.0811-.25192.06161-.99811,4.0811.25193Zm7.696.48679L54.84071,248.69l-.67564-.04443.06561-.99786.67562.04443,3.23571.21268Zm7.98535.48651-3.99168-.23657.05917-.99823,3.99169.23657Zm7.98987.43576-3.99391-.21173.053-.9986,3.99391.21174Zm7.99355.38931-3.99581-.189.04724-.9989,3.99581.189Zm7.9965.34717-3.99734-.16858.04214-.99908,3.99735.16858Zm7.99889.30945L94.042,250.7207l.03754-.99926,3.99856.1502Zm8.00052.276-3.99948-.13406.0335-.99945,3.99949.13406Zm8.00189.24689-.2001-.00586-3.8003-.11417.03-.99957,3.79956.11417.20011.00586Zm8.0018.22208-.86227-.02286-3.13831-.08533.02716-.99963,3.13763.08532.86228.02286Zm8.00125.20169-4.00012-.09851.0246-.9997,4.00012.09851Zm8.00049.18557-3.99963-.091.02276-.99976,3.99964.091Zm7.99881.1738-3.99884-.08572.02142-.99976,3.99884.08573Zm7.99646.16638-3.99771-.08252.02063-.99981,3.99771.08252Zm7.99341.16327-3.99625-.08151.02039-.99982,3.99624.08151Zm7.99508.16168-.41021-.00808-3.58832-.0719.02-.99982,3.588.0719.41022.00809Zm7.998.152-3.99884-.07461.01868-.99982,3.99884.07462Zm7.99918.14014-1.75531-.02963-2.24408-.03882.01727-.99988,2.24371.03882,1.75531.02963Zm7.99981.12677-3.9996-.06162.01538-.99987,3.9996.06161Zm8.00061.11191-2.81714-.0376-1.183-.01639.01386-.99988,1.18249.01633,2.81714.0376Zm8.00125.09555-1.09143-.012-2.90893-.0336.01153-.99994,2.90839.0336,1.09143.012Zm8.00144.07766-3.019-.02713-.98157-.0094.00958-.99993.981.0094,3.019.02713Zm8.0018.05838-4.00031-.02667.00666-1,4.0003.02667Zm8.00211.03751-4.00037-.01605.004-1,4.00036.01605Zm8.0025.01514-4.00052-.00467.00116-1,4.00052.00467Zm8.00241-.00867-4.0004.00742-.00183-1,4.0004-.00742Zm8.00232-.034-3.34876.01743-.65194.00284-.00434-1,.6511-.00284,3.34875-.01743Zm8.00216-.06082-1.34079.01212-2.65969.02173-.00818-.99994,2.65884-.02173,1.34079-.01212Zm8.00123-.08914-3.99976.04819-.012-.99994,3.99975-.04819Zm8.001-.119-3.99948.06333-.01581-.99988,3.99948-.06332Zm8.00028-.15027-3.999.07914-.01977-.99982,3.999-.07913Zm7.99994-.18307-.54349.01349-3.45563.08218-.0238-.99969,3.45459-.08219.54348-.01349Zm7.9107-.16751-4.0126.06955-.01734-.99988,4.01261-.06955Zm7.83188-.15775-3.85361.08881-.023-.99976,3.85361-.0888Zm8.17236-.30893-4.02108.17578-.04371-.999,4.02109-.17578Zm8.04044-.52536-4.05817.29718-.07306-.99731,4.05817-.29718Zm8.04581-.82577q-1.95108.24466-4.002.45422l-.10162-.99481q2.03809-.20823,3.97922-.45166Zm7.98858-1.23032q-1.93881.36132-4.01367.67868l-.15118-.98852q2.05869-.3148,3.98162-.67325Zm7.85056-1.79632q-1.84012.513-3.847.97021l-.22217-.975q1.98423-.45217,3.8006-.95843Zm7.74762-2.727q-1.78776.79572-3.83332,1.50757l-.32861-.94446q2.00527-.6979,3.75531-1.47675Zm6.82739-4.0647a25.75877,25.75877,0,0,1-3.376,2.31363l-.50195-.86487a24.74523,24.74523,0,0,0,3.24518-2.22305Zm4.91449-6.514a13.9085,13.9085,0,0,1-2.02936,3.58786l-.79089-.61194a12.91154,12.91154,0,0,0,1.88519-3.33035Zm.438-8.40622a14.90224,14.90224,0,0,1,.41632,3.17157q.01711.61089-.01477,1.20725l-.99854-.05347q.02976-.55485.01367-1.12576a13.90558,13.90558,0,0,0-.38739-2.95923Zm-4.38873-6.75326a13.06967,13.06967,0,0,1,2.80383,3.0657l-.83924.54376a12.083,12.083,0,0,0-2.592-2.83078Zm-7.23884-3.80472a36.83569,36.83569,0,0,1,3.775,1.61362l-.45093.89257a35.84928,35.84928,0,0,0-3.67157-1.56851Zm-7.52636-2.36344q2.065.52566,3.84424,1.09186l-.30323.95294q-1.75113-.55713-3.78772-1.07568Zm-7.87931-1.67507q2.06531.369,3.9506.76614l-.20618.97851q-1.8696-.3939-3.92026-.76022Zm-7.92273-1.22638q2.04039.27392,3.94309.56674l-.1521.98834q-1.89308-.29136-3.924-.564Zm-7.96823-.94422,3.90635.43335-.11023.9939-3.90635-.43335Zm-7.96341-.74206,3.91864.34378-.0874.99615-3.91864-.34378Zm-7.85736-.58554,3.96228.27945-.07037.99749-3.96228-.27945Zm-8.11892-.48691,4.084.23163-.05664.99841-4.084-.23163Zm-8.0756-.39,3.96662.181-.0456.999-3.96661-.181Zm-8.00143-.31185,4.00629.14785-.03687.99933-4.00629-.14786Zm-8.02856-.25272,4.01171.11951-.02978.99957-4.01172-.11951Zm-8.11463-.2063,4.07794.09818-.024.99969-4.07795-.09817Zm-8.06207-.16693,4.01086.07895-.01965.99982-4.01086-.07895Zm-7.872-.13626,3.90695.065-.0166.99988-3.90695-.065Zm-8.03342-.12241,4.01621.05979-.01489.99987-4.01621-.05978Zm-8.02621-.11807,4.09967.06067-.01477.99988-4.09967-.06067Zm-7.99371-.13028,4.03515.0687-.017.99987-4.03515-.06869Zm-7.988-.16956,3.97925.09174-.02307.99976-3.97925-.09174Zm-8.0397-.26483,4.00589.14942-.0373.99933-4.00589-.14942Zm-7.97776-.52337q1.71034.17706,4.07254.32251l-.06146.9981q-2.38317-.14681-4.114-.32592Zm-7.74371-.94312,3.97192.48612-.12146.99261-3.97192-.48611Zm-7.92542-1.14963q1.81967.31746,3.95142.62174l-.1413.99q-2.14613-.30629-3.982-.62662Zm-7.7518-1.73886q1.82663.52314,3.851.97177l-.21637.97632q-2.05422-.4553-3.91-.98672Zm-7.40725-2.77667q1.73076.83436,3.63461,1.54254l-.34863.93726q-1.94784-.72461-3.72025-1.579Zm-6.66263-4.15623a33.68752,33.68752,0,0,0,3.20892,2.26185l-.528.84924a34.70017,34.70017,0,0,1-3.30408-2.329Zm-5.30893-5.7591a18.83008,18.83008,0,0,0,2.38119,3.10333l-.72827.68528a19.82351,19.82351,0,0,1-2.50686-3.26822Zm-2.1236-7.4341q-.00824.66612.0484,1.3555a12.50794,12.50794,0,0,0,.48026,2.5362l-.95874.2843a13.50687,13.50687,0,0,1-.51816-2.73862q-.06046-.73654-.0517-1.44971Zm2.40045-7.10923a11.96032,11.96032,0,0,0-1.77871,3.35749l-.9477-.31921a12.95467,12.95467,0,0,1,1.92551-3.6371Zm6.00348-4.94913a22.57222,22.57222,0,0,0-3.28149,2.17012l-.62671-.77927a23.565,23.565,0,0,1,3.42658-2.26722Zm7.43421-3.02074q-2.05614.62081-3.84189,1.33686l-.37219-.92817q1.82661-.73248,3.92508-1.366Zm7.6449-1.8781-3.55933.79754-.324.07585-.22784-.9737.33322-.078,3.55933-.79753Zm7.83923-1.572-3.93091.75748-.18921-.98193,3.93091-.75748Zm7.86981-1.34172-3.94546.64447-.1612-.98691,3.94547-.64447Zm7.89761-1.1308-3.95837.54116-.13544-.99079,3.95838-.54115Zm7.93189-.94018-3.97446.44795-.112-.99371,3.97446-.448Zm7.95273-.76738-3.98389.3638-.09094-.99585,3.98388-.3638Zm7.97018-.61388-3.99158.28932-.07226-.99737,3.99158-.28932Zm7.97824-.47946-3.9924.22431-.05609-.99842,3.9924-.2243Zm7.98447-.36468-3.99664.16938-.04236-.99911,3.99664-.16939Zm7.99158-.26955-3.99915.12418-.031-.99952,3.99915-.12417Zm7.99627-.19371-4.001.08864-.02216-.99976,4.001-.08864Zm8.00247-.13724-4.00253.06279-.01568-.99988,4.00253-.06279Zm7.9993-.1-3.99991.04657-.01165-.99994,3.99991-.04657Zm7.99268-.08216-3.99558.04006-.01-.99994,3.99558-.04006Zm7.86255.04865q-2.38523-.06315-4.02771-.07381l.00653-1q1.6539.0107,4.04767.07411Zm8.0159.26165-3.932-.13671.03473-.99939,3.932.13672Zm8.05151.27881-4.03766-.13682.03388-.99942,4.03766.13682Zm7.83572.22722-3.94049-.10649.027-.99963,3.94049.10649Zm8.18784.15421-4.13251-.06517.01575-.99988,4.13251.06517Zm8.01465.036-4.00827-.00168.00043-1,4.00827.00168Zm8.02212-.11543-3.99771.0792-.01983-.99981,3.99771-.07921Zm8.18009-.32668-4.06513.19295-.04736-.99887,4.06512-.19295Zm7.8482-.58849q-1.86849.18091-3.86322.32981l-.07446-.99722q1.98423-.14807,3.84125-.32792Zm7.9748-1.00973q-1.87326.30337-3.92768.56171l-.12475-.99219q2.03613-.256,3.89251-.55667Zm7.94995-1.71227q-1.83051.52045-3.93836.96759l-.20752-.97824q2.07486-.44013,3.87244-.95123Zm7.43316-3.07145a23.18331,23.18331,0,0,1-3.6499,1.80093l-.36975-.92911a22.20144,22.20144,0,0,0,3.49231-1.72146Zm4.73249-6.7031q-.0338.32406-.08576.6514a7.18338,7.18338,0,0,1-1.49548,3.33872l-.78711-.61686a6.20064,6.20064,0,0,0,1.29492-2.87866q.04788-.30144.0788-.5982Zm-2.28577-7.85592a11.26616,11.26616,0,0,1,1.92737,3.71136l-.95935.28211a10.27568,10.27568,0,0,0-1.76013-3.38306Zm-6.35144-5.06638a24.17675,24.17675,0,0,1,3.43036,2.19125l-.6117.791a23.18449,23.18449,0,0,0-3.28887-2.09973Zm-7.52228-2.97223q2.01591.58416,3.82636,1.28913l-.36292.93185q-1.76907-.68885-3.74176-1.2605Zm-8.12091-1.712q2.10406.29375,4.14063.72213l-.20581.97858q-2.00308-.42137-4.073-.71033Zm-7.90729-.57444q1.84305,0,3.81916.14167l-.07154.99743q-1.94037-.13911-3.74762-.1391Z"/><path class="cls-4" d="M286.44244,335.5256s-9.41742,4.017-9.41067,6.02683c.00537,1.15311,12.94946-.497,13.7294-1.277,1.24872-1.24872-.50516-4.576-.50516-4.576Z"/><path class="cls-5" d="M285.83929,329.90955l.60346,5.78973a1.76691,1.76691,0,0,0,1.63,1.04,2.73917,2.73917,0,0,0,2.1836-1.04l-.46476-7.24591"/><path class="cls-4" d="M302.28433,197.12125c3.42563,13.80081,2.154,20.811-2.86389,31.22253-3.04031,35.00656-5.16467,69.87567-9.25574,104.00794l-4.32547.24786c-9.8283-33.23245-18.87118-82.91269-17.71811-128.324"/><path class="cls-6" d="M300.15076,201.86316a26.12118,26.12118,0,0,1,1.45617,10.223c-.167,5.23743-2.29541,9.97919-3.67346,14.94586-1.83874,6.62357-1.98022,13.22019-2.48266,20.00946q-1.18008,15.93668-2.40186,31.8692-1.98028,25.9872-3.99545,51.96894-.05854.77188-.11988,1.54236"/><path class="cls-4" d="M323.99274,336.87256s-9.41748,4.017-9.41071,6.02682c.00537,1.15305,12.9494-.497,13.72943-1.277,1.24872-1.24871-.50516-4.576-.50516-4.576Z"/><path class="cls-5" d="M323.3891,331.25671l.60351,5.78977a1.76674,1.76674,0,0,0,1.63,1.04,2.73926,2.73926,0,0,0,2.18362-1.04l-.46478-7.24594"/><path class="cls-4" d="M333.6,195.952c4.33084,13.54489,3.5267,20.62377-.79071,31.34518-.718,35.13043-3.13465,71.81406-4.95722,106.143H323.404c-12.00516-32.509-24.86572-82.6998-26.71933-128.08829"/><path class="cls-6" d="M331.454,201.56253s5.02057,11.74921-3.466,28.25092c-.97934,15.57354-1.48316,103.62664-1.48316,103.62664"/><path class="cls-6" d="M319.034,205.28448a7.75918,7.75918,0,0,0,3.683,2.86255,18.29777,18.29777,0,0,0,4.59079,1.04,32.587,32.587,0,0,0,5.59848.28827"/><path class="cls-6" d="M319.64825,207.48438a12.779,12.779,0,0,0,5.7547,2.83557,30.04377,30.04377,0,0,0,6.427.6076"/><path class="cls-5" d="M282.19955,130.48935c-14.97683,26.06058-31.09863,49.66272-40.6575,78.16153l-2.84774-1.5141c.72744-26.45935,9.30294-64.93326,20.56451-88.88831"/><path class="cls-7" d="M274.88074,103.27429a39.57974,39.57974,0,0,0-10.08283,4.92359,34.32282,34.32282,0,0,0-11.64416,14.05,63.62266,63.62266,0,0,0-5.0138,17.71137,47.03222,47.03222,0,0,0,13.45459,4.03183,71.02776,71.02776,0,0,0,14.82859,0"/><path class="cls-7" d="M263.71384,118.67819c-1.5936,28.18488-.37851,57.17945.33673,84.59787,0,0,9.82831,2.61466,33.70794,2.61466,23.78943,0,39.36838-7.25135,39.36838-7.25135-4.60971-28.17816-8.27511-62.75091-19.56366-85.9476,0,0-12.7366-13.73886-25.30346-14.30325a16.39684,16.39684,0,0,0-7.45746,1.93036c-1.77274.82437-9.92121,2.81671-9.92121,2.81671Z"/><path class="cls-8" d="M263.579,121.19052c-.62369,5.41794-.62369,22.14462-.62369,22.14462"/><path class="cls-9" d="M287.33057,212.14655c25.86975-4.4238,57.30413,21.56018,63.19433,41.17633,13.92511,46.36508-26.46533,66.17468-2.52344,66.17468,31.35645,0,45.119,16.297,30.48292,24.84415"/><path class="cls-10" d="M301.07849,214.42984c0,20.52267-15.5332,32.90778-28.80862,32.90778H250.49435V181.52069h21.77552C285.54529,181.52069,301.07849,193.90707,301.07849,214.42984Z"/><path class="cls-11" d="M289.8576,214.43c0,20.05393-11.87451,36.31046-26.52258,36.31046H239.30853v-72.621H263.335C277.98309,178.11948,289.8576,194.376,289.8576,214.43Z"/><path class="cls-12" d="M295.17987,194.59137q-7.79343,10.62035-15.17746,21.533a3.68468,3.68468,0,0,0,1.85758-.97263c-.00135.54557-.87018,1.4899-.101,1.84012.76917.3516,1.5828-.54959,2.38565-.303.753-.17651,1.45618-1.12079,2.00714-1.66507a4.1171,4.1171,0,0,0-.33676,1.2703c5.30075-2.061,10.04114-7.00208,14.16446-10.98A33.22027,33.22027,0,0,0,295.17987,194.59137Z"/><path class="cls-10" d="M241.02417,178.11951a19.43292,19.43292,0,0,1,2.59964.17485,19.92106,19.92106,0,0,1,2.5746.52284,20.88771,20.88771,0,0,1,2.52477.86583,22.31874,22.31874,0,0,1,2.45062,1.20044,24.18948,24.18948,0,0,1,2.35287,1.52351,26.449,26.449,0,0,1,2.23247,1.83191,29.04082,29.04082,0,0,1,2.09056,2.12267q1.00717,1.13163,1.92853,2.393.9213,1.26134,1.74789,2.64024t1.55048,2.86208q.72386,1.4832,1.33807,3.05636t1.11283,3.22121q.49863,1.648.87686,3.355t.63241,3.45654q.25421,1.74952.38193,3.52475t.12769,3.559q0,1.78382-.12769,3.559t-.38193,3.52475q-.25419,1.74953-.63241,3.45653t-.87686,3.355q-.4986,1.648-1.11283,3.22121-.61417,1.57317-1.33807,3.05635t-1.55048,2.86209q-.82657,1.3789-1.74789,2.64025t-1.92853,2.393a29.03883,29.03883,0,0,1-2.09056,2.12267,26.44718,26.44718,0,0,1-2.23247,1.83192,24.18937,24.18937,0,0,1-2.35287,1.5235,22.31874,22.31874,0,0,1-2.45062,1.20044,20.88945,20.88945,0,0,1-2.52477.86583,19.92282,19.92282,0,0,1-2.5746.52286,19.415,19.415,0,0,1-5.19926,0,19.92282,19.92282,0,0,1-2.5746-.52286,20.88885,20.88885,0,0,1-2.52477-.86583,22.31786,22.31786,0,0,1-2.45062-1.20044,24.18532,24.18532,0,0,1-2.35288-1.52351,26.45434,26.45434,0,0,1-2.23246-1.83191,29.03689,29.03689,0,0,1-2.09057-2.12267q-1.00719-1.13163-1.92852-2.393t-1.74791-2.64025q-.82659-1.37889-1.55048-2.86209t-1.33809-3.05636q-.6142-1.57318-1.11282-3.22121t-.87685-3.355q-.37822-1.707-.63241-3.45653t-.38192-3.52475q-.12771-1.77524-.1277-3.559t.1277-3.559q.12772-1.7752.38192-3.52475t.63241-3.45654q.37822-1.707.87685-3.355t1.11282-3.22121q.6142-1.57317,1.33809-3.05636t1.55048-2.86208q.82657-1.37891,1.74791-2.64024t1.92852-2.393a29.03689,29.03689,0,0,1,2.09057-2.12267,26.45045,26.45045,0,0,1,2.23246-1.83191,24.18719,24.18719,0,0,1,2.35288-1.52351,22.31786,22.31786,0,0,1,2.45062-1.20044,20.88712,20.88712,0,0,1,2.52477-.86583,19.92106,19.92106,0,0,1,2.5746-.52284A19.43273,19.43273,0,0,1,241.02417,178.11951Z"/><path class="cls-11" d="M243.24051,227.29715c0,2.97971-2.0354,5.39636-4.54636,5.39636s-4.54773-2.41665-4.54773-5.39636,2.03681-5.39639,4.54773-5.39639S243.24051,224.31741,243.24051,227.29715Z"/><path class="cls-11" d="M243.24051,201.56253c0,2.97968-2.0354,5.39636-4.54636,5.39636s-4.54773-2.41668-4.54773-5.39636c0-2.97977,2.03681-5.39639,4.54773-5.39639S243.24051,198.58276,243.24051,201.56253Z"/><path class="cls-5" d="M324.82065,139.47983s1.68387,17.151-5.985,31.41388c-6.5589,12.19641-19.58655,27.98279-30.11261,36.68087l-2.52844-.6156c3.66272-14.0581,15.226-39.0195,15.94531-48.37759.71939-9.35953.547-20.20215.71939-25.41669"/><path class="cls-7" d="M292.25912,98.38852s14.116.96582,22.30494,7.88443c11.69125,9.87949,13.42358,29.21411,13.42358,33.70389-3.53342,3.819-11.25888,4.01431-16.88831,4.01431a19.412,19.412,0,0,1-9.74206-2.69415l-1.14905-21.32831"/><path class="cls-5" d="M287.22125,204.86957a8.97787,8.97787,0,0,0-4.514,1.995c-1.23663.96591-2.75744,2.58377-2.59851,3.32328.16706.77725,2.1944-.718,2.44092-.41623s-3.47009,5.91363-2.76965,6.33395c.69916.42163,3.86078-4.6636,3.86078-4.6636s-3.07,5.43142-1.88184,5.54995c.9928.0997,3.7179-5.04077,3.7179-5.04077s-2.30487,4.59625-1.51551,4.77c.78809.17243,2.92456-4.40491,2.92456-4.40491s-1.73773,3.91187-1.07092,3.97788c.33673.03369,2.05292-1.91147,2.76953-4.26886.70594-2.31833,1.53028-4.33084.89453-6.14"/><line class="cls-8" x1="301.94775" y1="122.20984" x2="301.94775" y2="141.64133"/><path class="cls-13" d="M263.00485,80.463c-.07406.84195-.10776,1.68793-.101,2.53253a9.1353,9.1353,0,0,0,1.304,5.2482,5.51816,5.51816,0,0,0,3.02955,2.12571c.85946.23437,1.98428.13467,2.35473-.67493a2.19688,2.19688,0,0,0,.13608-.92676,24.8981,24.8981,0,0,0-1.78894-9.16955"/><path class="cls-5" d="M284.30472,82.2291c-1.20969-4.72016-5.01926-11.33164-11.21713-10.00477-3.8917.83384-7.47626,3.48487-8.62131,7.19745-1.36728,4.43323.85,9.5885,3.50644,13.2081a10.94552,10.94552,0,0,0,3.65463,3.38925c3.58856,1.85492,8.43134.33408,10.86685-2.75613S285.26111,85.96588,284.30472,82.2291Z"/><path class="cls-5" d="M275.612,94.57224l2.026,7.40084-2.75745,1.30124a6.731,6.731,0,0,0,6.26255,2.19574c8.457-1.22046,11.11612-7.08157,11.11612-7.08157l-4.77408-.49844-5.28592-9.00925"/><path d="M288.43076,77.07919a11.88009,11.88009,0,0,0-5.72236-7.70932c-5.00573-3.04034-12.13046-3.28418-16.58657.9039-2.53788,2.38431-7.1045,10.8386-1.6475,12.51569,1.70408.524,3.458-.51325,4.94108-1.50467q2.26116-1.51145,4.52487-3.02554a3.58883,3.58883,0,0,1,1.76867-.76111,2.64679,2.64679,0,0,1,2.33448,1.87784,24.541,24.541,0,0,1,.65741,3.1279,2.99249,2.99249,0,0,0,1.1329,1.894,1.39243,1.39243,0,0,0,1.9613-.39472,3.49315,3.49315,0,0,0,.05527-1.55316c-.00946-.52405.28558-1.16522.80826-1.14233a.91881.91881,0,0,1,.50647.21957c1.31741,1.02512.88907,3.08078,1.32687,4.69187.05793.21148-.38391,3.47143-.23706,3.6358C288.46039,88.881,288.85648,79.40427,288.43076,77.07919Z"/><path class="cls-5" d="M282.21,81.72113a1.16416,1.16416,0,0,1,1.075-1.211,2.288,2.288,0,0,1,1.64746.62638,3.64842,3.64842,0,0,1,1.37806,2.65509,4.09806,4.09806,0,0,1-.75034,2.26174,2.418,2.418,0,0,1-1.211,1.06556,1.91447,1.91447,0,0,1-1.898-.60486"/><path class="cls-4" d="M132.20508,335.32065s9.08475,1.5141,9.33529,3.50912c.1428,1.14371-12.73257,2.50693-13.60684,1.83341-1.39825-1.07764.31659-5.1095.31659-5.1095Z"/><path class="cls-5" d="M131.48306,329.75061l.74491,5.74124a1.76973,1.76973,0,0,1-1.48313,1.242,2.73955,2.73955,0,0,1-2.29947-.75165l-1.06823-7.16779"/><path class="cls-4" d="M97.52621,198.894c-1.62319,14.12677-1.71215,20.91608,4.60163,30.59616,2.99182,13.67014,7.58542,27.66227,11.05813,41.65705-1.4952,16.71185,8.98236,43.33282,14.6185,62.34549l4.07361-.69645c5.47721-34.21847,7.50052-86.69662,2.585-132.6333"/><path class="cls-14" d="M100.17584,218.03467s15.62882,49.61825,15.62882,52.31241.427,11.95532,1.11938,17.9606c1.269,11.00155,11.23737,43.42847,11.23737,43.42847"/><polygon points="127.676 334.257 127.045 331.778 132.298 331.583 132.368 333.871 127.676 334.257"/><path class="cls-4" d="M61.56157,335.60233s7.10715,5.135,6.47673,6.94284c-.361,1.03592-11.92165-3.24784-12.38236-4.19214-.73681-1.51007,2.43285-4.22577,2.43285-4.22577Z"/><path class="cls-5" d="M63.3022,330.54535l-1.7943,5.21316a1.68189,1.68189,0,0,1-1.79028.43107,2.60647,2.60647,0,0,1-1.64343-1.61246l2.12033-6.567"/><path class="cls-4" d="M66.9957,195.952c-4.33084,13.54489-3.52664,20.62377.79208,31.34518.26131,12.83093.39064,25.81537.53746,38.80124C59.184,288.9812,57.7359,309.51471,58.893,331.30505l4.409,1.634s26.25053-45.75351,31.07844-63.84073a298.99139,298.99139,0,0,0,9.53192-63.74643"/><path class="cls-14" d="M68.07887,198.894s-4.77676,13.97727,1.48717,27.44806c0,3.75968,2.15262,35.0213,1.3013,39.852-.40953,2.31693-4.7,13.367-7.56523,24.12482-3.171,11.89871-3.8405,39.95971-3.8405,39.95971"/><polygon points="58.074 331.301 58.772 328.357 64.415 330.981 63.302 333.502 58.074 331.301"/><path class="cls-15" d="M140.41861,91.34341l-3.53607-3.01879V82.07013c0-.96991-1.3161-6.792-2.50153-6.792s-1.45617-1.45621-2.04889-.86347c-.59271.59406.48493,7.17051,0,7.65543-.48495.4863-1.11407-3.12387-1.56262-2.67529s-.4863,3.09561-.4863,4.44937a8.9951,8.9951,0,0,0,2.15668,4.92224c1.07361,1.0723,5.8234,6.206,5.8234,6.206Z"/><path class="cls-7" d="M138.64844,89.34021l-2.95685,3.365s11.67783,15.45773,15.3782,20.63321c-3.37436-1.1814-8.2171-4.14227-11.0177-5.97833-5.4934-3.60208-11.00158-5.51224-14.81112-5.51224-8.08921,0-3.85535,26.66409,5.52841,30.56656,17.80163,2.67663,37.75452.98337,40.80969-5.27384C176.10794,117.86728,150.01505,96.02173,138.64844,89.34021Z"/><path class="cls-8" d="M151.06961,113.33832s2.22675,6.21948,6.18582,8.24948"/><path class="cls-7" d="M84.36746,108.90512c-21.22049,23.83252-20.89853,64.80933-20.89853,92.6615,0,0,15.579,10.63516,39.36829,10.63516,23.8797,0,33.708-5.86383,33.708-5.86383.7153-28.21857-4.31742-40.38943.33679-87.06705,0,0-7.59348-17.42312-11.64145-17.42312s-19.88287-1.56125-19.88287-1.56125Z"/><path class="cls-8" d="M135.70865,133.04089s.48224-8.15255,2.46112-10.13275"/><path class="cls-5" d="M112.37347,82.41769c.78937-4.809,4.215-11.67782,10.50589-10.90054,3.95093.48764,7.01014,3.21549,9.22068,6.41074,1.89673,2.74,1.18,5.36136-1.51813,12.29883a17.86384,17.86384,0,0,1-4.15439,4.863c-3.4108,2.16474-8.36938,1.0763-11.06757-1.78757A12.94922,12.94922,0,0,1,112.37347,82.41769Z"/><path d="M113.21408,81.8316c.90524-.136.00675-.72473.40683.09967.25595.52674.33139.6803.84464.85138.50244.1684.51321.62909.9335.94162.65466.48764,1.20965-.17514,1.48584-.73684a6.33118,6.33118,0,0,0,.37582-3.42563c-.0943-.88638-.39068-2.2887.47821-2.9043.70993-.50381,2.27927.22629,3.01068.43778,1.12888.32733,2.24564.69238,3.36908,1.03457A20.04417,20.04417,0,0,0,132.542,79.295a8.16523,8.16523,0,0,0,6.25852-3.94152c1.43057-2.76825-1.42923-6.38514-4.34433-6.38916a11.314,11.314,0,0,0-2.23346.462,1.7253,1.7253,0,0,1-.83652.01215c-.63583-.18723-.916-.90119-1.27435-1.4589a4.79918,4.79918,0,0,0-4.82926-1.98693c-2.158.23709-4.00079,1.273-6.05514,1.83337a12.39792,12.39792,0,0,1-3.11844.05121A3.30884,3.30884,0,0,0,113.3407,69.685c-.88095-.92279-2.84635,1.33761-3.33536,1.933-2.15128,2.61737-2.83023,6.38785-2.8895,9.69492-.05114,2.89349.4311,7.1018,3.60346,8.267,1.3417.49167,2.18631.75436,2.24292-.47553a19.30059,19.30059,0,0,1-.84738-4.86834,2.57486,2.57486,0,0,1,1.17871-2.74671"/><path class="cls-5" d="M123.54337,93.90424l-.69108,7.26748,2.3884.67621a6.72685,6.72685,0,0,1-5.42737,3.81763c-8.47042,1.12884-14.4555-5.37888-14.4555-5.37888l2.82754-.5469L112.465,86.24609"/><path class="cls-5" d="M114.62842,81.78036a1.16331,1.16331,0,0,0-1.17737-1.11273,2.29725,2.29725,0,0,0-1.58685.7692c-2.36817,2.35873.60888,8.10675,2.946,5.13779"/><path class="cls-16" d="M130.59528,90.1c-.37989.89044-1.88187,1.24606-2.705,1.3363-3.98465.44049-7.29037-2.1351-11.10529-2.6066a2.0282,2.0282,0,0,0-2.77771,2.37085,24.91607,24.91607,0,0,0,.04715,2.67261,5.14245,5.14245,0,0,0,.61429,2.20923c1.72156,2.86792,7.46955,3.3515,10.38327,3.17373a6.08854,6.08854,0,0,0,3.32324-.99551c1.31208-.98874,1.59629-2.71841,2.08667-4.23926A8.39728,8.39728,0,0,0,130.59528,90.1Z"/><path class="cls-5" d="M127.76788,93.23065a.79037.79037,0,0,0-.423-.15356,38.7694,38.7694,0,0,1-4.3443-.559,2.03257,2.03257,0,0,0-.73953.03637,1.51428,1.51428,0,0,0-.91736,1.211,1.02147,1.02147,0,0,0,.63177,1.16254,6.67918,6.67918,0,0,0,2.7898.60889,4.00094,4.00094,0,0,0,2.61334-.46744C127.77328,94.74609,128.35248,93.65094,127.76788,93.23065Z"/><path class="cls-9" d="M110.24609,198.42126C82.078,195.99649,65.6788,219.92062,54.032,263.49722c-15.115,56.55039-36.24121,61.06711-45.75743,60.7573"/><path class="cls-10" d="M92.46094,202.19577c1.7055,20.45129,18.21383,31.50275,31.44351,30.39951l21.70013-1.81049-5.47186-65.58789L118.434,167.006C105.20438,168.11063,90.75423,181.743,92.46094,202.19577Z"/><path class="cls-11" d="M103.64291,201.26221c1.66639,19.98526,14.85157,35.19781,29.44849,33.9801l23.94293-1.9964-6.03622-72.36905-23.943,1.99634C112.45688,164.091,101.97525,181.27835,103.64291,201.26221Z"/><path class="cls-10" d="M149.28828,161.019a19.43188,19.43188,0,0,1,2.60517-.04185,19.91794,19.91794,0,0,1,2.60914.307,20.88547,20.88547,0,0,1,2.588.65294,22.32207,22.32207,0,0,1,2.54192.99257,24.18942,24.18942,0,0,1,2.47137,1.32266,26.44545,26.44545,0,0,1,2.377,1.64,29.03631,29.03631,0,0,1,2.25978,1.94153q1.09778,1.044,2.12077,2.22438t1.96133,2.48581q.93836,1.30542,1.783,2.7233t1.58752,2.93455q.74286,1.51668,1.37676,3.11755t1.15269,3.27053q.51883,1.66963.91758,3.392t.67358,3.48082q.27485,1.75845.42313,3.53609t.16857,3.55732q.02031,1.7797-.08758,3.5443t-.3429,3.49715q-.235,1.73252-.59492,3.41629t-.8412,3.30256q-.4813,1.6188-1.07938,3.157t-1.30719,2.98108q-.70908,1.44282-1.52237,2.77639t-1.72293,2.545a29.03514,29.03514,0,0,1-1.90688,2.28911,26.44846,26.44846,0,0,1-2.07244,2.01115,24.18548,24.18548,0,0,1-2.2181,1.71382,22.32019,22.32019,0,0,1-2.34233,1.4,20.88558,20.88558,0,0,1-2.44406,1.07271,19.918,19.918,0,0,1-2.5222.73506,19.41387,19.41387,0,0,1-5.18126.43221,19.91773,19.91773,0,0,1-2.60915-.307,20.88562,20.88562,0,0,1-2.588-.65294,22.31841,22.31841,0,0,1-2.54192-.99258,24.18343,24.18343,0,0,1-2.47137-1.32265,26.44364,26.44364,0,0,1-2.377-1.64,29.0389,29.0389,0,0,1-2.25979-1.94153q-1.09776-1.044-2.12075-2.2244t-1.96134-2.48581q-.93834-1.30542-1.783-2.72329T130.42,216.20532q-.74286-1.51668-1.37674-3.11755t-1.1527-3.27052q-.51882-1.66963-.91757-3.392t-.67359-3.48081q-.27483-1.75845-.42312-3.53608t-.16858-3.55733q-.0203-1.77969.08758-3.5443t.3429-3.49714q.235-1.73253.59491-3.41631t.84121-3.30255q.48129-1.61879,1.07939-3.157t1.30717-2.98107q.7091-1.44285,1.52239-2.77641t1.72291-2.545a29.03514,29.03514,0,0,1,1.90688-2.28911,26.44849,26.44849,0,0,1,2.07245-2.01114,24.1856,24.1856,0,0,1,2.21809-1.71384,22.32211,22.32211,0,0,1,2.34233-1.4,20.89046,20.89046,0,0,1,2.44406-1.07269,19.91942,19.91942,0,0,1,2.52222-.73506A19.43237,19.43237,0,0,1,149.28828,161.019Z"/><path class="cls-17" d="M151.16644,210.21091c.24787,2.969,2.4773,5.20782,4.98014,4.999,2.5029-.2088,4.33084-2.78577,4.083-5.7547-.24786-2.97031-2.47726-5.20917-4.98013-4.999C152.74655,204.66367,150.91992,207.24063,151.16644,210.21091Z"/><path class="cls-17" d="M149.02716,184.56525c.24786,2.97027,2.4773,5.20776,4.98016,4.999,2.50281-.2088,4.33088-2.7858,4.083-5.75476-.2478-2.97028-2.47723-5.20776-4.9801-4.999C150.6073,179.01929,148.7807,181.59491,149.02716,184.56525Z"/><path class="cls-18" d="M154.31088,187.92606c2.72513-.22632,33.84265-2.82215,33.84265-2.82215a3.78912,3.78912,0,0,0-.62912-7.55169s-31.25351,2.60659-33.84393,2.82348C151.0914,180.59119,151.58578,188.15369,154.31088,187.92606Z"/><path class="cls-18" d="M156.44968,213.57193c2.72516-.2276,33.84259-2.82214,33.84259-2.82214a3.78912,3.78912,0,0,0-.62906-7.5517s-31.25354,2.6066-33.844,2.82214C153.23013,206.23712,153.72455,213.79959,156.44968,213.57193Z"/><path class="cls-7" d="M73.06436,139.47983s-1.68385,17.151,5.98505,31.41388C85.607,183.09012,98.63593,198.8765,109.162,207.57458l2.52847-.6156c-3.66272-14.0581-15.22739-39.0195-15.94672-48.37759-.71933-9.35953-.54556-20.20215-.71933-25.41669"/><path class="cls-7" d="M105.3577,100.28653s-14.87442.85809-23.42838,7.32C67.14111,118.77924,70.04272,148.78,74.348,163.44968c4.30393,14.6697,25.01657,36.67828,31.70615,41.42,1.09649,0,4.31741-.27213,4.20157-2.7952-3.69907-11.43667-14.24674-41.521-14.24674-41.521l1.66635-40.58475"/><path class="cls-7" d="M110.664,204.86981a8.98321,8.98321,0,0,1,4.5141,1.995c1.23657.96591,2.75745,2.58377,2.59848,3.32327-.1684.77725-2.1944-.718-2.44089-.41623s3.46872,5.91364,2.7696,6.33395c-.70054.42164-3.86075-4.6636-3.86075-4.6636s3.07,5.43143,1.88189,5.55c-.99414.0997-3.71792-5.04077-3.71792-5.04077s2.30346,4.59625,1.51544,4.77c-.7894.17242-2.92587-4.40491-2.92587-4.40491s1.73907,3.91186,1.07092,3.97787c-.33542.03369-2.05157-1.91147-2.76959-4.26886-.70584-2.31833-1.53028-4.33084-.8931-6.14"/><path class="cls-8" d="M100.17831,172.5062c-2.37081-6.82572-4.16919-11.9527-4.16919-11.9527L99.13434,126.49"/><path class="cls-8" d="M70.95224,134.76382c-.08485,9.23829,1.02783,20.61838,3.396,28.686C76.42,170.5112,82.29329,179.27267,88.57471,186.99"/><path class="cls-2" d="M101.002,81.69757l-10.244-8.255s4.606-17.013-1.492-22.955a33.31956,33.31956,0,0,0-11.582-6.926c-9.426-3.577-20.686-4.389-29.087,1.186-6.197,4.112-9.964,11.16-11.651,18.404-1.484,6.378-1.36,13.626,2.627,18.82a20.43392,20.43392,0,0,0,6.849,5.453c8.105,4.247,29.544,5.85,38.846-.383,2.576-1.726,2.35-4.06,3.429-7.706Z"/><path class="cls-19" d="M53.85547,66.02148a6.56757,6.56757,0,0,1-1.46533,4.55664,5.30248,5.30248,0,0,1-4.15039,1.625,5.33848,5.33848,0,0,1-4.17481-1.61328,6.60426,6.60426,0,0,1-1.457-4.585,6.50671,6.50671,0,0,1,1.46533-4.56543,5.40074,5.40074,0,0,1,4.18311-1.59277A5.28784,5.28784,0,0,1,52.394,61.46484,6.55879,6.55879,0,0,1,53.85547,66.02148Zm-9.1626,0a5.38032,5.38032,0,0,0,.895,3.36133,3.642,3.642,0,0,0,5.2915.0127,5.39267,5.39267,0,0,0,.89063-3.374,5.40753,5.40753,0,0,0-.88232-3.35058,3.12056,3.12056,0,0,0-2.63135-1.14063,3.185,3.185,0,0,0-2.66406,1.14063A5.33256,5.33256,0,0,0,44.69287,66.02148Z"/><path class="cls-19" d="M63.77783,67.48242a4.958,4.958,0,0,1-1.14111,3.47266,4.09027,4.09027,0,0,1-3.17774,1.248,4.35674,4.35674,0,0,1-2.24951-.57421A3.798,3.798,0,0,1,55.707,69.97852a5.62237,5.62237,0,0,1-.52539-2.4961,4.92365,4.92365,0,0,1,1.13281-3.44824,4.10885,4.10885,0,0,1,3.19385-1.23926,4,4,0,0,1,3.12012,1.26758A4.9025,4.9025,0,0,1,63.77783,67.48242Zm-6.60937,0q0,3.145,2.32373,3.14453,2.29833,0,2.29883-3.14453,0-3.11133-2.31543-3.11133a1.97316,1.97316,0,0,0-1.76123.80469A4.09356,4.09356,0,0,0,57.16846,67.48242Z"/><path class="cls-19" d="M70.09619,72.20312a3.18118,3.18118,0,0,1-2.67676-1.23925h-.11474q.115,1.14843.11474,1.39551v3.71874h-1.9292V62.959h1.56006q.06519.25343.27051,1.21485h.09863a3.02175,3.02175,0,0,1,2.70948-1.37891,3.15153,3.15153,0,0,1,2.64795,1.23145,6.75189,6.75189,0,0,1-.01661,6.92871A3.18016,3.18016,0,0,1,70.09619,72.20312Zm-.46826-7.832a2.0066,2.0066,0,0,0-1.67871.67286,3.49068,3.49068,0,0,0-.52979,2.15136v.28711a4.24849,4.24849,0,0,0,.52539,2.40137,1.956,1.956,0,0,0,1.71631.74316,1.74149,1.74149,0,0,0,1.54346-.82129,4.242,4.242,0,0,0,.5415-2.33984,4.09068,4.09068,0,0,0-.53759-2.31055A1.79217,1.79217,0,0,0,69.62793,64.37109Z"/><path class="cls-19" d="M81.562,69.45312a2.3766,2.3766,0,0,1-.96875,2.04,4.63869,4.63869,0,0,1-2.7749.71,6.56331,6.56331,0,0,1-2.915-.5498v-1.667a7.14935,7.14935,0,0,0,2.98047.73926q1.78125,0,1.78174-1.0752a.85259.85259,0,0,0-.19727-.57519,2.34994,2.34994,0,0,0-.64844-.47657,11.21228,11.21228,0,0,0-1.25634-.55761,5.80585,5.80585,0,0,1-2.12207-1.21582,2.24469,2.24469,0,0,1-.5542-1.57618,2.07114,2.07114,0,0,1,.93994-1.81054,4.4678,4.4678,0,0,1,2.55762-.64356,7.2378,7.2378,0,0,1,3.02929.64844l-.624,1.45312a6.73041,6.73041,0,0,0-2.47119-.60742q-1.5271,0-1.52686.87012a.876.876,0,0,0,.398.72266,8.80637,8.80637,0,0,0,1.73633.8125,7.98553,7.98553,0,0,1,1.63428.79589A2.21511,2.21511,0,0,1,81.562,69.45312Z"/><path class="cls-19" d="M82.85547,71.0127a1.11184,1.11184,0,0,1,1.23144-1.23926,1.17652,1.17652,0,0,1,.895.32812,1.26886,1.26886,0,0,1,.312.91114,1.30678,1.30678,0,0,1-.31592.92382,1.15785,1.15785,0,0,1-.89112.34082,1.21822,1.21822,0,0,1-.90722-.32812A1.27958,1.27958,0,0,1,82.85547,71.0127Zm1.9541-2.61915H83.38086l-.42676-8.35742h2.27442Z"/></g></g></svg>