<svg id="Layer_1" data-name="Layer 1" xmlns="http://www.w3.org/2000/svg" viewBox="0 0 400 400"><defs><style>.cls-1{fill:#5f7391;}.cls-2{fill:#00ac71;}.cls-3{fill:#fc3f84;}.cls-4{fill:#97e6fb;}.cls-5{fill:#282223;}.cls-6{fill:#fcbfa6;}.cls-7{fill:#008d5c;}.cls-8{fill:#41526a;}.cls-9{fill:#fca18f;}.cls-10{fill:#3e4249;}.cls-11{opacity:0.2;}.cls-12{fill:#ffa700;}.cls-13{fill:#383838;}.cls-14{fill:#f94184;}.cls-15{fill:#d02b63;}.cls-16{fill:#e2f0f7;}</style></defs><path class="cls-1" d="M154.53442,101.04663c.29041-.88306.61768-1.75659.86609-2.65161,1.74817-6.29981,5.92688-9.85669,12.32263-10.82349a106.10193,106.10193,0,0,1,12.861-1.5166q.35577.42718.714.84961a9.69672,9.69672,0,0,0,.16113,2.48853,232.07787,232.07787,0,0,1,7.35351,28.14831c.65052,3.23743,2.16932,6.44837,1.22461,9.91052a18.32,18.32,0,0,0-10.73144-2.69165c-.82935.07178-1.77466-.0686-2.1698.92151-1.17578,2.942-1.77185,5.92871-.40759,8.9845,1.21655,2.72339,3.675,3.2832,6.279,3.43384,4.89038.28247,10.30444-2.52136,11.72949-5.99146a2.88145,2.88145,0,0,0,2.28235-.86279,58.39748,58.39748,0,0,0,11.26526-4.20435c4.00561-1.23632,4.00952-1.23632,3.86462-5.47241-.02881-.84509-.059-1.6936-.15783-2.532-1.08936-9.22961-2.27295-18.44946-2.79041-27.73621.14221-.20947.32849-.61926.42065-.599,4.54456.99634,9.39087,1.626,12.11206,6.03736,5.38184,8.72412,9.82056,17.95752,14.235,27.19726.37524.78467.37305,1.927,1.582,2.1167.67383,3.53638,1.18775,7.12915,3.563,10.064-1.28272.6582-.47266,1.64941-.301,2.43969a81.90756,81.90756,0,0,1,1.6128,11.11524c.12842,1.68017-.39917,2.261-2.07129,2.49866a77.6537,77.6537,0,0,1-14.03455.21118,21.6445,21.6445,0,0,0-10.07068-2.68274q-.13421-.11207-.26782-.22461l.22241.27c2.51294,3.51587,6.3097,4.92151,10.18506,6.19751,1.70069,15.9353,2.02161,31.95068,2.76709,47.94092a3.08858,3.08858,0,0,1-.16186,1.03369c-2.71387-.12793-1.42945,1.91907-1.37171,2.88147.80213,13.444,1.88343,26.8728,2.57459,40.322,1.47021,28.60559,2.58593,57.22717,3.08569,85.86951.1167,6.68676.31714,13.37158.47839,20.05786q.09687.77343.19251,1.54712c-3.27759.36889-6.55078,1.09179-9.84546.12329q-.43725-.86426-.87573-1.72876-3.38452-20.90406-6.77442-41.8086-6.36767-38.88445-12.78564-77.761c-.62158-3.769-1.33826-7.52222-2.01074-11.28272-2.68946,10.61646-4.85132,21.18531-6.9895,31.75879q-7.33411,36.26733-14.64307,72.5398c-1.74414,8.67187-3.42041,17.35693-5.12769,26.03637-1.12024,1.39527.209,4.28907-2.77832,4.54273-2.886.50952-5.54431-.70313-8.31079-1.09815q-.123-.3076-.24731-.61474c-.00342-.94141-.04529-1.88452-.00391-2.82447,1.24805-28.40917,2.7312-56.80358,4.978-85.15625,1.50244-18.956,3.019-37.9093,5.0553-56.81726.078-.72448.44934-1.87024-.222-2.11145-1.8114-.65161-1.29224-2.085-1.37378-3.276-.51013-7.42077-1.07788-14.84-1.40893-22.26989-.39014-8.74219-1.28687-17.46045-1.24439-26.22242q.50958.02033,1.019.04016a25.06124,25.06124,0,0,1,.62329,2.72522c.32715,2.76075,1.83863,3.457,4.40357,2.85926a34.42542,34.42542,0,0,0,18.36328-10.53491c-7.98511,2.3413-15.38342,5.076-23.35962,4.91979.02149-.832,0-1.63476-1.14136-1.67675a16.7672,16.7672,0,0,0-1.12866-2.84619,100.3955,100.3955,0,0,1-9.12768-19.28846C155.92749,123.1123,153.52612,112.31189,154.53442,101.04663Z"/><path class="cls-1" d="M220.74829,197.84106a.766.766,0,0,0,.09119.20264c.02893.03406.10193.03064.15564.0437l-.23316-.25928q-.28033-.28527-.561-.57006l-.26782-.23267q.123.12744.24633.25464Q220.46381,197.56037,220.74829,197.84106Z"/><path class="cls-1" d="M219.627,136.71411c-1.9707.23316-2.963,1.97778-4.19824,3.105-2.25293,2.05493-5.42529,2.95435-7.06079,5.72022-3.0603.75415-5.45654,2.79089-8.1626,4.23-1.63525-.20557-2.75683,1.067-4.19067,1.46325-1.56751.433-1.91565,1.57044-1.63135,3.09143,1.18066,6.31592.85474,12.75464,1.50171,19.117.43652,4.29663-.46814,8.6571.54517,12.93457-.00623,3.00867-.56372,6.04236-.42969,8.98547.175,3.83069-1.72656,5.84937-4.45459,7.79553a37.83117,37.83117,0,0,1-10.47827,5.23121,16.92619,16.92619,0,0,0,11.55224-3.63868c2.01807-1.57031,4.75965-2.71435,4.37586-6.00573-.257-2.19983.702-2.71033,2.74939-2.66565,3.75268.08264,7.50244-.03516,11.267-.32715,2.54114-.197,5.43274-2.2616,8.0459.561-.60241-3.60266.0752-7.18945-1.32751-10.543.62268-2.87793.11487-5.74755-.13538-8.6051-.81115-9.27136-1.69934-18.53662-2.557-27.80578-.17945-2.71839-.46753-5.36988,1.58789-7.73621a12.39064,12.39064,0,0,0,2.99243-4.91638l.13013-.2367Z"/><path class="cls-1" d="M217.94043,122.47559c-.72022.689-1.95532.642-2.46484,1.66259,3.8291,2.82373,3.97045,3.2063,4.95947,4.839.90405,1.49158-.04859,4.1969,1.70288,4.51685,1.58887.28979,3.48193-1.1051,5.246-1.74414a22.4701,22.4701,0,0,1,2.13916-.70374c1.73682-.4386,2.01355-1.36426,1.14356-2.87512a11.16013,11.16013,0,0,0-10.92835-6.03113c-1.06152-8.93457-3.82178-17.39929-6.88257-26.19409-1.00195,1.55225-.32544,2.553-.05713,3.572C214.79517,107.10742,216.56372,114.74731,217.94043,122.47559Z"/><path class="cls-1" d="M170.4303,101.085q3.97907,11.31189,7.95862,22.62427l.28759-.14038V90.478l-.30175-.00794q-.92982,9.33454-1.85962,18.66907C174.44043,106.29968,172.99121,103.37012,170.4303,101.085Z"/><path class="cls-1" d="M211.979,94.104c-.08264.16138-.21508.30506-.21289.44727.00171.14307.13758.28467.2146.42676.07581-.1416.21-.28247.21118-.42456C212.19287,94.41016,212.061,94.26587,211.979,94.104Z"/><path class="cls-1" d="M34.095,279.48022q-.63026-.35742-1.25952-.71386-.46289-1.69484-.92505-3.39038c-1.04394-5.32691-2.21289-10.63391-3.10339-15.98633-1.24475-7.48364-2.28247-15.00134-3.40894-22.5044q-.05273-.56286-.10535-1.127a98.912,98.912,0,0,0-.98779-11.875q-.00256-7.37365-.00451-14.74707c.53491-.95789.20947-2.05212.46252-3.03882,1.02295-3.98535-1.24878-7.9779.06506-11.95129a165.77966,165.77966,0,0,0,1.77137-30.47827c-.05555-1.77234-.14283-3.525-1.271-5.02112a7.51115,7.51115,0,0,0-.19019-4.3794c-1.92236-5.94848-1.91052-11.65808,1.46-17.3291a128.52392,128.52392,0,0,0,7.35816-14.92041c1.50293-3.49219,3.71118-5.48486,7.52881-5.59021q-.02528.80328-.04859,1.60657a4.62112,4.62112,0,0,0-1.00024.942,153.007,153.007,0,0,0-10.8877,25.02063,7.99517,7.99517,0,0,0-.4602,3.041c.83215,12.938,1.72876,25.87134,1.481,38.85181-.05384,2.8186.08764,5.64062.13916,8.46142-.82935,2.111-3.03138,3.03992-4.38892,4.844,3.88574.4541,6.2384.08032,4.90186-4.36743.98046.32666,1.96875.63061,2.93908.98388,1.61682.58887,2.96912.55872,3.62586-1.37561.74658-2.20031,1.87036-1.49621,2.56372-.11706,1.10571,2.1997,2.864,2.47265,4.95727,2.22583.03858,1.68518-.1438,3.70166,1.75611,4.364,5.44116,1.89746,11.1123,2.44544,17.39758,2.5802-2.20374-1.8031-4.30115-.93408-6.17664-1.35119-4.65661-1.03711-8.73584-3.24439-12.76123-5.63672a5.58616,5.58616,0,0,0-.15112-2.49414c-1.77246-10.07019-3.58276-20.11829-2.48694-30.45105.94592-8.91993,2.651-17.58,6.22815-25.8805,2.32434-5.39306,5.88794-10.00854,8.64185-15.11572l-.01636.01758a1.18973,1.18973,0,0,0,.72974-1.12427c2.35888-.92847,3.05285-3.57715,5.04663-4.88306.54638.13306,1.09887.2439,1.63769.403,5.89807,1.743,9.99317,4.57629,10.83557,11.64331.94873,7.96326,2.7699,15.85046,3.86634,23.83069a11.16116,11.16116,0,0,0,.45117,1.584q.07214,1.26344.1416,2.5304a317.18933,317.18933,0,0,1,1.58215,46.99,13.0947,13.0947,0,0,0-5.57312-1.79505c-2.46484-.19641-4.10693.4126-5.44238,2.84632-1.16956,2.13244-1.03369,4.58642-2.34534,6.57678a.8769.8769,0,0,0,.18347,1.26233c.54114.338,1.04883.0686,1.51587-.33289.81348-.69787.92054-2.13232,2.36744-2.26367.53149,1.00073.65783,2.03394-.2179,2.792-2.39966,2.07691-1.17065,3.08008,1.03137,3.87537.00122.93909.02661,1.87939,0,2.818-.493,17.20679-2.74609,34.22693-5.38574,51.20972-.46362,2.98376-.59668,6.02148-4.23657,7.02441a43.93781,43.93781,0,0,1-15.73511,3.95874A81.40828,81.40828,0,0,1,34.095,279.48022Z"/><path class="cls-1" d="M70.2373,187.59253c.95679-1.09876.41333-2.35779.25818-3.50354-.84521-6.25134-1.72094-12.49988-2.70874-18.73023-.68054-4.2915-1.55957-8.55188-2.34985-12.82592a37.47362,37.47362,0,0,0-1.1842,14.25085c.63842,7.34326,3.5216,14.01294,5.98925,20.81494-1.35351.57862-2.66186,1.31507-2.13818,3.06262.92273,3.0824,2.01526,6.11329,3.22156,9.71644,0-2.34815.016-4.06177-.00391-5.77527C71.29419,192.21582,71.69617,189.75891,70.2373,187.59253Z"/><path class="cls-1" d="M60.31213,179.66394c-2.41211.19312-4.78625.82654-7.23523.68323a4.23379,4.23379,0,0,0-1.34777.34717c-.74842.22412-1.79114-.01368-1.89759,1.22387a2.44882,2.44882,0,0,0,1.12146,2.37232c2.81165,2.1156,8.02893,2.21679,10.83216.11218a3.36551,3.36551,0,0,0,1.57885-3.62366C62.92358,178.92871,61.34924,180.03979,60.31213,179.66394Z"/><path class="cls-1" d="M370.90063,294.04346q.49184,18.85839.989,37.71679c.16821,6.093-.167,12.19776.41138,18.28077q-.13991,1.10376-.27955,2.20654c-2.71435,1.21948-5.57031.76147-8.39209.70776-.75366-1.04443-.616-2.35156-1.031-3.49634q-9.57642-57.4768-19.157-114.97045a.906.906,0,0,0-.813.8916c-1.019,5.07666-2.01978,10.15735-3.04492,15.23242q-7.21364,35.72132-14.43067,71.44165c-1.87549,9.31958-3.67187,18.65478-5.50366,27.98291-.27.971-.6001,1.9292-.79419,2.91479-.19311.981-.3855,1.855-1.68359,1.68531-2.60694,1.14062-4.977-.74561-7.50684-.58545q-.3014-.85327-.60351-1.70606c.759-4.48193.47045-9.019.70581-13.52783,1.32421-25.38013,2.80224-50.74829,4.88208-76.082,1.56347-19.04272,3.49853-38.04736,5.41626-57.05444,1.593.05774,3.18994.06518,4.77905.18066a186.10826,186.10826,0,0,0,40.62427-1.297c1.26123,15.02857,2.44775,30.06275,3.157,45.131.05664,1.2035-.20313,2.46241.44263,3.59974q.11388,2.82678.22778,5.65405c-.28418,2.85657.26147,5.66882.4602,8.49939-.25317,3.60254.31861,7.16724.49414,10.75l.08155,3.36548.07739,1.76269a.43755.43755,0,0,0,.04712.484,4.35008,4.35008,0,0,0,.19922,2.47888c-.043.05542-.13013.12342-.11939.1659a2.34432,2.34432,0,0,0,.16309.37194q.05017,1.62781.10083,3.2566.00732.56725.01465,1.135Q370.85791,292.632,370.90063,294.04346Z"/><path class="cls-2" d="M365.46851,204.56555a186.10826,186.10826,0,0,1-40.62427,1.297c-1.58911-.11548-3.186-.12293-4.77954-.18a2.94513,2.94513,0,0,1-1.281-2.36805q-1.1455-12.0703-2.37085-24.13232c-.6018-5.897-1.26636-11.78772-1.90307-17.68189-1.80762,5.16895-2.15455,10.47547-2.70044,15.75379-.90162,8.72571-.44947,17.47742-.5503,26.21887a13.05883,13.05883,0,0,1-5.36914,1.27551c-3.02466.2677-5.8977-.83044-8.88257-.73987q-.82983-6.8507-1.65966-13.70117c.125-.24218.36328-.48681.35864-.72619a245.005,245.005,0,0,1,1.19238-25.64392c3.91553-.19471,7.47339-1.73218,11.09693-2.99805,3.1101-1.08618,3.26025-1.79224,2.23608-5.06079-2.11475-6.74951-5.30884-12.99744-8.58472-19.21814,1.915-7.06653,3.89014-14.11316,6.19532-21.06824a3.82182,3.82182,0,0,1,3.4685-3.02563,125.61964,125.61964,0,0,1,13.43726-1.39038c2.94751,2.82373,6.02075,5.53015,8.79931,8.51171,1.82373,1.957,2.67627,1.66089,3.32862-.71606,1.89917.86279,1.16479,2.63574,1.21972,3.99268.54468,13.54028.99243,27.08508,1.46,40.62866a3.79948,3.79948,0,0,0,.89454,2.865q3.7998,3.78478,7.51757,7.65088c1.05591,1.09521,1.75391,1.19726,2.40869-.40821a49.05583,49.05583,0,0,1,2.77271-5.85962,8.34022,8.34022,0,0,0,.62158-6.75463c-3.45752-12.99964-6.78515-26.03394-10.12622-39.06409-.25342-.98792-1.11108-2.20386.54736-2.87634.81592,1.65747,1.52808,2.026,2.57862.06909a53.20472,53.20472,0,0,1,3.23584-4.788c2.68164,1.04773,5.37109,2.07691,8.03955,3.157.749.30346,1.72485.5028,1.803,1.53527.22534,2.959,1.64795,5.73682,1.31054,8.77613-.28759,4.25244.78125,8.39844,1.30982,12.54858,1.33716,10.50427,1.978,21.05567,2.50439,31.59839.41626,8.33472,1.03784,16.69019.68335,25.0564a17.37608,17.37608,0,0,0,.48682,5.28784C365.40283,202.95276,365.7561,203.85852,365.46851,204.56555Z"/><path class="cls-3" d="M318.72412,137.95569q-1.79223,8.15424-3.58545,16.30847.40759.08313.814.167C318.97949,149.3313,319.59717,143.72473,318.72412,137.95569Z"/><path class="cls-3" d="M315.13477,155.967l-.11329-.22314c-.051.06445-.13745.12622-.14379.1947-.00611.07019.06616.14783.10424.222Q315.0581,156.06379,315.13477,155.967Z"/><path class="cls-2" d="M154.5343,101.04688c-1.00818,11.26525,1.39319,22.06567,4.46253,32.77661-1.00025.14843-.93689.97375-1.1543,1.69091-1.718,5.675-3.51929,11.31836-6.40527,16.54627a6.10374,6.10374,0,0,0-.79078,2.37817c-.82544,10.57117-1.936,21.11292-3.52282,31.59339-.65613,4.33239-1.09314,8.72973-2.49134,12.92846-4.21.1941-8.41772.4325-12.62951.574a241.96566,241.96566,0,0,1-36.75562-1.62976c-.05432-1.40845-.14441-2.81629-.158-4.22522-.11706-12.21509.13074-24.42017,1.13953-36.60059,3.64111-1.06885,7.45044-1.5907,10.88367-3.33716.441,4.11548,2.93,7.41858,4.40979,11.12207.64257,1.60877,1.36657,1.72254,2.56494.4104,2.58594-2.83166,5.276-5.56762,7.92309-8.343,1.68409,1.1842,3.30872,2.46521,5.06372,3.533,4.92945,2.99963,10.12281,5.32739,15.99317,5.70385,1.011.06519,2.15283.25025,2.62085-1.05066.55481-1.542,1.0625-3.10095,1.81714-5.31677-1.65064,1.10791-2.05432,2.65454-3.765,2.27808-3.73559-.82263-7.51135-1.42554-11.234-2.36573-3.546-.895-6.73022-2.89392-10.43017-3.23535-2.84693-2.47143-6.45008-3.67724-9.563-5.70324a35.343,35.343,0,0,1-3.20581-2.18567c-2.99915-2.53894-6.77539-4.24964-8.63843-8.01245.16467-3.89869,1.6438-7.00147,5.5-8.61365-2.27783-2.49414-5.14111-1.786-7.75427-2.07129.1217-1.49329.19031-2.99353.37414-4.47888.82593-6.67871,1.6847-13.35352,2.53162-20.0293,3.413-1.90222,6.67932-4.11548,10.58484-4.97034a45.09305,45.09305,0,0,0,3.48816,5.726c1.20068,1.91906,1.93591,1.55053,2.78454-.13526,1.07837.8927.7688,1.96436.47388,3.096q-2.97693,11.44116-5.89587,22.89661c-.26892,1.05017-1.03015,2.4364.40136,2.98107,3.46338,1.31666,6.72059,3.35914,10.60852,3.34205.24.4021.5033.792.7168,1.20813,2.06958,4.0299,10.38709,6.4154,14.21436,4.07067,2.70764-1.65856,3.52453-5.76049,1.92749-9.67553-.699-1.71363-3.67676-2.37476-6.76013-1.48548-.35779.10364-.67933.33411-1.0376.43421-3.529.9895-6.253,3.30884-9.07727,5.46448.257-9.41126.46924-18.82422.81115-28.23255.06287-1.73791.05152-3.60827,1.26014-5.11633.30175.7738.66113,1.53064.89038,2.32556.30517,1.05615.82605,1.19824,1.56762.45166q5.33333-5.37158,10.63843-10.771C144.42847,97.1665,149.72144,98.1814,154.5343,101.04688Z"/><path class="cls-4" d="M139.53467,131.49414c1.82458-5.85632,3.55676-11.41821,5.499-17.65308C140.76538,116.98,137.593,127.562,139.53467,131.49414Z"/><path class="cls-5" d="M241.11328,136.11658c-2.37463-2.93408-2.88867-6.527-3.56238-10.06336q-.07305-.873-.1466-1.74585c.34472-.25024.29211-.46814-.05432-.66174a17.15151,17.15151,0,0,1,.29321-3.64844c1.99206-6.66687.27-13.182-1.42993-19.42932-2.205-8.10644.0498-14.75232,4.6278-21.1084a10.44638,10.44638,0,0,0,1.932-5.17407c.73145-6.55249,4.347-11.30933,9.84326-14.708,8.27344-5.11584,17.32849-5.21667,26.53321-3.85058a5.21326,5.21326,0,0,1,4.677,4.91308,19.72053,19.72053,0,0,0,4.4602,10.72449,11.95452,11.95452,0,0,1,2.07251,13.37952c-2.39575,5.62524-4.42236,11.41186-7.32812,16.81067a2.56342,2.56342,0,0,0,.107,3.03759,25.21526,25.21526,0,0,1,3.99036,9.54651c-1.16162-.1687-1.05066-1.81323-2.24915-1.93823-1.53173-1.95068-3.98522-1.57764-5.97619-2.36963q-1.87739-2.15772-3.75537-4.31421c-.5282-1.67285.14038-3.36706-.08716-5.04492-.10254-1.16455.59436-1.71362,1.48083-2.35327,4.86329-3.50977,8.72681-7.53809,6.55872-14.30347a5.69192,5.69192,0,0,1-.10352-1.12134c-.43994-4.11377-.97033-8.21972-1.28906-12.34253-.17431-2.25073-2.16076-2.66735-3.41406-3.79052-.70361-.63062-1.07617.3872-1.41919.87353a29.08794,29.08794,0,0,1-19.86011,12.19238c-.81018.13477-1.80578.09961-1.76343,1.34107.1648,4.78467-.87463,9.93726,4.01355,13.29809q.28711,5.27381.5741,10.54737a27.84441,27.84441,0,0,0-3.46728,5.2539c-1.6128.49366-3.19788,1.11792-4.8418,1.45826-7.02918,1.45532-10.06458,5.029-10.3866,12.26147-.22082,4.96167,1.07788,9.68176,2.1449,14.44373A6.53839,6.53839,0,0,1,241.11328,136.11658Z"/><path class="cls-5" d="M44.89526,112.386a24.71327,24.71327,0,0,1-5.72143-3.023c-6.24-4.635-7.46387-7.99243-5.52112-15.44458.37927-1.45423.83-2.89209,1.30823-4.31641,1.2539-3.73559,2.62329-7.40613,2.467-11.486a16.27888,16.27888,0,0,1,1.37219-6.30737,8.29946,8.29946,0,0,1,6.64136-5.45154c7.619-1.53858,14.99914-1.54639,21.70837,3.11816C72.9104,73.47974,75.39722,79.10388,75.03784,86a6.41549,6.41549,0,0,0,.887,3.98706,36.84055,36.84055,0,0,1,3.50367,8.6023A3.81694,3.81694,0,0,1,78.1344,103.032a39.52025,39.52025,0,0,1-17.17688,9.32129q-.50025-.27264-1.00256-.54565.21405-3.98181.42736-7.96265c.3335-.8623-.12622-2.05615.74048-2.63867,3.9021-2.62158,2.9895-6.72229,3.3711-10.44946.1687-1.65235-.30225-2.52527-2.05555-2.97535-7.92468-2.03283-14.952-5.525-19.45935-13.14111-.51171.78174-.80444,1.22608-1.09472,1.67212-3.14868,4.84229-3.09595,10.47327-4.22534,15.86694-1.25782,6.012,1.61669,9.40454,5.67956,12.6045.88709.6986,1.90881,1.22558,2.13245,2.47338q.06445,2.53381.12964,5.06641C45.36572,112.34424,45.13013,112.36511,44.89526,112.386Z"/><path class="cls-6" d="M114.938,88.03967c-1.8114-1.59924-4.70642-2.92151-5.2-4.85705-.91382-3.57935-3.74317-5.08521-5.72266-7.50464-1.65527-2.0221-.53613-4.02368.41211-5.95874,2.57617.58655,3.76221-.00488,3.34839-3.05054-.60462-4.44495-1.00647-8.92615,2.82593-12.54,1.05066-.99072,1.71875-1.65137,3.26-1.34057a46.21787,46.21787,0,0,1,15.60266,6.24c3.63879,2.28418,6.506,4.77221,5.52673,9.60937-.0249.12354.1648.29053.29273.49878,1.13671-.21,2.185-1.14465,3.45483-.58191,1.70557.70764,2.90625,1.92932,2.5802,3.82166-.39,2.26379-1.32971,4.4331-3.98071,4.79651-1.45667.20031-2.0918.59729-2.16419,2.16247-.09912,2.14661-2.51855,3.50806-2.21118,5.87207-1.60889-1.41821-2.30566.60169-2.853,1.12988C125.422,90.85828,120.52026,92.10815,114.938,88.03967Z"/><path class="cls-6" d="M186.823,75.01465c.78747-3.25452-2.20716-5.64453-2.03955-8.78638.01758-.32666-.76026-.72461-1.2024-1.04321-4.8894-3.52515-4.74731-6.56152.45166-9.47522.91138,1.38513,1.0315.61413,1.22559-.40247.90527-4.7456,1.85571-9.48205,2.83386-14.44384a40.39686,40.39686,0,0,0,21.01441,5.00708c1.62866-.04932,1.82385,1.002,2.2445,2.0039,1.178,2.80615,1.20972,5.86646,1.91236,8.779,3.18652,4.44141,3.18359,4.43921-.33631,9.27466a1.8199,1.8199,0,0,0-.45788,1.01111c.37182,5.16663-3.7124,7.1593-6.91651,9.7804-1.01623.49463-2.04028.97314-3.04614,1.48657-2.55591,1.30469-4.80664,1.637-7.636-.04932-2.53956-1.51367-4.55994-3.74927-7.332-5.0625C187.27759,73.83545,187.48755,74.60986,186.823,75.01465Z"/><path class="cls-6" d="M354.76025,85.11877c1.55054.728,3.18592,1.3722,3.03882,3.56128a4.83511,4.83511,0,0,1-3.00427,4.40076c-.61475.27344-1.43164.4325-1.45483,1.15649-.11487,3.623-2.7677,5.33838-5.22669,7.23865a7.61608,7.61608,0,0,0-1.07214,1.28455,7.914,7.914,0,0,0-2.40137.70141c-2.76538,1.92579-5.32239,1.44117-8.03345-.18127-2.18176-1.30542-4.01928-3.02112-6.05041-4.49927-.65039-1.98913-2.62207-3.39148-2.44824-5.78943.04748-.65942-.8667-.78686-1.53077-.94482-2.73584-.65259-4.35485-2.74548-3.92065-5.15759.47656-2.65052,2.4397-2.98218,4.67407-2.76258,2.08216,1.24878,1.07227-.88086,1.12036-1.22387.1897-1.36194-.103-2.66736,1.62354-3.49952,6.25415-3.01391,12.42847-6.1936,18.61816-9.34045.82764-.42126,1.431-.68957,2.13013.278,1.95984,2.71045,4.36963,5.15992,3.22046,9.04944a20.62039,20.62039,0,0,0-.28076,4.48572C353.717,84.61719,353.80591,85.20264,354.76025,85.11877Z"/><path class="cls-7" d="M107.11243,153.7417c-3.43323,1.74646-7.24256,2.26831-10.88367,3.33765-5.272.175-10.5542.672-15.78088-.519q-.0705-1.26525-.14209-2.5299A196.58861,196.58861,0,0,1,89.35693,126.814c2.92163-6.73876,7.27771-12.71948,9.97339-19.55786a3.08824,3.08824,0,0,1,1.98987-1.87256c-.84692,6.6753-1.70569,13.3501-2.53162,20.02881-.18383,1.48536-.25244,2.9856-.37292,4.47889a13.77286,13.77286,0,0,0-5.78894,4.66223c-.81116,1.23242-1.49951,2.83667.41113,3.47534,2.54053.84912,4.87842,2.34241,7.63086,2.54736,1.863,3.76282,5.63928,5.47351,8.63843,8.01245a35.20483,35.20483,0,0,0,3.20691,2.18567C110.45117,151.28381,109.12549,153.13892,107.11243,153.7417Z"/><path class="cls-5" d="M138.73877,68.55444c-1.26978-.56274-2.31812.37183-3.45483.582-.12793-.20837-.31763-.37548-.29273-.49877.97937-4.83728-1.88794-7.3252-5.52661-9.60938a46.21385,46.21385,0,0,0-15.60266-6.24c-1.54138-.31079-2.20935.34973-3.26013,1.34033-3.83228,3.614-3.43042,8.09522-2.82593,12.54016.41382,3.04554-.7721,3.63709-3.34839,3.05066-2.437-2.54516-3.09082-5.11975-1.38013-8.59033,1.48828-3.02026,2.72522-6.423.87134-9.97412-.4812-.92151.33276-1.96533.66223-2.92041a24.518,24.518,0,0,1,5.74524-8.938,2.15016,2.15016,0,0,1,2.93115-.52075c5.40284,2.6543,11.19117,4.41382,16.66858,6.84058a13.42847,13.42847,0,0,1,8.13526,9.44067,18.91128,18.91128,0,0,0,3.31555,6.47949c1.605,2.227,1.48547,3.79273-.76868,5.30664A16.31233,16.31233,0,0,0,138.73877,68.55444Z"/><path class="cls-5" d="M213.26343,56.65332c-.70264-2.9126-.73438-5.9729-1.91236-8.779-.42065-1.002-.61584-2.05323-2.2445-2.00391a40.39667,40.39667,0,0,1-21.01441-5.00708c-.97815,4.96179-1.92859,9.69824-2.83386,14.44385-.19409,1.0166-.31421,1.7876-1.22559.40246a43.34392,43.34392,0,0,1-1.46728-16.75512c.54407-5.897,4.25977-8.48743,9.10156-10.2146a12.91881,12.91881,0,0,1,4.7229-.73133,28.705,28.705,0,0,1,17.82959,6.74268,5.29714,5.29714,0,0,1,1.89527,3.94678A37.2388,37.2388,0,0,1,213.26343,56.65332Z"/><path class="cls-7" d="M301.64673,136.65967c3.27612,6.2207,6.47,12.46875,8.585,19.21826,1.02393,3.26855.874,3.97449-2.23608,5.06079-3.62354,1.26587-7.1814,2.80322-11.09546,2.99756q-2.36463.30468-4.73316.61072a20.04086,20.04086,0,0,0-2.76245-.4845c-3.21265-.12695-6.34692-1.4668-9.46167,1.35291-4.71435,4.26721-10.61792,6.56945-16.78,8.08654-5.18066,1.276-5.18481,1.26123-6.98828-3.49951q-.05785-.85254-.116-1.70459a64.56587,64.56587,0,0,0,32.45948-9.658c2.83886-1.76965,5.96313-3.28051,7.584-6.50268,1.748-.6239,3.48364-1.28846,5.24878-1.86023,1.49-.48279,1.439-1.32581.97412-2.6051-.92139-2.53724-2.98315-3.69373-5.2102-4.72461-.08448-2.13013.60351-4.325-.437-6.37476-2.33911-4.60852-4.73193-9.18994-7.05175-13.80811-.66285-1.32006-1.67163-2.54223-1.50635-4.17138l.02417-.025c1.21387.419,1.13354,2.13819,2.4563,2.44666q.18933.21918.37866.437l-.03149-.06909a27.17182,27.17182,0,0,0,5.53906,7.32751Q299.067,132.68495,301.64673,136.65967Z"/><path class="cls-7" d="M366.144,202.38574a17.37581,17.37581,0,0,1-.48706-5.28784c.35449-8.36621-.26709-16.72168-.6831-25.05615-.52661-10.543-1.16724-21.09424-2.5044-31.59863-.52881-4.14991-1.59765-8.296-1.31006-12.54847,1.89649,5.61621,2.73658,11.48426,4.07886,17.23181q6.2655,26.83265,14.5625,53.10425c.30689.96851.88208,1.9065.56665,3.00086-4.77881-1.44751-10.95141.80212-12.447,4.53552C366.52954,205.05957,366.65112,203.55713,366.144,202.38574Z"/><path class="cls-5" d="M354.76038,85.1189c-.95435.08374-1.04322-.50147-.998-1.24256a20.62054,20.62054,0,0,1,.28076-4.48572c1.14917-3.88964-1.26062-6.33911-3.22046-9.04956-.69909-.96728-1.30249-.699-2.13013-.27783-6.18969,3.14685-12.364,6.32666-18.61816,9.34046-1.72656.83215-1.43384,2.13757-1.62353,3.49963-.0481.343.96179,2.47266-1.12037,1.22388-.54626-4.01245-1.10778-8.0232-1.62512-12.03907a4.82647,4.82647,0,0,1,.02881-2.214C328.14,63.56274,337.64746,58.27148,344.303,59.46826a14.92611,14.92611,0,0,1,12.415,14.85535A37.484,37.484,0,0,1,354.76038,85.1189Z"/><path class="cls-8" d="M25.32837,158.64636c1.12817,1.49622,1.21533,3.24878,1.27087,5.02112a165.82079,165.82079,0,0,1-1.77075,30.47827c-2.73694,2.6471-4.04529,6.36572-6.77161,9.02075-1.85327-3.29809-4.68212-4.52758-8.3656-3.94336q1.60492-4.09368,3.20972-8.188a2.40566,2.40566,0,0,0,.65662-1.70166,24.34931,24.34931,0,0,0,2.32373-5.63892,6.11635,6.11635,0,0,0,1.07849-2.84619c2.94482-6.34985,4.94714-13.054,7.37439-19.598C24.65747,160.37915,24.99658,159.51416,25.32837,158.64636Z"/><path class="cls-2" d="M209.20105,91.30139c.51746,9.28674,1.701,18.50659,2.79041,27.73621.09887.83838.129,1.68689.15783,2.532.1449,4.23608.141,4.23608-3.86462,5.473q-3.33875-14.2824-6.68457-28.56372a3.63153,3.63153,0,0,1,.77734-3.67517c.53784.67139.41724,1.86194,1.678,2.09351.57349-.85083,1.08228-1.74414,1.72534-2.52759.96021-1.16907,1.35816-3.01563,3.38916-2.971Z"/><path class="cls-6" d="M367.92029,205.76733c1.4956-3.73339,7.66833-5.98315,12.44714-4.53564,1.29688,5.44141,2.35449,10.869-1.20312,15.93774a18.89913,18.89913,0,0,1-1.4541,1.713c-1.00342,1.118-2.29371,1.55285-3.49219.60742-1.148-.90637-.80615-2.17371-.02832-3.28052a5.04369,5.04369,0,0,0,1.13916-3.39429c-.05127-.578-.09961-1.19616-.804-1.29358-.75293-.104-.87475.49878-.9895,1.074-.14722.73413-.3833,1.45312-.48633,2.19238-.15344,1.104-.69909,1.76734-1.84314,1.666-1.23132-.10865-2.12634-.61927-2.13879-2.08716A40.97107,40.97107,0,0,0,367.92029,205.76733Z"/><path class="cls-9" d="M186.823,75.01465c.66455-.40479.45459-1.1792.71545-1.92017,2.7721,1.31323,4.7926,3.54883,7.332,5.0625,2.82935,1.6864,5.08008,1.35413,7.636.04932,1.006-.51343,2.02991-.99182,3.04614-1.48657.03052,2.24463-1.50073,4.46362-.10754,6.73071-1.434.78918-2.2854,2.21521-3.511,3.21777a3.10885,3.10885,0,0,0-1.02392,4.16577q-2.78778.0196-5.575.03809a2.56047,2.56047,0,0,0-1.1095-3.48218c-2.96179-2.07568-5.713-4.45288-8.55078-6.70581Q186.249,77.84961,186.823,75.01465Z"/><path class="cls-9" d="M114.93811,88.03967c5.58215,4.06848,10.484,2.81861,15.17175-1.70276.54737-.52819,1.24427-2.54809,2.853-1.12988.41223,2.39282.58081,4.84522,1.73169,7.05737-2.85693,1.6167-5.22729,3.89478-7.88269,5.77637a4.46655,4.46655,0,0,0-2.07654,3.1294,6.33479,6.33479,0,0,1-4.70068.05322c-.25928-3.0813-2.82544-4.55078-4.595-6.5763A28.704,28.704,0,0,0,114.93811,88.03967Z"/><path class="cls-7" d="M44.89526,112.38672q.35231-.0315.70581-.063c2.24634,4.48926,3.17749,4.804,7.957,2.97266a43.34187,43.34187,0,0,0,6.39685-3.48767q.50189.27246,1.00256.545,1.27954,2.111,2.55872,4.21851c-1.995,1.30371-2.68885,3.95251-5.04847,4.88085-.58581.15345-.73242.58985-.729,1.12427l.01636-.01758c-1.41407.312-2.83106.61475-4.24219.93873-1.33032.30493-2.569.39221-3.21826-1.16578-1.57666-3.67553-1.57263-3.67212-4.3103-.83667-.50782.526-.91431,1.20752-1.752,1.29529a13.70462,13.70462,0,0,1-2.79541-4.757q.0238-.8031.0481-1.60644A9.612,9.612,0,0,0,44.89526,112.38672Z"/><path class="cls-9" d="M330.55591,98.781c2.031,1.478,3.86865,3.19384,6.05029,4.49926,2.71118,1.62232,5.26807,2.10694,8.03345.18116A7.91813,7.91813,0,0,1,347.041,102.76q-.074,2.83521-.14893,5.67114c-1.85327,1.80921-4.68823,2.92774-4.39795,6.24622q-2.33753.02215-4.6748.04419c.46435-1.30432-.23877-2.12171-1.18921-2.82825q-3.90125-2.89893-7.80689-5.79163A44.036,44.036,0,0,0,330.55591,98.781Z"/><path class="cls-7" d="M185.67505,80.68408c2.83789,2.25305,5.58911,4.63013,8.55078,6.70593a2.55962,2.55962,0,0,1,1.109,3.48206q-.59015,1.98852-1.17981,3.9773c-1.08008,3.15942-1.04541,3.123-3.39929.87963-3.12073-2.97412-6.30225-5.885-9.45764-8.8236-.23829-.28248-.47657-.56482-.71387-.84974Q183.13086,83.36823,185.67505,80.68408Z"/><path class="cls-7" d="M124.73486,101.17041a4.46861,4.46861,0,0,1,2.077-3.12988c2.6554-1.88159,5.02576-4.15967,7.88269-5.77637q2.11011,2.36389,4.22144,4.72913-5.31556,5.38788-10.63746,10.771c-.74145.74671-1.26232.60462-1.5675-.45178-.22925-.79468-.58875-1.55151-.8905-2.32544Q125.27819,103.07911,124.73486,101.17041Z"/><path class="cls-7" d="M328.82349,106.10168q3.90417,2.89545,7.80688,5.79163c.95044.70654,1.65357,1.52393,1.19092,2.82715a8.89248,8.89248,0,0,0-.94531,4.25012c-.6521,2.37756-1.50464,2.67371-3.32862.71668-2.77832-2.98157-5.85156-5.688-8.79931-8.51172C325.75977,109.20557,327.39233,107.73486,328.82349,106.10168Z"/><path class="cls-7" d="M200.90967,90.8335a3.10964,3.10964,0,0,1,1.02466-4.16578c1.22558-1.00268,2.0769-2.42871,3.511-3.21777,1.367,2.58984,3.6178,4.76709,3.72486,7.94849-2.03125-.04468-2.4292,1.80176-3.38929,2.97082-.64306.78357-1.152,1.67688-1.72546,2.52759-1.26062-.23157-1.14-1.422-1.67786-2.09338Q201.64313,92.81823,200.90967,90.8335Z"/><path class="cls-7" d="M115.43982,94.647c1.76965,2.02539,4.33557,3.495,4.59485,6.57459-1.47974,1.25891-1.512,3.08117-1.85669,4.78235-.84863,1.68579-1.584,2.05432-2.78467.13525a45.1084,45.1084,0,0,1-3.48816-5.72595A25.30929,25.30929,0,0,1,115.43982,94.647Z"/><path class="cls-7" d="M342.49438,114.67773c-.29052-3.31835,2.54444-4.437,4.398-6.24621,1.14844,1.94128,2.592,3.72888,3.11353,5.99548a53.3214,53.3214,0,0,0-3.23535,4.78809c-1.05054,1.95679-1.7627,1.58838-2.5791-.06861A12.98768,12.98768,0,0,0,342.49438,114.67773Z"/><path class="cls-10" d="M296.48657,128.71021a27.17708,27.17708,0,0,1-5.5393-7.3274C294.80859,122.30273,296.14185,125.13318,296.48657,128.71021Z"/><path class="cls-2" d="M284.87939,112.20093c1.19849.125,1.08741,1.76953,2.249,1.93823,1.002,1.3252.97143,2.886,1.01562,4.42908l-.02441.025A10.90853,10.90853,0,0,1,284.87939,112.20093Z"/><path class="cls-1" d="M237.3501,123.64648c.34643.19361.399.41163.05432.66175Q237.37732,123.977,237.3501,123.64648Z"/><path class="cls-10" d="M290.979,121.452q-.18933-.21808-.37866-.437C290.80078,121.09656,291.18188,121.02185,290.979,121.452Z"/><path class="cls-11" d="M309.06128,352.34619q.30139.85254.60327,1.70606c-.346.874-.74219,1.73169-1.02637,2.625a3.03,3.03,0,0,0,1.32691,3.9021,6.91623,6.91623,0,0,0,7.21435-.292c1.5896-1.2207.82032-2.46313.23267-3.75048a2.30288,2.30288,0,0,1-.24048-1.89917c1.29785.16967,1.49048-.70435,1.68359-1.68531.1941-.98559.52393-1.94385.79468-2.91479,4.46533-.36182,8.93238-1.04053,13.39649-1.02173,9.85009.04175,19.71753-.63184,29.55224.4436.4148,1.14478.27735,2.45191,1.03076,3.49634-.325,1.48657.17041,2.30444,1.78492,2.45166,1.59131.145,3.15991.55029,4.75171.676,4.9414.38989,9.89086.83252,14.84008-.13208-4.3601-1.24024-8.81738-1.95118-12.98437-3.70337q.13916-1.10266.27954-2.20655,1.49048.3014,2.97949.6023,1.132.00366,2.26416.00635c.41162.65991,1.07739.54223,1.70069.55468,3.491,1.02857,7.16381,1.429,10.49633,2.99634,1.1814.55542,2.5813,1.09986,2.4585,2.72339-.11939,1.5835-1.30982,2.34644-2.72681,2.84912a72.982,72.982,0,0,1-18.83374,3.96485c-6.43359.50512-12.8396,1.28515-19.311,1.11206-.31421-.00855-.63745.32641-.9563.50146H348.114c-.47509-.60522-1.1521-.55029-1.8103-.55249-7.05469-.02539-14.11548.158-21.15088-.573-3.34887-.34814-6.68945-.85351-10.04761-1.02514-3.7854-.19361-7.34765,1.32861-11.051,1.81836q-6.39771.8463-12.82593,1.45874c-8.825.82641-17.67969.56713-26.52539.56958a43.18954,43.18954,0,0,1-7.01782-.4292,19.604,19.604,0,0,0-8.88818.89941c-7.28736,2.21582-14.8733,2.72705-22.41431,3.583a226.95437,226.95437,0,0,1-33.53345.95556c-12.71484-.44262-25.48132-.97143-37.86743-4.44384a8.40093,8.40093,0,0,1-2.41089-.75342c-3.65185-2.45068-7.5675-2.13208-11.6366-1.50415-9.57995,1.478-19.24194,1.66089-28.92321,1.77-7.91675.09009-15.84253-.17432-23.67957-.85083-5.4032-.46582-10.99853-1.09424-16.22815-3.04028a13.06436,13.06436,0,0,0-4.70581-.72193c-8.20557.04028-16.41894.23218-24.61523-.03955-8.89563-.29492-17.76453-1.12085-26.33289-3.824a8.89526,8.89526,0,0,1-1.83362-.71778c-1.89685-1.10888-1.85888-2.04248.01319-3.28613,2.8457-1.89014,6.18383-2.30444,9.384-2.73315,7.05225-.94483,14.11706-2.00611,21.27466-1.83814q.06885.48669.13708.97315c.23206,1.43334-1.53015,2.07812-1.40112,3.6621.942,0,1.86536-.01709,2.78748.00611.62329.0166,1.56005-.10864,1.39538.85107-.30225,1.76319.84461,1.48926,1.84607,1.53345,5.03809.2229,5.2533.01929,5.3523-5.06494.01647-.83887.05664-1.67774.08618-2.51612,2.33789.01416,4.68884-.124,7.01147.06958,8.60632.71827,17.25952.88526,25.81543,2.189a1.79455,1.79455,0,0,1,.24109.50732q-.1485,1.14735-.29712,2.29493c-4.48962,2.00122-9.46057,2.34814-14.069,4.05712a76.22293,76.22293,0,0,0,19.658-.46069c2.66577-.38281,4.21289-1.14014,3.94275-4.04541q.39569-1.46484.79089-2.93066,11.04548-.004,22.09-.009c.69739,1.63892-.15906,3.605,1.08288,5.12818-.49194,1.575-3.03247,2.95508-2.19189,4.10376,1.29077,1.7622,3.93042,1.93823,6.23267,1.97046.094.00122.188-.009.28186-.01538,4.41491-.29541,5.23242-1.28663,4.58191-5.53174a10.47126,10.47126,0,0,1-.05249-1.12476c1.42016-.99072.403-2.78247,1.29687-3.9458,5.2782.69971,10.58081,1.14868,15.83862,2.0979,5.24366.94653,10.16065,4.2,15.81983,2.4292q.12414.30762.24743.61475c-.16015.53564-.33288,1.06714-.47827,1.60669-.47326,1.75537-1.62195,3.57031.13635,5.22265a6.68932,6.68932,0,0,0,6.28541,1.511c3.35229-.707,4.07812-2.17432,2.8496-5.36548a16.05175,16.05175,0,0,1-.4823-1.87671c2.98719-.25342,1.65809-3.14722,2.77845-4.54272a2.71008,2.71008,0,0,0,2.4165,1.04492,83.95894,83.95894,0,0,1,13.15881-1.033c10.91822.21558,21.85169-.56836,32.75562.50537q.43816.86463.87634,1.72876c-.34643,1.79468.188,2.64893,2.20386,2.97266a88.29836,88.29836,0,0,0,20.262,1.08178c.5503-.03857,1.09131-.20385,2.35547-.44946-5.52783-1.37622-10.252-2.55249-14.97632-3.72827q-.09612-.77344-.19262-1.54761c5.66381-.66284,11.31274-1.62817,16.99463-1.896,4.74951-.22413,9.62524-2.46363,14.31689.34716a43.58624,43.58624,0,0,0-.10571,5.33033c.11425,1.22485-.54639,2.99511,1.47461,3.4519,2.63452.59546,4.94311-.14258,5.85009-1.88281.34961-.67261.93457-.45459,1.44971-.53662.98316-.15577,2.04858.30346,3.102-.44263-1.2312-2.28882-3.075-4.29492-3.238-7.03589C285.46826,350.0835,297.19482,353.78516,309.06128,352.34619Z"/><path class="cls-9" d="M34.095,279.48022a81.46814,81.46814,0,0,0,14.09668,2.04358c-2.16577.83387-.56885,2.46643-.55359,3.56238.11267,7.96948.025,15.93775.296,23.915.44556,13.11121.95166,26.22754,1.26868,39.34668-.91419-.06689-1.17127-.85547-1.598-1.45654-.67371-2.12744-8.04126-37.56922-8.11036-38.1211-.38159-2.30175-3.88061-19.81652-3.93835-20.37646Q34.82489,283.93664,34.095,279.48022Z"/><path class="cls-8" d="M47.60461,346.89136c.42688.60107.68384,1.38965,1.59925,1.45654q2.92272.22924,5.84485.4585.22082.356.44213.71167c-.02941.83838-.0697,1.67724-.08605,2.51611-.09913,5.08423-.31421,5.28784-5.35242,5.06494-1.00134-.04419-2.14832.22974-1.84607-1.53345.16479-.95971-.7721-.83447-1.39526-.85107-.92225-.02319-1.84546-.0061-2.7876-.0061C43.89453,353.12451,47.36743,347.1936,47.60461,346.89136Z"/><path class="cls-6" d="M9.69141,199.22388c3.68347-.58423,6.5122.64526,8.36621,3.94262a35.44968,35.44968,0,0,0-2.81739,8.21521l.01-.01587c-2.52295-.00732-.98706-2.83947-2.81286-4.01916,0,1.63086.02893,2.8208-.01013,4.00781-.02613.79932-.30347,1.53528-1.21314,1.65918-.83276.11279-1.1084-.61987-1.36828-1.20117-.64881-1.44861-1.2345-2.925-1.84546-4.39062q.00275-1.10815.00622-2.2168Q8.85,202.21461,9.69141,199.22388Z"/><path class="cls-2" d="M215.0376,149.35962c.85815,9.26733,1.74634,18.53259,2.55749,27.80395.25025,2.85767.75806,5.72718.13648,8.60572-7.07727,1.00488-14.1919.70654-21.30139.60632-1.01331-4.27747-.10865-8.63794-.54517-12.93457-.647-6.3623-.321-12.801-1.50171-19.11682-.2843-1.52112.06384-2.65845,1.63135-3.09155,1.43384-.39624,2.55542-1.66871,4.1914-1.46326,2.16578,2.29773,4.35254,4.57629,6.48731,6.90173,1.27661,1.39038,1.901.95166,2.45349-.62719.95154-2.71839,2.0249-5.39429,3.04724-8.08826Z"/><path class="cls-2" d="M181.298,86.90552c3.1554,2.9386,6.3368,5.84936,9.45765,8.82373,2.35376,2.24341,2.31921,2.27954,3.39929-.88037,1.81555.72924,1.57654,2.33862,1.63269,3.81775q.61817,16.29071,1.23169,32.5802a2.8839,2.8839,0,0,1-2.28235.86328c-.84522-2.27967-2.83215-3.40845-4.69971-4.65723.9447-3.46216-.5741-6.67309-1.22449-9.91064a232.09827,232.09827,0,0,0-7.35351-28.1482A9.692,9.692,0,0,1,181.298,86.90552Z"/><path class="cls-12" d="M197.01929,131.24634q-.61469-16.28981-1.23169-32.58008c-.05615-1.47913.18286-3.08862-1.63269-3.81775q.59014-1.98761,1.17981-3.97668,2.7876-.01868,5.57544-.038.73278,1.98432,1.46728,3.97a3.63121,3.63121,0,0,0-.77734,3.67517q3.356,14.27894,6.68445,28.56372A58.42725,58.42725,0,0,1,197.01929,131.24634Z"/><path class="cls-8" d="M196.43018,186.37561c7.10949.10022,14.22412.39856,21.30139-.60632,1.40161,3.353.724,6.93969,1.32641,10.54236-2.61316-2.82264-5.50476-.75806-8.0459-.561-3.76452.29211-7.51428.40979-11.267.32715-2.04737-.04468-3.00635.46594-2.74939,2.66565.38379,3.29138-2.35779,4.43542-4.37586,6.00574a16.92628,16.92628,0,0,1-11.55224,3.63879,37.83087,37.83087,0,0,0,10.47827-5.2312c2.728-1.94629,4.62964-3.96485,4.45459-7.79566C195.86646,192.418,196.424,189.38428,196.43018,186.37561Z"/><path class="cls-6" d="M190.03735,127.4519c1.86744,1.24878,3.8545,2.37757,4.69971,4.65723-1.42505,3.46948-6.83911,6.27344-11.72949,5.991-2.604-.15064-5.0625-.71045-6.279-3.434-1.36426-3.05579-.76819-6.04236.40759-8.9845.39514-.99,1.34045-.84961,2.1698-.92151A18.32013,18.32013,0,0,1,190.03735,127.4519Z"/><path class="cls-6" d="M219.73828,122.13965a11.1598,11.1598,0,0,1,10.92847,6.031c.87012,1.511.59326,2.43653-1.14356,2.87525a22.45617,22.45617,0,0,0-2.13916.70361c-1.764.63916-3.657,2.03394-5.24609,1.74414-1.75147-.31982-.79871-3.02514-1.70264-4.51684-.989-1.63257-1.13061-2.01526-4.95959-4.83887.5094-1.02075,1.74475-.97363,2.46533-1.6626C218.57056,122.52515,219.23389,122.75952,219.73828,122.13965Z"/><path class="cls-8" d="M170.39453,157.634c7.97632.15625,15.37451-2.57849,23.35974-4.9198a34.42532,34.42532,0,0,1-18.3634,10.53492c-2.56494.59777-4.07642-.09852-4.40357-2.85926a25.104,25.104,0,0,0-.62329-2.72583Z"/><path class="cls-8" d="M170.4303,101.085c2.56091,2.28516,4.01013,5.21472,6.08484,8.0542q.9298-9.33435,1.85962-18.66907l.30175.00794v33.09082l-.28759.14038Q174.40894,112.397,170.4303,101.085Z"/><path class="cls-12" d="M212.19409,147.95532c-1.02234,2.694-2.0957,5.36988-3.04724,8.08826-.55249,1.57873-1.17688,2.01746-2.45349.62732-2.13477-2.32569-4.32153-4.60413-6.48731-6.90186,2.70533-1.439,5.10157-3.47583,8.16187-4.22986Q210.281,146.7475,212.19409,147.95532Z"/><path class="cls-8" d="M172.1228,358.01489a16.0818,16.0818,0,0,0,.4823,1.87671c1.2284,3.191.50269,4.65833-2.84973,5.36536a6.6891,6.6891,0,0,1-6.28528-1.51087c-1.75818-1.65246-.60974-3.4674-.13635-5.22277.14551-.53943.31812-1.07105.47827-1.60657C166.57849,357.31189,169.23682,358.52441,172.1228,358.01489Z"/><path class="cls-8" d="M233.95337,355.59546c4.72461,1.17566,9.44849,2.35205,14.97656,3.72827-1.26416.24561-1.80542.41089-2.35571.44934a88.29955,88.29955,0,0,1-20.262-1.08166c-2.01587-.32386-2.55018-1.1781-2.20374-2.97266C227.40259,356.68738,230.67578,355.96448,233.95337,355.59546Z"/><path class="cls-8" d="M219.73828,122.13989c-.50439.61988-1.168.3855-1.79736.3357-1.3772-7.72828-3.14575-15.36817-5.14234-22.95777-.26831-1.019-.94482-2.01977.05713-3.572C215.9165,104.7406,218.67676,113.20532,219.73828,122.13989Z"/><path class="cls-8" d="M212.19409,147.9552q-1.91308-1.20757-3.82617-2.41614c1.6355-2.76587,4.80786-3.6654,7.06079-5.72033,1.23523-1.12708,2.22754-2.87171,4.19824-3.105l-.00927-.009a12.3808,12.3808,0,0,1-2.9917,4.91638c-2.05542,2.36634-1.76734,5.01783-1.58838,7.73743Q213.61616,148.657,212.19409,147.9552Z"/><path class="cls-8" d="M226.31958,152.382l.06909,3.56018c-3.87549-1.276-7.67212-2.68164-10.18506-6.19751l.04529-.0459A21.65011,21.65011,0,0,1,226.31958,152.382Z"/><path class="cls-8" d="M169.34509,157.624q-.046-.83385-.09179-1.66711c1.14123.04187,1.16284.8446,1.14123,1.67663l-.03052.03Q169.85461,157.64416,169.34509,157.624Z"/><path class="cls-8" d="M211.979,94.104c.082.16187.21387.30616.21289.44947-.00122.14209-.13537.283-.21118.42456-.077-.14209-.21289-.28369-.2146-.42676C211.76392,94.40906,211.89636,94.26538,211.979,94.104Z"/><path class="cls-8" d="M219.627,136.71411c.04077-.08215.08155-.16431.12171-.24573l-.13086.2367Z"/><path class="cls-8" d="M216.20374,149.74463l-.22254-.27c.08887.07532.17847.15.26782.22473Z"/><polygon class="cls-8" points="220.179 197.28 219.933 197.025 220.201 197.258 220.179 197.28"/><path class="cls-8" d="M220.20093,197.25769q.28016.28529.561.57007l-.01367.01294q-.28436-.28016-.56885-.56091Z"/><path class="cls-8" d="M220.76172,197.82812c.07764.08594.155.17261.23328.25928-.05384-.01306-.12684-.00964-.15564-.0437a.766.766,0,0,1-.09119-.20264Z"/><path class="cls-2" d="M50.29468,122.33252c.64941,1.55786,1.88794,1.4707,3.21826,1.16565,1.41125-.32385,2.82812-.62671,4.24219-.9386-2.75391,5.10718-6.31751,9.72266-8.64185,15.11572-3.57715,8.30054-5.28223,16.96057-6.22815,25.8805-1.09582,10.33276.71448,20.38086,2.48694,30.45105a5.62871,5.62871,0,0,1,.15381,2.49487l-.21851.043c-2.09326.24682-3.85156-.02613-4.95727-2.22583-.69336-1.37915-1.81714-2.08325-2.56372.11706-.65674,1.93433-2.009,1.96448-3.62586,1.37561-.97033-.35327-1.95862-.65722-2.93969-.98266q-.25654-.23767-.51233-.47779c-.05152-2.8208-.193-5.64282-.13916-8.46142.2478-12.98047-.64881-25.91382-1.481-38.85181a7.99517,7.99517,0,0,1,.4602-3.041,153.007,153.007,0,0,1,10.8877-25.02063,4.62112,4.62112,0,0,1,1.00024-.942,13.71487,13.71487,0,0,0,2.7959,4.75684c-.51794.53222-1.00537,1.09826-1.55908,1.59021-1.10669.98388-.5127,2.01306.16089,2.7019.95556.97717,1.37048-.23718,1.92187-.78113.47608-.47.66675-1.41186,1.70508-1.08984.06275.27917.12232.54858.18457.8175.23487,1.015-.65393,2.71387,1.53858,2.53833,2.103-.16809,1.2799-1.67444,1.17285-2.74438C49.22583,124.50854,48.79346,123.18213,50.29468,122.33252Z"/><path class="cls-6" d="M63.92676,277.56494c1.15478,4.53833.71887,9.16113.40075,13.71118-.68493,9.79859-2.14782,19.51783-3.78723,29.20069-1.49841,8.85083-3.13159,17.67968-4.73816,26.51172a9.11126,9.11126,0,0,1-.7528,1.81713q-2.92365-.22742-5.84546-.45727c-.31812-13.11914-.82422-26.2356-1.26978-39.34668-.27112-7.97742-.18335-15.94568-.29614-23.915-.01514-1.09607-1.61218-2.72852.55371-3.5625A43.94864,43.94864,0,0,0,63.92676,277.56494Z"/><path class="cls-6" d="M82.02966,203.55151a49.00176,49.00176,0,0,1-1.17907,4.82813c-.8866,2.54126-1.84668,5.07959-4.79029,6.0708a3.906,3.906,0,0,0-2.51123,2.06274c-2.202-.79589-3.431-1.799-1.03137-3.876.87573-.75794.74939-1.791.2179-2.79187-1.4469.13122-1.554,1.56579-2.36744,2.26379-.467.40137-.97473.67078-1.51587.33276a.87688.87688,0,0,1-.18347-1.26232c1.31165-1.99036,1.17578-4.44434,2.34534-6.57679,1.33545-2.43359,2.97754-3.04272,5.44238-2.84643A13.09649,13.09649,0,0,1,82.02966,203.55151Z"/><path class="cls-13" d="M70.24194,187.59863c-2.46765-6.802-5.35083-13.47168-5.98925-20.81494a37.47362,37.47362,0,0,1,1.1842-14.25085c.79028,4.274,1.66931,8.53442,2.34985,12.82592.9878,6.23035,1.86353,12.47889,2.70874,18.73023.15515,1.14575.69861,2.40478-.25818,3.50354Z"/><path class="cls-8" d="M60.31213,179.66394c1.03711.37585,2.61145-.73523,3.05188,1.11511a3.36551,3.36551,0,0,1-1.57885,3.62366c-2.80323,2.10461-8.02051,2.00342-10.83216-.11218a2.44882,2.44882,0,0,1-1.12146-2.37232c.10645-1.23755,1.14917-.99975,1.89759-1.22387a4.23379,4.23379,0,0,1,1.34777-.34717C55.52588,180.49048,57.9,179.85706,60.31213,179.66394Z"/><path class="cls-8" d="M45.3075,196.54468l.2185-.043c4.02258,2.3916,8.10193,4.59888,12.75855,5.636,1.87536.41723,3.97277-.45179,6.17663,1.35131-6.2854-.13476-11.95642-.68286-17.3977-2.58032C45.1637,200.24634,45.346,198.23,45.3075,196.54468Z"/><path class="cls-8" d="M70.23755,187.59277c1.45874,2.16651,1.05688,4.62329,1.084,7.01.0199,1.71338.00391,3.427.00391,5.77515-1.2063-3.603-2.29883-6.634-3.22144-9.71631-.52368-1.74756.78455-2.484,2.13807-3.06262Z"/><path class="cls-8" d="M30.7085,194.3512q.25653.23931.51245.47778c1.33716,4.44665-1.01563,4.82019-4.90125,4.36633C27.67725,197.39111,29.87927,196.46216,30.7085,194.3512Z"/><path class="cls-14" d="M57.73877,122.57739c-.00342-.53442.14331-.97094.72913-1.12427A1.18828,1.18828,0,0,1,57.73877,122.57739Z"/><path class="cls-8" d="M372.02161,352.2478c4.167,1.752,8.62439,2.46314,12.98449,3.70337-4.94922.9646-9.8988.522-14.84008.13184-1.59192-.12573-3.16053-.531-4.75184-.67578-1.6145-.14722-2.10986-.96534-1.78479-2.45191C366.45129,353.00928,369.30713,353.46729,372.02161,352.2478Z"/><path class="cls-8" d="M317.17151,354.6377a2.30315,2.30315,0,0,0,.24048,1.89929c.58764,1.28723,1.35693,2.52978-.23267,3.75036a6.91574,6.91574,0,0,1-7.21423.292,3.03,3.03,0,0,1-1.32691-3.9021c.28418-.89319.68042-1.75086,1.02637-2.62488C312.19446,353.89221,314.56458,355.77844,317.17151,354.6377Z"/><path class="cls-1" d="M297.32324,214.86841a302.068,302.068,0,0,1-8.3833,62.027,5.45431,5.45431,0,0,1-2.09375,3.48828c-4.67651.493-9.19678,2.13464-13.97241,1.90368a48.18164,48.18164,0,0,1-17.39478-4.16626c-2.7041-1.17138-3.582-3.34521-3.98681-6.16821-2.55591-17.81494-5.08423-35.62793-5.70752-53.64551-.4126-11.918,2.47339-23.13952,7.27661-33.94494a22.975,22.975,0,0,1,2.19238,1.24023,44.99779,44.99779,0,0,0,16.25025,6.94641c4.08838.95117,8.03564,1.58679,10.23608-3.29565.04932-.10987.31592-.12183.56274-.20825a8.51569,8.51569,0,0,1,.74952,1.49487c.70922,2.53662,2.10791,2.66626,4.40918,1.79907,2.707-1.01953,4.93115-2.72851,7.34448-4.1748q.271,1.07153.54175,2.14306.82945,6.85,1.6604,13.70166Q297.16662,209.43921,297.32324,214.86841Z"/><path class="cls-12" d="M342.49438,114.67749a12.98784,12.98784,0,0,1,1.69715,4.46875c-1.65808.67188-.80042,1.88794-.54688,2.87573,3.34107,13.03028,6.66858,26.06446,10.12622,39.06421a8.34048,8.34048,0,0,1-.62158,6.75452,49.06217,49.06217,0,0,0-2.7727,5.8595c-.65491,1.60546-1.35291,1.50366-2.40869.4082q-3.72345-3.85932-7.5177-7.65064a3.79991,3.79991,0,0,1-.89441-2.865c-.46766-13.5437-.91541-27.08862-1.46-40.6289-.05494-1.35694.67932-3.12989-1.21985-3.99268a8.8905,8.8905,0,0,1,.94531-4.25073Q340.15643,114.70032,342.49438,114.67749Z"/><path class="cls-6" d="M297.32312,214.86829q-.15711-5.42926-.31531-10.85926c2.98438-.09118,5.8573,1.00708,8.882.73926a13.06118,13.06118,0,0,0,5.36926-1.27539,25.3359,25.3359,0,0,0,1.5647,8.24512c.4104,1.19958,1.2749,2.65722-.38037,3.45947-1.51209.733-2.68042-.27576-3.58728-1.47144a4.72387,4.72387,0,0,0-1.20068-1.302c-.40027,1.78491-3.35975,3.69092.74267,5.15943,1.2052.43188.82825,1.92578-.27344,2.76367-1.66992,1.26977-4.78173,1.092-5.76953-.73877C301.15662,217.366,299.03955,216.38831,297.32312,214.86829Z"/><path class="cls-7" d="M318.72412,137.95569c.873,5.769.25537,11.37561-2.77148,16.47546q-.40686-.08313-.814-.167Q316.932,146.10992,318.72412,137.95569Z"/><path class="cls-15" d="M315.13477,155.967q-.07655.09668-.15284.1936c-.03808-.07421-.11035-.15185-.10424-.222.00634-.06848.09277-.13025.14379-.1947Z"/><path class="cls-1" d="M88.53687,350.12646a5.72019,5.72019,0,0,1,.03613-2.93518c.23047-.15344.65954-.30395.66186-.4602.07642-5.285.63111-10.58081-.28369-15.84717-.46191-10.46582.25989-20.91589.58362-31.36365,1.05188-33.916,3.0321-67.78637,5.71252-101.61474a242.01238,242.01238,0,0,0,36.75562,1.62915c4.21167-.14136,8.41943-.37976,12.62939-.574-.86547,14.762-1.55957,29.53638-2.63842,44.28235-1.53308,20.9386-3.20191,41.86682-5.34571,62.75842q-2.19159,21.35322-4.64013,42.6753c-.1189,1.02295-.072,2.06506-.10254,3.09814-.89331,1.16333.124,2.95508-1.29639,3.94568-2.86548,1.452-5.87878.73364-8.85193.59778-1.24206-1.52332-.3855-3.48938-1.0824-5.12817a5.72239,5.72239,0,0,0,.16431-1.10108c-.61828-15.0614-1.27783-30.12109-1.87109-45.18359q-1.32367-33.6156-2.595-67.23267c-.02478-.62732.37536-1.49341-.617-1.8739-.63684,3.94568-1.30652,7.84045-1.88964,11.74756q-5.58216,37.435-11.12818,74.87439c-1.418,9.58789-2.771,19.18542-4.15393,28.77832q-.39569,1.46557-.79089,2.93066a2.94671,2.94671,0,0,1-1.54822,1.08631c-2.76868.81408-5.36194.03686-7.98352-.63733q.1485-1.14735.29712-2.29505C89.79468,351.55188,89.77258,350.83289,88.53687,350.12646Z"/><path class="cls-12" d="M118.178,106.00378c.34473-1.70105.37695-3.52331,1.85669-4.78234a6.327,6.327,0,0,0,4.70093-.05152q.54162,1.9098,1.0852,3.81714c-1.20874,1.50806-1.19739,3.37842-1.26025,5.11633-.3418,9.40833-.5542,18.82141-.81006,28.23255l.01538-.01636c-3.88794.017-7.14526-2.02539-10.60864-3.34216-1.43152-.54456-.67017-1.93091-.40137-2.98108q2.93225-11.45216,5.896-22.89661C118.94678,107.96814,119.25635,106.89648,118.178,106.00378Z"/><path class="cls-6" d="M123.76575,138.31921l-.01526.01648c2.82312-2.15576,5.54712-4.475,9.07617-5.46447.35828-.10022.67981-.33057,1.0376-.43421,3.08349-.8894,6.061-.22815,6.76025,1.48535,1.59693,3.915.78,8.01709-1.92749,9.67566-3.82739,2.34473-12.145-.04077-14.2146-4.07068C124.269,139.11121,124.00586,138.72119,123.76575,138.31921Z"/><path class="cls-12" d="M107.11243,153.74194c2.01306-.60278,3.33874-2.45788,5.40161-2.9674,3.11181,2.026,6.715,3.23181,9.5636,5.70385a.569.569,0,0,0-.06739.453c-2.64709,2.77539-5.33715,5.51135-7.92309,8.343-1.19837,1.31214-1.92237,1.19837-2.56494-.4104C110.04248,161.16052,107.55347,157.85742,107.11243,153.74194Z"/><path class="cls-6" d="M100.6687,140.57629c-2.75232-.20495-5.09033-1.69824-7.63086-2.54748-1.91052-.63843-1.22217-2.2428-.41089-3.4751a13.77206,13.77206,0,0,1,5.78882-4.66235c2.61182.2854,5.47522-.42285,7.75318,2.07129C102.31274,133.575,100.8335,136.67773,100.6687,140.57629Z"/><path class="cls-7" d="M122.01038,156.9314a.569.569,0,0,1,.06738-.453c3.69824.34082,6.88245,2.33973,10.42859,3.23474,3.72253.94019,7.49829,1.5431,11.23388,2.36573,1.7107.37646,2.11438-1.17017,3.76514-2.27808-.75464,2.21582-1.26245,3.77478-1.81714,5.31677-.46814,1.30091-1.60986,1.11585-2.621,1.05066-5.87036-.37646-11.06372-2.70422-15.99316-5.70385C125.31909,159.39661,123.69458,158.1156,122.01038,156.9314Z"/><path class="cls-7" d="M139.53467,131.49414c-1.94165-3.93213,1.23071-14.51416,5.499-17.65308C143.09143,120.07593,141.35925,125.63782,139.53467,131.49414Z"/><path class="cls-2" d="M256.05884,168.29822c-.45923-2.257-1.9292-4.01306-2.99365-5.96375-4.18116-7.66382-6.81275-15.95019-9.77735-24.10351-1.06714-4.762-2.36572-9.48206-2.145-14.44385.322-7.23242,3.35742-10.80615,10.38672-12.26148,1.6438-.34033,3.229-.96459,4.84107-1.45825a17.22594,17.22594,0,0,0,11.52856,7.17346c-.77441.72461-2.15918,1.1283-1.54956,2.6233.967,2.36975,2.9856,3.45593,5.23633,4.36682,2.2.88989,2.175-1.38965,3.24658-2.22242a16.84826,16.84826,0,0,0,1.47705,2.23145c.6023.65552,1.09009,1.74023,2.21729,1.4668,1.14135-.27686,1.4934-1.35987,1.77075-2.36353.54394-1.96545-.406-3.38281-1.64966-4.80664-.81274-.93066-2.52026-1.13611-2.41431-2.83667,2.40357-1.26807,3.11524-3.30542,2.66968-5.86865,1.991.792,4.44434.41894,5.97607,2.36963a10.9095,10.9095,0,0,0,3.24048,6.39233c-.16528,1.62915.84351,2.85132,1.50635,4.17151,2.31982,4.61816,4.71265,9.19959,7.05176,13.808,1.04053,2.04981.35254,4.24463.4375,6.37476a10.73236,10.73236,0,0,0-4.561,1.144c-.72509.31482-1.28662.95679-.81567,1.455,1.8501,1.95581,2.12622,4.92444,4.36352,6.59094-1.62084,3.22217-4.74511,4.73316-7.584,6.50269A64.56712,64.56712,0,0,1,256.05884,168.29822Z"/><path class="cls-4" d="M273.801,147.95129c-.15174-.45349-.51282-.45739-.89441-.41711q-.35413-.052-.70813-.10425-.27265-.1842-.54517-.36914l-1.15308-.197q-.26843-.19593-.53723-.3916l-1.66943-.25818c-.167-.25354-.34863-.27857-.54846-.03626-.37036-.03222-.74048-.06506-1.11072-.09338-.329-1.19275-1.34168-.75232-2.11487-.88538a51.59527,51.59527,0,0,0-5.28284-12.446q1.41468,6.54675,2.83,13.09363l-.48059,2.16369-.10986.64991q-.17762.27246-.35559.54614-.01191,1.08692-.0232,2.17432.18951.26769.3794.535l.09448.13928a.846.846,0,0,0,.5072.99854q.59345.33123,1.18762.66235.28711.16735.57349.33508l3.86694.01868a.81682.81682,0,0,0,1.09253-.35437q.58173-.08478,1.16284-.16858.269-.19537.53833-.39136c2.18738-.62768,4.25928-1.43506,5.50061-3.53393q2.3725-.59619,4.74622-1.19226l-.04651-.38208h-6.26208a1.42543,1.42543,0,0,0-.37415.12683A2.92126,2.92126,0,0,1,273.801,147.95129Z"/><path class="cls-6" d="M259.26465,94.26624c-4.88819-3.36084-3.84888-8.51343-4.01367-13.298-.04224-1.24145.95337-1.20642,1.76342-1.34106a29.08784,29.08784,0,0,0,19.86011-12.19251c.343-.4862.71558-1.504,1.41919-.87341,1.25342,1.12305,3.23975,1.53967,3.41406,3.79053.31885,4.1228.84912,8.22876,1.28907,12.3424a5.69314,5.69314,0,0,0,.10351,1.12146c2.16821,6.76538-1.69531,10.79358-6.55859,14.30347-.88648.63965-1.5835,1.18872-1.481,2.35315C268.73022,101.11475,264.061,97.52808,259.26465,94.26624Z"/><path class="cls-7" d="M278.90308,109.83105c.44555,2.56324-.266,4.60059-2.66968,5.86939-.70313-2.11951-1.61218-4.188-4.3-3.95654-2.76184.2384-2.86377,2.43994-2.79919,4.56274.02941.968-.47107,1.08911-1.23523.93408a17.22636,17.22636,0,0,1-11.52845-7.17358,27.84751,27.84751,0,0,1,3.46729-5.25208q1.77813,1.10376,3.55725,2.20423c6.10364,3.76513,8.84009,3.41528,11.75269-1.50232Q277.026,107.67376,278.90308,109.83105Z"/><path class="cls-9" d="M275.14783,105.51709c-2.9126,4.9176-5.649,5.26733-11.75269,1.50232q-1.78052-1.09881-3.55725-2.20422-.2862-5.27583-.57349-10.5492c4.79651,3.26184,9.4657,6.84851,15.79627,6.20606C275.28821,102.1499,274.61963,103.84424,275.14783,105.51709Z"/><path class="cls-6" d="M45.471,107.25793c-.22364-1.24768-1.24536-1.77478-2.13233-2.47326-4.06286-3.20008-6.9375-6.59265-5.67968-12.60449,1.12939-5.3938,1.07678-11.02466,4.22534-15.86695.2904-.446.58313-.89038,1.09485-1.67224,4.5072,7.61609,11.53454,11.10828,19.45935,13.14124,1.75317.45,2.22412,1.32287,2.05542,2.97534-.3816,3.72705.531,7.82788-3.3711,10.44946-.8667.58252-.407,1.77637-.74035,2.63855-.67713-1.37048-1.57483-.85095-2.48523-.29675C54.08069,105.87439,50.335,108.441,45.471,107.25793Z"/><path class="cls-9" d="M45.471,107.25781c4.86389,1.18311,8.60962-1.38354,12.42627-3.7091.91028-.5542,1.8081-1.07386,2.4851.29675q-.21314,3.98145-.42736,7.96265a43.29822,43.29822,0,0,1-6.39685,3.48815c-4.77955,1.8313-5.7107,1.51648-7.957-2.97253Q45.5359,109.79157,45.471,107.25781Z"/><path class="cls-2" d="M292.16711,164.54724c.62561,6.78626,1.41138,13.54944,2.6709,20.25415a16.89906,16.89906,0,0,1-.03174,3.36365c-2.41381,1.44531-4.63794,3.1543-7.345,4.17383-2.30127.86718-3.7.73755-4.4093-1.79908a8.5129,8.5129,0,0,0-.74951-1.495c-.24683.08655-.51343.09851-.56274.20825-2.20032,4.88245-6.14771,4.24683-10.236,3.29578a44.99927,44.99927,0,0,1-16.25024-6.94654,23.00512,23.00512,0,0,0-2.1925-1.24023c-1.96827-1.72607-1.8086-3.5647-.46131-5.62183,1.74817-2.66845,1.7832-6.06787,3.57654-8.73706,1.80188,4.76026,1.80591,4.775,6.98669,3.499,6.162-1.51709,12.06568-3.81934,16.78-8.08655,3.11463-2.8197,6.249-1.47986,9.46167-1.35291A20.04552,20.04552,0,0,1,292.16711,164.54724Z"/><path class="cls-6" d="M296.10229,152.1377c-2.2373-1.66651-2.51342-4.63526-4.36352-6.59107-.471-.49805.09058-1.14014.81567-1.45483a10.73062,10.73062,0,0,1,4.561-1.144c2.22656,1.03089,4.28833,2.18738,5.20972,4.72461.46484,1.2793.51586,2.12232-.97413,2.60511C299.58594,150.84924,297.85034,151.51379,296.10229,152.1377Z"/><path class="cls-12" d="M50.29468,122.33252c-1.50122.84973-1.06885,2.17615-.9375,3.49121.10705,1.06982.93017,2.57617-1.17285,2.74439-2.19251.17553-1.30371-1.52344-1.53858-2.53833-.06225-.26893-.12182-.53833-.18457-.81751-1.03833-.32214-1.229.61987-1.70508,1.08972-.55139.54395-.96631,1.7583-1.92187.78125-.67359-.689-1.26758-1.718-.16089-2.7019.55371-.492,1.04114-1.05811,1.55908-1.59021.83777-.08777,1.24426-.76929,1.752-1.29529C48.72217,118.6604,48.71814,118.657,50.29468,122.33252Z"/><path class="cls-8" d="M273.25537,350.72583q.17469.32849.34985.65723c.16309,2.741,2.0066,4.74731,3.238,7.03589-1.05371.74609-2.11889.2871-3.10229.44262-.51514.08228-1.09986-.13574-1.44971.53662-.907,1.74024-3.21533,2.47852-5.84985,1.88306-2.021-.457-1.36036-2.22705-1.47486-3.45215a43.63741,43.63741,0,0,1,.106-5.33032h.116c1.98413-.20825,4.00293.41772,5.97-.24C272.2041,352.22192,272.53418,351.20654,273.25537,350.72583Z"/><path class="cls-8" d="M88.26172,354.57849c2.62158.6742,5.21472,1.45142,7.9834.63733a2.947,2.947,0,0,0,1.54834-1.0863c.27,2.90515-1.2771,3.66259-3.94287,4.04528a76.22328,76.22328,0,0,1-19.658.46082C78.80115,356.92651,83.772,356.57959,88.26172,354.57849Z"/><path class="cls-8" d="M121.75708,356.31848c2.97314.13587,5.98657.85425,8.852-.59778a10.47608,10.47608,0,0,0,.05261,1.12488c.65052,4.245-.167,5.23633-4.58191,5.53174-.094.00622-.188.01648-.282.01538-2.30224-.03235-4.94189-.20837-6.23254-1.97058C118.72461,359.27344,121.26514,357.89331,121.75708,356.31848Z"/><path class="cls-1" d="M88.53687,350.12671c1.23571.70654,1.25781,1.42554.022,2.15747a1.7913,1.7913,0,0,0-.24109-.50732Z"/><path class="cls-6" d="M271.15845,352.25867c-1.967.65771-3.98584.03174-5.97.24-1.77124-4.37073-2.18555-9.05518-3.0564-13.62415q-2.86486-15.03039-4.89258-30.20373c-1.34228-10.142-2.61694-20.28406-1.76123-30.55066a48.17647,48.17647,0,0,0,17.395,4.167,5.61891,5.61891,0,0,1,.52515,3.00647c.36181,5.55334-.68555,11.04846-.61988,16.60071.05787,4.87-.24731,9.765-.34228,14.62488C272.20117,328.44324,271.5354,340.34473,271.15845,352.25867Z"/><path class="cls-1" d="M88.95117,330.88379c.91492,5.26636.36011,10.562.28369,15.84717-.00219.15625-.43139.30664-.66174.4602Q88.76154,339.03674,88.95117,330.88379Z"/><path class="cls-9" d="M271.15845,352.25806c.37695-11.91382,1.04272-23.81543,1.27783-35.73951.095-4.85986.40015-9.75488.34228-14.62487-.06567-5.55225.98169-11.04724.61988-16.60071a5.6185,5.6185,0,0,0-.52515-3.00635c4.77588.231,9.29614-1.41077,13.97266-1.90381.20508,3.80921-1.02979,7.41968-1.74341,11.06763-3.36939,17.21362-6.97608,34.38086-10.54468,51.55493-.53223,2.561-1.36938,5.06128-1.302,7.72022C272.53418,351.20581,272.2041,352.22119,271.15845,352.25806Z"/><path class="cls-12" d="M267.89905,117.24023c.76416.15528,1.26465.03406,1.23523-.934-.06458-2.12292.03735-4.32434,2.79919-4.56262,2.68787-.23169,3.59693,1.83692,4.3,3.9563-.10583,1.7,1.60156,1.90552,2.41443,2.83618,1.24365,1.42371,2.1936,2.84107,1.64954,4.80664-.27735,1.00367-.6294,2.08667-1.77063,2.36341-1.1272.27343-1.61512-.81116-2.21741-1.46668a16.84609,16.84609,0,0,1-1.47693-2.23157c-1.07166.83277-1.04675,3.11243-3.24658,2.22254-2.25073-.91089-4.26941-1.99719-5.23633-4.36694C265.74,118.36853,267.12463,117.96484,267.89905,117.24023Z"/><path class="cls-7" d="M262.06665,145.84656q-1.41467-6.54675-2.83-13.09363a51.51707,51.51707,0,0,1,5.281,12.446Q263.2909,145.52252,262.06665,145.84656Z"/><path class="cls-7" d="M276.00073,149.62061q-.6546-.34644-1.30871-.69165-.12744-.44-.25367-.88257h6.26209l.04651.38208Q278.37353,149.02466,276.00073,149.62061Z"/><path class="cls-7" d="M262.06665,145.84656q1.22442-.32355,2.45105-.64759c.775.13306,1.78772-.30737,2.1167.88306a5.15247,5.15247,0,0,0-5.049,1.92871Q261.8266,146.928,262.06665,145.84656Z"/><path class="cls-2" d="M261.57129,152.05505q.25378.50007.50732.99915A.84715.84715,0,0,1,261.57129,152.05505Z"/><path class="cls-2" d="M267.70654,154.06958q.54675-.17762,1.09375-.355A.81838.81838,0,0,1,267.70654,154.06958Z"/><path class="cls-7" d="M274.43823,148.04639q.12672.44238.25366.88257c-.54.02087-.65258-.31312-.62939-.757A1.5073,1.5073,0,0,1,274.43823,148.04639Z"/><path class="cls-2" d="M273.80127,147.95142a.75875.75875,0,0,1-.89624-.41773C273.28833,147.49414,273.64941,147.49805,273.80127,147.95142Z"/><path class="cls-2" d="M268.29358,146.21411l-.27857.04236-.2705-.07751C267.945,145.93555,268.12659,145.96045,268.29358,146.21411Z"/><path class="cls-16" d="M270.5,146.86328q-.26844-.197-.53711-.39294C270.14233,146.60229,270.321,146.73242,270.5,146.86328Z"/><path class="cls-16" d="M272.19849,147.42993q-.27265-.186-.54517-.37073Q271.926,147.246,272.19849,147.42993Z"/><path class="cls-16" d="M261.09741,151.38062q.19024.26843.3794.53613Q261.28729,151.64758,261.09741,151.38062Z"/><path class="cls-16" d="M269.96191,153.54614c.17994-.13086.3606-.26111.53931-.39184Q270.23023,153.3504,269.96191,153.54614Z"/><path class="cls-16" d="M263.26611,153.71558q.28711.169.57349.33691C263.64868,153.93872,263.45752,153.82715,263.26611,153.71558Z"/><path class="cls-16" d="M261.47632,148.65967q-.17944.27319-.35742.54626Q261.29907,148.93256,261.47632,148.65967Z"/><path class="cls-6" d="M261.09741,151.38062a6.10561,6.10561,0,0,1-.09839-1.98169,1.8259,1.8259,0,0,1,.23438-.79346c.03674-.21692.12109-.27539.352-.59473a5.15781,5.15781,0,0,1,5.04834-1.931q.55628.04926,1.11072.09912l.54907.035q.83478.12909,1.66943.25708a9.11339,9.11339,0,0,1,3.838,1.48022c.08325.07935,1.84252,1.3042,2.19982,1.67005a7.96163,7.96163,0,0,1-5.25183,3.55456c-.17883.13062-.85888.74683-3.53027,1.1084a10.94646,10.94646,0,0,1-3.37915-.23157q-.2862-.16736-.57349-.33691-.59436-.33124-1.18762-.66174A2.23317,2.23317,0,0,1,261.09741,151.38062Z"/></svg>