<svg id="Layer_1" data-name="Layer 1" xmlns="http://www.w3.org/2000/svg" viewBox="0 0 257 200"><defs><style>.cls-1,.cls-10{fill:#013d55;}.cls-2{fill:#83ffd4;}.cls-3{fill:#36295b;}.cls-4{fill:#00ac71;}.cls-5{fill:#fff;}.cls-6{fill:#bfa564;}.cls-7{fill:#fff2d2;}.cls-8{fill:#ffba9a;}.cls-9{fill:#ff9498;opacity:0.4;}.cls-10{opacity:0.6;}.cls-11{fill:#00b3f3;}.cls-12{fill:#bf643a;}.cls-13{fill:#804327;}</style></defs><path class="cls-1" d="M188.60706,88.17554h-.29078V86.08191h.29078Zm0,4.18713h-.29078v-2.0935h.29078Zm0,4.18726h-.29078V94.4563h.29078Zm0,4.18725h-.29078V98.64355h.29078Zm0,4.18738h-.29078v-2.09363h.29078Zm0,4.18713h-.29078v-2.0935h.29078Zm0,4.18726h-.29078v-2.09363h.29078Zm0,4.18726h-.29078v-2.09363h.29078Zm0,4.18725h-.29078v-2.09363h.29078Zm0,4.18726h-.29078v-2.09363h.29078Zm0,4.18725h-.29078v-2.09362h.29078Zm0,4.18726h-.29078V132.1416h.29078Zm0,4.18713h-.29078v-2.0935h.29078Zm0,4.18726h-.29078V140.516h.29078Zm0,4.18726h-.29078v-2.09363h.29078Zm-51.577,1.05419h-1.01819v-.29077H137.03Zm4.18726,0h-2.09363v-.29077h2.09363Zm4.18725,0h-2.09363v-.29077h2.09363Zm4.18726,0h-2.09363v-.29077h2.09363Zm4.18713,0H151.6853v-.29077h2.09363Zm4.18726,0h-2.09363v-.29077h2.09363Zm4.18725,0h-2.09363v-.29077h2.09363Zm4.18726,0h-2.09363v-.29077h2.09363Zm4.18725,0h-2.09362v-.29077H170.528Zm4.18726,0h-2.09363v-.29077h2.09363Zm4.187,0h-2.09338v-.29077h2.09338Zm4.18726,0h-2.09363v-.29077h2.09363Zm4.18725,0h-2.09362v-.29077h2.09362Z"/><path class="cls-2" d="M177.48337,135.55708a13.4631,13.4631,0,1,1-1.67435,2.04019A13.4304,13.4304,0,0,1,177.48337,135.55708Z"/><path class="cls-3" d="M187.00342,133.88452A11.19239,11.19239,0,1,0,198.1958,145.0769,11.20489,11.20489,0,0,0,187.00342,133.88452Zm0,22.69458a11.5022,11.5022,0,1,1,11.50244-11.5022A11.51528,11.51528,0,0,1,187.00342,156.5791Z"/><polygon class="cls-3" points="187.016 146.549 182.083 138.027 182.367 137.862 187.066 145.978 191.075 141.178 191.327 141.388 187.016 146.549"/><polygon class="cls-4" points="192.107 114.586 184.724 114.586 188.416 110.895 192.107 114.586"/><path class="cls-1" d="M74.59937,63.17584H72.50574v-.29077h2.09363Zm4.18719,0H76.69293v-.29077h2.09363Zm4.18726,0H80.88019v-.29077h2.09363Zm4.18725,0H85.06744v-.29077h2.09363Zm4.1872,0H89.2547v-.29077h2.09357Zm4.18725,0H93.44189v-.29077h2.09363Zm4.1872,0H97.62915v-.29077h2.09357Zm4.18725,0h-2.09362v-.29077H103.91Zm4.18726,0H106.0036v-.29077h2.09363Zm4.18725,0h-2.09362v-.29077h2.09362Zm4.1872,0h-2.09363v-.29077h2.09363Zm4.18719,0h-2.09356v-.29077h2.09356Zm4.18726,0H122.7525v-.29077h2.09363Zm4.1872,0h-2.09357v-.29077h2.09357Zm4.18731,0H131.127v-.29077h2.09363ZM69.273,63.8396h-.29077v-.95453h1.42987v.29077H69.273Zm0,4.18732h-.29077V65.93323H69.273Zm0,4.18713h-.29077V70.12042H69.273Zm0,4.18726h-.29077V74.30768H69.273Zm0,4.18725h-.29077V78.49493H69.273Zm0,4.1872h-.29077V82.68219H69.273Zm0,4.18725h-.29077V86.86938H69.273Zm0,4.18726h-.29077V91.05664H69.273Zm0,4.18725h-.29077V95.2439H69.273Zm0,4.1872h-.29077V99.43109H69.273Zm0,4.18726h-.29077v-2.09363H69.273Zm0,4.18725h-.29077V107.8056H69.273Zm0,3.378h-.29077v-1.28436H69.273Z"/><path class="cls-5" d="M59.80573,59.564V55.02809H83.53219v4.536a11.86323,11.86323,0,1,1-23.72646,0Z"/><polygon class="cls-4" points="59.806 55.028 71.669 63.228 83.532 55.028 59.806 55.028"/><polygon class="cls-4" points="107.107 59.324 107.107 66.706 103.416 63.015 107.107 59.324"/><path class="cls-6" d="M163.22742,160.9021a1.94177,1.94177,0,1,0,1.942,1.94165A1.94373,1.94373,0,0,0,163.22742,160.9021Zm0,4.187a2.24524,2.24524,0,1,1,2.24548-2.24536A2.24759,2.24759,0,0,1,163.22742,165.08911Z"/><path class="cls-6" d="M106.3316,41.08307a1.94177,1.94177,0,1,0,1.94178,1.94177A1.944,1.944,0,0,0,106.3316,41.08307Zm0,4.187a2.24524,2.24524,0,1,1,2.24524-2.24524A2.24765,2.24765,0,0,1,106.3316,45.27008Z"/><path class="cls-6" d="M166.814,108.96411H155.30737a.15186.15186,0,0,1,0-.30371H166.814a.15186.15186,0,0,1,0,.30371Z"/><path class="cls-6" d="M157.88916,111.66187h-2.58179a.1518.1518,0,1,1,0-.30359h2.58179a.1518.1518,0,1,1,0,.30359Z"/><path class="cls-6" d="M166.814,114.3595H155.30737a.15174.15174,0,1,1,0-.30347H166.814a.15174.15174,0,1,1,0,.30347Z"/><path class="cls-6" d="M166.59009,111.66187h-6.54334a.1518.1518,0,0,1,0-.30359h6.54334a.1518.1518,0,0,1,0,.30359Z"/><path class="cls-6" d="M114.06976,83.4325h-2.62048a.16382.16382,0,1,1,0-.32764h2.62048a.16382.16382,0,0,1,0,.32764Z"/><path class="cls-6" d="M114.06982,80.331H102.39154a.16388.16388,0,1,1,0-.32776h11.67828a.16388.16388,0,0,1,0,.32776Z"/><path class="cls-6" d="M109.25952,83.4325H102.619a.16382.16382,0,1,1,0-.32764h6.64056a.16382.16382,0,1,1,0,.32764Z"/><path class="cls-7" d="M59.83481,164.26575A5.445,5.445,0,0,0,65.05,169.91443h67.47217a5.44491,5.44491,0,0,0,5.215-5.64868V122.98828H59.83481Z"/><path class="cls-1" d="M59.98026,123.13379v41.132a5.30572,5.30572,0,0,0,5.0697,5.50317H132.522a5.30578,5.30578,0,0,0,5.06983-5.50317v-41.132Zm72.54177,46.9259H65.05a5.59626,5.59626,0,0,1-5.36051-5.79394V122.843h78.19318v41.42273A5.59631,5.59631,0,0,1,132.522,170.05969Z"/><path class="cls-5" d="M132.52213,112.30518H65.05a5.445,5.445,0,0,0-5.21515,5.6488v5.03442h77.90234V117.954A5.44494,5.44494,0,0,0,132.52213,112.30518Z"/><path class="cls-1" d="M59.98026,122.84314h77.6116V117.954a5.306,5.306,0,0,0-5.06983-5.50342H65.05a5.306,5.306,0,0,0-5.0697,5.50342Zm77.90237.29077H59.68945V117.954A5.5964,5.5964,0,0,1,65.05,112.15979H132.522a5.59646,5.59646,0,0,1,5.3606,5.79419Z"/><path class="cls-1" d="M129.41968,115.75659a1.89014,1.89014,0,1,0,1.89013,1.89014A1.89216,1.89216,0,0,0,129.41968,115.75659Zm0,4.071a2.18091,2.18091,0,1,1,2.18091-2.18091A2.18341,2.18341,0,0,1,129.41968,119.82764Z"/><rect class="cls-8" x="80.50812" y="111.86517" width="11.58468" height="14.52273"/><path class="cls-1" d="M92.09277,115.045v6.716l-.0628.11389a12.574,12.574,0,0,1-9.27008-7.00891Z"/><path class="cls-8" d="M88.90344,118.24609c-4.471-.62829-9.36078-5.01782-9.36078-9.54931a8.11382,8.11382,0,0,1,7.451-8.207c6.011-.53968,6.37854,3.5476,7.34857,7.60693.08374.34888.17212.69543.26752,1.03967a12.19942,12.19942,0,0,1,.47687,3.06836C95.17267,116.37561,92.56964,118.75781,88.90344,118.24609Z"/><path class="cls-1" d="M80.31912,109.9765c.41706-3.39673,1.3642-6.35266,4.34418-7.618,6.59033,2.744,11.0957,1.5282,12.71783-5.16272,0,0-4.0924,1.69983-7.618-.50366-3.52588-2.20362-9.06628-3.085-10.70325,3.27392-3.44531,2.45227-2.469,6.11243-.88146,9.75879Z"/><path class="cls-9" d="M85.40829,109.91364a2.235,2.235,0,1,1-.85533.17013A2.21388,2.21388,0,0,1,85.40829,109.91364Z"/><path class="cls-9" d="M95.08661,112.20471a2.23625,2.23625,0,0,1-.74439-4.10791c.08374.34888.17212.69556.26746,1.0398A12.19241,12.19241,0,0,1,95.08661,112.20471Z"/><path class="cls-1" d="M91.12213,108.03894c.09717.46777.45386.78931.79688.71826a.77726.77726,0,0,0,.44555-.97595c-.097-.46777-.45385-.78931-.79687-.71814A.77706.77706,0,0,0,91.12213,108.03894Z"/><path class="cls-1" d="M87.50021,107.55185a.59425.59425,0,0,1,.53568.17137,1.20067,1.20067,0,0,1,.27127,1.30775.57182.57182,0,0,1-.959.19893,1.20065,1.20065,0,0,1-.27126-1.30775A.59426.59426,0,0,1,87.50021,107.55185Z"/><path class="cls-1" d="M85.2601,106.8269c.13641.40015,3.128-.52441,2.96228-1.16455C88.017,104.86963,85.08426,106.30908,85.2601,106.8269Z"/><path class="cls-1" d="M92.31866,105.54639c.0478.389-2.39532.54858-2.50872-.057C89.66949,104.73938,92.25641,105.04321,92.31866,105.54639Z"/><path class="cls-1" d="M90.078,108.8009a1.24238,1.24238,0,0,0,.76483.86365c.31867.17651.63068.32983.57825.75147-.04632.37121-.31854.56713-.59723.78466-.17676.13819.07172.38355.24677.24683.43274-.338.902-.792.68963-1.394-.23272-.65992-1.24-.64893-1.34582-1.34546C90.38074,108.48682,90.04449,108.58081,90.078,108.8009Z"/><path class="cls-1" d="M91.76788,112.77979a2.42272,2.42272,0,0,1-2.6419-.62183c-.15418-.16382-.40064.08337-.24683.24683a2.76889,2.76889,0,0,0,2.98151.71154C92.07,113.04,91.97955,112.70251,91.76788,112.77979Z"/><path class="cls-8" d="M77.23581,109.22651a1.92281,1.92281,0,0,1,.70036-.594,2.34588,2.34588,0,0,1,.9513-.24558,2.99331,2.99331,0,0,1,1.05743.1402,3.55228,3.55228,0,0,1,1.79763,1.29689,2.9933,2.9933,0,0,1,.46652.95925,2.3459,2.3459,0,0,1,.067.98021,1.91261,1.91261,0,0,1-1.04316,1.44592,2.34588,2.34588,0,0,1-.9513.24558,2.99311,2.99311,0,0,1-1.05743-.1402,3.55214,3.55214,0,0,1-1.79762-1.2969,2.993,2.993,0,0,1-.46653-.95924,2.34609,2.34609,0,0,1-.067-.98022A1.923,1.923,0,0,1,77.23581,109.22651Z"/><path class="cls-1" d="M80.2923,111.109a2.50375,2.50375,0,0,0-2.18769-1.05493c-.22332.01245-.22479.36133,0,.34887a2.14783,2.14783,0,0,1,1.88636.88208C80.12152,111.46521,80.42438,111.29138,80.2923,111.109Z"/><path class="cls-4" d="M74.58975,125.46448l-7.04748,3.29394a12.74575,12.74575,0,0,0-6.69315,7.55982,37.31031,37.31031,0,0,0-1.99939,13.70068l.82788,19.62036,5.8154.2749h37.10785s3.24976-33.04272,2.70813-32.63647-6.9834-11.68726-6.9834-11.68726l-11.88431-2.39233Z"/><path class="cls-4" d="M69.67886,139.16748a.14528.14528,0,0,1-.13488-.09155,8.7893,8.7893,0,0,0-5.36618-5.45581.14541.14541,0,1,1,.089-.27686,9.07026,9.07026,0,0,1,5.547,5.62451.14613.14613,0,0,1-.135.19971Z"/><path class="cls-4" d="M71.20526,158.4353a.14554.14554,0,0,1-.145-.13818l-.855-16.8335a.14492.14492,0,0,1,.1377-.15234.14243.14243,0,0,1,.15261.13794l.855,16.83325a.14491.14491,0,0,1-.13769.15234Z"/><polygon class="cls-5" points="77.469 175 56.212 174.993 47.736 147.857 68.896 147.857 77.469 175"/><polygon class="cls-4" points="65.393 152.855 53.496 152.854 52.876 150.875 64.769 150.876 65.393 152.855"/><polygon class="cls-4" points="61.378 162.061 55.054 162.059 53.192 156.108 59.51 156.109 61.378 162.061"/><rect class="cls-4" x="61.58527" y="156.98442" width="7.49701" height="0.23263"/><rect class="cls-4" x="62.20837" y="158.96797" width="7.49952" height="0.23263"/><rect class="cls-4" x="62.83185" y="160.95255" width="7.50201" height="0.23263"/><polygon class="cls-4" points="71.777 166.219 56.354 166.216 55.986 165.04 71.406 165.043 71.777 166.219"/><polygon class="cls-4" points="72.517 168.564 57.087 168.56 56.719 167.383 72.145 167.387 72.517 168.564"/><polygon class="cls-4" points="73.257 170.911 57.821 170.906 57.453 169.728 72.885 169.733 73.257 170.911"/><path class="cls-10" d="M86.44128,123.19824c-.10577,3.48023-.83368,6.02686-2.78534,6.73657l-.81927-3.74707Z"/><path class="cls-10" d="M86.44135,123.19824c-.03766,3.14478.93151,6.1687,3.1958,6.54761l.41088-3.59692Z"/><path class="cls-11" d="M86.37079,123.19824,83.656,129.93481a19.96536,19.96536,0,0,1-9.06623-4.47021l5.91828-3.52564A14.80439,14.80439,0,0,0,86.37079,123.19824Z"/><path class="cls-11" d="M98.32562,125.59058a11.64292,11.64292,0,0,1-8.68854,4.15551c-.08557.2566-1.9945-3.89355-3.19573-6.54785A13.2111,13.2111,0,0,0,92.0296,121.876Z"/><path class="cls-1" d="M76.85626,160.47034c-1.50964,3.47436-2.03686,6.66089-1.18237,9.44287l3.99463-1.92969-.71362-5.28833Z"/><path class="cls-8" d="M76.85626,160.47034c-.16787,0-2.56036-3.7356-4.23926-5.49854-1.03646-1.08813-2.01471.54566-.33581,4.32349,0,0-6.63175-2.72827-7.55518-2.43457s-.54562,1.595,3.90354,3.56762c0,0-6.42194-1.88867-6.75775-1.175-.33573.71337-.33573,1.7207,6.25409,3.148,0,0-7.09348-.58765-6.338.50366.75556,1.09106,2.81226,1.30127,6.08612,1.427a33.258,33.258,0,0,1-3.86148,1.04932c-.79754.168-.20993,1.469,5.28858,1.55322,1.88879,1.04907,5.66635,1.09106,8.64645.54541l2.11966-1.84693Z"/><path class="cls-4" d="M98.32562,125.5907l7.80518,2.9707a10.2,10.2,0,0,1,6.463,8.16577c1.25818,9.17823-1.0318,19.491-5.43213,29.25366a6.804,6.804,0,0,1-5.91894,3.9336l-25.43573-.084c1.469-1.46923,2.43451-6.21215,1.04931-9.3601l20.7768-2.89624,3.65161-11.4585Z"/><path class="cls-1" d="M75.80685,169.97546a.145.145,0,0,1-.11938-.22778,10.47115,10.47115,0,0,0,1.03387-9.22314l-.06933-.17261,20.87115-2.90943a92.42043,92.42043,0,0,0,4.41846-20.04443.14353.14353,0,0,1,.15857-.13086.14558.14558,0,0,1,.13086.15869,92.81567,92.81567,0,0,1-4.4599,20.19361l-.02826.08618L77.0585,160.58875a10.81217,10.81217,0,0,1-1.13208,9.32421A.14462.14462,0,0,1,75.80685,169.97546Z"/><path class="cls-7" d="M128.20239,86.59662a5.41682,5.41682,0,0,0,5.41675,5.41687H203.702a5.41685,5.41685,0,0,0,5.41687-5.41687V47.01294H128.20239Z"/><path class="cls-1" d="M128.34766,47.15836V86.59653a5.2774,5.2774,0,0,0,5.27148,5.27148H203.7019a5.27752,5.27752,0,0,0,5.27161-5.27148V47.15836ZM203.7019,92.15878H133.61914a5.56863,5.56863,0,0,1-5.56226-5.56225v-39.729h81.2074v39.729A5.56857,5.56857,0,0,1,203.7019,92.15878Z"/><path class="cls-5" d="M203.702,36.7681H133.61914a5.41684,5.41684,0,0,0-5.41675,5.41693V47.013H209.1189V42.185A5.41686,5.41686,0,0,0,203.702,36.7681Z"/><path class="cls-1" d="M128.34766,46.86761h80.62585V42.185a5.27747,5.27747,0,0,0-5.27161-5.27143H133.61914a5.27736,5.27736,0,0,0-5.27148,5.27143Zm80.91662.29078h-81.2074V42.185a5.56864,5.56864,0,0,1,5.56226-5.56223H203.7019a5.56859,5.56859,0,0,1,5.56238,5.56223Z"/><path class="cls-1" d="M201.78857,39.94464a1.9459,1.9459,0,1,0,1.94581,1.94586A1.94821,1.94821,0,0,0,201.78857,39.94464Zm0,4.19122a2.24533,2.24533,0,1,1,2.24512-2.24536A2.24778,2.24778,0,0,1,201.78857,44.13586Z"/><path class="cls-1" d="M178.86816,25.40413c-3.42883-.83634-8.001-.45819-10.75366,1.92566a8.93451,8.93451,0,0,0-2.06116,2.2464,9.28129,9.28129,0,0,1-1.074,1.9208,7.66619,7.66619,0,0,1-1.9469,1.19208,2.09931,2.09931,0,0,0-1.25134,1.77716,5.24611,5.24611,0,0,1,.15747,1.08115c-.13623.95117-1.72669,1.25439-1.67383,2.21384.04675.8446,1.38574,1.20184,1.35376,2.047-.01611.42581-.38965.73929-.73389.99024a3.17806,3.17806,0,0,0-1.2926,1.40979c-.20544.61526.18518,1.45623.83313,1.42962a4.61106,4.61106,0,0,0-1.40332.98883,1.56748,1.56748,0,0,0-.33435,1.60212,4.78227,4.78227,0,0,1,.33215.64251c.16065.57935-.35742,1.10126-.79907,1.5091-.44177.40774-.88489,1.042-.57434,1.55682.16748.278.51209.41388.67419.69516.28565.49539-.1322,1.095-.55285,1.48236-.42053.38727-.91773.86517-.79883,1.4245.11035.52054.70984.798.9054,1.29294.22741.57532-.15723,1.19354-.25831,1.80374a2.66877,2.66877,0,0,0,.74634,2.14911,7.90132,7.90132,0,0,0,1.87989,1.39984L189.796,61.80412a10.01058,10.01058,0,0,0,2.3877-2.20508,3.38872,3.38872,0,0,0,.53491-3.08926c-.22315-.56778-.66138-1.08609-.63428-1.69565.02857-.64279.57239-1.3038.25195-1.86172-.19555-.34049-.64929-.47232-.8313-.82025-.40637-.777.86854-1.58155.66553-2.43454-.12427-.52237-.73913-.76532-1.00671-1.23087-.47473-.8258.31933-1.88171.06518-2.79977-.20141-.72867-1.00341-1.15418-1.2528-1.86808a3.38915,3.38915,0,0,1,.01086-1.53472,14.67513,14.67513,0,0,0-.26611-4.12928,2.44294,2.44294,0,0,0-.59778-1.48312c-.50745-.45975-1.35156-.45035-1.77539-.9881-.66419-.84247.27539-2.14886-.15955-3.12955-.50769-1.145-2.45031-1.00564-2.95569-2.15158a7.32049,7.32049,0,0,0-1.39611-2.69507A8.78018,8.78018,0,0,0,178.86816,25.40413Z"/><path class="cls-8" d="M138.60382,57.50211s-3.56372-5.58979-2.2793-7.66181a3.14092,3.14092,0,0,1,.55542-.46039,1.47979,1.47979,0,0,0,.58057-.671c.12305-.28393.30945-.58441.56323-.65057.95313-.2486,1.0774-1.036,1.74048-1.036.54028,0-2.2793-5.63593-1.036-5.88452,1.243-.24866,3.43945,5.42871,3.43945,5.42871a5.95613,5.95613,0,0,1,2.44519,1.07739c1.68128,1.30774,2.19617,7.24365,2.19617,7.24365l-2.6521,3.61377Z"/><path class="cls-12" d="M138.7204,53.5285c-.81543,0-1.92627-1.47546-2.15332-1.78955a.17433.17433,0,0,1,.28247-.2044c.54516.75286,1.50732,1.75946,1.94092,1.636.17456-.04937.29077-.33221.32592-.79651a.17446.17446,0,1,1,.3479.02655c-.04931.648-.23877,1.00983-.5791,1.10578A.60626.60626,0,0,1,138.7204,53.5285Z"/><path class="cls-12" d="M140.23859,53.07068c-.76026,0-1.7002-1.23547-2.69361-2.54163a.17435.17435,0,0,1,.2771-.21167l.00073.00049c.876,1.15173,1.87574,2.45593,2.447,2.40253a.32379.32379,0,0,0,.26147-.23151c.15161-.39239.04688-1.45123-1.30591-2.93024a.17462.17462,0,0,1,.25782-.23559c1.37182,1.50079,1.59765,2.71106,1.37353,3.29144a.6615.6615,0,0,1-.5542.45325C140.28156,53.06976,140.26007,53.07068,140.23859,53.07068Z"/><path class="cls-12" d="M142.05182,52.72919c-.37195,0-.65466-.29377-1.16-.81824l-.24865-.25732a.1745.1745,0,0,1,.25-.24353l.25024.25878c.61194.63581.76892.78144,1.08032.67939.038-.01252.07361-.0633.09766-.13941.12891-.40832-.05237-1.74878-1.66077-3.89911a.17444.17444,0,0,1,.27942-.20892c1.58,2.11218,1.91089,3.58966,1.714,4.21307a.51174.51174,0,0,1-.32117.36579A.89722.89722,0,0,1,142.05182,52.72919Z"/><path class="cls-8" d="M143.00555,47.3476q.4281-1.75782.856-3.51557c.0708-.29089.18262-.62811.46484-.715a.58057.58057,0,0,1,.61548.27063,1.70145,1.70145,0,0,1,.21973.688,66.45842,66.45842,0,0,1,.65186,7.35041Z"/><path class="cls-4" d="M196.51074,92.186l2.82385-27.09265a14.15625,14.15625,0,0,0-3.91931-9.94745,13.67287,13.67287,0,0,0-4.93628-3.26074,94.72153,94.72153,0,0,0-9.55407-2.8703l-3.85852-.19891c-.16687-.13147-4.81531,1.59308-9.15625,3.24646q-.21661.08266-.43006.17248c-5.20886,2.19312-6.417,5.45093-6.30468,11.34729l.71313,28.57672Z"/><path class="cls-4" d="M167.68549,50.6131a10.33447,10.33447,0,0,0-1.3772.29968,16.944,16.944,0,0,0-9.24219,6.632l-4.86987,7.17255-5.61084-11.49964L138.53485,57.504s7.25147,17.89032,8.4668,19.27167c2.61963,2.97729,6.74048,3.16229,10.11792,1.41876,3.91968-2.0232,5.14721-5.57758,6.7561-9.39,2.60816-6.17926,6.36743-12.00616,8.97534-18.1853.03809-.09015-.25757-.9975-.21948-1.08771Z"/><path class="cls-13" d="M192.67261,89.95673l-.00708-.00013a.1745.1745,0,0,1-.16724-.18151l1.16309-28.51624a.17439.17439,0,0,1,.17407-.1673l.00732.00012a.17462.17462,0,0,1,.16724.18146l-1.16309,28.51624A.17454.17454,0,0,1,192.67261,89.95673Z"/><path class="cls-13" d="M176.90942,57.80255a6.98937,6.98937,0,0,1-5.62133-2.50812.17428.17428,0,1,1,.27319-.21649,6.85443,6.85443,0,0,0,6.14331,2.34033,7.9023,7.9023,0,0,0,6.33008-3.80658.17451.17451,0,0,1,.30737.16535,8.25306,8.25306,0,0,1-6.60669,3.98889Q177.31678,57.80255,176.90942,57.80255Z"/><path class="cls-13" d="M175.18335,87.70978a.17447.17447,0,0,1-.02539-.347c8.1709-1.21777,13.29-5.12451,15.64941-11.9436a.17451.17451,0,1,1,.32984.11413c-2.40625,6.95362-7.61621,10.93592-15.928,12.17456Z"/><path class="cls-13" d="M179.908,84.47729a.1743.1743,0,0,1-.082-.32836,6.3758,6.3758,0,0,0,3.1394-5.56482.17456.17456,0,1,1,.34912,0A6.73263,6.73263,0,0,1,179.99,84.45679.17309.17309,0,0,1,179.908,84.47729Z"/><path class="cls-13" d="M161.73364,86.48633a.1746.1746,0,0,1-.17456-.17285L161.36035,64.901a.17483.17483,0,0,1,.17285-.17615h.00171a.17478.17478,0,0,1,.17456.173l.19873,21.41247a.17467.17467,0,0,1-.17285.176Z"/><path class="cls-13" d="M149.637,67.46979a.1745.1745,0,0,1-.126-.29517l2.55908-2.67431a.17449.17449,0,0,1,.2522.24121l-2.55909,2.67431A.17441.17441,0,0,1,149.637,67.46979Z"/><path class="cls-8" d="M181.65332,38.38153V49.55212c0,3.02875-2.93115,4.32679-4.93188,4.38965-1.89576.06049-4.84082-1.26318-4.92456-4.21051-.00464-.05823-.00464-.11865-.00464-.17914V38.38153Z"/><path class="cls-1" d="M179.35742,42.72571a7.04812,7.04812,0,0,1-7.58423,5.18921c-.07983-1.01789-.13965-7.06525-.13965-7.06525C174.22339,40.61969,179.35742,42.72571,179.35742,42.72571Z"/><path class="cls-8" d="M182.63721,39.31442q-.50244.74672-.98389,1.38877c-2.24023,2.97988-4.1709,4.31515-5.76685,4.94091a5.44966,5.44966,0,0,1-5.634-.92816,6.43375,6.43375,0,0,1-1.78906-2.7659,8.75888,8.75888,0,0,1-.31641-4.00348q.01428-.11165.02808-.23031c.30688-2.7403-.06983-8.84668,6.88086-8.90717l7.21362,2.42395.3584,7.88135Z"/><path class="cls-1" d="M181.86768,35.79207a9.52462,9.52462,0,0,1-6.17652-4.9223c-4.41528-.93766-6.55957,2.27029-8.68469,4.49737l2.88489-8.23611,9.65576-.49729,4.88989,4.30979-.95312,4.517Z"/><path class="cls-1" d="M182.62793,39.11432l-.97485.20471-1.21192.25592a3.7701,3.7701,0,0,0,1.21192,1.85864v-.73047q.48156-.642.98413-1.38873Z"/><path class="cls-8" d="M180.12625,35.57867a3.76646,3.76646,0,0,1,1.09258-.475,3.19933,3.19933,0,0,1,1.12419-.091,2.45423,2.45423,0,0,1,.98466.307,1.95732,1.95732,0,0,1,.99521,1.56726,2.45463,2.45463,0,0,1-.141,1.02173,3.19913,3.19913,0,0,1-.56046.97875,3.84372,3.84372,0,0,1-1.98717,1.26185,3.19955,3.19955,0,0,1-1.12419.091,2.45438,2.45438,0,0,1-.98466-.307,1.9574,1.9574,0,0,1-.99521-1.56728,2.45456,2.45456,0,0,1,.141-1.02171,3.19906,3.19906,0,0,1,.56046-.97876A3.76608,3.76608,0,0,1,180.12625,35.57867Z"/><path class="cls-1" d="M181.61951,38.07855a2.07665,2.07665,0,0,1,1.25439-1.61581c.21118-.08643.11865-.43415-.09546-.34641a2.43017,2.43017,0,0,0-1.50537,1.86664C181.23694,38.2092,181.58313,38.30652,181.61951,38.07855Z"/><path class="cls-1" d="M169.93631,36.54373a.53749.53749,0,0,1,.4594.21835,1.08579,1.08579,0,0,1,.085,1.20488.51713.51713,0,0,1-.88357.06237,1.08577,1.08577,0,0,1-.085-1.20488A.53745.53745,0,0,1,169.93631,36.54373Z"/><path class="cls-1" d="M174.67981,36.79974c.03638.51361-.23975.9516-.61621.97818-.377.02665-.71167-.36825-.7478-.88192-.03638-.51371.2395-.95169.61645-.97818C174.309,35.89117,174.64368,36.28607,174.67981,36.79974Z"/><path class="cls-1" d="M175.64612,34.90021c-.05152.414-3.12891.12011-3.09717-.53192C172.5885,33.56073,175.71252,34.36426,175.64612,34.90021Z"/><path class="cls-1" d="M168.682,35.543c.03149.38556,2.42529.05,2.41357-.55817C171.08093,34.23148,168.641,35.04391,168.682,35.543Z"/><path class="cls-1" d="M171.46582,37.79663c.08008.77826-1.064,1.016-.90527,1.86633.09814.52576.61694.7558,1.06006.93653.21386.08728.30688-.26013.09521-.34644a1.601,1.601,0,0,1-.6604-.39239c-.3208-.39777-.02563-.74036.26416-1.026a1.25751,1.25751,0,0,0,.50537-1.038C171.80151,37.56885,171.44214,37.56647,171.46582,37.79663Z"/><path class="cls-1" d="M171.67334,42.09827a2.73635,2.73635,0,0,0,2.64819-1.47626c.10572-.2052-.2041-.38709-.3103-.1814a2.38927,2.38927,0,0,1-2.33789,1.2984C171.44287,41.72083,171.44409,42.08014,171.67334,42.09827Z"/><path class="cls-9" d="M169.92212,39.87415a2.20613,2.20613,0,0,1-1.4585,2.07647,8.74718,8.74718,0,0,1-.3164-4.00451c.00952-.07422.01928-.15076.02881-.22986A2.20453,2.20453,0,0,1,169.92212,39.87415Z"/><path class="cls-9" d="M177.133,36.95239a2.20688,2.20688,0,1,1-.84447.168A2.18562,2.18562,0,0,1,177.133,36.95239Z"/></svg>