<svg id="Layer_1" data-name="Layer 1" xmlns="http://www.w3.org/2000/svg" xmlns:xlink="http://www.w3.org/1999/xlink" viewBox="0 0 400 400"><defs><style>.cls-1,.cls-16{fill:none;}.cls-2{opacity:0.2;}.cls-3{clip-path:url(#clip-path);}.cls-4{isolation:isolate;}.cls-5{clip-path:url(#clip-path-2);}.cls-6{fill:#00ac71;}.cls-7{fill:#5f7391;}.cls-8{fill:#008d5c;}.cls-9{fill:#fcbfa6;}.cls-10{fill:#eb8f6a;}.cls-11{fill:#31241c;}.cls-12{fill:#1a191f;}.cls-13{fill:#1f0e03;}.cls-14{fill:#5f7e91;}.cls-15{fill:#49687a;}.cls-16{stroke:#1f0e03;stroke-miterlimit:10;}.cls-17{fill:#672d08;}.cls-18{fill:#c97440;}.cls-19,.cls-20{fill:#fff;}.cls-20{opacity:0.6;}.cls-21{fill:#fd9a72;}.cls-22{fill:#ffa700;}</style><clipPath id="clip-path"><path class="cls-1" d="M170.73335,64.46188c-69.55241-4.54855-94.22409,31.20487-129.5733,68.186-35.3492,36.97844-51.68966,76.0148-31.14846,131.581C30.55407,319.795,79.05421,333.92471,155.178,333.92471s154.51769,7.741,194.21907-22.48318c39.70133-30.22214,53.2266-99.29091-4.29657-135.42981C311.22049,154.72623,266.88211,70.75015,170.73335,64.46188Z"/></clipPath><clipPath id="clip-path-2"><rect class="cls-1" y="59.75" width="400" height="282"/></clipPath></defs><path class="cls-2" d="M170.73335,64.46191c-69.55241-4.54858-94.22409,31.20484-129.5733,68.18592-35.3492,36.97844-51.68966,76.0148-31.14846,131.581,20.54248,55.5662,69.04262,69.6959,145.16637,69.6959s154.51769,7.741,194.21907-22.48318c39.70133-30.22214,53.2266-99.29091-4.29657-135.42981C311.22049,154.72623,266.88211,70.75015,170.73335,64.46191Z"/><g class="cls-3"><g class="cls-4"><g class="cls-5"><path class="cls-6" d="M59.27626,322.249c-.7442-9.62774-3.74144-18.77151-6.72911-27.84732C49.594,285.43231,46.27223,275.969,46.124,266.37653c-.06451-4.14109,1.7484-12.56183,7.41262-10.98,1.91514.53527,3.1199,2.70236,3.98419,4.38879a48.92376,48.92376,0,0,1,2.819,6.966c2.9704,8.97663,3.50442,18.58576,3.48144,28.00647-.01724,7.08451-.48994,14.20362.0658,21.2768a.31941.31941,0,1,0,.63881,0,172.10661,172.10661,0,0,1,2.18722-29.6243,134.88148,134.88148,0,0,1,3.17229-13.82413c.46-1.62848,1.91831-4.12314,3.52106-4.55591,2.38272-.64379,5.33078.04862,6.24681,2.72968,3.42268,10.0126.52191,20.7908-2.667,30.41656-1.346,4.06391-2.68614,8.12311-4.41663,12.02524q-2.11764,4.77558-4.15539,9.59046c-.398.94076-.79148,1.88284-1.16965,2.83221-.15842.39682.45994.56726.61517.17709,2.4236-6.07382,5.43746-11.90737,7.5672-18.09573,3.19016-9.27225,6.75273-18.7955,6.35092-28.81671a32.16164,32.16164,0,0,0-.98948-6.55322c-.48485-1.92408-1.05658-3.38477-2.71616-4.46537a5.93721,5.93721,0,0,0-3.98546-.64846,3.62379,3.62379,0,0,0-3.16781,2.11584,11.10824,11.10824,0,0,0-1.32488,1.94672q-.4877,1.67577-.94157,3.3602c-.64008,2.3768-1.20288,4.77624-1.71263,7.187-.93329,4.41537-1.60723,8.88742-2.09781,13.37872a187.43268,187.43268,0,0,0-.955,20.8241h.63881c-.64008-8.13907.01277-16.34076-.07921-24.49451-.10348-9.223-1.08214-18.48856-4.25377-27.15695-1.16261-3.17771-2.54115-7.0159-5.31352-9.04651-2.86693-2.10052-6.05774.2077-7.6228,2.81354-2.08119,3.46805-1.95024,8.0845-1.52989,11.978A84.00406,84.00406,0,0,0,48.45117,283.407c3.56514,12.90872,9.13928,25.2988,10.1863,38.842C58.67,322.67377,59.30948,322.67706,59.27626,322.249Z"/><path class="cls-6" d="M59.21861,322.14185a47.57887,47.57887,0,0,0-.73143-5.498.31908.31908,0,0,0-.62729.08789c.10668,1.85083.36028,3.68173.6375,5.51126.0639.42279.6797.243.61581-.17706-.26765-1.771-.511-3.5426-.61451-5.3342-.20954.02927-.41841.05924-.62731.08853a46.1041,46.1041,0,0,1,.70844,5.32157C58.61687,322.566,59.2563,322.56992,59.21861,322.14185Z"/><path class="cls-6" d="M50.49045,322.39655c-2.70017-7.442-8.36252-12.90406-13.39305-18.65433a45.89834,45.89834,0,0,1-7.01784-10.0792c-1.71645-3.54122-4.04679-8.8601-1.70943-12.60842,2.01988-3.23963,6.43782-.6138,8.6372.92877a34.87091,34.87091,0,0,1,7.1437,7.31955A72.90843,72.90843,0,0,1,57.01581,314.9505a63.74376,63.74376,0,0,1,1.466,6.98663c.0658.42347.68158.243.61582-.17706a71.32037,71.32037,0,0,0-9.3942-25.49319c-3.61114-6.05454-8.1185-12.56314-14.25606-16.05579-1.99114-1.13248-4.58467-2.002-6.63331-.56659-2.59925,1.82291-2.18724,5.80023-1.51713,8.49664,1.91383,7.69632,7.15965,13.671,12.23428,19.30878,4.08384,4.53659,8.19963,9.21564,10.34407,15.12372C50.019,322.97177,50.63675,322.79932,50.49045,322.39655Z"/><path class="cls-6" d="M75.4601,272.25656c-4.23139,6.87076-3.42969,15.63773-4.72327,23.37665-.74356,4.44672-2.26835,8.67773-3.04707,13.11044-.82338,4.68372-1.72537,9.34079-2.796,13.97058-.09645.41745.51935.59391.61583.17646q1.536-6.6421,2.7021-13.36609c.72951-4.217,2.13486-8.24759,2.91739-12.45.74548-4.00464,1.06554-8.02326,1.42708-12.07715.38775-4.34684,1.15942-8.67639,3.45527-12.40537A.32273.32273,0,0,0,75.4601,272.25656Z"/><path class="cls-6" d="M51.53755,262.23535c.28746,5.01926,1.919,9.77219,3.02854,14.63037,1.23738,5.42008,2.24668,10.90872,3.29365,16.37207,1.01952,5.32019,1.93428,10.66373,3.03047,15.96726a84.3123,84.3123,0,0,1,2.062,16.633.31941.31941,0,1,0,.6388,0,81.27746,81.27746,0,0,0-1.71774-14.97659q-1.58871-8.253-3.15185-16.50989c-.99779-5.2796-2.00327-10.56717-3.13073-15.81878-1.16134-5.40811-3.09562-10.73362-3.41439-16.29749C52.15208,261.80859,51.51329,261.80591,51.53755,262.23535Z"/><path class="cls-6" d="M35.65762,289.9895a88.64048,88.64048,0,0,1,12.38825,16.14038c1.83206,2.92874,3.49229,5.99863,5.14935,9.03922,1.85442,3.40079,2.911,7,4.25375,10.62707.14692.39551.76465.22437.6158-.177-1.2118-3.27429-2.11633-6.60654-3.737-9.701-1.70623-3.2583-3.50573-6.5166-5.42977-9.6398A89.32785,89.32785,0,0,0,36.10927,289.5188C35.81094,289.22324,35.35867,289.69327,35.65762,289.9895Z"/><path class="cls-6" d="M36.53867,298.958c3.87686,2.715,8.12742,4.84887,11.79542,7.88611.31876.26367.77423-.20371.45165-.47074-3.71273-3.07385-8.00034-5.24228-11.92449-7.9899C36.51759,298.143,36.1982,298.72028,36.53867,298.958Z"/><path class="cls-6" d="M47.2184,298.44159a26.29427,26.29427,0,0,1,3.06752,6.735A75.01813,75.01813,0,0,1,52.6022,313.803c.09262.41815.70844.24038.61516-.1771a78.35393,78.35393,0,0,0-2.46193-9.04184,25.40972,25.40972,0,0,0-2.98509-6.478C47.5244,297.76849,46.96928,298.09937,47.2184,298.44159Z"/><path class="cls-6" d="M68.2525,290.68893c.21912,2.81226,1.52355,5.37748,1.61043,8.20969a.3194.3194,0,1,0,.63878,0c-.08687-2.83688-1.39128-5.39813-1.61041-8.20969C68.85808,290.26483,68.21866,290.26083,68.2525,290.68893Z"/><path class="cls-6" d="M55.77737,267.28494c-.895,2.92548-.77294,6.11319-1.1524,9.13312-.05365.42413.58578.41946.63881,0,.3724-2.96335.25232-6.08649,1.12939-8.956A.32038.32038,0,1,0,55.77737,267.28494Z"/><path class="cls-6" d="M50.69763,279.42053c1.40216,2.06192,2.54878,4.28626,3.99378,6.31754a15.77314,15.77314,0,0,1,2.904,5.96271c.08879.4194.70459.241.61516-.17713a14.48334,14.48334,0,0,0-2.29264-5.12381c-1.57657-2.41943-3.04643-4.93072-4.669-7.31485C51.01256,278.73813,50.45872,279.06967,50.69763,279.42053Z"/><path class="cls-6" d="M60.95993,287.48355c-.65224,4.09717-1.28654,8.19638-1.66215,12.3335-.03832.42807.60047.42337.63877,0,.37053-4.07791.99656-8.1178,1.63918-12.15708C61.64281,287.24054,61.027,287.06079,60.95993,287.48355Z"/><path class="cls-6" d="M77.80331,276.89758c-1.5791,4.3002-4.25695,8.09378-6.12544,12.25489-.17375.38617.37689.72372.55129.33554,1.8934-4.21436,4.58976-8.05588,6.19-12.41336C78.56668,276.67249,77.94894,276.50143,77.80331,276.89758Z"/><path class="cls-6" d="M305.85608,332.68082a28.37755,28.37755,0,0,0-5.02924-8.416c-2.75641-3.11847-6.31317-5.17172-8.75085-8.62308a108.433,108.433,0,0,1-6.38995-10.84747,21.062,21.062,0,0,1-2.50214-6.77893,32.3752,32.3752,0,0,1-.11493-7.26828q-.2406.14384-.48047.28763a15.50611,15.50611,0,0,1,3.92865,3.03924c1.2367,1.12519,2.69379,1.98072,4.01618,2.98935a39.55992,39.55992,0,0,1,8.11016,8.66306,52.513,52.513,0,0,1,4.97364,9.85412c1.231,2.92344,2.23138,6.261,4.0545,8.85282.19928.283.71228.12649.58386-.25635a60.33534,60.33534,0,0,1-2.95251-20.9306,82.64056,82.64056,0,0,1,.93774-9.65906,25.828,25.828,0,0,1,2.70276-8.92539h-.55127a17.34775,17.34775,0,0,1,1.20221,4.761,32.31939,32.31939,0,0,0,1.57465,5.30487,72.72827,72.72827,0,0,1,2.88348,11.93332,38.18165,38.18165,0,0,1,.31561,12.57318c-.57434,3.942-1.62194,7.79688-2.40826,11.69565-.07092.35223.41461.61053.5838.25568,1.13013-2.36884,2.19049-4.769,3.13464-7.225,1.02979-2.67709,1.7107-5.45737,2.62031-8.175,1.429-4.26828,3.86737-8.14978,7.78-10.27691,4.68036-2.54392,15.38031-5.07718,16.60169,2.8349.15643-.12583.313-.25037.46887-.37619-7.07025-3.11982-12.61371,3.76629-16.16418,9.25357-2.40381,3.71572-4.89374,7.21432-7.63941,10.67306a38.52751,38.52751,0,0,1-3.33575,4.257c-1.13318,1.0632-3.33521,2.69369-4.94184,2.53589-.41-.03992-.40625.62652,0,.6658,2.12989.20837,5.08173-2.04327,6.2674-3.74963,2.421-3.4827,5.29559-6.59851,7.71722-10.0838,3.99-5.741,9.26837-16.72965,17.7746-12.97666a.328.328,0,0,0,.46954-.37616c-1.21246-7.84878-11.06457-6.09048-16.083-3.93405a16.37989,16.37989,0,0,0-8.33509,8.38608,64.56142,64.56142,0,0,0-2.819,8.3508,80.36755,80.36755,0,0,1-4.0672,9.8808q.29124.1278.5838.25628c.82532-4.09381,1.88959-8.13507,2.49256-12.27554a36.53668,36.53668,0,0,0-.2887-11.71164,77.57724,77.57724,0,0,0-2.9953-12.56915,40.22685,40.22685,0,0,1-1.57471-5.3042,19.47341,19.47341,0,0,0-1.26666-4.91876.315.315,0,0,0-.55127,0c-2.913,5.16973-3.33264,11.89276-3.67694,17.75421A59.63381,59.63381,0,0,0,307.639,324.354q.29223-.1278.58386-.25628c-1.92145-2.733-2.9787-6.30024-4.28247-9.39609a50.83933,50.83933,0,0,0-5.41772-10.25363,40.14156,40.14156,0,0,0-7.23945-7.61576c-1.53759-1.235-3.23242-2.245-4.69775-3.57721a14.218,14.218,0,0,0-3.675-2.79556.325.325,0,0,0-.48041.28757c-.29577,4.28827-.13348,8.37814,1.65833,12.30685a104.84009,104.84009,0,0,0,6.60834,11.6677,24.76453,24.76453,0,0,0,3.43554,4.39813c1.43915,1.44806,3.14991,2.58649,4.642,3.97864a26.59214,26.59214,0,0,1,6.46534,9.75894C305.39624,333.24741,306.01453,333.07632,305.85608,332.68082Z"/><path class="cls-6" d="M301.50385,333.102c-3.61756-6.09784-6.50361-14.37006-13.43781-17.16034-3.691-1.48468-8.15039-.64047-11.61462,1.07254-3.9101,1.93478-7.01722,5.37482-9.76856,8.76492-.196.2417-.0166.65714.31049.55658,5.92169-1.8182,13.35663-2.19436,18.84454,1.21775,2.6217,1.62979,4.67346,4.39676,6.7406,6.691,1.36713,1.51666,2.36932,4.06854,4.48511,4.59784a.33266.33266,0,0,0,.16925-.64179c-1.41742-.35556-2.37763-1.97006-3.19794-3.10452a37.49043,37.49043,0,0,0-2.54675-3.01129c-2.11322-2.36283-4.18482-4.73566-7.08691-6.02662-5.45594-2.42407-11.989-2.0805-17.57721-.3648q.15526.2796.31048.55658c5.04016-6.21167,12.35626-12.675,20.761-9.66571,3.445,1.233,5.91656,4.52993,7.84955,7.57385,1.90045,2.99063,3.39837,6.23163,5.20684,9.27951A.323.323,0,0,0,301.50385,333.102Z"/><path class="cls-6" d="M291.832,304.17206c2.58649,5.65576,7.17627,9.83282,10.47754,14.98855a61.83485,61.83485,0,0,1,4.30493,8.21769c1.52222,3.43539,1.03925,6.97332,1.01367,10.64306a.31944.31944,0,1,0,.63886,0c.02179-3.10116.53088-6.38214-.46369-9.36078a52.36317,52.36317,0,0,0-4.40258-8.94467c-3.20685-5.6578-8.27765-9.88943-11.01746-15.87939C292.2063,303.449,291.65564,303.78723,291.832,304.17206Z"/><path class="cls-6" d="M283.06836,321.30005c4.7334,2.61383,9.35644,5.34216,12.63672,9.86078,1.16443,1.60385,2.30029,3.23034,3.48462,4.81891.34814.46667,1.31213,2.205,2.03845,2.12579.40552-.04395.40942-.71039,0-.66577-.53345.05792-2.26074-2.84485-2.51953-3.20239-1.07373-1.47736-2.11438-2.98264-3.20862-4.444-3.0918-4.12915-7.75439-6.66308-12.10974-9.06784A.32979.32979,0,0,0,283.06836,321.30005Z"/><path class="cls-6" d="M309.54858,303.00217c.0531,2.93405.81769,5.75164,1.14667,8.65237a41.87208,41.87208,0,0,1-.41589,10.51993c-.90253,6.34149-.48291,12.77688-2.15979,19.00986.20959.02929.41845.05923.628.08853v-.751a.31944.31944,0,1,0-.63886,0v.751a.31925.31925,0,0,0,.62732.08853c1.62128-6.02789,1.48206-12.33148,2.10614-18.51053a67.39847,67.39847,0,0,0,.58442-9.97925c-.15326-3.32889-1.1792-6.52926-1.2392-9.86944A.31944.31944,0,1,0,309.54858,303.00217Z"/><path class="cls-6" d="M330.34723,307.21805c-4.8855,3.22168-8.43475,8.78955-11.2218,13.95794-2.68231,4.97333-5.0401,11.10315-10.37793,13.55649-.37628.17246-.051.74634.322.57462,4.75012-2.18244,7.25226-7.31293,9.58575-11.84018,2.96344-5.74829,6.61353-12.11307,12.014-15.67365C331.01672,307.56424,330.696,306.98837,330.34723,307.21805Z"/></g></g></g><path class="cls-6" d="M197.525,197.85526a6.41441,6.41441,0,1,1-12.82882,0V193.4039a6.41441,6.41441,0,0,1,12.82882,0Z"/><path class="cls-7" d="M169.70828,290.76608c3.63248,0,19.83209-12.175,23.171-11.78283,1.66776,8.93466,1.86548,13.64767,2.06122,14.23758C195.13751,293.80933,170.68961,298.12891,169.70828,290.76608Zm93.17249-22.876c-1.76831-8.64039-9.42539-32.00641-28.07907-40.45041-18.655-8.44339-36.13156-1.57062-42.61087,2.35482-6.48,3.9274-13.94065,19.24485-17.27887,33.57834-3.33887,14.33411-14.72757,14.139-23.56308,17.28019l4.12317,14.92395,91.1112.58856.19641-2.3562C270.53848,292.43454,264.64905,276.52917,262.88077,267.89008Z"/><path class="cls-6" d="M202.074,233.92123c-1.17712,5.62778-6.0213,40.05765,2.227,62.70392a147.99926,147.99926,0,0,0,15.96924,0c-1.83215-11.91269-5.49792-44.90246,2.09387-63.75253C214.77228,233.00308,202.074,233.92123,202.074,233.92123Z"/><path class="cls-8" d="M206.26288,223.70847c-6.47931.3948-7.98532,7.3974-5.03925,11.7163,2.9447,4.32023,8.50724.78428,9.49-1.37417,7.00391,6.6105,16.10175.65445,18.06446-9.16373C228.77805,224.10327,217.653,221.9422,206.26288,223.70847Z"/><path class="cls-6" d="M224.72171,188.21693c-.29565-6.5339-7.004-19.00186-22.90863-18.29748-11.32285.87085-12.69833,11.59712-12.69833,11.59712a19.78906,19.78906,0,0,1-2.42142,3.75166c-.5892-5.02594,2.58853-18.34343,16.88739-18.70027,16.1004-.40214,23.79007,12.199,24.087,21.24819A1.75926,1.75926,0,0,1,224.72171,188.21693Z"/><path d="M193.13263,175.85529c-5.43805,3.725-8.695,9.926-5.93936,16.09176,2.75631,6.16773,3.53793,8.88477.86487,13.709-3.761,6.78759-5.34555,13.1231-2.516,18.88537,17.05582-2.35553,24.56174-4.27362,24.56174-4.27362S203.50876,175.13559,193.13263,175.85529Z"/><path class="cls-9" d="M218.45184,206.90982s4.21833,12.711,4.6178,18.08176c.36353,4.92407-15.9313,8.21032-17.08777,3.04858-1.2044-6.14242-2.9953-16.58444-2.9953-16.58444"/><path class="cls-10" d="M219.806,212.21805l-1.35416-5.30823-15.46527,4.5459s.55124,3.2084,1.257,7.22967a15.22918,15.22918,0,0,0,15.56247-6.46734Z"/><path class="cls-9" d="M191.41678,200.73405a15.33942,15.33942,0,1,0,30.64822-1.37017l-.72369-16.20493a15.33973,15.33973,0,0,0-30.6489,1.36882Z"/><path class="cls-11" d="M211.66061,183.95407c-1.93606-1.03993-4.47863-1.522-6.50262-.478-.757.39014-.0892,1.53063.66711,1.14049,1.57651-.8136,3.67572-.32359,5.16843.478C211.74384,185.49733,212.411,184.35687,211.66061,183.95407Z"/><path class="cls-11" d="M193.1637,186.09328a3.8835,3.8835,0,0,1,3.44409-.93207c.83154.17044,1.18506-1.10252.35086-1.27362a5.27543,5.27543,0,0,0-4.72968,1.27162C191.60983,185.74641,192.5459,186.67851,193.1637,186.09328Z"/><path class="cls-11" d="M202.3038,197.91307a.49823.49823,0,0,1-.33023-.12451l-2.98868-2.63181a.49977.49977,0,0,1,.08521-.81024l3.01129-1.69438a.49933.49933,0,0,1,.49.87015l-2.39813,1.34952,2.46069,2.16709a.49993.49993,0,0,1-.3302.87418Z"/><path class="cls-11" d="M203.41116,202.14931a3.9511,3.9511,0,0,1-2.21368-.63385.49922.49922,0,0,1,.56259-.82486,3.33559,3.33559,0,0,0,3.24631.06588,2.36831,2.36831,0,0,0,1.20968-2.34951.49919.49919,0,0,1,.99735-.04526,3.36713,3.36713,0,0,1-1.72034,3.26694A4.31013,4.31013,0,0,1,203.41116,202.14931Z"/><path class="cls-12" d="M205.6593,192.38681a1.864,1.864,0,1,0,1.08521-2.4041A1.86452,1.86452,0,0,0,205.6593,192.38681Z"/><path class="cls-12" d="M194.511,193.05394a1.86543,1.86543,0,1,0,1.08719-2.40146A1.86692,1.86692,0,0,0,194.511,193.05394Z"/><path class="cls-12" d="M194.99188,192.61418a.43176.43176,0,0,1-.22769-.06454l-1.81888-1.11452a.4384.4384,0,1,1,.458-.74767l1.81827,1.11452a.43821.43821,0,0,1-.22971.81221Z"/><path class="cls-12" d="M208.2027,191.95815a.43865.43865,0,0,1-.25031-.79892l1.9021-1.31823a.43852.43852,0,0,1,.49936.721l-1.9021,1.31824A.43668.43668,0,0,1,208.2027,191.95815Z"/><path d="M236.65305,200.8315c-2.54456-5.482.59655-8.88477-.75766-14.10776-1.18708-4.56787-6.62378-4.42606-9.428-10.89673-4.29691-9.922-26.40531-18.85341-34.64893,1.2796,9.16373-6.21365,18.55713-2.984,22.12235,1.60985,7.18972,9.2636-.18778,13.18767,2.58722,18.697,2.022,4.01328,3.3475,6.717.735,12.79216-2.61319,6.07387,1.04526,11.85011,1.04526,11.85011,8.55585-.94671,18.22821-1.78823,27.01578-3.27691C245.3241,203.954,239.195,206.31282,236.65305,200.8315Z"/><path class="cls-9" d="M197.75369,276.726c-7.46.65378-10.34015,2.88016-17.01721,6.41474-6.67636,3.5346-8.11578,4.32019-6.54523,4.97464-3.92672.26165-1.63714,2.35485,1.11252,1.43808-1.83154.78631.72034,1.63781,4.38547.263.91675,1.44006,5.62976.78695,8.64038-.91544,3.01068-1.70236,10.21033-3.14313,16.75555-.91678.78629-4.05789-1.701-11.1271-1.701-11.1271Z"/><path class="cls-7" d="M202.49918,276.82367a111.22342,111.22342,0,0,1,21.96057-1.4068c.39276,5.23569-2.48731,15.83945-2.48731,15.83945l-17.80417-3.92871A18.99825,18.99825,0,0,0,202.49918,276.82367Z"/><path class="cls-13" d="M202.16241,276.91718C210.11176,275.768,218.151,275.79,226.1622,275.565c3.8595-.10986,7.56058-.55725,11.3848-.9953a30.19956,30.19956,0,0,1,11.43466,1.43137.33341.33341,0,0,0,.17706-.64246,34.83988,34.83988,0,0,0-10.382-1.54462,39.96587,39.96587,0,0,0-5.00332.62519,60.23441,60.23441,0,0,1-6.9567.43942c-8.29285.26895-16.5997.20706-24.83139,1.39612C201.56189,276.33594,201.74228,276.97708,202.16241,276.91718Z"/><path class="cls-13" d="M237.622,256.52332a125.32608,125.32608,0,0,1,1.16714,16.66827.33307.33307,0,0,0,.66577,0,126.64675,126.64675,0,0,0-1.19039-16.8454C238.20584,255.92212,237.5647,256.10388,237.622,256.52332Z"/><path class="cls-13" d="M203.64453,287.66019c2.40744-.02866,4.63709,1.0386,6.92075,1.65844,2.713.73569,5.36944,1.65775,8.08114,2.40143a81.89818,81.89818,0,0,0,16.85343,2.78494c9.02789.522,19.94992.0792,26.76611-6.67971a.333.333,0,0,0-.4707-.47071c-7.12448,7.06452-18.83408,7.07251-28.18357,6.35816a81.62422,81.62422,0,0,1-16.57647-3.14112c-2.41608-.70639-4.82685-1.44543-7.23892-2.16577-2.03064-.6065-3.99735-1.43741-6.15177-1.41143A.33307.33307,0,0,0,203.64453,287.66019Z"/><path class="cls-13" d="M190.36469,249.67166a16.71263,16.71263,0,0,0-.39151,5.56256c.036,2.55326.22372,5.10184.3562,7.651.13183,2.51734.20773,5.036.41012,7.54859.1864,2.32022,1.06391,4.51928,1.18445,6.81683.02261.42679.68842.4288.66574,0-.1105-2.10184-.91611-4.08917-1.12781-6.1897-.23236-2.29889-.3049-4.61447-.40747-6.922-.10254-2.32688-.2623-4.65046-.35885-6.97733-.09653-2.32889-.43543-5.07385.31094-7.31287C191.14227,249.44,190.49918,249.26685,190.36469,249.67166Z"/><path class="cls-13" d="M200.44394,226.89178c-1.04459,3.68509-1.78027,8.3888,2.3522,10.46067a5.37779,5.37779,0,0,0,4.62509-.27429,12.05109,12.05109,0,0,0,2.72571-1.94672c.84421-.72369,1.21439.37418,1.9607.90744,6.07254,4.34283,14.06515-1.6698,16.07647-7.66107.13645-.40811-.50665-.58188-.64248-.17646-2.14579,6.39213-11.31485,12.26362-16.59311,5.74436a.33486.33486,0,0,0-.47068,0c-2.18908,1.968-5.03524,4.29822-8.02127,2.454-3.25427-2.00928-2.213-6.36078-1.37014-9.33081A.33343.33343,0,0,0,200.44394,226.89178Z"/><path class="cls-13" d="M179.38589,290.40109c2.09781-.37283,3.77955-1.68576,5.5452-2.79294a50.44692,50.44692,0,0,1,7.80686-3.492c.39083-.16113.21972-.80627-.17707-.64249-2.17911.89945-4.41012,1.65842-6.5166,2.72766-2.28894,1.16111-4.24164,3.09653-6.83554,3.55726C178.78668,289.83386,178.96643,290.475,179.38589,290.40109Z"/><path class="cls-13" d="M174.62183,290.36783c5.30154-2.239,10.185-5.38547,15.62768-7.29822.40216-.14181.229-.785-.17706-.64249-5.498,1.93274-10.432,5.10382-15.78684,7.36615C173.89148,289.95969,174.231,290.53293,174.62183,290.36783Z"/><path class="cls-13" d="M173.44278,288.79626c2.09387-1.27163,4.48334-1.86218,6.6351-3.00534,2.13184-1.13177,4.251-2.2929,6.456-3.27826.39147-.17507.05194-.74832-.33622-.57455-2.205.98468-4.32623,2.14246-6.45535,3.27759-2.15244,1.14712-4.53925,1.733-6.63577,3.00531A.33334.33334,0,0,0,173.44278,288.79626Z"/><path class="cls-13" d="M207.97058,239.6044c.223,1.1817,1.89545,1.14111,2.43674.22769a1.02889,1.02889,0,0,0-.49-1.36883,1.415,1.415,0,0,0-1.81357.29492c-.24432.35486.33288.6871.57458.33557.29288-.4241,1.51728.01929,1.08719.49466-.3269.36154-1.04858.3895-1.15313-.1611C208.53247,239.00586,207.89069,239.185,207.97058,239.6044Z"/><path class="cls-13" d="M207.08752,244.53079c-.16973,1.17777,1.19574,1.50928,1.988.85352a1.08255,1.08255,0,0,0,.275-1.43341,1.37475,1.37475,0,0,0-1.53927-.23972c-.40744.12854-.233.77167.17712.64185a1.04091,1.04091,0,0,1,.81424-.028c.20572.12119-.07059.49268-.18112.57392-.243.17776-.96335.3089-.89145-.1911C207.79059,244.28778,207.14877,244.10669,207.08752,244.53079Z"/><path class="cls-13" d="M206.68289,250.90375c.05863,1.33551,2.02866.803,2.22638-.20572.24036-1.23166-1.9068-1.90607-2.11651-.56992-.06592.42011.57592.60056.64248.17713.08054-.514.81488-.16178.82419.237.00735.31485-.8941.743-.91074.36148C207.33005,250.47635,206.66428,250.475,206.68289,250.90375Z"/><path class="cls-13" d="M193.723,287.32809a6.75262,6.75262,0,0,0,.40549,3.03525c.15646.39414.80093.22238.64178-.17709a6.28518,6.28518,0,0,1-.38147-2.85816C194.43268,286.90131,193.76627,286.90594,193.723,287.32809Z"/><path class="cls-13" d="M202.03824,277.013c1.24237.87354,1.34091,2.60458,1.69177,3.95276.466,1.78293.81091,3.99661.022,5.73828-.17645.38748.39743.72635.57456.33554.89145-1.96536.51932-4.217.04593-6.25159-.36682-1.57656-.58521-3.3562-1.99866-4.34948C202.02228,276.1908,201.69,276.76871,202.03824,277.013Z"/><path class="cls-13" d="M185.97916,201.69389c-1.0459,7.76493,10.42471,7.79023,15.37674,7.55454.42743-.02.42941-.68573,0-.66574-4.37082.20837-15.69565.41809-14.73493-6.71167C186.67755,201.45155,186.03577,201.27046,185.97916,201.69389Z"/><path class="cls-6" d="M205.21686,208.81873a2.50609,2.50609,0,1,1-2.45535-1.998A2.26239,2.26239,0,0,1,205.21686,208.81873Z"/><path class="cls-6" d="M203.58057,166.568c-8.15641.20439-12.68967,4.62313-14.9733,9.31616a7.53709,7.53709,0,0,1,2.31757.64518,13.05479,13.05479,0,0,1,10.88809-6.60985c15.90469-.70438,22.613,11.76358,22.90863,18.29748a1.75925,1.75925,0,0,0,2.946-.40078C227.37067,178.767,219.681,166.16582,203.58057,166.568Z"/><path class="cls-6" d="M232.838,197.85526a6.41442,6.41442,0,1,1-12.82883,0V193.4039a6.41442,6.41442,0,0,1,12.82883,0Z"/><path class="cls-13" d="M231.3277,197.17062a3.94359,3.94359,0,0,1-7.63907,1.25632c-.476-1.213-.20508-2.93207-.20508-4.209,0-4.43074,6.09314-5.19571,7.6391-1.25566.476,1.21237.205,2.93139.205,4.20835a.33308.33308,0,0,0,.6658,0c0-2.67108.261-5.24829-2.27231-6.91273-3.06991-2.016-6.727.68974-6.90344,3.96-.14179,2.62779-.16309,5.31419,2.27167,6.91406,3.07052,2.016,6.72763-.69107,6.90408-3.96137C232.01678,196.74187,231.35034,196.74385,231.3277,197.17062Z"/><path class="cls-14" d="M156.25647,290.34h51.18542c2.35685,0,2.8801,4.713-1.04724,4.713H88.97134c-3.53459-7.06918-19.374-50.26932-20.94525-54.32718-1.57055-4.05722-.13049-8.77023,6.28426-8.77023H119.342c4.71236,0,9.94868.78293,13.221,7.98462C135.83586,247.14059,156.25647,290.34,156.25647,290.34Z"/><path class="cls-15" d="M207.60391,294.866a3.05918,3.05918,0,0,0,.4234-.18909.21658.21658,0,0,0,.03528-.018c2.01068-1.12583,1.32086-4.31888-.62051-4.31888H156.25671l-.03994-.08655c-.02335-.04858-.05527-.1152-.09922-.20838-.18176-.38482-.53662-1.13784-1.03793-2.19909-4.39215-9.29419-19.7189-41.752-22.51648-47.90576-3.27228-7.20169-8.50861-7.98462-13.221-7.98462h-4.19037c4.71369,0,9.94935.78293,13.22229,7.98462,3.27225,7.20034,23.69425,50.39978,23.69425,50.39978l1.76761,4.58517s2.20639.05264,5.729.12784h46.8299a4.21472,4.21472,0,0,0,.6571-.05127,3.065,3.065,0,0,0,.36353-.08917C207.47672,294.89594,207.54529,294.88525,207.60391,294.866Z"/><path class="cls-16" d="M113.7122,264.1601c1.29227,3.19573-.239,5.78561-3.4194,5.78561-3.18106,0-6.8082-2.58988-8.09982-5.78561-1.29158-3.19639.239-5.78824,3.4201-5.78824S112.42061,260.96371,113.7122,264.1601Z"/><path class="cls-17" d="M267.492,298.70782H82.83745v29.27143c20.2715,4.31555,47.59221,7.43405,74.49681,7.77426,36.83194.46539,75.02347.04727,110.15771-1.6611Z"/><path class="cls-18" d="M275.15479,297.97867a3.164,3.164,0,0,1-3.16379,3.163H78.33653a3.16342,3.16342,0,0,1,0-6.32684H271.991A3.16418,3.16418,0,0,1,275.15479,297.97867Z"/><path class="cls-6" d="M62.73,185.84094c4.38943,4.15911,7.974,4.15911,7.966-.00065-.00931-4.15778-.02328-10.96332-.03129-15.12175a7.81524,7.81524,0,0,0-7.982-7.56186h-15.932c-4.38079,0-4.37348,3.40344.016,7.56186C51.15611,174.87764,58.34048,181.68251,62.73,185.84094Z"/><path class="cls-6" d="M22.50684,132.76614v-8.00735q0-1.88562.18482-3.76218t.55269-3.72592q.36787-1.84941.91524-3.65384t1.269-3.54654q.7216-1.74206,1.61048-3.40506t1.93647-3.2308q1.0476-1.56785,2.24383-3.02545t2.52957-2.791q1.33334-1.33332,2.79094-2.52954t3.02545-2.24383q1.56785-1.0476,3.23082-1.9365,1.663-.88884,3.40506-1.61047,1.7421-.72158,3.54653-1.269t3.65382-.91526q1.8494-.36784,3.72594-.55267t3.76218-.18484h68.15183q1.88557,0,3.76207.18484t3.72583.55267q1.84937.36786,3.65374.9152,1.80438.5474,3.54643,1.269t3.405,1.61044q1.66291.88884,3.23071,1.9364t3.02538,2.24378q1.45757,1.19617,2.79088,2.52951,1.3333,1.33328,2.52951,2.79086t2.24377,3.02536q1.04757,1.56785,1.93643,3.23074t1.61043,3.405q.7216,1.74207,1.26895,3.54645t.9152,3.65372q.36786,1.84937.55267,3.72586t.18483,3.76205v8.00986q0,1.88553-.18483,3.762t-.55266,3.72574q-.36783,1.84928-.91518,3.65363t-1.26892,3.54632q-.72154,1.742-1.61038,3.40489t-1.93637,3.23064q-1.04754,1.56777-2.2437,3.0253t-2.52945,2.7908q-1.33328,1.33329-2.7908,2.52944t-3.0253,2.24371q-1.56774,1.04754-3.23063,1.93637t-3.4049,1.6104q-1.742.72155-3.54632,1.2689t-3.65364.91518q-1.84931.36786-3.72574.55267t-3.762.18482H60.88913q-1.8856,0-3.76212-.18483t-3.72589-.55269q-1.84938-.36786-3.65378-.91521t-3.54648-1.269q-1.74207-.72158-3.405-1.61046t-3.23077-1.93645q-1.56781-1.04759-3.02541-2.24379t-2.79091-2.52954q-1.33332-1.33334-2.52953-2.79091t-2.2438-3.02541q-1.04758-1.56781-1.93645-3.23077t-1.61046-3.405q-.72159-1.74207-1.269-3.54646t-.91522-3.65378q-.36786-1.84937-.55268-3.72589T22.50684,132.76614Z"/><path class="cls-19" d="M95.51318,101.65234v9.23047H93.73193v-3.93945h-4.186v3.93945h-1.794v-9.23047h1.794v3.73145h4.186v-3.73145Z"/><path class="cls-19" d="M103.84619,109.30957v1.57324H97.437v-9.23047h6.292v1.57325H99.231v2.22363h3.8872v1.45605H99.231v2.4043Z"/><path class="cls-19" d="M105.25,110.88281v-9.23047H107.044v7.65723H111.75v1.57324Z"/><path class="cls-19" d="M112.8418,110.88281v-9.23047h3.91308a2.631,2.631,0,0,1,1.17627.26661,3.04522,3.04522,0,0,1,.92969.70214,3.32173,3.32173,0,0,1,.61084.98829,2.97025,2.97025,0,0,1,.22119,1.11132,3.20472,3.20472,0,0,1-.208,1.1377,3.15871,3.15871,0,0,1-.585.98144,2.88129,2.88129,0,0,1-.91015.68946,2.63863,2.63863,0,0,1-1.16993.25976h-2.18408v3.09375Zm1.79394-4.667h2.08008a1.02615,1.02615,0,0,0,.82568-.40332,1.66726,1.66726,0,0,0,.33155-1.0918,1.79948,1.79948,0,0,0-.104-.63086,1.55182,1.55182,0,0,0-.273-.47363,1.08628,1.08628,0,0,0-.39648-.293,1.17332,1.17332,0,0,0-.46191-.09765h-2.002Z"/><path class="cls-19" d="M121.10986,107.41211v-5.85059h1.74219v5.85059Zm0,3.4707v-1.96289h1.74219v1.96289Z"/><path class="cls-20" d="M88.29932,121.77676a2.12742,2.12742,0,0,1,2.12734-2.12735h61.171a2.12735,2.12735,0,1,1,0,4.2547H90.42666a2.12731,2.12731,0,0,1-2.12734-2.12735Z"/><path class="cls-20" d="M88.29932,132.11209a2.12675,2.12675,0,0,1,2.12671-2.12674h52.245a2.12673,2.12673,0,0,1,0,4.25345H90.426a2.12671,2.12671,0,0,1-2.12671-2.12671Z"/><path class="cls-20" d="M88.29932,142.449a2.12672,2.12672,0,0,1,2.12671-2.12674h33.22174a2.12672,2.12672,0,1,1,0,4.25343H90.426a2.12669,2.12669,0,0,1-2.12671-2.12669Z"/><path class="cls-20" d="M88.29932,152.783a2.12773,2.12773,0,0,1,2.12767-2.12769h56.35547a2.12769,2.12769,0,1,1,0,4.25537H90.427a2.12766,2.12766,0,0,1-2.12767-2.12768Z"/><path class="cls-11" d="M75.3119,153.3336c-1.94938-4.8415-8.695-8.30089-12.14106-8.25493H51.53177c-3.82687.36017-10.19234,3.41343-12.14174,8.25493a25.70471,25.70471,0,0,0,35.92187,0Z"/><path class="cls-9" d="M52.59689,135.14117s-1.1145,9.15706-1.88414,14.3348c-.56192,3.78158,13.01122,4.84483,13.42334.76762.36019-4.83551.7743-13.03119.7743-13.03119"/><path class="cls-21" d="M52.045,139.34888l.55194-4.20771,12.3135,2.07123s-.12848,2.518-.30027,5.67572A11.7835,11.7835,0,0,1,52.045,139.34888Z"/><path class="cls-9" d="M72.82066,127.90033a11.88149,11.88149,0,1,1-23.6969,1.77093l-.93809-12.53186a11.88285,11.88285,0,0,1,23.69957-1.7716Z"/><path class="cls-11" d="M56.6434,118.44992a6.22425,6.22425,0,0,0,4.0033-2.49066c.49734-.6944-.64913-1.35285-1.14047-.66712a4.92444,4.92444,0,0,1-3.21369,1.88416C55.459,117.35272,55.81252,118.6257,56.6434,118.44992Z"/><path class="cls-11" d="M70.0873,115.85181a2.60508,2.60508,0,0,1-1.9627-1.44608c-.41145-.74567-1.55259-.07922-1.14047.66712a3.85182,3.85182,0,0,0,2.75232,2.05258C70.56931,117.28186,70.92418,116.00891,70.0873,115.85181Z"/><path class="cls-11" d="M64.14183,126.84918a.49933.49933,0,0,1-.37218-.83221l1.58721-1.77561-1.82155-.75564a.49938.49938,0,1,1,.38216-.92276l2.472,1.02527a.49976.49976,0,0,1,.18109.79428L64.514,126.68274A.4967.4967,0,0,1,64.14183,126.84918Z"/><path class="cls-11" d="M61.14066,131.9a.49929.49929,0,0,1-.28894-.90679c1.9667-1.39014,3.731-1.94938,5.2503-1.66178a.49946.49946,0,0,1-.18643.98136c-1.239-.235-2.75031.26763-4.48663,1.496A.49816.49816,0,0,1,61.14066,131.9Z"/><path class="cls-12" d="M61.09789,122.7926a1.44391,1.44391,0,1,1-1.05658-1.74832A1.44529,1.44529,0,0,1,61.09789,122.7926Z"/><path class="cls-12" d="M69.73351,122.27759a1.44455,1.44455,0,1,1-1.05726-1.74567A1.44488,1.44488,0,0,1,69.73351,122.27759Z"/><path class="cls-9" d="M51.40056,126.52469a4.315,4.315,0,0,1-8.38609,2.03729l-.32224-1.32425a4.31533,4.31533,0,0,1,8.38676-2.03726Z"/><path class="cls-11" d="M44.89157,122.45755c-1.014-2.88879-5.958-14.641,1.39412-14.99591.456-4.61316,6.87013-7.04721,14.88072-8.61844,8.01128-1.57056,13.00524,2.18042,12.39672,5.932-.60852,3.75232-5.52726,5.12115-9.43,4.00531-1.11583,4.05523-6.49,2.68838-7.65574,1.87616-.90079,3.92938-5.36281,4.88012-4.85482,7.61844.50731,2.73834.73435,5.52527.83554,6.08386s-2.23034,1.64844-2.737.532C49.2131,123.77646,47.21112,121.7738,44.89157,122.45755Z"/><path class="cls-13" d="M67.03525,186.625c4.86213.96469,2.07586-15.52919,2.04393-18.01586l-.3329.33289c10.46264.0932,20.92794.12051,31.39061.02864,7.48-.06526,14.95262-.257,22.43391-.25633,4.59982,0,9.175-.16976,13.76956-.34687,4.92606-.19041,9.83679-.17444,14.63636-1.4494,9.18106-2.43941,12.52392-12.14772,13.47262-20.66763.04727-.42677-.61914-.42143-.66577,0-.70438,6.32352-2.62116,13.25291-7.70767,17.46527-3.83222,3.17306-9.47928,3.57587-14.23358,3.80623-4.735.23036-9.4906.43074-14.23093.49867-14.99457.215-30.00113.36151-44.99835.32755q-6.93271-.015-13.86676-.07189a.33512.33512,0,0,0-.33287.33287c.02661,2.0972,2.19571,18.04782-1.20107,17.37406C66.79356,185.9,66.61447,186.54184,67.03525,186.625Z"/><path class="cls-13" d="M164.13882,117.75513c.00535,8.2702.36017,16.58575-.20373,24.844-.02927.42877.63715.42548.66577,0,.56393-8.25824.20908-16.57379.20377-24.844A.33309.33309,0,0,0,164.13882,117.75513Z"/><path class="cls-6" d="M248.75732,212.487v-8.30239q0-1.95486.19161-3.9003t.573-3.86275q.38136-1.91727.94884-3.788t1.31555-3.67673q.7481-1.80606,1.6696-3.53009t2.00757-3.34943q1.086-1.6254,2.3262-3.13652t2.62244-2.89342q1.38231-1.38228,2.89343-2.62243t3.13651-2.32622q1.62543-1.086,3.34945-2.00757t3.53006-1.6696q1.80606-.7481,3.67673-1.31555t3.788-.94884q1.91728-.38139,3.86273-.573t3.9003-.19162h70.65762q1.95492,0,3.90039.19162t3.86282.573q1.91735.38138,3.78809.94886t3.67682,1.31559q1.80611.74809,3.53018,1.66964t3.34952,2.00762q1.62543,1.08609,3.13659,2.32628t2.8935,2.62249q1.38231,1.38234,2.6225,2.8935t2.32626,3.13659q1.08609,1.62546,2.00763,3.34952t1.66962,3.53017q.74811,1.80611,1.31561,3.67682t.94885,3.78807q.38136,1.91735.573,3.86284.19158,1.94548.19159,3.90039v8.3014q0,1.95494-.19162,3.90041t-.573,3.86282q-.38141,1.91734-.94885,3.78807-.5675,1.87072-1.31561,3.67682t-1.66962,3.53019q-.92157,1.724-2.00763,3.3495t-2.32626,3.13659q-1.24018,1.51118-2.6225,2.8935t-2.8935,2.62251q-1.51116,1.24017-3.13659,2.32626t-3.34952,2.00762q-1.72407.92154-3.53018,1.66965t-3.67682,1.31559q-1.87074.56746-3.78806.94886t-3.86285.573q-1.9455.19159-3.90039.1916H288.55032q-1.95492,0-3.90042-.1916t-3.86282-.573q-1.91735-.38137-3.78809-.94886-1.87069-.56748-3.67682-1.31559-1.80606-.74811-3.53015-1.66965t-3.34952-2.00762q-1.62542-1.08609-3.13659-2.32626t-2.8935-2.62251q-1.38236-1.38234-2.62249-2.8935-1.24023-1.51114-2.32628-3.13659t-2.00762-3.34952q-.92154-1.72407-1.66964-3.53017t-1.31559-3.67682q-.56748-1.87071-.94886-3.78807t-.573-3.86282Q248.75731,214.44189,248.75732,212.487Z"/><path class="cls-6" d="M278.74994,267.51282c-4.55127,4.31021-8.26825,4.31021-8.25958-.00067.01-4.31025.02465-11.36676.03332-15.677a8.10135,8.10135,0,0,1,8.27484-7.83947h16.5166c4.54261,0,4.53516,3.52728-.016,7.83947C290.74786,256.1467,283.30054,263.2019,278.74994,267.51282Z"/><path class="cls-19" d="M276.6582,184.47461h-3.17871v8.24609h-1.918v-8.24609h-3.17871v-1.69434h8.27539Z"/><path class="cls-19" d="M286.24805,182.78027v9.94043h-1.918v-4.24218h-4.50879v4.24218h-1.93164v-9.94043h1.93164v4.01856h4.50879v-4.01856Z"/><path class="cls-19" d="M291.14648,182.78027h1.709l3.7793,9.94043h-1.98829l-.92382-2.47754H290.251l-.90918,2.47754h-1.98828Zm2.22657,6.1045-1.37207-3.90625-1.42774,3.90625Z"/><path class="cls-19" d="M299.65918,186.35059v6.37011h-1.93164v-9.94043h1.49805l5.17968,6.52442v-6.50977h1.93262v9.92578h-1.56836Z"/><path class="cls-19" d="M308.41016,192.7207v-9.92578h1.93164v4.71778l4.17187-4.73243h2.12793l-3.80762,4.41016,4.04493,5.53027H314.709l-3.09375-4.29785-1.27343,1.33008v2.96777Z"/><path class="cls-19" d="M323.69727,185.38477a2.34345,2.34345,0,0,0-.35743-.26563,4.32335,4.32335,0,0,0-.6289-.3291,5.527,5.527,0,0,0-.80567-.27344,3.53858,3.53858,0,0,0-.88183-.1123,1.97726,1.97726,0,0,0-1.18946.29394.97311.97311,0,0,0-.39257.82617.85258.85258,0,0,0,.14648.51172,1.26622,1.26622,0,0,0,.42773.35645,3.558,3.558,0,0,0,.707.28027q.42627.126.98632.26563.728.19629,1.32325.41992a3.57465,3.57465,0,0,1,1.00781.56055,2.32283,2.32283,0,0,1,.63769.80468,2.68369,2.68369,0,0,1,.22364,1.15528,2.87325,2.87325,0,0,1-.30176,1.36523,2.523,2.523,0,0,1-.81152.917,3.52963,3.52963,0,0,1-1.17579.51075,5.895,5.895,0,0,1-1.39355.16113,7.48794,7.48794,0,0,1-2.21094-.33594,6.86347,6.86347,0,0,1-1.96093-.95215l.85449-1.666a2.705,2.705,0,0,0,.45508.3291,6.9653,6.9653,0,0,0,.77636.40527,6.07612,6.07612,0,0,0,.99414.34375,4.51906,4.51906,0,0,0,1.12012.13965q1.59522,0,1.59668-1.02246a.84108.84108,0,0,0-.18262-.5459,1.55252,1.55252,0,0,0-.51855-.3916,4.829,4.829,0,0,0-.81153-.30762q-.47607-.14062-1.06347-.30859a9.03872,9.03872,0,0,1-1.23926-.42676,3.25732,3.25732,0,0,1-.875-.5459,2.02714,2.02714,0,0,1-.52441-.72851,2.50469,2.50469,0,0,1-.17579-.98633,3.09741,3.09741,0,0,1,.28028-1.34473,2.721,2.721,0,0,1,.77637-.97949,3.51147,3.51147,0,0,1,1.15527-.59473,4.75949,4.75949,0,0,1,1.41406-.20312,5.48063,5.48063,0,0,1,1.93262.3291,7.19434,7.19434,0,0,1,1.53906.77637Z"/><path class="cls-19" d="M326.53906,188.98242v-6.2998h1.877v6.2998Zm0,3.73828v-2.11425h1.877v2.11425Z"/><path class="cls-20" d="M266.39209,202.94235a2.20511,2.20511,0,0,1,2.205-2.205H332.0173a2.20505,2.20505,0,1,1,0,4.4101H268.59711a2.205,2.205,0,0,1-2.205-2.205Z"/><path class="cls-20" d="M266.39209,213.65756a2.2064,2.2064,0,0,1,2.20636-2.20639h54.16241a2.20639,2.20639,0,0,1,0,4.41277H268.59845a2.20637,2.20637,0,0,1-2.20636-2.20638Z"/><path class="cls-20" d="M266.39209,224.37238a2.20536,2.20536,0,0,1,2.20535-2.20539H303.0383a2.20539,2.20539,0,0,1,0,4.41077H268.59744a2.20531,2.20531,0,0,1-2.20535-2.20538Z"/><path class="cls-11" d="M349.78876,235.44952c2.0213-5.01925,9.01391-8.60577,12.58709-8.5592h12.0672c3.96668.37418,10.5672,3.54,12.5871,8.5592a26.65173,26.65173,0,0,1-37.24139,0Z"/><path class="cls-9" d="M373.33838,216.58841s1.15521,9.49326,1.95343,14.86209c.58252,3.92007-13.4892,5.02258-13.91675.79559-.37408-5.01263-.80286-13.50921-.80286-13.50921"/><path class="cls-21" d="M373.90961,220.95123l-.57123-4.36282-12.76618,2.14847s.13251,2.61114.31165,5.88473a12.22129,12.22129,0,0,0,13.02576-3.67038Z"/><path class="cls-9" d="M352.37054,209.08156a12.31847,12.31847,0,1,0,24.56842,1.83621l.97266-12.99258a12.3185,12.3185,0,0,0-24.56842-1.83687Z"/><path class="cls-11" d="M369.23743,198.07916a3.75105,3.75105,0,0,0-3.62049-2.00866c-.83624.09722-.84491,1.41943,0,1.32092a2.47161,2.47161,0,0,1,2.48,1.35483C368.48975,199.50192,369.62958,198.83417,369.23743,198.07916Z"/><path class="cls-11" d="M355.85535,197.716a2.82879,2.82879,0,0,1,2.464-.82156c.82751.20041,1.17907-1.0739.35156-1.27362a4.154,4.154,0,0,0-3.749,1.1611C354.334,197.39783,355.26611,198.33389,355.85535,197.716Z"/><path class="cls-11" d="M361.36993,207.97353a.4966.4966,0,0,1-.37213-.16645l-2.13244-2.38546a.49879.49879,0,0,1,.18109-.79358l2.56323-1.06391a.49937.49937,0,0,1,.38214.92273l-1.91278.79361,1.66376,1.86084a.49928.49928,0,0,1-.37287.83222Z"/><path class="cls-11" d="M359.46326,210.88089c.41748,1.87482,1.03,2.93341,1.7124,2.93341.43939,0,1.37811-.38748,2.93536-2.81091A26.14274,26.14274,0,0,1,359.46326,210.88089Zm1.71307,3.93207h-.00067c-1.36749,0-2.29364-1.44937-2.83093-4.43207a.49856.49856,0,0,1,.13318-.43542.50949.50949,0,0,1,.43145-.14713,22.34232,22.34232,0,0,0,3.45337.25168c.7956,0,1.65973-.03262,2.64179-.09921a.49872.49872,0,0,1,.464.75164C363.83673,213.46811,362.43262,214.813,361.17633,214.813Z"/><path class="cls-12" d="M364.525,203.78542a1.49735,1.49735,0,1,0,1.09522-1.8136A1.49858,1.49858,0,0,0,364.525,203.78542Z"/><path class="cls-12" d="M355.57178,203.25294a1.49808,1.49808,0,1,0,1.09723-1.81158A1.49955,1.49955,0,0,0,355.57178,203.25294Z"/><path class="cls-9" d="M374.57941,207.65652a4.47284,4.47284,0,1,0,8.693,2.11118l.33356-1.37216a4.47325,4.47325,0,1,0-8.69367-2.11182Z"/><path class="cls-11" d="M381.32831,203.43961c1.0506-2.99665,6.17511-15.1803-1.44605-15.54715-.47406-4.78424-7.12243-7.30689-15.42736-8.936-8.30481-1.62848-13.48389,2.261-12.85346,6.15042.6319,3.89014,5.73041,5.30756,9.777,4.15244,1.15643,4.205,6.7276,2.78494,7.938,1.9454.93268,4.07321,5.55786,5.05856,5.0332,7.89743-.52661,2.8382-.76233,5.729-.86816,6.3082-.10456.57989,2.31225,1.7077,2.84021.55127C376.84564,204.80511,378.92285,202.72922,381.32831,203.43961Z"/><path class="cls-13" d="M372.19446,250.31714c9.77893-.38754,20.26013-6.60986,22.34271-16.717.08655-.41876-.55591-.5972-.64246-.17642-2.022,9.81485-12.20172,15.85077-21.70025,16.2276C371.76636,249.668,371.765,250.33374,372.19446,250.31714Z"/><path class="cls-13" d="M364.10492,250.37c1.78351.06329,3.56854.09857,5.35339.13848a.33307.33307,0,0,0,0-.66574c-1.78485-.03994-3.56988-.07525-5.35339-.13849C363.67474,249.68829,363.6767,250.35474,364.10492,250.37Z"/><path class="cls-13" d="M278.59924,265.07574c3.35285-3.01663,6.71833-6.01727,9.86945-9.24694,1.45807-1.494,2.759-3.44406,4.51929-4.62647a6.9547,6.9547,0,0,1,3.55389-.88281c2.3988-.13846,4.81354-.07654,7.21429-.10919,4.35553-.05924,8.70441-.29227,13.06122-.28363,4.66706.00866,9.33148.21972,13.99256.4321,9.07922.41412,18.18036.84353,27.24286-.09055.42279-.04327.42669-.70972,0-.66574-9.27161.95535-18.58381.48532-27.87134.06189-4.88281-.22235-9.76691-.41211-14.65564-.40344-4.36151.00729-8.71973.25232-13.08118.29962-2.97339.03256-7.1145-.62653-9.79285,1.06585-1.65911,1.04993-2.90478,2.8928-4.223,4.2836-3.245,3.42276-6.7962,6.54325-10.30017,9.695C277.80835,264.892,278.281,265.36139,278.59924,265.07574Z"/><path class="cls-22" d="M208.75879,101.36746v-.001q0-.99834.09784-1.99189.09787-.99348.29263-1.97265t.48456-1.93451q.28982-.95535.67184-1.87769t.85267-1.80279q.47059-.88042,1.02525-1.71051t1.188-1.60181q.63334-.77175,1.33927-1.47766t1.47766-1.33927q.77172-.63331,1.6018-1.188t1.71053-1.02524q.88046-.47062,1.80279-.85266t1.87769-.67185q.95535-.2898,1.93449-.48456t1.97269-.29263q.99351-.09786,1.99185-.09787H345.2908q.99834,0,1.99185.09787t1.97266.29263q.9792.19475,1.93451.48456t1.87768.67185q.92235.38205,1.80283.85266.88043.47058,1.71051,1.02524t1.60184,1.188q.77169.63333,1.47763,1.33927t1.33926,1.47766q.63331.7717,1.188,1.60181.55467.83006,1.02527,1.71051t.85263,1.80279q.38205.92235.67187,1.87769t.48456,1.93451q.19479.97916.29264,1.97265t.09784,1.99189q0,.99837-.09787,1.99194t-.29264,1.97278q-.19478.9792-.48459,1.9346-.2898.95535-.67187,1.87774t-.85269,1.80289q-.47062.88052-1.02533,1.7106-.55462.83016-1.188,1.6019T359.66,115.73666q-.706.706-1.47772,1.33933t-1.6019,1.188q-.83005.55467-1.7106,1.0253-.88045.47062-1.80289.85269-.92234.382-1.87774.67187t-1.9346.48459q-.9792.19478-1.97275.29264t-1.992.09787H229.08032q-.99834,0-1.99185-.09787t-1.97269-.29261q-.97916-.19477-1.93449-.48456t-1.87769-.67187q-.92234-.382-1.80279-.85263t-1.71053-1.02527q-.83008-.55463-1.6018-1.188t-1.47766-1.33926q-.70593-.70592-1.33927-1.47763t-1.188-1.60181q-.55466-.8301-1.02525-1.71054t-.85267-1.80279q-.382-.92235-.67184-1.87769t-.48456-1.93448q-.19478-.97915-.29263-1.97269T208.75879,101.36746Z"/><path class="cls-19" d="M230.33249,90.75c.486-.98468,1.28158-.98468,1.76761,0l1.55261,3.14578a4.264,4.264,0,0,0,2.86014,2.07855l3.472.50464c1.08655.15781,1.33225.91477.54593,1.68109l-2.51129,2.44739a4.2677,4.2677,0,0,0-1.09253,3.36283l.5932,3.45669c.18573,1.08255-.458,1.55057-1.43008,1.03992l-3.10584-1.63312a4.26458,4.26458,0,0,0-3.536.00067l-3.10449,1.63181c-.972.51129-1.61581.04327-1.42941-1.03928l.59253-3.45669a4.26513,4.26513,0,0,0-1.09186-3.36283L221.90378,98.16c-.78629-.76632-.54062-1.52328.5466-1.68109l3.47-.506a4.26611,4.26611,0,0,0,2.86017-2.07855Z"/><path class="cls-19" d="M258.07385,90.75c.48667-.98468,1.28165-.98468,1.76828,0l1.5506,3.14578a4.2657,4.2657,0,0,0,2.86017,2.07855l3.47134.50464c1.08655.15781,1.33289.91477.546,1.68109l-2.51065,2.44739a4.265,4.265,0,0,0-1.09189,3.36283l.59256,3.45669c.18644,1.08255-.45736,1.55057-1.42941,1.03928l-3.10452-1.63181a4.26451,4.26451,0,0,0-3.53592-.00067l-3.10651,1.63312c-.972.51065-1.61584.04263-1.42941-1.03992l.59256-3.45669a4.265,4.265,0,0,0-1.09189-3.36283L249.6445,98.16c-.78628-.76632-.54062-1.52328.5466-1.68109l3.47064-.506a4.26872,4.26872,0,0,0,2.86084-2.07855Z"/><path class="cls-19" d="M285.81424,90.75c.48669-.98468,1.28229-.98468,1.76831,0l1.552,3.14578a4.26405,4.26405,0,0,0,2.86023,2.07855l3.47125.50464c1.08661.15781,1.33222.91477.546,1.68109l-2.51062,2.44739a4.2678,4.2678,0,0,0-1.09253,3.36283l.5932,3.45669c.18567,1.08255-.45806,1.55057-1.43,1.03928l-3.10522-1.63181a4.26211,4.26211,0,0,0-3.536,0l-3.10383,1.63181c-.972.51129-1.61584.04327-1.43011-1.03928l.59192-3.45669a4.2656,4.2656,0,0,0-1.09253-3.36283l-2.51-2.44739c-.78625-.76632-.54059-1.52328.54663-1.68176l3.46869-.50464a4.272,4.272,0,0,0,2.86017-2.07922Z"/><path class="cls-19" d="M313.55585,90.75c.48663-.98468,1.28222-.98468,1.76825,0l1.55127,3.14578a4.26408,4.26408,0,0,0,2.86016,2.07855l3.47132.50464c1.08655.15781,1.33227.91477.546,1.68109l-2.51135,2.44739a4.26483,4.26483,0,0,0-1.0918,3.36283l.59253,3.45669c.1864,1.08255-.4574,1.55057-1.42945,1.03928l-3.10449-1.63181a4.262,4.262,0,0,0-3.536,0l-3.10516,1.63181c-.972.51129-1.61585.04327-1.43006-1.03928l.59253-3.45669a4.26853,4.26853,0,0,0-1.09253-3.36283L305.12646,98.16c-.78631-.76632-.54064-1.52328.54657-1.68109l3.47-.506a4.269,4.269,0,0,0,2.86084-2.07855Z"/><path class="cls-19" d="M341.295,90.75c.4867-.98468,1.28223-.98468,1.76892,0l1.55274,3.14578a4.26659,4.26659,0,0,0,2.86072,2.07855l3.4707.50464c1.08716.15781,1.33289.91477.54663,1.68109l-2.51269,2.44739a4.265,4.265,0,0,0-1.0918,3.36283l.59253,3.45669c.18628,1.08255-.4574,1.55057-1.42945,1.03992l-3.10583-1.63312a4.26472,4.26472,0,0,0-3.536.00067l-3.10315,1.63181c-.97192.51129-1.61572.04327-1.43-1.03928l.59314-3.45669a4.26694,4.26694,0,0,0-1.09253-3.36283L332.86768,98.16c-.78626-.76632-.54065-1.52328.54663-1.68176l3.46862-.50464a4.27175,4.27175,0,0,0,2.86084-2.07922Z"/><path class="cls-13" d="M278.15091,119.65131c2.19043-.02533,4.3775-.21839,6.56787-.24372a.33306.33306,0,0,0,0-.66574c-2.19037.0253-4.37744.21836-6.56787.24365A.33308.33308,0,0,0,278.15091,119.65131Z"/><path class="cls-13" d="M287.76892,119.40872c7.82819-.17578,15.65631.1731,23.48383.04593,3.90612-.0639,7.78027-.42874,11.677-.62051,4.09656-.20105,8.20239-.13181,12.2995-.02594,3.91412.10052,7.82623.253,11.7417.31091a35.7344,35.7344,0,0,0,8.10241-.40479c4.34815-.94009,6.1977-4.46069,6.48664-8.64376.0299-.42874-.63648-.42609-.66577,0-.1604,2.32156-.69843,4.60385-2.42676,6.26562-1.57257,1.51264-3.94007,1.92008-6.0246,2.08386a90.7701,90.7701,0,0,1-9.39276-.04794c-3.6897-.09454-7.37878-.23633-11.06982-.30093-7.36805-.12848-14.67225.64181-22.03248.73636-7.39337.09521-14.78552-.231-22.17889-.06461A.33308.33308,0,0,0,287.76892,119.40872Z"/></svg>