<svg id="Layer_1" data-name="Layer 1" xmlns="http://www.w3.org/2000/svg" xmlns:xlink="http://www.w3.org/1999/xlink" viewBox="0 0 257 200"><defs><style>.cls-1{fill:none;}.cls-2{fill:#00ac71;}.cls-3{opacity:0.502;}.cls-4{fill:#263238;}.cls-5{fill:#ffbe9d;}.cls-6{fill:#eb996e;}.cls-7{fill:#ebebeb;}.cls-8{fill:#455a64;}.cls-9{opacity:0.302;}.cls-11,.cls-9{isolation:isolate;}.cls-10{clip-path:url(#clip-path);}.cls-11{opacity:0.4;}.cls-12{fill:#e0e0e0;}</style><clipPath id="clip-path"><rect class="cls-1" width="257" height="200"/></clipPath></defs><path class="cls-2" d="M193.94684,145.59213l2.79169,6.32953s-5.49622,4.96365-5.09418,6.1836l12.46747-4.97226-3.94519-10.04093Z"/><path class="cls-3" d="M193.94684,145.59213l2.79169,6.32953s-5.49622,4.96365-5.09418,6.1836l12.46747-4.97226-3.94519-10.04093Z"/><path class="cls-4" d="M204.11163,153.133l-.43713-.99653-11.78992,5.13987s-.4588.463-.24023.82892Z"/><path class="cls-2" d="M215.90149,154.55841l3.49451,5.97015s-4.89472,5.55747-4.35639,6.72367l11.81946-6.36017-5.06311-9.52628Z"/><path class="cls-3" d="M215.90149,154.55841l3.49451,5.97015s-4.89472,5.55747-4.35639,6.72367l11.81946-6.36017-5.06311-9.52628Z"/><path class="cls-4" d="M226.859,160.892l-.54761-.94-11.12762,6.44958s-.403.5119-.14417.85059Z"/><path class="cls-5" d="M200.65021,70.81062l-7.66132.59688-.25439-4.28934a3.665,3.665,0,0,1-3.55274-3.06355c-.46258-3.01848-.91461-10.0354-.91461-10.0354a10.6116,10.6116,0,0,1,10.74591-.1573l.49671.2819Z"/><path class="cls-6" d="M192.72345,67.07513a7.10022,7.10022,0,0,0,3.78442-1.67463,3.8675,3.8675,0,0,1-3.72552,2.52588Z"/><path class="cls-5" d="M199.57758,57.32822c.04858-.02961,1.99133-.90668,2.21575,1.17a1.56986,1.56986,0,0,1-1.91656,1.8144C199.86676,60.25339,199.57758,57.32822,199.57758,57.32822Z"/><path class="cls-6" d="M200.42609,59.4572c.00824-.00757.03888.02133.10284.043a.3652.3652,0,0,0,.2713-.02376.9.9,0,0,0,.327-.84782,1.19868,1.19868,0,0,0-.157-.507.4196.4196,0,0,0-.30218-.2482.18466.18466,0,0,0-.2027.12221c-.02167.06092-.00384.10119-.01446.10566-.00525.00586-.04859-.02995-.041-.11738a.23314.23314,0,0,1,.06751-.13906.27613.27613,0,0,1,.19445-.07434.51116.51116,0,0,1,.41278.28087,1.23624,1.23624,0,0,1,.18793.56522.94428.94428,0,0,1-.4306.95384.38986.38986,0,0,1-.33673-.019C200.43536,59.5071,200.41919,59.462,200.42609,59.4572Z"/><path class="cls-4" d="M186.52533,52.31738a1.12726,1.12726,0,0,1,.272-1.055.79993.79993,0,0,1,1.03681-.06745.93289.93289,0,0,1,.63647-1.2323c.48883-.10053.96173.21272,1.45673.27639a2.26708,2.26708,0,0,0,1.38891-.36143c.42206-.243.80518-.55075,1.23505-.77965a3.904,3.904,0,0,1,5.26459,1.5748,1.73379,1.73379,0,0,1,1.9176.43338,2.84341,2.84341,0,0,1,.7102,1.92316,6.36085,6.36085,0,0,1-.1549,1.40545c.00549.0389.01477.07642.01959.11566.20239,1.66706.28876,3.646-.419,3.75647-1.23364.19312-1.26666-2.17788-1.26666-2.17788-1.59961-.37279-1.35413-2.72588-1.7821-3.01709-.4278-.29155-1.33411-.98137-4.28235,1.08877a6.212,6.212,0,0,1-3.7121.93766c-.02679-.00173-.054-.00206-.0813-.00483l-.01849-.00137c-.01032-.001-.01789-.00516-.0279-.00688a2.8767,2.8767,0,0,1-.86328-.231,1.6265,1.6265,0,0,1-.77661-.652.89072.89072,0,0,1,.04029-.971A1.95733,1.95733,0,0,1,186.52533,52.31738Z"/><polygon class="cls-7" points="192.723 69.746 193.065 81.75 200.534 65.672 200.347 64.183 192.723 69.746"/><path class="cls-4" d="M197.67847,105.63123c-.27362.0895-15.82416,15.81622-15.47473,18.64126.34936,2.82465,11.41912,23.74567,11.41912,23.74567l7.89789-3.89417-7.40869-18.34109.09711-1.13764,9.05432-7.41967-.48364-11.932Z"/><path class="cls-4" d="M201.03156,108.73029c.18072.27433,2.87359,24.98141,3.59539,26.26025.72187,1.27875,11.53833,22.37152,11.53833,22.37152l8.03064-3.236-9.80383-23.18219,1.11743-21.94063-.6051-6.19528-12.12451,2.48562Z"/><path class="cls-8" d="M204.48608,134.55579a1.3801,1.3801,0,0,1-.05261-.24747c-.02923-.17935-.06817-.41654-.1167-.71326-.097-.63922-.23236-1.53244-.39831-2.62845-.32178-2.23779-.76209-5.29858-1.24848-8.67987-.467-3.3854-.88977-6.44934-1.19879-8.68884-.14331-1.09909-.26-1.99472-.34363-2.63568q-.05263-.44764-.08465-.71768a1.35317,1.35317,0,0,1-.018-.252,1.37057,1.37057,0,0,1,.05237.24683c.02924.17969.06812.41684.1167.71323.09674.63922.23236,1.53247.39826,2.62814.32183,2.23779.76208,5.29928,1.24884,8.68191.46673,3.3844.88946,6.44794,1.19848,8.68744.14325,1.09909.26,1.99475.34363,2.63568.0354.29883.06366.53733.085.71808A1.41674,1.41674,0,0,1,204.48608,134.55579Z"/><path class="cls-8" d="M214.188,130.23511a23.46041,23.46041,0,0,1-1.09973,3.86871,23.52455,23.52455,0,0,1,1.09973-3.86871Z"/><path class="cls-8" d="M215.40277,135.83112a2.25429,2.25429,0,0,1-.43817-.60962,6.00537,6.00537,0,0,1-.748-3.50791,2.24035,2.24035,0,0,1,.15174-.73529,7.841,7.841,0,0,0,1.03442,4.85282Z"/><path class="cls-8" d="M191.52179,123.1218a4.23437,4.23437,0,0,1,2.22156,2.02606c-.04334.0289-.42652-.53317-1.04126-1.08911C192.09216,123.49768,191.49731,123.16794,191.52179,123.1218Z"/><path class="cls-8" d="M192.741,122.392a3.4412,3.4412,0,0,1,1.19958,1.94244,10.365,10.365,0,0,1-.58105-.98309A10.26912,10.26912,0,0,1,192.741,122.392Z"/><path class="cls-2" d="M193.81464,86.3484l1.98785,9.86225,1.6178,13.763a85.66767,85.66767,0,0,0,9.51221-1.83127,83.23188,83.23188,0,0,1,10.47082-1.93244l-1.20923,1.1965a8.542,8.542,0,0,0,4.20117-3.1682c-4.42419-4.1031-8.19787-12.54375-8.19787-12.54375L208.83325,74.9919s-.5108-2.35622-.81885-3.404c-.30847-1.04781-5.41632-4.42772-6.12439-4.85487l-.44512-.21035-.14136-1.33866-.52631-.315L195.249,69.89122a5.99058,5.99058,0,0,0-1.92383,3.75337,43.32083,43.32083,0,0,0-.241,6.28307C193.1499,81.88422,193.81464,86.3484,193.81464,86.3484Z"/><path class="cls-2" d="M197.60962,69.26367s-2.92072,1.56586-3.42706,2.89455.99969,15.89747.99969,15.89747l-10.48816.1969-.03265,6.24933s16.65851,1.3163,17.30707.41582c.8764-1.21785,1.89489-12.6019,1.89489-12.6019l.3783-8.19073S203.27588,67.87888,197.60962,69.26367Z"/><g class="cls-9"><g class="cls-10"><path class="cls-2" d="M195.80255,96.21066a10.03108,10.03108,0,0,0,4.19769.39241,4.16767,4.16767,0,0,0,3.53894-2.32,10.43855,10.43855,0,0,0,.314-3.3727c.0564-.98549.30048-1.94894.44928-2.92447a10.11786,10.11786,0,0,0-.67889-3.70212s-.37421,6.76293-1.432,9.60205a2.3251,2.3251,0,0,1-.64838,1.03681,2.54811,2.54811,0,0,1-1.37079.37759,39.72749,39.72749,0,0,1-4.5664-.09225"/></g></g><path class="cls-2" d="M204.22382,75.01012a.89989.89989,0,0,1,.00042.14868c-.00415.10568-.00964.24991-.01654.4351-.01892.391-.0462.95316-.08093,1.67325-.03821.72907-.08466,1.61716-.13837,2.64673-.06329,1.03128-.097,2.20816-.22369,3.50311-.11292,1.29566-.24866,2.71384-.41144,4.23461-.16864,1.52009-.349,3.14477-.63812,4.8442a10.57594,10.57594,0,0,1-.28809,1.28466,2.50836,2.50836,0,0,1-.75622,1.13281,1.91494,1.91494,0,0,1-1.305.46606c-.46264.01033-.926-.00137-1.39447-.0072-1.87225-.04616-3.80737-.14216-5.78869-.24957-2.97693-.16454-5.846-.35007-8.527-.53836l-.07715-.00553.00043-.07707c.0133-2.21956.02606-4.31067.03747-6.23938l.00068-.07191.07159-.00173c4.1878-.08983,7.67438-.16488,10.12311-.21754,1.21374-.021,2.17-.03752,2.83191-.04924q.48038-.00461.7456-.00722c.1687-.00033.2558.00552.2558.00552s-.08673.00962-.25507.01754q-.2655.01087-.74523.02961c-.66163.021-1.61756.0513-2.83088.08985-2.44842.06779-5.93438.16385-10.12146.27951l.0719-.0737c-.00616,1.92871-.013,4.01982-.02063,6.23938l-.07641-.08263c2.68042.18314,5.54919.36589,8.5249.53044,1.98041.1074,3.91455.20447,5.783.253.46637.00621.93.0186,1.38544.009a1.74872,1.74872,0,0,0,1.20514-.42615,2.34123,2.34123,0,0,0,.708-1.05847,10.47034,10.47034,0,0,0,.28431-1.25984c.29266-1.68977.47821-3.31381.65307-4.83147.16858-1.51905.3111-2.93586.43164-4.23013.13416-1.29324.17688-2.4691.24921-3.499.06506-1.02853.12152-1.91557.1676-2.6443.04889-.71872.08679-1.28017.11328-1.67049.0141-.18486.02545-.32873.03376-.43441A1.00019,1.00019,0,0,1,204.22382,75.01012Z"/><path class="cls-2" d="M186.72021,94.41a26.68515,26.68515,0,0,1-.07055-3.0305,26.75977,26.75977,0,0,1,.10229-3.02983,26.57178,26.57178,0,0,1,.07056,3.03052A26.77145,26.77145,0,0,1,186.72021,94.41Z"/><path class="cls-2" d="M185.608,89.29906c-.0199-.01137.08472-.12805.284-.06195a.32262.32262,0,0,1,.2124.27742.38032.38032,0,0,1-.21307.37451.39025.39025,0,0,1-.42163-.07779.35286.35286,0,0,1-.1026-.33011c.04718-.19792.18518-.23991.18963-.22.01691.01964-.06537.09261-.06811.23478a.2384.2384,0,0,0,.08673.19653.24643.24643,0,0,0,.24475.03925.236.236,0,0,0,.12561-.20826.2024.2024,0,0,0-.105-.17555C185.71991,89.276,185.61871,89.32143,185.608,89.29906Z"/><path class="cls-2" d="M208.87976,76.42314s5.45624,7.134,6.12091,9.07845a7.14462,7.14462,0,0,1-.96,6.07c-1.11145,1.33488-2.00751.7924-2.00751.7924Z"/><path class="cls-4" d="M211.838,91.79117a11.43824,11.43824,0,0,1-2.7641.47432,11.44389,11.44389,0,0,1,2.7641-.47432Z"/><path class="cls-4" d="M212.88684,97.05124a1.83576,1.83576,0,0,1,.14807.37656c.08289.24578.20825.6.37,1.03369a30.69985,30.69985,0,0,0,1.4657,3.30624,34.79676,34.79676,0,0,0,1.833,3.11969c.25476.38724.465.6984.61206.91217a1.856,1.856,0,0,1,.213.34387,1.79129,1.79129,0,0,1-.26709-.304c-.16419-.20206-.39038-.50324-.65882-.88327a26.75141,26.75141,0,0,1-1.88562-3.10935,24.3127,24.3127,0,0,1-1.42724-3.34445c-.148-.44128-.25611-.80234-.31934-1.055A1.83573,1.83573,0,0,1,212.88684,97.05124Z"/><g class="cls-9"><g class="cls-10"><path d="M213.25757,97.89664a16.11747,16.11747,0,0,0,3.0708,4.29,7.942,7.942,0,0,1,1.34,1.29808,1.63319,1.63319,0,0,1,.17071,1.75586.551.551,0,0,1-.54382.294.698.698,0,0,1-.356-.28881,21.25163,21.25163,0,0,1-3.62292-7.11368"/></g></g><g class="cls-9"><g class="cls-10"><path d="M212.53711,92.33748a2.63886,2.63886,0,0,0,.89807-2.47116,9.15074,9.15074,0,0,0-.90631-2.59439,42.70928,42.70928,0,0,1-2.65735-7.79419l-.53326-1.97891,2.699,14.11993Z"/></g></g><path class="cls-4" d="M199.02991,68.62964a12.06832,12.06832,0,0,1,1.01684-1.01579,12.108,12.108,0,0,1,1.01575-1.01717,6.03638,6.03638,0,0,1-2.03259,2.033Z"/><path class="cls-4" d="M198.47852,69.83853c.00866.02892-.315.12633-.79792.36522a6.34146,6.34146,0,0,0-2.8963,2.9307c-.233.48567-.32635.81028-.35559.802-.01172-.00308.00244-.0864.03754-.2358a3.9348,3.9348,0,0,1,.20654-.61615,5.69723,5.69723,0,0,1,2.95654-2.99162,3.893,3.893,0,0,1,.61341-.21376A.64506.64506,0,0,1,198.47852,69.83853Z"/><path class="cls-4" d="M213.13232,93.75635a.57971.57971,0,0,1-.08569-.137c-.05853-.1098-.1308-.24473-.21869-.40928-.19507-.38173-.45978-.89943-.78515-1.53626l-.00306-.00584-.00171-.00827c-.34112-1.56345-.824-3.84355-1.34863-6.37976-.48468-2.38994-.92285-4.55269-1.2464-6.14812-.1477-.77-.26892-1.402-.358-1.86708-.03577-.20551-.06543-.37381-.08881-.50943a.09094.09094,0,1,1,.03412-.00723c.032.13389.0719.30015.12036.50291.10267.46263.24213,1.09084.412,1.856.33637,1.59269.79206,3.75166,1.29572,6.13812.525,2.53589.98651,4.82048,1.29388,6.39116l-.00476-.01412c.30567.64644.55414,1.17241.73761,1.55966.07672.17005.13977.30982.191.42305A.60641.60641,0,0,1,213.13232,93.75635Z"/><path class="cls-4" d="M195.00079,88.05017a3.073,3.073,0,0,1-.07983-.517c-.03967-.36487-.09125-.84129-.15393-1.4158-.12213-1.1958-.27942-2.84946-.44226-4.67691-.16315-1.82782-.30127-3.48315-.39246-4.68207-.04022-.57625-.0733-1.054-.09918-1.42027a3.069,3.069,0,0,1-.01263-.52251,2.99688,2.99688,0,0,1,.07983.51735c.03955.36487.09155.84163.15387,1.41579.12256,1.19617.27954,2.84946.44263,4.67692.16284,1.82679.3009,3.48179.39209,4.68071.04028.57622.07367,1.05433.09918,1.4206A2.99629,2.99629,0,0,1,195.00079,88.05017Z"/><path class="cls-5" d="M184.82565,88.98373a17.40333,17.40333,0,0,0-2.81366-1.81955c-.4227-.07917-2.9472-.03717-4.10824-.01309a.83107.83107,0,0,0-.833.80654.44084.44084,0,0,0,.00793.08191.75722.75722,0,0,0,.55176.57382.88016.88016,0,0,0-.61133.82785c-.00961.65538.78382.79341.78382.79341a1.17413,1.17413,0,0,0-.11328.10087.78214.78214,0,0,0,.38382,1.31249l.358.08125a.77488.77488,0,0,0-.47745.65126c.01309.863,1.95346,1.02819,1.95346,1.02819s4.79532.759,4.89893.72459C184.91,94.0985,184.82565,88.98373,184.82565,88.98373Z"/><path class="cls-5" d="M178.34982,86.13083a1.40009,1.40009,0,0,0,.57172,1.1638l2.67221-.10463a10.62949,10.62949,0,0,1-2.27292-1.02614,2.301,2.301,0,0,0-.38135-.37313A.37778.37778,0,0,0,178.34982,86.13083Z"/><path class="cls-6" d="M180.33664,87.16385a3.92307,3.92307,0,0,1-1.22028.08636,4.95105,4.95105,0,0,1-1.2175-.08636,3.92216,3.92216,0,0,1,1.22025-.08643A4.95064,4.95064,0,0,1,180.33664,87.16385Z"/><path class="cls-6" d="M179.73633,88.65569a3.87126,3.87126,0,0,1-2.09665-.07471,19.87118,19.87118,0,0,1,2.09665.07471Z"/><path class="cls-6" d="M181.096,88.46533c.03958.02445-.01172.16971-.16248.26709-.15075.09815-.30465.08539-.31082.03891-.00827-.04785.09949-.106.21683-.18381C180.95828,88.51215,181.05576,88.43781,181.096,88.46533Z"/><path class="cls-6" d="M180.03067,90.34856a7.69941,7.69941,0,0,1-2.29733-.07537,7.6995,7.6995,0,0,1,2.29733.07537Z"/><path class="cls-6" d="M181.55759,89.63431c.02136-.00618.063.04785.07574.15283a.55.55,0,0,1-.46744.59447c-.10537.01237-.16729-.01551-.16626-.03752-.0014-.04715.23-.07712.38276-.2733C181.53729,89.87628,181.51151,89.64427,181.55759,89.63431Z"/><path class="cls-6" d="M180.43411,92.00632a6.24842,6.24842,0,0,1-2.05673-.25438,6.27229,6.27229,0,0,1,2.05673.25438Z"/><path class="cls-6" d="M181.9252,91.1637c.02207-.00309.05512.05542.052.159a.6443.6443,0,0,1-.14319.3628c-.19552.23684-.41516.32257-.4396.29052-.03436-.04095.14188-.1979.30292-.39621C181.86188,91.38055,181.88049,91.17163,181.9252,91.1637Z"/><path class="cls-2" d="M215.2868,107.55066a3.05437,3.05437,0,0,0,2.31726-1.45984c.05481-.09222.10187-.2182.03034-.29843a.265.265,0,0,0-.20209-.06094,6.27634,6.27634,0,0,0-2.1958.37661.299.299,0,0,0-.19684.14731.30229.30229,0,0,0,.00928.181q.141.54268.28192,1.08573"/><g class="cls-11"><g class="cls-10"><path d="M215.2868,107.55066a3.05437,3.05437,0,0,0,2.31726-1.45984c.05481-.09222.10187-.2182.03034-.29843a.265.265,0,0,0-.20209-.06094,6.27634,6.27634,0,0,0-2.1958.37661.299.299,0,0,0-.19684.14731.30229.30229,0,0,0,.00928.181q.141.54268.28192,1.08573"/></g></g><path class="cls-7" d="M192.72339,69.74664s-1.10016,3.6928-.79688,3.48284c.30292-.20966.96039-.79276.96039-.79276Z"/><path class="cls-4" d="M192.7868,71.44916l-.60131,1.4378a1.95343,1.95343,0,0,0-.11676.46436c-.04956.40275-.10706,1.1411.13287,1.1924a.80774.80774,0,0,0,.643-.26575Z"/><path class="cls-4" d="M211.44391,71.676s-5.88483-2.29594-9.14349-.26849c-3.25849,2.02745-3.85224,5.26278-5.79249,5.26278-3.78448,0-3.66326-2.67047-3.66326-2.67047l-.80445.24373c-.01556.54626-.87707,4.46935,3.111,4.95573,3.98779.486,5.66412-4.95057,9.252-4.95573a11.90919,11.90919,0,0,1,6.31128,1.94035l2.57751-1.63021Z"/><path class="cls-8" d="M196.34363,79.1342a5.52965,5.52965,0,0,0,2.27014-2.60437c.91425-2.10939,2.87665-4.51753,4.5155-5.12234,1.63849-.60514,5.43006-1.02752,8.04846.67916l1.67743,2.26564-2.17743,1.41233a20.22193,20.22193,0,0,0-3.83709-1.53626,5.539,5.539,0,0,0-5.92432,1.58686c-.09784.09294-.18762.18452-.26617.273A17.84,17.84,0,0,1,198.159,78.294,3.92432,3.92432,0,0,1,196.34363,79.1342Z"/><path class="cls-2" d="M74.49231,47.09378c-3.4904.53766-6.049-2.39406-6.86513-5.00462-.75314-2.40955-1.11114-4.91651-2.16963-7.20833-1.47877-3.20331-5.39633-4.68346-8.91222-4.38744-3.51551.296-7.05823,2.05776-10.169,3.72275l.85814,19.28221s6.77392-7.21315,10.02853-7.34465c5.4311-.21927,5.13507,8.70773,10.4089,10.02576a12.24613,12.24613,0,0,0,12.39157-4.4518,18.16875,18.16875,0,0,0,3.45323-9.075S81.0869,46.078,74.49231,47.09378Z"/><path class="cls-4" d="M46.234,31.01677c.04786-.00206.99755,20.47389,2.12144,45.728,1.12422,25.26337,1.99682,45.7383,1.949,45.74036-.0475.00208-.99719-20.46942-2.12142-45.73245C47.0591,51.49823,46.18649,31.01918,46.234,31.01677Z"/><path d="M64.87827,40.75517a23.46176,23.46176,0,0,0,2.56684,5.78772,7.12138,7.12138,0,0,0,4.35849,3.28078,4.23007,4.23007,0,0,1,.97831.254.94607.94607,0,0,1,.58242.76694c.0141.505-.50808.83541-.96107,1.0588a7.91878,7.91878,0,0,1-2.00646.77106c-.70634.13217-1.2602.20584-1.7452-.3246a10.13868,10.13868,0,0,1-1.26226-1.51251,22.36531,22.36531,0,0,1-2.51107-9.67052"/><path class="cls-4" d="M69.597,53.13744a.70954.70954,0,0,1-.157-.08951c-.09946-.064-.24129-.16556-.41683-.30635A7.17415,7.17415,0,0,1,67.73584,51.343a10.72888,10.72888,0,0,1-1.28877-2.507,27.60088,27.60088,0,0,1-.95453-3.31311,36.99729,36.99729,0,0,1-.88947-6.19149c-.0444-.8-.052-1.44814-.05128-1.89562.00447-.20791.00825-.37794.01135-.5153a.69279.69279,0,0,1,.01619-.17968.72562.72562,0,0,1,.01859.17934c.00549.137.01237.307.021.5146.02.44646.04613,1.09223.106,1.8884a41.38663,41.38663,0,0,0,.93556,6.16086,29.56637,29.56637,0,0,0,.93561,3.29694A11.05931,11.05931,0,0,0,67.836,51.27313a7.82826,7.82826,0,0,0,1.23094,1.41751C69.40048,52.98529,69.60562,53.12505,69.597,53.13744Z"/><polygon class="cls-12" points="25.187 126.556 71.303 134.106 71.303 126.556 25.187 126.556"/><polygon class="cls-12" points="78.915 143.611 125.031 151.16 125.031 143.611 78.915 143.611"/><polygon class="cls-12" points="132.274 159.925 178.389 167.474 178.389 159.925 132.274 159.925"/><polygon class="cls-12" points="185.562 172.907 231.677 180.456 231.677 172.907 185.562 172.907"/><rect class="cls-2" x="25.18683" y="120.90163" width="46.11575" height="5.65455"/><g class="cls-9"><g class="cls-10"><rect x="56.91217" y="120.90163" width="14.39041" height="5.65454"/></g></g><rect class="cls-2" x="78.91534" y="137.95609" width="46.11571" height="5.65458"/><g class="cls-9"><g class="cls-10"><rect x="110.64066" y="137.95609" width="14.39041" height="5.65457"/></g></g><rect class="cls-2" x="132.27368" y="154.27014" width="46.11571" height="5.65458"/><g class="cls-9"><g class="cls-10"><rect x="163.99896" y="154.27014" width="14.39041" height="5.65457"/></g></g><rect class="cls-2" x="185.63196" y="167.25232" width="46.11571" height="5.65458"/><g class="cls-9"><g class="cls-10"><rect x="217.3573" y="167.25232" width="14.39038" height="5.65457"/></g></g></svg>