<svg id="Layer_1" data-name="Layer 1" xmlns="http://www.w3.org/2000/svg" xmlns:xlink="http://www.w3.org/1999/xlink" viewBox="0 0 257 200"><defs><style>.cls-1{fill:none;}.cls-2{fill:#f5f5f5;}.cls-3{fill:#e0e0e0;}.cls-4{fill:#ebebeb;}.cls-5{fill:#fafafa;}.cls-6{fill:#263238;}.cls-7{fill:#00ac71;}.cls-8{fill:#5f2f00;}.cls-14,.cls-9{opacity:0.302;}.cls-10{fill:#455a64;}.cls-11{fill:#fff;}.cls-12{fill:#ffbe9d;}.cls-13{fill:#eb996e;}.cls-14{isolation:isolate;}.cls-15{clip-path:url(#clip-path);}</style><clipPath id="clip-path"><rect class="cls-1" width="257" height="200"/></clipPath></defs><path class="cls-2" d="M191.39008,77.85738h42.63049l-6.94452,5.01118v9.85933a2.05857,2.05857,0,0,1-2.05859,2.05864H191.39008a2.05874,2.05874,0,0,1-2.05866-2.05864V79.916A2.05873,2.05873,0,0,1,191.39008,77.85738Z"/><path class="cls-3" d="M193.16833,84.82489c0,.04129,6.42957.07449,14.35889.07449,7.93207,0,14.36048-.0332,14.36048-.07449,0-.041-6.42841-.07419-14.36048-.07419C199.5979,84.7507,193.16833,84.78392,193.16833,84.82489Z"/><path class="cls-3" d="M193.16833,88.61035c0,.041,6.42957.07448,14.35889.07448,7.93207,0,14.36048-.03349,14.36048-.07448,0-.0413-6.42841-.07448-14.36048-.07448C199.5979,88.53587,193.16833,88.56905,193.16833,88.61035Z"/><path class="cls-2" d="M43.67,78.36989a3.91152,3.91152,0,1,0-3.848,3.9919A3.92437,3.92437,0,0,0,43.67,78.36989ZM31.57967,78.565a8.18046,8.18046,0,1,1,8.3108,8.08523A8.2102,8.2102,0,0,1,31.57967,78.565Z"/><path class="cls-3" d="M31.57967,78.56494a8.21018,8.21018,0,0,1,8.04812-8.3491l.06851,4.28808a3.92947,3.92947,0,0,0,.12566,7.85785l.06851,4.2881A8.20686,8.20686,0,0,1,31.57967,78.56494Z"/><path class="cls-4" d="M38.8933,69.55615a9.347,9.347,0,0,1,9.57033,9.31064l-4.99384.08078A4.10986,4.10986,0,0,0,38.978,74.85815Z"/><rect class="cls-2" x="74.32715" y="107.41766" width="10.3979" height="12.3614"/><rect class="cls-3" x="27.69513" y="106.61183" width="46.99038" height="13.94458"/><path class="cls-3" d="M85.03993,107.78452H73.42564v-1.17276H85.03993a.58638.58638,0,1,1,0,1.17276Z"/><path class="cls-3" d="M85.03993,120.55634H73.42564v-1.17249H85.03993a.58625.58625,0,1,1,0,1.17249Z"/><rect class="cls-4" x="65.43921" y="106.61183" width="5.55165" height="13.94458"/><rect class="cls-4" x="32.164" y="106.76625" width="5.5517" height="13.94455"/><path class="cls-3" d="M84.725,109.46231c0,.03406-2.25042.06159-5.02584.06159-2.7764,0-5.02618-.02753-5.02618-.06159s2.24978-.06164,5.02618-.06164C82.47456,109.40067,84.725,109.42822,84.725,109.46231Z"/><path class="cls-3" d="M84.725,111.316c0,.03406-2.25042.06158-5.02584.06158-2.7764,0-5.02618-.02752-5.02618-.06158,0-.03412,2.24978-.062,5.02618-.062C82.47456,111.25406,84.725,111.28189,84.725,111.316Z"/><path class="cls-3" d="M84.725,113.59842c0,.03409-2.25042.06158-5.02584.06158-2.7764,0-5.02618-.02749-5.02618-.06158s2.24978-.062,5.02618-.062C82.47456,113.53647,84.725,113.5643,84.725,113.59842Z"/><path class="cls-3" d="M84.725,115.88077c0,.03412-2.25042.06164-5.02584.06164-2.7764,0-5.02618-.02752-5.02618-.06164s2.24978-.06159,5.02618-.06159C82.47456,115.81918,84.725,115.84665,84.725,115.88077Z"/><path class="cls-3" d="M84.725,118.16324c0,.03409-2.25042.06164-5.02584.06164-2.7764,0-5.02618-.02755-5.02618-.06164s2.24978-.06195,5.02618-.06195C82.47456,118.10129,84.725,118.12912,84.725,118.16324Z"/><rect class="cls-4" x="41.31415" y="112.34288" width="21.1403" height="2.51093"/><rect class="cls-5" x="74.06207" y="120.8297" width="10.55733" height="7.53193"/><rect class="cls-2" x="29.2511" y="120.55643" width="44.92903" height="8.07852"/><path class="cls-2" d="M73.85358,121.10294H85.201a.2733.2733,0,0,0,0-.5466H73.85358Z"/><path class="cls-2" d="M73.85364,128.635v-.5466H85.201a.2733.2733,0,0,1,0,.5466Z"/><path class="cls-3" d="M84.61938,122.2605c0,.03439-2.33715.06189-5.21942.06189-2.88316,0-5.21971-.0275-5.21971-.06189,0-.03415,2.33655-.06168,5.21971-.06168C82.28223,122.19882,84.61938,122.22635,84.61938,122.2605Z"/><path class="cls-3" d="M84.61938,123.68542c0,.03406-2.33715.06189-5.21942.06189-2.88316,0-5.21971-.02783-5.21971-.06189,0-.03414,2.33655-.06164,5.21971-.06164C82.28223,123.62378,84.61938,123.65128,84.61938,123.68542Z"/><path class="cls-3" d="M84.61938,125.11038c0,.03406-2.33715.06189-5.21942.06189-2.88316,0-5.21971-.02783-5.21971-.06189,0-.03412,2.33655-.06164,5.21971-.06164C82.28223,125.04874,84.61938,125.07626,84.61938,125.11038Z"/><path class="cls-3" d="M84.61938,126.53537c0,.03409-2.33715.06192-5.21942.06192-2.88316,0-5.21971-.02783-5.21971-.06192,0-.03415,2.33655-.06165,5.21971-.06165C82.28223,126.47372,84.61938,126.50122,84.61938,126.53537Z"/><rect class="cls-4" x="75.44495" y="129.35278" width="10.77576" height="20.41793"/><rect class="cls-3" x="24.86322" y="128.63493" width="50.58175" height="22.13831"/><path class="cls-3" d="M87.06429,150.77341H74.0621v-1.43579H87.06429a.7179.7179,0,0,1,0,1.43579Z"/><path class="cls-3" d="M74.06207,130.07068v-1.43575H87.06421a.71788.71788,0,1,1,.00007,1.43575Z"/><path class="cls-3" d="M86.22086,132.08981c0,.03415-2.41257.06162-5.38787.06162-2.97621,0-5.38814-.02747-5.38814-.06162,0-.03408,2.41193-.06161,5.38814-.06161C83.80829,132.0282,86.22086,132.05573,86.22086,132.08981Z"/><path class="cls-3" d="M86.22086,134.70847c0,.03411-2.41257.06195-5.38787.06195-2.97621,0-5.38814-.02784-5.38814-.06195s2.41193-.06159,5.38814-.06159C83.80829,134.64688,86.22086,134.67438,86.22086,134.70847Z"/><path class="cls-3" d="M86.22086,137.32718c0,.03409-2.41257.06192-5.38787.06192-2.97621,0-5.38814-.02783-5.38814-.06192s2.41193-.06159,5.38814-.06159C83.80829,137.26559,86.22086,137.29306,86.22086,137.32718Z"/><path class="cls-3" d="M86.22086,139.94586c0,.03412-2.41257.06192-5.38787.06192-2.97621,0-5.38814-.0278-5.38814-.06192s2.41193-.06158,5.38814-.06158C83.80829,139.88428,86.22086,139.91177,86.22086,139.94586Z"/><path class="cls-3" d="M86.22086,142.56458c0,.03439-2.41257.06192-5.38787.06192-2.97621,0-5.38814-.02753-5.38814-.06192,0-.03412,2.41193-.06165,5.38814-.06165C83.80829,142.50293,86.22086,142.53046,86.22086,142.56458Z"/><path class="cls-3" d="M86.22086,145.18356c0,.03379-2.41257.06162-5.38787.06162-2.97621,0-5.38814-.02783-5.38814-.06162,0-.03408,2.41193-.06192,5.38814-.06192C83.80829,145.12164,86.22086,145.14948,86.22086,145.18356Z"/><path class="cls-3" d="M86.22086,147.80225c0,.03408-2.41257.06161-5.38787.06161-2.97621,0-5.38814-.02753-5.38814-.06161s2.41193-.06192,5.38814-.06192C83.80829,147.74033,86.22086,147.76816,86.22086,147.80225Z"/><path class="cls-4" d="M42.17168,140.91556v1.232c0,1.48331-.74165,2.33118-2.17231,2.33118-1.43035,0-2.172-.84787-2.172-2.33118V137.326c0-1.48331.74166-2.33118,2.172-2.33118,1.43066,0,2.17231.84787,2.17231,2.33118v.90085h-1.3774v-.99356c0-.662-.29139-.91367-.75512-.91367s-.75481.25162-.75481.91367v5.007c0,.66207.29109.90051.75481.90051s.75512-.23844.75512-.90051v-1.32474Z"/><path class="cls-4" d="M44.39577,142.2403c0,.66207.2914.91366.75483.91366.46372,0,.75512-.25159.75512-.91366v-5.007c0-.662-.2914-.91367-.75512-.91367-.46343,0-.75483.25162-.75483.91367Zm-1.457-4.91428a2.215,2.215,0,1,1,4.42392,0v4.82153a2.215,2.215,0,1,1-4.42392,0Z"/><polygon class="cls-4" points="48.302 135.101 49.759 135.101 49.759 143.048 52.156 143.048 52.156 144.372 48.302 144.372 48.302 135.101"/><path class="cls-4" d="M54.12884,142.2403c0,.66207.2914.91366.75482.91366.46372,0,.75512-.25159.75512-.91366v-5.007c0-.662-.2914-.91367-.75512-.91367-.46342,0-.75482.25162-.75482.91367Zm-1.457-4.91428a2.215,2.215,0,1,1,4.42392,0v4.82153a2.215,2.215,0,1,1-4.42392,0Z"/><path class="cls-4" d="M59.42609,135.101v7.15241c0,.66205.29139.90051.75482.90051.46371,0,.75513-.23846.75513-.90051V135.101h1.37738v7.05967c0,1.4833-.74164,2.33114-2.17231,2.33114-1.43034,0-2.172-.84784-2.172-2.33114V135.101Z"/><path class="cls-4" d="M64.76274,136.42551v2.84784h.56963c.543,0,.8742-.23844.8742-.98041v-.91367c0-.66241-.22528-.95376-.742-.95376Zm1.58952,7.947a2.84727,2.84727,0,0,1-.13253-1.13892v-1.457c0-.861-.2914-1.17874-.95377-1.17874h-.50322v3.77466h-1.457V135.101h2.19863c1.51,0,2.15917.70185,2.15917,2.13221v.72851a1.84855,1.84855,0,0,1-.95378,1.88092c.7285.30454.96693,1.00672.96693,1.97363v1.43039a2.72966,2.72966,0,0,0,.15886,1.12577Z"/><polygon class="cls-3" points="41.857 123.738 40.794 123.738 40.85 123.463 43.289 123.463 43.229 123.738 42.171 123.738 41.624 126.474 41.31 126.474 41.857 123.738"/><path class="cls-3" d="M45.335,124.21106,43.6835,126.7663c-.27973.42993-.49035.56305-.81736.56305a.73426.73426,0,0,1-.53762-.20221l.16335-.22321a.52883.52883,0,0,0,.4.16333c.19387,0,.34405-.0903.52057-.36557l.15916-.24084-.56335-2.24979h.30965l.4688,1.927,1.2341-1.927Z"/><path class="cls-3" d="M47.54044,125.16635a.66265.66265,0,0,0-.74435-.7055.98738.98738,0,0,0-.9762,1.06207.65954.65954,0,0,0,.744.70129A.98617.98617,0,0,0,47.54044,125.16635Zm.30934-.01733a1.27438,1.27438,0,0,1-1.28136,1.34594.84642.84642,0,0,1-.86044-.49481l-.25788,1.308h-.30575l.6154-3.09711H46.052l-.07329.36175a1.14521,1.14521,0,0,1,.882-.37847A.91425.91425,0,0,1,47.84978,125.149Z"/><path class="cls-3" d="M50.23572,125.16635a.66242.66242,0,0,0-.74405-.7055.99321.99321,0,0,0-.98071,1.06207.65956.65956,0,0,0,.74406.70129A.98938.98938,0,0,0,50.23572,125.16635Zm-2.03021.36975a1.28369,1.28369,0,0,1,1.3077-1.34179.92641.92641,0,0,1,1.028.95471,1.285,1.285,0,0,1-1.30771,1.34594A.93188.93188,0,0,1,48.20551,125.5361Z"/><path class="cls-3" d="M52.95277,125.11844c0-.41284-.27974-.65759-.74854-.65759a.95913.95913,0,0,0-.98489.99743c0,.41291.27524.65827.74824.65827A.962.962,0,0,0,52.95277,125.11844Zm.51608-.90741-.39581,1.98749a1.20517,1.20517,0,0,1-1.31608,1.13086,1.43491,1.43491,0,0,1-1.00642-.33985l.1807-.23193a1.18273,1.18273,0,0,0,.84727.301.88521.88521,0,0,0,.98039-.80841l.05206-.25006a1.1709,1.1709,0,0,1-.90351.3877.89642.89642,0,0,1-.99775-.91217A1.24969,1.24969,0,0,1,52.2,124.19431a.86693.86693,0,0,1,.88166.516l.09455-.49933Z"/><path class="cls-3" d="M55.46317,124.19431l-.05595.29644c-.03022,0-.05175-.00445-.08617-.00445a.89533.89533,0,0,0-.91607.83886l-.228,1.14856h-.30545l.44756-2.26269h.2923l-.07748.4129A1.023,1.023,0,0,1,55.46317,124.19431Z"/><path class="cls-3" d="M57.54845,125.16635a.66257.66257,0,0,0-.74407-.7055.993.993,0,0,0-.9807,1.06207.65943.65943,0,0,0,.74407.70129A.98955.98955,0,0,0,57.54845,125.16635Zm.50709-.95532-.45146,2.26269h-.2923l.073-.35717a1.15924,1.15924,0,0,1-.88167.37841.91237.91237,0,0,1-.9852-.95886,1.27251,1.27251,0,0,1,1.27779-1.34179.84958.84958,0,0,1,.8601.49l.09456-.47333Z"/><path class="cls-3" d="M60.6823,125.16635a.66255.66255,0,0,0-.744-.7055.98744.98744,0,0,0-.9765,1.06207.65954.65954,0,0,0,.744.70129A.98616.98616,0,0,0,60.6823,125.16635Zm.30966-.01733A1.27461,1.27461,0,0,1,59.7103,126.495a.84644.84644,0,0,1-.86045-.49481l-.25789,1.308h-.30545l.6151-3.09711h.2923l-.073.36175a1.14478,1.14478,0,0,1,.882-.37847A.91441.91441,0,0,1,60.992,125.149Z"/><path class="cls-3" d="M63.73056,124.92966a1.36761,1.36761,0,0,1-.026.2579l-.25787,1.28613H63.1409l.25847-1.29062a1.2343,1.2343,0,0,0,.02124-.20614c0-.32251-.19356-.50739-.58489-.50739a.8816.8816,0,0,0-.92056.79132l-.24083,1.21283h-.30546l.63664-3.19159H62.311l-.25369,1.2685a1.10336,1.10336,0,0,1,.86463-.35629A.70921.70921,0,0,1,63.73056,124.92966Z"/><path class="cls-3" d="M66.58925,124.21106l-1.65173,2.55524c-.27973.42993-.49035.56305-.81707.56305a.73327.73327,0,0,1-.53761-.20221l.16307-.22321a.52919.52919,0,0,0,.4.16333c.19386,0,.344-.0903.52055-.36557l.15947-.24084-.56363-2.24979h.30965l.4688,1.927,1.2344-1.927Z"/><path class="cls-6" d="M232.56206,150.77341c0,.04275-46.92032.07773-104.78628.07773-57.886,0-104.79644-.035-104.79644-.07773,0-.04315,46.91045-.07813,104.79644-.07813C185.64174,150.69528,232.56206,150.73026,232.56206,150.77341Z"/><path class="cls-7" d="M212.87085,135.50342s-7.93054-9.12757-10.92316-18.2551c-2.99267-9.12726-1.571-8.07983-1.571-8.07983s4.0401,8.86639,7.10718,13.149c3.06781,4.28271,8.52923,10.56723,8.52923,10.56723Z"/><path class="cls-7" d="M214.45154,110.59048a.46208.46208,0,0,0-.86023.29377,119.76851,119.76851,0,0,1,1.48755,15.6098c-.05323,6.33893.00207,8.78949.00207,8.78949h3.30054s-.58582-13.10449-1.33167-17.09967A27.43353,27.43353,0,0,0,214.45154,110.59048Z"/><path class="cls-7" d="M216.25067,134.21817a34.95628,34.95628,0,0,0,2.7168-9.85513c.272-2.33356-.21289-5.48688-.93433-9.6951a26.11953,26.11953,0,0,1-.41736-4.665.78749.78749,0,0,1,1.47864-.36951,20.94577,20.94577,0,0,1,1.84412,4.66147c.79907,4.15524,1.70459,6.23273,1.01208,10.17465a61.05772,61.05772,0,0,1-3.24939,10.0149Z"/><path class="cls-7" d="M219.22388,134.48444s8.70715-18.712,9.31054-21.488c.60352-2.776,2.65552-9.173,2.897-8.811s.60339,3.74146-.9657,7.60383c-1.56934,3.86239-8.26868,23.26538-8.26868,23.26538h-2.97314"/><path class="cls-6" d="M215.29718,133.647a1.77656,1.77656,0,0,1-.24377-.16748c-.15473-.117-.38929-.28186-.67469-.51486a30.89368,30.89368,0,0,1-2.34015-2.06583,39.26895,39.26895,0,0,1-6.31683-8.10769,53.12607,53.12607,0,0,1-4.312-9.34058c-.438-1.24273-.75757-2.26025-.96484-2.96686-.1062-.35247-.17951-.62918-.231-.81622a1.77963,1.77963,0,0,1-.06757-.28808,1.76538,1.76538,0,0,1,.10346.27734q.09832.30066.26422.80539c.22827.69946.56634,1.70917,1.01929,2.94391a56.47906,56.47906,0,0,0,4.3482,9.29,40.98283,40.98283,0,0,0,6.24951,8.1091c.93189.92623,1.72949,1.632,2.29346,2.10354.27765.24109.5047.41461.65161.54123A1.78725,1.78725,0,0,1,215.29718,133.647Z"/><path class="cls-6" d="M216.25,124.67029a3.14991,3.14991,0,0,1-.07806-.549c-.04157-.38742-.09546-.89215-.16071-1.50006-.13788-1.26581-.353-3.01151-.66052-4.92954-.30908-1.918-.65192-3.64365-.91791-4.88879-.1286-.59778-.23572-1.09381-.31775-1.47464a3.15,3.15,0,0,1-.09772-.54572,3.19241,3.19241,0,0,1,.168.52835c.0976.34314.22651.84278.3758,1.463.29919,1.23981.66327,2.96573.9732,4.88852.30823,1.92224.50324,3.67511.60791,4.94629.05268.63574.08686,1.15064.10175,1.50727A3.19965,3.19965,0,0,1,216.25,124.67029Z"/><path class="cls-6" d="M218.28961,109.48685a1.32913,1.32913,0,0,1,.10266.23788c.06635.17618.15277.40686.26105.695.1153.30154.2478.67343.37378,1.1141.12946.43949.297.93463.42334,1.49826q.1031.42142.21564.87992c.07306.30633.12475.63034.19146.963.14209.66446.23011,1.38486.33582,2.14093a31.966,31.966,0,0,1-.35461,9.8916c-.15949.74646-.29865,1.4588-.48792,2.11161-.09039.327-.16553.64648-.26031.94686q-.145.44921-.278.86225c-.16632.55282-.36883,1.03512-.52948,1.46417-.15741.43045-.316.7919-.45245,1.08417q-.193.41917-.31018.67468a1.36414,1.36414,0,0,1-.11945.22974,1.34491,1.34491,0,0,1,.08533-.24533c.07037-.17411.16247-.40241.27771-.6872.12585-.29617.27429-.66028.42175-1.09317.15082-.43112.34406-.91431.50147-1.46777q.12744-.41241.26568-.86191c.09082-.30011.16181-.619.2486-.94544.18182-.65094.31506-1.36093.46887-2.10467a33.03245,33.03245,0,0,0,.35254-9.83987c-.10053-.75245-.18207-1.47016-.31708-2.13254-.06311-.33179-.1109-.65488-.18-.96067q-.106-.45771-.20319-.879c-.11719-.563-.27551-1.05908-.39514-1.49976-.11609-.44223-.23822-.81619-.34253-1.12045-.09454-.2926-.16992-.5271-.22766-.70575A1.34846,1.34846,0,0,1,218.28961,109.48685Z"/><path class="cls-6" d="M231.33148,104.56149a.28443.28443,0,0,1-.00677.08377l-.03864.24323c-.03827.213-.08649.52893-.17175.93133-.16815.80506-.44812,1.96347-.88373,3.36872-.43384,1.40582-1.02856,3.054-1.73407,4.86456-.70245,1.81152-1.51886,3.78519-2.29169,5.88632-.785,2.09751-1.38964,4.14478-1.95782,6.00263-.563,1.8591-1.09735,3.52789-1.61371,4.90561a31.24374,31.24374,0,0,1-1.37476,3.2c-.178.37069-.33862.64712-.44213.83737l-.12177.21393a.29327.29327,0,0,1-.047.0697.28345.28345,0,0,1,.03022-.07864l.10565-.22266c.09247-.19534.24231-.47653.40985-.8511.35065-.74164.82275-1.83216,1.31665-3.21378.499-1.37979,1.019-3.04858,1.57275-4.91006.5589-1.85938,1.16028-3.91382,1.94739-6.01734.7749-2.10614,1.59638-4.07806,2.307-5.88446.71356-1.80524,1.31964-3.44473,1.76812-4.84186.45057-1.39627.74915-2.546.93848-3.34448.09577-.39911.15527-.71237.20557-.92267l.05652-.23962A.295.295,0,0,1,231.33148,104.56149Z"/><path class="cls-7" d="M204.48193,100.42841a.7494.7494,0,0,0-1.23407.7644,21.36864,21.36864,0,0,0,1.09412,2.81342c1.1969,2.54364,4.71313,11.67114,6.35919,16.68383,1.64575,5.0127,3.96521,14.36463,3.96521,14.36463l3.51483-.57019s-3.21551-15.36566-6.35785-20.90192C209.29865,109.13412,206.77386,102.70541,204.48193,100.42841Z"/><path class="cls-6" d="M211.66309,123.82513a2.17483,2.17483,0,0,1,.181.42127c.10406.27551.24554.678.40533,1.18.32367,1.00281.71979,2.40326,1.1189,3.959.39789,1.55658.72973,2.97232.96093,3.99877.10535.48584.19391.89362.26423,1.2179a2.16242,2.16242,0,0,1,.07269.45267,2.20431,2.20431,0,0,1-.143-.43561c-.08551-.32043-.19354-.72366-.322-1.20386-.26861-1.05728-.62225-2.447-1.013-3.98382-.3988-1.55393-.77392-2.95676-1.06476-3.96677-.13873-.47659-.25512-.8772-.3479-1.19522A2.17069,2.17069,0,0,1,211.66309,123.82513Z"/><path class="cls-6" d="M216.43188,134.76926a.38059.38059,0,0,1-.01971-.09366l-.03973-.27674c-.03717-.24322-.06977-.60372-.14423-1.06445-.129-.92325-.35944-2.254-.73688-3.877a55.529,55.529,0,0,0-1.6452-5.61521c-.7207-2.08224-1.62506-4.33233-2.64972-6.66086-2.068-4.65158-4.13354-8.77749-5.49084-11.82818-.68634-1.52222-1.21735-2.76441-1.56714-3.63019-.17853-.43112-.306-.77072-.39514-.9996-.0398-.10675-.07178-.193-.09748-.262a.35682.35682,0,0,1-.02758-.09185.36254.36254,0,0,1,.04486.08468c.03051.06729.06823.15106.11486.25488.10321.23844.24591.56812.42725.98578.37012.85654.91907,2.08973,1.61969,3.60358,1.387,3.03421,3.47046,7.14941,5.54169,11.80783,1.02612,2.33209,1.92755,4.58936,2.64166,6.68033a52.839,52.839,0,0,1,1.61139,5.64154,39.36545,39.36545,0,0,1,.68036,3.89676c.06341.46283.08465.82574.10943,1.07016.00867.11337.01587.20523.02161.27881A.35131.35131,0,0,1,216.43188,134.76926Z"/><path class="cls-6" d="M218.18121,134.48444a3.68,3.68,0,0,1-.11853-.59058c-.06994-.41284-.16211-.95734-.27368-1.61584-.24231-1.36182-.61181-3.23737-1.1438-5.27894-.52624-2.0437-1.1195-3.86148-1.57544-5.16674-.22412-.62918-.40954-1.14975-.5498-1.54377a3.75681,3.75681,0,0,1-.187-.57263,3.69377,3.69377,0,0,1,.25451.546c.15149.35694.36292.87628.60584,1.52548a51.13512,51.13512,0,0,1,1.63208,5.165,53.78879,53.78879,0,0,1,1.0935,5.30411c.09986.686.17652,1.24155.21558,1.6272A3.74281,3.74281,0,0,1,218.18121,134.48444Z"/><rect class="cls-8" x="211.67603" y="133.97951" width="13.71935" height="16.71542"/><rect class="cls-9" x="211.67603" y="133.97951" width="13.71935" height="16.71542"/><rect class="cls-8" x="208.84711" y="133.97951" width="12.1718" height="16.71542"/><path class="cls-7" d="M42.663,128.168a7.2337,7.2337,0,0,0-7.85037.06488,8.07722,8.07722,0,0,0-3.16049,6.88946c.09514,2.63273,1.37142,5.84974,3.75675,7.23282l7.00161-.02752a9.40592,9.40592,0,0,0,3.85278-7.06534A8.17263,8.17263,0,0,0,42.663,128.168Z"/><path class="cls-6" d="M39.21556,142.60947a3.15655,3.15655,0,0,1-.044-.60257c-.01227-.43051-.02782-.98191-.04667-1.64215-.03531-1.38636-.09005-3.30115-.18251-5.41452-.09333-2.11393-.207-4.02628-.29348-5.41056-.03949-.65942-.07241-1.2099-.09783-1.6398a3.111,3.111,0,0,1-.009-.60373,3.13954,3.13954,0,0,1,.09545.59626c.04756.38531.1056.94421.169,1.63528.12655,1.38251.26568,3.29571.359,5.41269.09275,2.11636.12236,4.03436.11728,5.42258-.00209.69406-.01077,1.25592-.02453,1.64395A3.11049,3.11049,0,0,1,39.21556,142.60947Z"/><path class="cls-6" d="M32.35786,134.52609c-.00509.06131-.38564.08048-.84966.04218-.46432-.038-.8365-.11878-.83141-.18042.00509-.06134.38534-.08048.84966-.04218C31.99047,134.38367,32.363,134.46448,32.35786,134.52609Z"/><path class="cls-6" d="M32.488,132.16373c-.02483.05655-.353-.0344-.73268-.20285-.37995-.1684-.66746-.35062-.64233-.40714.02513-.05627.353.03439.733.20282C32.22559,131.925,32.51309,132.10721,32.488,132.16373Z"/><path class="cls-6" d="M33.70356,130.41c-.03172.05143-.4009-.12237-.78414-.44073-.38444-.31741-.62408-.64713-.5795-.68811.04577-.043.34973.20886.7219.51581C33.4328,130.1051,33.73737,130.35669,33.70356,130.41Z"/><path class="cls-6" d="M34.92633,128.75583c-.05655.02481-.23336-.25131-.39492-.61716s-.24681-.68246-.19027-.70758c.05624-.02484.23306.25128.39461.61719C34.8976,128.41418,34.98287,128.73071,34.92633,128.75583Z"/><path class="cls-6" d="M36.844,127.58185c-.05505.02572-.24534-.26834-.37158-.67612-.12746-.40747-.13732-.75751-.07748-.76767.06162-.0108.16813.30933.29078.70126C36.8069,127.23154,36.90114,127.55554,36.844,127.58185Z"/><path class="cls-6" d="M40.04457,126.25861c.058.02038.02244.27169-.07957.56066-.102.28931-.23187.50712-.29021.48649-.058-.02036-.02244-.27164.07959-.56064C39.85639,126.45581,39.98624,126.238,40.04457,126.25861Z"/><path class="cls-6" d="M42.41824,127.27728c.04219.04517-.1101.25431-.33986.46671-.22977.21274-.45.34823-.49185.30279-.04217-.04513.1101-.254.33987-.46667C42.15617,127.36765,42.37636,127.23187,42.41824,127.27728Z"/><path class="cls-6" d="M44.5083,128.62659c.03471.05114-.15107.23724-.41464.41583s-.50562.28213-.54.231c-.0347-.05115.15079-.23725.41467-.41584C44.23187,128.67892,44.4739,128.57544,44.5083,128.62659Z"/><path class="cls-6" d="M45.9922,130.63913c.02423.05655-.26835.23578-.6537.4003-.38533.16424-.71712.25131-.74135.19446-.02423-.05652.26836-.23578.6537-.4003C45.63618,130.66937,45.968,130.58231,45.9922,130.63913Z"/><path class="cls-6" d="M46.57655,132.83362c.00747.061-.2902.14837-.66507.19476-.37487.04663-.68482.03443-.6923-.02661-.00778-.06134.28991-.14868.66477-.19507S46.56876,132.77228,46.57655,132.83362Z"/><path class="cls-6" d="M46.88046,135.53485c-.02454.05682-.34166-.02667-.70846-.1861s-.64411-.3345-.61929-.391c.02454-.05685.34167.02665.70845.18607C46.62794,135.30328,46.90529,135.4783,46.88046,135.53485Z"/><path class="cls-6" d="M46.61274,137.85318c-.01944.05621-.42064-.03922-.83949-.31476-.42063-.27344-.669-.60223-.62527-.64291.04548-.04456.35.198.74734.456C46.29083,137.612,46.63578,137.79364,46.61274,137.85318Z"/><path class="cls-6" d="M45.40586,139.96359c-.0368.04785-.356-.13977-.66238-.47061-.30754-.33-.47089-.66238-.42063-.69562.05206-.03524.2899.22773.58429.54337C45.20033,139.65787,45.44505,139.91425,45.40586,139.96359Z"/><path class="cls-6" d="M33.945,140.21124c.02872.05478-.30666.28574-.74854.51584-.44218.23035-.82363.37244-.852.31769s.30666-.28571.74883-.51578C33.5351,140.299,33.91654,140.15652,33.945,140.21124Z"/><path class="cls-6" d="M32.8985,138.30255c.02543.05621-.24353.233-.60075.39484-.35692.16186-.66716.2475-.69259.19153-.02543-.05628.24323-.2331.60044-.39521C32.56282,138.33185,32.87276,138.24628,32.8985,138.30255Z"/><path class="cls-6" d="M32.12868,136.61191c.00868.06106-.32221.15854-.739.2178-.417.05893-.762.05747-.77038-.0036-.00868-.061.32191-.1586.739-.2178C31.77505,136.54907,32.12,136.55087,32.12868,136.61191Z"/><path class="cls-6" d="M34.65285,135.68c.01825.05744-.30456.20825-.73507.25611-.43051.04962-.77875-.02546-.77367-.08558.00419-.06317.34106-.08917.74854-.13647C34.30043,135.66922,34.63491,135.61954,34.65285,135.68Z"/><path class="cls-6" d="M36.74979,133.59348c.01825.05773-.23874.18789-.58519.22113-.34645.03469-.62378-.04248-.6172-.10263.006-.06287.27314-.08707.59536-.11969C36.46468,133.56149,36.73183,133.53336,36.74979,133.59348Z"/><path class="cls-6" d="M37.15037,131.92233c-.02.05835-.29828.01526-.62109-.09631s-.56813-.24954-.54809-.30786c.02034-.05835.29828-.01529.6211.09634C36.92509,131.72607,37.17072,131.864,37.15037,131.92233Z"/><path class="cls-6" d="M37.91924,130.232c-.04309.04279-.23427-.08319-.37039-.32012-.137-.23633-.15018-.46491-.09185-.48078.06044-.01733.16335.15949.28573.36917C37.863,130.01089,37.96441,130.18863,37.91924,130.232Z"/><path class="cls-6" d="M36.99236,137.152c.01467.06012-.22618.17047-.53792.24655a2.06574,2.06574,0,0,1-.45175.06671l-.04429-.13043c.08078-.01471.13284-.01139.14332.01251s-.02245.06461-.08767.114l-.04428-.13043a2.06423,2.06423,0,0,1,.43171-.14929C36.71323,137.10522,36.9777,137.092,36.99236,137.152Z"/><path class="cls-6" d="M37.42438,140.115c.02272.05771-.28453.23212-.68572.38977-.4012.15772-.745.23877-.76769.18131-.02243-.05741.28452-.23185.686-.3895C37.05817,140.13885,37.40193,140.05777,37.42438,140.115Z"/><path class="cls-6" d="M35.05587,138.79886c.01974.05835-.18489.181-.45744.27374s-.50949.12027-.52954.06195c-.01975-.05835.18489-.181.45744-.27374C34.79888,138.76837,35.03582,138.74054,35.05587,138.79886Z"/><path class="cls-6" d="M35.23684,132.76721c-.01407.05921-.37069.02393-.78265-.12265-.41226-.14541-.71144-.34256-.68511-.39734.02663-.05682.35931.04547.7599.18668C34.92868,132.57632,35.25179,132.70645,35.23684,132.76721Z"/><path class="cls-6" d="M40.969,132.11166c.03381.05143-.16694.24384-.44846.4296-.28153.18552-.53733.29437-.57143.24292-.0341-.05176.16664-.24377.44846-.4296C40.67914,132.16879,40.93494,132.05988,40.969,132.11166Z"/><path class="cls-6" d="M41.28049,135.08731c.01256.06012-.19837.15527-.47121.21182s-.5041.05356-.51668-.00686.19866-.15528.4715-.21183C41.03667,135.02356,41.26793,135.02686,41.28049,135.08731Z"/><path class="cls-6" d="M41.64278,138.43292c-.026.05628-.32969-.02929-.67853-.19082-.34885-.16159-.61032-.33783-.5846-.394.026-.056.3297.02961.67854.19117C41.407,138.20074,41.66881,138.377,41.64278,138.43292Z"/><path class="cls-6" d="M40.87633,141.69064c-.04787.03922-.245-.122-.44069-.36023-.19565-.23843-.31563-.46307-.26775-.50225.04756-.03922.24472.122.44039.36016S40.9239,141.65149,40.87633,141.69064Z"/><path class="cls-6" d="M40.71954,129.92053c.0377.04758-.09244.21182-.31593.3234-.22318.11248-.43261.1188-.44846.06015-.01675-.06043.14689-.158.34825-.26C40.50533,129.94357,40.68125,129.87085,40.71954,129.92053Z"/><path class="cls-6" d="M43.52848,132.92184c.02034.05686-.23965.19989-.59507.24863-.35541.05026-.64442-.01675-.64024-.07687.0033-.06284.27824-.09751.60944-.1445C43.23409,132.90424,43.50814,132.86234,43.52848,132.92184Z"/><path class="cls-6" d="M42.96874,130.22778c.02722.05387-.23066.23816-.59775.35483-.3665.11789-.68362.11759-.69259.05777-.00988-.06219.27613-.15854.62467-.27078C42.6519,130.25888,42.94092,130.1713,42.96874,130.22778Z"/><path class="cls-6" d="M44.14153,137.09451a2.70375,2.70375,0,0,1-1.886-.342,2.99415,2.99415,0,0,1,.95167.12387A2.998,2.998,0,0,1,44.14153,137.09451Z"/><path class="cls-6" d="M43.0977,141.00827c-.03679.04782-.362-.14334-.686-.4697-.32521-.32583-.51489-.65164-.46673-.68841.04937-.03888.31055.2157.625.5307C42.8832,140.69647,43.1366,140.95892,43.0977,141.00827Z"/><path class="cls-6" d="M38.508,127.04276a10.129,10.129,0,0,0-1.9593,1.54849,9.56246,9.56246,0,0,0-2.44068,5.39474,12.11261,12.11261,0,0,0,.1475,3.30561,25.19558,25.19558,0,0,0,.619,2.65277c.21451.74673.41136,1.34512.5436,1.75973a4.10925,4.10925,0,0,1,.18818.65106,3.75593,3.75593,0,0,1-.27015-.622c-.15767-.40658-.37786-.99838-.613-1.74331a22.41509,22.41509,0,0,1-.67075-2.663,11.86639,11.86639,0,0,1-.16635-3.36688,9.40623,9.40623,0,0,1,2.549-5.47851,7.00934,7.00934,0,0,1,1.46177-1.14225,4.3497,4.3497,0,0,1,.44727-.23245A.52387.52387,0,0,1,38.508,127.04276Z"/><path class="cls-6" d="M41.55609,142.49878a24.571,24.571,0,0,0,1.00464-2.4006,13.58442,13.58442,0,0,0,.60044-6.17228,11.61242,11.61242,0,0,0-.95167-3.29156,7.7627,7.7627,0,0,0-1.623-2.26026,5.91113,5.91113,0,0,0-1.59012-1.00521c-.41346-.17237-.66118-.21274-.6576-.23157a.54676.54676,0,0,1,.1828.014,3.37343,3.37343,0,0,1,.50621.13644,5.502,5.502,0,0,1,1.66312.96726,7.648,7.648,0,0,1,1.7044,2.29046,11.434,11.434,0,0,1,.98728,3.34931A13.12334,13.12334,0,0,1,42.71,140.1499c-.12625.386-.2887.71683-.40986,1.0148-.14392.28846-.26269.53885-.37188.73722A4.235,4.235,0,0,1,41.55609,142.49878Z"/><polygon class="cls-8" points="32.898 141.97 45.219 141.97 45.295 144.436 32.898 144.436 32.898 141.97"/><polygon class="cls-8" points="33.945 143.203 34.653 150.731 43.66 150.731 44.383 143.286 33.945 143.203"/><path class="cls-6" d="M45.29453,144.46585c0,.06165-2.77425.11157-6.19623.11157-3.42287,0-6.19683-.04992-6.19683-.11157,0-.06195,2.774-.11191,6.19683-.11191C42.52028,144.35394,45.29453,144.4039,45.29453,144.46585Z"/><path class="cls-6" d="M44.04279,146.7587a1.86582,1.86582,0,0,1-.26387.4703,6.82377,6.82377,0,0,1-.95556,1.12851l-.05685.05414-.05595-.05865a17.72649,17.72649,0,0,0-2.41434-2.11365l.13612-.006c-.34405.30188-.70246.61661-1.07045.93942-.4377.38083-.86162.75-1.26552,1.10187l-.07.061-.0703-.05893c-.76709-.645-1.46507-1.23172-2.05714-1.72952l.11968-.01318c-.42483.51877-.78175.95407-1.06417,1.2987a3.01591,3.01591,0,0,1-.41795.45743,3.03279,3.03279,0,0,1,.34405-.51514c.26687-.35693.604-.8078,1.00553-1.34451l.05146-.06882.06851.05564c.601.48736,1.30919,1.06149,2.08795,1.69247l-.14.00208c.40239-.35364.82483-.72458,1.26073-1.10727.36919-.32157.7288-.63513,1.07374-.93579l.06612-.05744.07031.05146a15.75991,15.75991,0,0,1,2.403,2.18216l-.11278-.00446A12.59943,12.59943,0,0,0,44.04279,146.7587Z"/><path class="cls-10" d="M67.09845,143.86667V70.66855a5,5,0,0,1,5-5H187.91023a5,5,0,0,1,5,5v73.19812a5,5,0,0,1-5,5H72.09845a5,5,0,0,1-5-5Z"/><path class="cls-10" d="M62.97974,143.4935H199.28726a7.27976,7.27976,0,0,1-7.27974,7.27974H70.25947a7.27969,7.27969,0,0,1-7.27973-7.27974Z"/><polygon class="cls-6" points="117.602 142.713 119.293 145.404 143.094 145.404 144.665 142.713 117.602 142.713"/><path class="cls-6" d="M191.82928,142.71341c0,.04517-27.92417.08169-62.36245.08169-34.45018,0-62.36843-.03652-62.36843-.08169,0-.045,27.91825-.08148,62.36843-.08148C163.90511,142.63193,191.82928,142.66846,191.82928,142.71341Z"/><path class="cls-4" d="M70.70129,137.24107V73.7252a3.27252,3.27252,0,0,1,3.2725-3.2725H185.54172a3.27346,3.27346,0,0,1,3.2734,3.2734v63.51455a3.273,3.273,0,0,1-3.2729,3.2729H73.97378a3.27248,3.27248,0,0,1-3.27249-3.27248Z"/><polygon class="cls-11" points="188.689 140.616 70.575 140.616 70.701 75.689 188.689 75.689 188.689 140.616"/><path class="cls-6" d="M80.38849,73.15836a.94321.94321,0,1,1-.94333-.94307A.94326.94326,0,0,1,80.38849,73.15836Z"/><path class="cls-6" d="M74.6713,73.15836a.94333.94333,0,1,1-.94333-.94307A.94326.94326,0,0,1,74.6713,73.15836Z"/><path class="cls-6" d="M77.41559,73.15836a.94334.94334,0,1,1-.94335-.94307A.94328.94328,0,0,1,77.41559,73.15836Z"/><rect class="cls-6" x="70.57489" y="134.34641" width="118.24026" height="6.26969"/><path class="cls-11" d="M75.042,138.20694v.20071h-.94145v-.15872l.50723-.48184c.12419-.11847.1461-.19342.1461-.26431,0-.11689-.08037-.18451-.23752-.18451a.36067.36067,0,0,0-.29921.13308l-.16584-.12765a.59032.59032,0,0,1,.48533-.21185c.27728,0,.45612.14038.45612.36688a.51115.51115,0,0,1-.21155.40335l-.34116.32486Z"/><path class="cls-11" d="M75.17026,138.26889a.14961.14961,0,1,1,.29921,0,.14962.14962,0,1,1-.29921,0Zm0-.69528a.14962.14962,0,1,1,.29921,0,.14962.14962,0,1,1-.29921,0Z"/><polygon class="cls-11" points="76.064 137.13 76.064 138.408 75.827 138.408 75.827 137.329 75.557 137.329 75.557 137.13 76.064 137.13"/><polygon class="cls-11" points="77.456 138.118 77.229 138.118 77.229 138.408 76.999 138.408 76.999 138.118 76.299 138.118 76.299 137.953 76.928 137.13 77.182 137.13 76.589 137.917 77.007 137.917 77.007 137.659 77.229 137.659 77.229 137.917 77.456 137.917 77.456 138.118"/><rect class="cls-11" x="79.54236" y="137.60678" width="96.91443" height="0.44186"/><rect class="cls-7" x="79.46991" y="137.13095" width="30.28582" height="1.1783"/><path class="cls-7" d="M110.73343,137.82791a1.47454,1.47454,0,1,1-1.4744-1.47439A1.47443,1.47443,0,0,1,110.73343,137.82791Z"/><path class="cls-11" d="M178.66772,137.8244c0-.13309-.1004-.21667-.25543-.21667a.23222.23222,0,0,0-.259.21884c0,.12015.09479.21506.26446.21506A.2216.2216,0,0,0,178.66772,137.8244Zm.23-.01083a.42578.42578,0,0,1-.46723.41446c-.34814,0-.553-.22425-.553-.6352a.605.605,0,0,1,.626-.67877.64092.64092,0,0,1,.33575.082l-.0874.17884a.43388.43388,0,0,0-.24273-.062c-.241,0-.39252.14988-.39252.43992v.00192a.436.436,0,0,1,.34112-.13315A.399.399,0,0,1,178.89771,137.81357Z"/><path class="cls-11" d="M179.01318,138.07114a.14949.14949,0,1,1,.29895,0,.14948.14948,0,1,1-.29895,0Zm0-.69525a.14949.14949,0,1,1,.29895,0,.14948.14948,0,1,1-.29895,0Z"/><path class="cls-11" d="M180.29333,137.5712c0-.30844-.12-.45072-.29565-.45072-.17316,0-.29358.14228-.29358.45072,0,.30838.12042.45044.29358.45044C180.17328,138.02164,180.29333,137.87958,180.29333,137.5712Zm-.82836,0c0-.41989.23-.65714.53271-.65714.30487,0,.53479.23725.53479.65714,0,.41931-.22992.65683-.53479.65683C179.695,138.228,179.465,137.99051,179.465,137.5712Z"/><path class="cls-11" d="M181.52008,137.5712c0-.30844-.12036-.45072-.29571-.45072-.17341,0-.29371.14228-.29371.45072,0,.30838.1203.45044.29371.45044C181.39972,138.02164,181.52008,137.87958,181.52008,137.5712Zm-.82855,0c0-.41989.22992-.65714.53284-.65714.30493,0,.53466.23725.53466.65714,0,.41931-.22973.65683-.53466.65683C180.92145,138.228,180.69153,137.99051,180.69153,137.5712Z"/><polygon class="cls-11" points="183.823 137.492 183.381 137.492 183.381 136.218 184.652 136.218 184.652 136.66 183.823 136.66 183.823 137.492"/><polygon class="cls-11" points="184.653 139.154 183.38 139.154 183.38 137.883 183.822 137.883 183.822 138.712 184.653 138.712 184.653 139.154"/><polygon class="cls-11" points="186.682 139.154 185.411 139.154 185.411 138.712 186.24 138.712 186.24 137.88 186.682 137.88 186.682 139.154"/><polygon class="cls-11" points="186.683 137.489 186.241 137.489 186.241 136.66 185.409 136.66 185.409 136.218 186.683 136.218 186.683 137.489"/><polygon class="cls-4" points="86.772 79.549 79.81 79.549 76.329 85.578 79.81 91.607 86.772 91.607 90.253 85.578 86.772 79.549"/><path class="cls-6" d="M80.37848,86.7585a6.21472,6.21472,0,0,1-.85167-1.09755,2.08917,2.08917,0,0,1-.287-1.33534c.04408-.26782.15771-.52294.17585-.79373.02486-.37252-.13177-.76183.00052-1.11107.20642-.54593.94118-.63033,1.38674-1.00746.34683-.29351.51588-.77048.89737-1.01748a1.68634,1.68634,0,0,1,1.15487-.15527,4.364,4.364,0,0,0,1.18251.102,7.79122,7.79122,0,0,0,.81943-.21941,1.11907,1.11907,0,0,1,.82622.05628.53757.53757,0,0,1,.22182.72285.89919.89919,0,0,1,1.16.6317,1.36621,1.36621,0,0,1-.51131,1.33289,2.99528,2.99528,0,0,1-1.38.563,5.77493,5.77493,0,0,1-4.11692-.64142"/><path class="cls-12" d="M86.83311,88.24637c-.04707-.863-.28839-2.632-.52565-4.23055a3.33541,3.33541,0,0,0-3.52177-2.83921l-.17206.01161c-1.85071.23265-2.6869,1.93457-2.40312,3.77823l.54323,6.641h4.51678s-.10687-1.16517-.1074-1.17656A2.14823,2.14823,0,0,0,86.83311,88.24637Z"/><path class="cls-13" d="M85.1642,90.40494a4.16283,4.16283,0,0,1-2.37228-.50589,2.20508,2.20508,0,0,0,2.40745.96821Z"/><path class="cls-6" d="M85.73253,85.54762a.25545.25545,0,0,1-.22859.27378.24443.24443,0,0,1-.27838-.21236.25587.25587,0,0,1,.22862-.27379A.24456.24456,0,0,1,85.73253,85.54762Z"/><path class="cls-6" d="M85.982,84.914c-.02948.03543-.2321-.09466-.5067-.07547-.27432.01514-.46614.16959-.49806.13822-.01569-.01407.01245-.07627.09578-.14582a.70008.70008,0,0,1,.39631-.15176.67172.67172,0,0,1,.4058.10171C85.96385,84.83987,85.99658,84.898,85.982,84.914Z"/><path class="cls-6" d="M83.1404,85.73315a.25541.25541,0,0,1-.22889.27353.24427.24427,0,0,1-.2781-.21237.25559.25559,0,0,1,.22835-.27377A.24472.24472,0,0,1,83.1404,85.73315Z"/><path class="cls-6" d="M83.2878,85.14561c-.02922.03544-.2324-.09442-.50643-.07548-.27432.01514-.46641.16989-.49832.13824-.01569-.014.01218-.076.096-.14582a.70019.70019,0,0,1,.39608-.15177.67286.67286,0,0,1,.40605.10173C83.26967,85.07147,83.3024,85.1299,83.2878,85.14561Z"/><path class="cls-6" d="M84.42,87.11423a1.83406,1.83406,0,0,1,.44043-.11009c.06949-.01192.135-.03032.14365-.079a.35866.35866,0,0,0-.06088-.20453q-.11568-.248-.24295-.51967a9.18838,9.18838,0,0,1-.55863-1.36484,9.23192,9.23192,0,0,1,.66712,1.31668q.123.2739.23455.52347a.40441.40441,0,0,1,.05463.27243.17448.17448,0,0,1-.10821.11011.47149.47149,0,0,1-.11792.02459A1.79782,1.79782,0,0,1,84.42,87.11423Z"/><path class="cls-6" d="M83.287,84.06561c-.02219.07628-.29868.05924-.61791.11956-.32057.05383-.57406.16557-.62111.10147-.02113-.0306.01946-.1039.11957-.18317a1.09385,1.09385,0,0,1,.94386-.16853C83.23264,83.97469,83.29622,84.02934,83.287,84.06561Z"/><path class="cls-6" d="M85.82806,84.12646c-.04408.06572-.23753.01355-.465.02572-.22807.0043-.41717.07006-.46585.00784-.02138-.03031.00461-.095.08493-.15962a.67533.67533,0,0,1,.74989-.02677C85.81642,84.03233,85.84727,84.09483,85.82806,84.12646Z"/><path class="cls-12" d="M80.44482,86.27879c-.03112-.01107-1.2512-.2808-1.13057.93738.12067,1.21848,1.44086.82135,1.4395.78618S80.44482,86.27879,80.44482,86.27879Z"/><path class="cls-13" d="M80.214,87.60226c-.00595-.00326-.02.017-.05411.037a.21262.21262,0,0,1-.15825.019.52782.52782,0,0,1-.28975-.4472.70222.70222,0,0,1,.02948-.30975.24542.24542,0,0,1,.14339-.17853.10835.10835,0,0,1,.13094.04568c.01976.03247.01434.05765.0211.059.0038.00272.02408-.023.00922-.07223a.13421.13421,0,0,0-.05547-.07169.16163.16163,0,0,0-.12041-.01947.2996.2996,0,0,0-.20288.211.72358.72358,0,0,0-.04.34683.55407.55407,0,0,0,.3617.49533.22855.22855,0,0,0,.191-.05139C80.21455,87.632,80.21834,87.60413,80.214,87.60226Z"/><path class="cls-6" d="M86.21736,82.34743c-.08386.48509-1.06724.92929-1.8829.9055a3.609,3.609,0,0,1-1.66919-.66013c-.34572-.16774-.34572-.16774-.8151-.09141-.37928.06167-.57624.50941-.78913.82918a4.85155,4.85155,0,0,1,.06979,2.87086.48535.48535,0,0,1-.12335.29111.38873.38873,0,0,1-.49373-.075,1.51077,1.51077,0,0,1-.38443-.774,5.03317,5.03317,0,0,1-.12065-1.98109A3.42578,3.42578,0,0,1,80.833,81.874a3.24551,3.24551,0,0,1,2.21457-1.01068,3.98686,3.98686,0,0,1,2.36226.67061,2.33692,2.33692,0,0,1,.80755.81348"/><path class="cls-13" d="M84.59958,87.73132q-.31085-.14447-.62114-.28949a.20641.20641,0,0,0-.11281-.02841.179.179,0,0,0-.10741.07279.57759.57759,0,0,0-.069.63467.48528.48528,0,0,0,.58273.21426.662.662,0,0,0,.34439-.58435Z"/><path class="cls-6" d="M84.29144,88.379c.00974.01218-.12957.09984-.36386.03275a.571.571,0,0,1-.3222-.2616.59222.59222,0,0,1-.04085-.50912.61569.61569,0,0,1,.15041-.22565.57765.57765,0,0,1,.10553-.07927.17984.17984,0,0,1,.16365-.00948c.142.079.23753.14637.333.20751.18179.12065.28947.20372.27972.22049s-.13525-.03571-.33-.13446c-.11307-.05927-.22265-.11634-.33138-.17313-.02573-.007-.02327-.007-.0479.00594a.46274.46274,0,0,0-.07683.06169.5079.5079,0,0,0-.11442.17665.48275.48275,0,0,0,.023.39661.50222.50222,0,0,0,.24293.23048A1.32081,1.32081,0,0,0,84.29144,88.379Z"/><path class="cls-6" d="M84.09552,85.57843c-.01376.00055-.01215-.11334-.06625-.30408a1.27074,1.27074,0,0,0-.4664-.66765,1.21164,1.21164,0,1,0,0,1.94321,1.27076,1.27076,0,0,0,.4664-.66768c.0541-.19072.05249-.30461.06625-.3038.00488-.00026.00812.02786.01.082a.9434.9434,0,0,1-.02328.23507,1.26583,1.26583,0,0,1-.45911.73368,1.31752,1.31752,0,0,1-1.25549.20507,1.33263,1.33263,0,0,1,0-2.51187,1.31746,1.31746,0,0,1,1.25549.205,1.26623,1.26623,0,0,1,.45911.73341.94642.94642,0,0,1,.02328.23537C84.10364,85.55031,84.1004,85.57843,84.09552,85.57843Z"/><path class="cls-6" d="M87.1339,85.45883c-.01352.00057-.01218-.11035-.0652-.29593a1.23669,1.23669,0,0,0-.4545-.64984,1.17925,1.17925,0,1,0,0,1.89156,1.23665,1.23665,0,0,0,.4545-.6498c.053-.18561.05168-.29652.0652-.296.00488,0,.00839.02735.01027.07981a.91768.91768,0,0,1-.02245.2297,1.23213,1.23213,0,0,1-.44719.71555,1.285,1.285,0,0,1-1.2247.20047,1.3001,1.3001,0,0,1,0-2.45075,1.28513,1.28513,0,0,1,1.2247.2002,1.23272,1.23272,0,0,1,.44719.71585.91522.91522,0,0,1,.02245.22938C87.14229,85.43179,87.13878,85.45883,87.1339,85.45883Z"/><path class="cls-6" d="M84.65446,85.17827c-.02786.02572-.14825-.05194-.31083-.04677-.16286,0-.27973.0825-.30867.05814-.03734-.01973.07628-.19532.30623-.1991C84.5706,84.9873,84.69044,85.15691,84.65446,85.17827Z"/><path class="cls-6" d="M81.62778,85.39743c.02328.0314-.21317.247-.5278.48183a1.84924,1.84924,0,0,1-.61194.369c-.02324-.03112.2129-.24674.5278-.48183A1.86027,1.86027,0,0,1,81.62778,85.39743Z"/><path class="cls-6" d="M106.73743,85.517c0,.03869-3.12976.07034-6.98944.07034-3.861,0-6.99-.03165-6.99-.07034,0-.039,3.129-.0706,6.99-.0706C103.60767,85.4464,106.73743,85.478,106.73743,85.517Z"/><path class="cls-6" d="M100.27252,86.9798c0,.03894-1.66186.0706-3.71141.0706-2.05034,0-3.71167-.03166-3.71167-.0706s1.66133-.07035,3.71167-.07035C98.61066,86.90945,100.27252,86.94083,100.27252,86.9798Z"/><path class="cls-7" d="M148.61771,96.32605a10.65806,10.65806,0,0,1,5.02026,6.48462c1.30478,4.6745,5.30106,16.84811,5.30106,16.84811s2.28353,2.6864,2.52807,4.67588-.24454,6.80108-.97876,7.69818a2.067,2.067,0,0,1-1.78067.74829l-9.61136-.91144-3.78479-25.34219Z"/><path class="cls-7" d="M116.83356,95.88318s-6.87232,2.15532-8.585,4.03119l5.62728,26.17871L113.786,134.353h32.58191c0-.408.29245-27.4251.29245-27.4251l1.95728-10.60182-11.58057-2.039-2.2836-1.79417-12.88535.65253-1.9573,1.95729Z"/><g class="cls-14"><g class="cls-15"><path d="M119.44388,118.59451c-.10034-.22207-.24375-.46206-.48258-.51129-.39254-.08114-.655.38281-.78836.76074a34.403,34.403,0,0,1-4.28033,8.35721l-.08359,4.01929a20.64718,20.64718,0,0,0,4.98319-5.47769A8.10986,8.10986,0,0,0,119.44388,118.59451Z"/></g></g><path class="cls-7" d="M108.24855,99.91437a40.67586,40.67586,0,0,0-3.20473,5.10193c-.94035,2.01492-8.73164,18.941-9.20182,20.68753-.47017,1.74624-1.67919,7.254,1.88072,8.53009h7.3211l7.34845-14.85919.37577-17.24659Z"/><path class="cls-6" d="M105.51262,123.50006c-.00972.01117-.16341-.14392-.50018-.33569a5.62346,5.62346,0,0,0-1.5369-.55646,7.38715,7.38715,0,0,0-1.12-.15747,4.45948,4.45948,0,0,0-1.28394.08362,4.787,4.787,0,0,0-2.46481,1.54712,6.67655,6.67655,0,0,0-1.39566,2.59466,12.95318,12.95318,0,0,0-.44043,2.395c-.06843.69257-.09416,1.25641-.118,1.64563-.01163.18176-.02083.33039-.02813.4483a.66206.66206,0,0,1-.01919.15607.662.662,0,0,1-.0092-.15692c.00026-.11822.00107-.267.0016-.44958.00732-.39014.01759-.95527.07387-1.65241a12.37484,12.37484,0,0,1,.415-2.42261,6.70049,6.70049,0,0,1,1.41461-2.65149,4.86534,4.86534,0,0,1,2.54191-1.58044,4.51248,4.51248,0,0,1,1.32019-.07355,7.23732,7.23732,0,0,1,1.1346.17694,5.28622,5.28622,0,0,1,1.54228.60645,2.64973,2.64973,0,0,1,.36306.26916A.67047.67047,0,0,1,105.51262,123.50006Z"/><path class="cls-6" d="M102.04089,120.54153a.85779.85779,0,0,1,.24619-.03949,4.18214,4.18214,0,0,1,.679-.00921,5.61751,5.61751,0,0,1,.99854.14743A5.9477,5.9477,0,0,1,106.186,121.7a5.59212,5.59212,0,0,1,.74317.68311,4.17484,4.17484,0,0,1,.4201.53347.84132.84132,0,0,1,.12415.21619c-.02164.01538-.22019-.27786-.61652-.68124a6.42782,6.42782,0,0,0-.74859-.648,6.37628,6.37628,0,0,0-2.17533-1.03748,6.43153,6.43153,0,0,0-.97467-.17392C102.39551,120.53775,102.04248,120.568,102.04089,120.54153Z"/><path class="cls-6" d="M108.66,119.72723a1.57985,1.57985,0,0,1-.33874-.02569c-.21588-.02789-.52945-.05951-.91681-.08817a15.62769,15.62769,0,0,0-5.98825.71631c-.36978.11933-.66709.22406-.8703.302a1.58308,1.58308,0,0,1-.32294.105,1.55589,1.55589,0,0,1,.30209-.15585c.19755-.09357.49109-.21314.85929-.34546a13.843,13.843,0,0,1,6.02875-.72125c.389.04172.70254.08847.91653.13312A1.571,1.571,0,0,1,108.66,119.72723Z"/><path class="cls-6" d="M129.513,105.266a.46636.46636,0,0,1-.07468-.08792c-.05218-.07007-.118-.15852-.19964-.26756-.17935-.2486-.42688-.59165-.73584-1.01964-.632-.89194-1.51361-2.13557-2.55-3.598l.11359-.016c-.39441,1.15841-.82972,2.43641-1.288,3.78175l-.02893.085-.07388-.04735-.152-.09764a7.8196,7.8196,0,0,1-1.594-1.3462,9.47061,9.47061,0,0,1-1.13813-1.57394,13.13406,13.13406,0,0,1-1.25256-3.028,20.44879,20.44879,0,0,1-.47424-2.15667c-.04276-.24591-.07681-.442-.10254-.5903-.01218-.06735-.026-.11687-.03436-.15068a.16094.16094,0,0,1-.017-.05,2.46378,2.46378,0,0,1,.20776.78075c.105.50969.25186,1.24878.51587,2.13908a13.4478,13.4478,0,0,0,1.2691,2.99047,9.487,9.487,0,0,0,1.12809,1.54661,7.757,7.757,0,0,0,1.5675,1.31993l.149.09577-.103.03759c.46231-1.34372.9014-2.62063,1.29959-3.778l.04138-.12037.07227.10441c1.01962,1.4744,1.88638,2.72831,2.50806,3.62729.29657.43691.534.787.70611,1.04047.07492.11388.13523.20613.18314.27917A.48409.48409,0,0,1,129.513,105.266Z"/><g class="cls-14"><g class="cls-15"><path d="M137.99554,117.76318a15.36761,15.36761,0,0,0,8.38776,15.02713c.08957-2.68661-.03946-5.85128.04981-8.53793Z"/></g></g><path class="cls-12" d="M137.689,114.226s-1.18357.32868-.29593,2.75318c.8876,2.4248,1.18359,2.27819,1.7752,4.54657a15.69031,15.69031,0,0,0,2.31791,5.62024,35.21613,35.21613,0,0,0,4.88174,3.89569l3.45194-3.25476a16.52471,16.52471,0,0,1-.43226-4.07288c.13633-1.64722.48154-5.69086.43226-6.38123a11.62813,11.62813,0,0,0-.78916-2.36688v-1.14709l-1.77521-5.46088s-.986-.44373-1.3313,1.13428l-.59185-1.67481s-.93686-.1499-1.18332,1.77332a19.33358,19.33358,0,0,0,.19723,4.586l-.49316,3.35327-.73966,2.26837-.64114.09851s-.965-.26355-1.49335-2.07965C140.45065,116.00116,139.0206,113.83154,137.689,114.226Z"/><path class="cls-13" d="M148.66425,122.80344a.53731.53731,0,0,1-.01627-.12448c-.0065-.09388-.01462-.21348-.0249-.36118-.01758-.33087-.04218-.7883-.07276-1.35806-.05334-1.17762-.12716-2.8162-.21344-4.72889l.01541.03977a.69187.69187,0,0,0-.69851-.18207,1.02,1.02,0,0,0-.6398.46912,4.59439,4.59439,0,0,0-.41233,1.72763c-.18716,1.38214-.36544,2.698-.528,3.89752-.082.59918-.16886,1.16922-.28571,1.69675a11.04024,11.04024,0,0,1-.42767,1.43841,11.96589,11.96589,0,0,0-.37143,1.17118,3.5853,3.5853,0,0,0-.11151.913,2.86562,2.86562,0,0,0,.13638.7735,1.13274,1.13274,0,0,1-.08279-.18912,2.1457,2.1457,0,0,1-.10849-.58218,3.49745,3.49745,0,0,1,.0896-.9328,11.38424,11.38424,0,0,1,.35406-1.186,11.2844,11.2844,0,0,0,.40775-1.43054c.1109-.52347.19287-1.09052.2713-1.68948.15909-1.19983.33356-2.51645.51672-3.89887.04355-.30844.07682-.61276.13065-.91629a2.40768,2.40768,0,0,1,.30435-.86706,1.1598,1.1598,0,0,1,.72583-.52695.8252.8252,0,0,1,.83084.22937l.01462.01761.00076.02218c.06577,1.91373.122,3.55286.16263,4.731.01456.57028.02649,1.02829.03491,1.35941.00156.14822.00293.26806.00379.36227A.54962.54962,0,0,1,148.66425,122.80344Z"/><path class="cls-13" d="M146.777,116.58942a1.40967,1.40967,0,0,1-.14554-.30872,7.79851,7.79851,0,0,1-.28891-.88409,8.87675,8.87675,0,0,1-.24811-1.35865,3.95587,3.95587,0,0,1-.01462-.82348,1.75908,1.75908,0,0,1,.29761-.8454,1.20534,1.20534,0,0,1,.63117-.47369l.053-.01569.02707.04785c.49994.882.93415,1.66028,1.23954,2.22028q.21024.39359.3536.662a1.122,1.122,0,0,1,.11331.24836,1.13809,1.13809,0,0,1-.156-.224q-.1583-.2601-.38986-.64118c-.32682-.54785-.77616-1.31775-1.281-2.19665l.07981.03186a1.07688,1.07688,0,0,0-.5557.42206,1.641,1.641,0,0,0-.27539.77942,3.962,3.962,0,0,0,.00677.79589,9.95465,9.95465,0,0,0,.21534,1.34723c.08685.37928.17938.68091.244.88947A1.829,1.829,0,0,1,146.777,116.58942Z"/><path class="cls-13" d="M145.95184,117.03305a1.34614,1.34614,0,0,1-.03216-.31436c-.00922-.23264-.02082-.51941-.03467-.8584-.02322-.72476-.04575-1.72626-.06165-2.83246a24.33081,24.33081,0,0,1,.04377-2.83838,4.36865,4.36865,0,0,1,.18478-.8446,1.06224,1.06224,0,0,1,.12662-.29059,7.99557,7.99557,0,0,0-.21237,1.146c-.06867.71609-.01056,1.71868-.00211,2.82544.01621,1.10623.02267,2.108.02054,2.83328-.00409.33923-.0073.62628-.01.85891A1.36623,1.36623,0,0,1,145.95184,117.03305Z"/><path class="cls-13" d="M143.03308,126.126c-.02-.01673.19611-.271.46314-.732a6.09088,6.09088,0,0,0,.40142-.84161,6.02451,6.02451,0,0,0,.40339-2.23432,6.05593,6.05593,0,0,0-.08167-.92926c-.089-.52508-.20264-.83892-.178-.84756a.74982.74982,0,0,1,.09821.21368,3.92332,3.92332,0,0,1,.17749.61518,5.29166,5.29166,0,0,1,.11383.94552,5.608,5.608,0,0,1-.41254,2.28437,5.28818,5.28818,0,0,1-.43689.84567,3.92658,3.92658,0,0,1-.38171.51456C143.0993,126.0733,143.04041,126.13229,143.03308,126.126Z"/><path class="cls-12" d="M149.09244,124.42963l2.99585,1.03967s2.86007-1.47928,4.83249,0c1.97244,1.47952,3.6857,5.37811,3.14328,6.95612,0,0-1.36127,1.68084-2.39688,1.92755-1.03531.24643-5.06138-.72882-6.73621-1.0813a19.33746,19.33746,0,0,1-4.56305-2.23Z"/><path class="cls-13" d="M149.46063,128.843a.98646.98646,0,0,1-.03192-.26541c-.01187-.20288-.02627-.44364-.04272-.72364-.03168-.61114-.07279-1.45626-.08554-2.39148a23.81252,23.81252,0,0,1,.0693-2.39529c.02625-.306.05975-.55243.09061-.7215a.97436.97436,0,0,1,.06195-.26025c.02218.00351-.02463.37875-.05332.98849-.03082.60981-.04138,1.45356-.02758,2.38663.01709.9144.03219,1.74115.04434,2.39014.00329.30627.00247.55432-.00214.72586A.9861.9861,0,0,1,149.46063,128.843Z"/><path class="cls-6" d="M159.3382,125.35187a9.38644,9.38644,0,0,0-.9961-.89813,5.47928,5.47928,0,0,0-6.072-.33466,9.47144,9.47144,0,0,0-1.08887.78317,1.50026,1.50026,0,0,1,.247-.26755,4.88505,4.88505,0,0,1,.79077-.60137,5.385,5.385,0,0,1,6.18326.34085,4.86759,4.86759,0,0,1,.72015.68472A1.48771,1.48771,0,0,1,159.3382,125.35187Z"/><path class="cls-6" d="M158.95349,122.854a5.87185,5.87185,0,0,0-1.24634-.68716,5.51266,5.51266,0,0,0-3.37243-.10117,7.82781,7.82781,0,0,0-1.74411.7258,8.28165,8.28165,0,0,0-1.26337.89252c-.33627.28674-.59326.53726-.76965.71152a2.17935,2.17935,0,0,1-.28189.264,1.89123,1.89123,0,0,1,.24212-.30164,9.36491,9.36491,0,0,1,.74393-.74884,7.73357,7.73357,0,0,1,1.26395-.93008,7.61033,7.61033,0,0,1,1.77118-.74912,5.41077,5.41077,0,0,1,3.44653.14423,3.966,3.966,0,0,1,.922.5205,2.55326,2.55326,0,0,1,.2194.18613C158.93292,122.82535,158.95648,122.85052,158.95349,122.854Z"/><path class="cls-6" d="M158.97812,120.68921c-.0076.02789-.53134-.132-1.40112-.24991a11.29361,11.29361,0,0,0-1.5355-.09741,11.168,11.168,0,0,0-3.69439.65008,11.31909,11.31909,0,0,0-1.41.61576c-.77746.40768-1.2149.73691-1.23138.71335a1.97992,1.97992,0,0,1,.29974-.23969,4.2637,4.2637,0,0,1,.37192-.2543c.14935-.0925.31549-.20584.51242-.307A10.16927,10.16927,0,0,1,152.303,120.87a10.5784,10.5784,0,0,1,3.73849-.65792,10.1832,10.1832,0,0,1,1.54987.12875c.21991.02789.41446.07767.58652.11365a4.12139,4.12139,0,0,1,.43637.112A2.02065,2.02065,0,0,1,158.97812,120.68921Z"/><path class="cls-6" d="M136.02768,94.19807a2.50153,2.50153,0,0,1,.20749.79618,7.77341,7.77341,0,0,1-.11362,2.32385,13.87237,13.87237,0,0,1-.38714,1.61967,12.31292,12.31292,0,0,1-.78669,1.79932c-.64523,1.24417-1.45709,2.60088-2.39746,4.04767l-.10983.16908-.00027-.20234c-.00162-.95607-.003-1.95948-.00461-3.00184l.10528.05033c-.80542.65008-1.65323,1.33452-2.52652,2.03953l.02194-.03219a26.6029,26.6029,0,0,0-1.12377,6.07313,70.71368,70.71368,0,0,0,.1076,9.29816c.13312,2.86056.22,5.43683.30927,7.6.08575,2.16317.16394,3.9132.22909,5.122.03546.59864.06308,1.06614.08228,1.391.01028.15423.01837.274.024.36169.00461.0817.00354.12393.00354.12393s-.00839-.04138-.01785-.12256l-.03784-.36059c-.03-.31763-.06876-.7862-.1088-1.39032-.082-1.20816-.17532-2.958-.274-5.12082-.09659-2.1648-.21158-4.73944-.33954-7.59787a69.5162,69.5162,0,0,1-.1182-9.31543,26.54726,26.54726,0,0,1,1.13483-6.10371l.006-.01949.01593-.013c.87491-.70311,1.72409-1.38566,2.53083-2.03413l.10549-.08465-.00024.135c-.00162,1.04236-.00327,2.04577-.00461,3.00184l-.11011-.03328c1.85828-2.88225,3.37-5.38654,3.60267-7.41282a8.00337,8.00337,0,0,0,.14578-2.30654,3.895,3.895,0,0,0-.1109-.59978C136.04526,94.26787,136.02768,94.19807,136.02768,94.19807Z"/><path class="cls-11" d="M131.17545,129.09515l-.09662-.00351a.76449.76449,0,1,0,.09662.00351Z"/><path class="cls-11" d="M131.17548,118.6684l-.09662-.00327a.76266.76266,0,1,0,.09662.00327Z"/><path class="cls-11" d="M131.07428,109.34018a.7632.7632,0,0,0,.1012-1.52228l-.09662-.00348a.76327.76327,0,0,0-.00458,1.52576Z"/><path class="cls-6" d="M119.39462,81.98064a18.93985,18.93985,0,0,1-2.5968-3.34619,6.3681,6.3681,0,0,1-.87488-4.07178c.13388-.81644.481-1.59448.53589-2.42015.076-1.136-.4017-2.32305.00134-3.38813.62955-1.6643,2.87009-1.92158,4.22815-3.07135,1.05774-.89544,1.57312-2.34927,2.73667-3.10215a5.14091,5.14091,0,0,1,3.52151-.474,13.29857,13.29857,0,0,0,3.60538.31084,23.76531,23.76531,0,0,0,2.49887-.66847,3.411,3.411,0,0,1,2.5192.17151,1.6386,1.6386,0,0,1,.67575,2.204,2.742,2.742,0,0,1,3.53775,1.9259,4.16513,4.16513,0,0,1-1.55957,4.06392,9.12557,9.12557,0,0,1-4.20734,1.71706,17.60644,17.60644,0,0,1-12.55316-1.95593"/><path class="cls-12" d="M134.37173,96.30391c-.208-1.61264-.3782-2.95827-.38876-3.12546,0,0,5.38953-1.21116,5.0925-6.66046-.14337-2.63362-.88062-8.03366-1.60428-12.91162a10.16557,10.16557,0,0,0-10.73654-8.64508l-.52536.03517c-5.64273.70988-8.19247,5.89893-7.32678,11.52028l3.04483,18.84788s1.29907,4.16942,4.07828,4.89119l3.50738,5.01024.5795-2.15667,2.61441-2.276a10.2834,10.2834,0,0,0,1.28879-1.9186A4.19865,4.19865,0,0,0,134.37173,96.30391Z"/><path class="cls-13" d="M133.98706,93.09946a12.691,12.691,0,0,1-7.2337-1.54283s1.94,3.80664,7.3406,2.95283Z"/><path class="cls-6" d="M135.72006,78.289a.77975.77975,0,0,1-.69742.83485.74547.74547,0,0,1-.84838-.64764.77977.77977,0,0,1,.69631-.83515A.74614.74614,0,0,1,135.72006,78.289Z"/><path class="cls-6" d="M136.48026,76.35713c-.08951.10767-.70768-.28892-1.54471-.2305-.83649.046-1.42163.5175-1.519.42122-.04791-.04249.03815-.23212.29245-.4445a2.13646,2.13646,0,0,1,1.20792-.46262,2.05354,2.05354,0,0,1,1.23792.3098C136.42538,76.131,136.52463,76.30843,136.48026,76.35713Z"/><path class="cls-6" d="M127.81549,78.85413a.77916.77916,0,0,1-.69745.83459.74515.74515,0,0,1-.84839-.64738.77982.77982,0,0,1,.6966-.83515A.746.746,0,0,1,127.81549,78.85413Z"/><path class="cls-6" d="M128.26559,77.06319c-.0895.10794-.70877-.28838-1.5447-.23023-.83622.046-1.42163.51753-1.51929.42122-.04764-.04248.03729-.23184.29294-.44449a2.13683,2.13683,0,0,1,1.20767-.46286,2.05655,2.05655,0,0,1,1.238.31C128.20987,76.8373,128.31,77.01477,128.26559,77.06319Z"/><path class="cls-6" d="M131.71762,83.06577a5.54646,5.54646,0,0,1,1.34262-.33626c.21213-.03626.4115-.09227.43775-.24051a1.08765,1.08765,0,0,0-.18506-.62358q-.353-.75556-.74069-1.585a28.03777,28.03777,0,0,1-1.70383-4.16079,28.03952,28.03952,0,0,1,2.03464,4.01415q.37422.83553.715,1.59613a1.24088,1.24088,0,0,1,.16693.83105.53664.53664,0,0,1-.33062.336,1.45158,1.45158,0,0,1-.35953.07466A5.45022,5.45022,0,0,1,131.71762,83.06577Z"/><path class="cls-6" d="M128.26236,73.76974c-.06732.233-.91007.181-1.88367.365-.97772.16448-1.74978.50481-1.894.30948-.06436-.09388.05926-.31706.36472-.55864a3.33467,3.33467,0,0,1,2.87789-.514C128.09735,73.49272,128.29077,73.65938,128.26236,73.76974Z"/><path class="cls-6" d="M136.01059,73.95587c-.13443.19994-.72418.04112-1.41779.07846-.69506.01273-1.27157.21318-1.42.02353-.06546-.09253.014-.2892.25836-.48613a2.05623,2.05623,0,0,1,2.28678-.082C135.97568,73.66858,136.06934,73.85876,136.01059,73.95587Z"/><path class="cls-12" d="M119.597,80.51869c-.09552-.03407-3.81527-.8565-3.44766,2.85817.36823,3.71462,4.39371,2.504,4.38965,2.39687C120.53494,85.66634,119.597,80.51869,119.597,80.51869Z"/><path class="cls-13" d="M118.89279,84.554c-.01761-.0103-.06033.05165-.16473.11278a.64924.64924,0,0,1-.48267.05762,1.60906,1.60906,0,0,1-.88321-1.36318,2.147,2.147,0,0,1,.08924-.94443.75123.75123,0,0,1,.43771-.54487.33071.33071,0,0,1,.39929.1396c.06009.099.04386.17529.06415.17992.01166.00811.07388-.07007.02866-.22075a.41533.41533,0,0,0-.16935-.21834.49161.49161,0,0,0-.36712-.059.91421.91421,0,0,0-.619.64278,2.20661,2.20661,0,0,0-.12171,1.05778,1.688,1.688,0,0,0,1.10291,1.51062.69677.69677,0,0,0,.58194-.15687C118.895,84.6443,118.90631,84.55936,118.89279,84.554Z"/><path class="cls-6" d="M137.19772,68.53123c-.25537,1.47872-3.25421,2.83352-5.74069,2.761-2.2922-.06654-3.42462-1.2041-5.09027-2.01246-1.054-.51159-1.054-.51159-2.48456-.27894-1.1568.18805-1.75708,1.55257-2.40637,2.52813,1.23715,2.69665.73694,5.8329.21262,8.75329a1.48433,1.48433,0,0,1-.37574.88787,1.18557,1.18557,0,0,1-1.50552-.22832A4.60852,4.60852,0,0,1,118.635,78.582a15.353,15.353,0,0,1-.36817-6.04068,10.451,10.451,0,0,1,2.51328-5.45391,9.89881,9.89881,0,0,1,6.75265-3.08162,12.158,12.158,0,0,1,7.20264,2.045,7.124,7.124,0,0,1,2.46237,2.48048"/><path class="cls-13" d="M132.2648,84.94757q-.9467-.44156-1.89346-.883a.63744.63744,0,0,0-.34439-.08685.54923.54923,0,0,0-.32761.2224,1.76127,1.76127,0,0,0-.20993,1.93483,1.47927,1.47927,0,0,0,1.7771.65335,2.0184,2.0184,0,0,0,1.04968-1.78174Z"/><path class="cls-6" d="M131.32556,86.92218c.00543.01624-.08737.07088-.27673.11035a1.6414,1.6414,0,0,1-.81485-.05978,1.69948,1.69948,0,0,1-.94007-.78153,1.74558,1.74558,0,0,1-.11557-1.49334,1.82492,1.82492,0,0,1,.43967-.66225,1.686,1.686,0,0,1,.307-.23213.50019.50019,0,0,1,.21835-.06954.49513.49513,0,0,1,.21967.04248,2.75552,2.75552,0,0,1,.29516.16745q.13226.0816.25806.15854.24472.153.461.28839a4.14616,4.14616,0,0,1,.87948.62735,4.14006,4.14006,0,0,1-.97958-.4553q-.224-.12093-.47858-.25863-.129-.071-.26513-.14608a2.96468,2.96468,0,0,0-.26752-.14093.2.2,0,0,0-.20721.01973,1.49327,1.49327,0,0,0-.24894.1972,1.607,1.607,0,0,0-.36816.56461,1.52749,1.52749,0,0,0,.08008,1.268,1.56168,1.56168,0,0,0,.78207.71936,1.85364,1.85364,0,0,0,.73343.13745C131.21738,86.91922,131.31964,86.90161,131.32556,86.92218Z"/><path class="cls-6" d="M130.72827,78.38228a6.71529,6.71529,0,0,0-.1477-.94034,3.8675,3.8675,0,0,0-1.41462-2.10367,3.81719,3.81719,0,0,0-3.61618-.53834,3.82353,3.82353,0,0,0-1.76925,1.3302,3.79558,3.79558,0,0,0-.00031,4.50407,3.82457,3.82457,0,0,0,1.76956,1.33074,3.84669,3.84669,0,0,0,5.0308-2.64229,6.715,6.715,0,0,0,.1477-.94037.211.211,0,0,1,.00406.06305l-.00217.185a1.79225,1.79225,0,0,1-.0238.30055,2.71239,2.71239,0,0,1-.07278.40526,3.661,3.661,0,0,1-.41959,1.04723,3.91851,3.91851,0,0,1-2.63818,1.86694,3.93835,3.93835,0,0,1-2.07041-.16341,3.93995,3.93995,0,0,1-1.83636-1.371,3.9213,3.9213,0,0,1,.00027-4.66747,3.93956,3.93956,0,0,1,1.83609-1.37051,3.94149,3.94149,0,0,1,2.07041-.16367,3.91859,3.91859,0,0,1,2.6379,1.86693,3.65411,3.65411,0,0,1,.41987,1.04723,2.75576,2.75576,0,0,1,.07278.40551,1.78953,1.78953,0,0,1,.0238.3003l.00217.18531A.2078.2078,0,0,1,130.72827,78.38228Z"/><path class="cls-6" d="M139.99283,78.01843a6.62679,6.62679,0,0,0-.14475-.91629,3.76672,3.76672,0,0,0-1.37832-2.049,3.71737,3.71737,0,0,0-3.52262-.524,3.72376,3.72376,0,0,0-1.723,1.29558,3.69765,3.69765,0,0,0-.00027,4.38691,3.72727,3.72727,0,0,0,1.72326,1.29612,3.74806,3.74806,0,0,0,4.90094-2.57328,6.62619,6.62619,0,0,0,.14475-.916,1.54108,1.54108,0,0,1,.00213.2416,1.76478,1.76478,0,0,1-.023.2927,2.62488,2.62488,0,0,1-.07089.39527,3.80515,3.80515,0,0,1-2.97986,2.84082,3.84136,3.84136,0,0,1-2.01815-.15906,3.84268,3.84268,0,0,1-1.79038-1.33643A3.82344,3.82344,0,0,1,133.113,75.743a3.84183,3.84183,0,0,1,1.7901-1.33615,3.843,3.843,0,0,1,2.01788-.15907,3.80469,3.80469,0,0,1,2.98013,2.84083,2.65267,2.65267,0,0,1,.07089.39527,1.76467,1.76467,0,0,1,.023.29269A1.54551,1.54551,0,0,1,139.99283,78.01843Z"/><path class="cls-6" d="M132.43256,77.16249c-.01514.016-.10471-.05951-.26914-.13742a1.55442,1.55442,0,0,0-.68124-.14935,1.53451,1.53451,0,0,0-.67551.17289c-.16122.08414-.24722.16367-.26321.1485-.013-.01054.0498-.11876.2113-.23346a1.33656,1.33656,0,0,1,1.45737-.02542C132.37766,77.04645,132.44531,77.15138,132.43256,77.16249Z"/><path class="cls-6" d="M123.20367,77.83125a33.424,33.424,0,0,1-3.47494,2.59439,33.38954,33.38954,0,0,1,3.47494-2.59439Z"/><g class="cls-14"><g class="cls-15"><path d="M120.00253,95.43874a10.91445,10.91445,0,0,0,3.96433,9.77156.89528.89528,0,0,0,.79349.24919.87208.87208,0,0,0,.41095-.424,7.16883,7.16883,0,0,0,.87783-4.71724c-.4664,1.22795-.86648,2.43315-1.33725,3.71765C122.14594,102.47794,120.54681,99.1653,120.00253,95.43874Z"/></g></g><path class="cls-9" d="M129.97156,103.78653l2.16043-.78888.35794,3.65433s2.33166-4.2495,3.29666-6.18866c.96469-1.93891.46857-5.36058.46857-5.36058a11.58858,11.58858,0,0,1-1.99137,6.78248l-1.76358,2.86628v-3.00182Z"/><g class="cls-14"><g class="cls-15"><path d="M104.83466,122.3609a5.77525,5.77525,0,0,0-3.13083-.39282,6.03827,6.03827,0,0,0-3.11623,1.179,3.478,3.478,0,0,0-1.36079,2.941l.10821.01541a5.1893,5.1893,0,0,1,4.18755-3.7052,6.35324,6.35324,0,0,1,5.14818,2.09876A2.7691,2.7691,0,0,0,104.83466,122.3609Z"/></g></g><g class="cls-14"><g class="cls-15"><path d="M159.47775,124.44717a4.95312,4.95312,0,0,0-2.7908-1.43783,6.272,6.272,0,0,0-5.20685,1.50735l.41226-.33465a6.569,6.569,0,0,1,3.46741-.94223,5.01942,5.01942,0,0,1,3.3053,1.32043,8.81428,8.81428,0,0,1,1.75635,2.82382A3.53923,3.53923,0,0,0,159.47775,124.44717Z"/></g></g><path class="cls-6" d="M145.54849,107.47409a1.3352,1.3352,0,0,1,.09711-.29541c.08331-.21371.18613-.47641.30707-.78616.26184-.66278.62085-1.57935.99984-2.59787.379-1.01914.70609-1.9473.9412-2.62015q.16635-.47067.28137-.79587a1.3189,1.3189,0,0,1,.11957-.28677,1.303,1.303,0,0,1-.06739.30328c-.05163.19287-.13336.46991-.23886.81079-.2113.68146-.52432,1.61692-.90384,2.63794-.37982,1.02042-.75424,1.93292-1.03994,2.58679-.14255.32682-.26184.58976-.34873.76966A1.31169,1.31169,0,0,1,145.54849,107.47409Z"/><path class="cls-6" d="M111.44263,107.73947c-.03812.00781-.33222-1.2796-.65656-2.87521-.32464-1.59586-.55676-2.89575-.51858-2.90332.03811-.00788.33194,1.27932.65658,2.87546C111.24841,106.4317,111.4808,107.7319,111.44263,107.73947Z"/><path class="cls-12" d="M110.93213,123.83231c.08548.043-.99091-8.4303-.99091-8.4303s.67926-6.43024,1.06128-6.72782l.01-2.26867s1.05155-.63709,1.334.39148c0,0,.93249-.80973,1.09533,1.11783.16291,1.92752.19727,3.89724.19727,3.89724l2.07547,5.18988.342.17285a43.91353,43.91353,0,0,1,.70529-4.66421c.2594-.59814.43686-2.05331,1.42078-1.835s1.06619,1.03232.889,2.359a19.44812,19.44812,0,0,0-.31518,3.55237,23.53588,23.53588,0,0,1,.35165,4.24053,8.45358,8.45358,0,0,1-1.80111,4.18836,32.25292,32.25292,0,0,1-3.40033,4.09585C113.59415,129.35327,110.93213,123.83231,110.93213,123.83231Z"/><path class="cls-13" d="M111.97992,116.937a1.80206,1.80206,0,0,1,.00571-.36285c.01785-.26023.04055-.59027.06787-.98444.06329-.8305.16043-1.977.27621-3.24258.05982-.63117.11685-1.23255.16913-1.78391a3.17941,3.17941,0,0,0,.00916-.76474,1.08268,1.08268,0,0,0-.25864-.5849,1.16491,1.16491,0,0,0-.84729-.3717,2.22383,2.22383,0,0,0-.3533.0452c-.00162-.00464.02679-.01951.08441-.04438a.91562.91562,0,0,1,.267-.05575,1.191,1.191,0,0,1,.92224.359,1.17729,1.17729,0,0,1,.30108.63412,3.20288,3.20288,0,0,1,.00458.79483c-.04895.55191-.10223,1.15353-.158,1.785-.116,1.26554-.22882,2.41071-.31759,3.23908l-.11225.98013A1.77746,1.77746,0,0,1,111.97992,116.937Z"/><path class="cls-13" d="M113.09561,113.4715a2.92209,2.92209,0,0,0-.36743.66879,11.30359,11.30359,0,0,0-.34488,1.829c-.112.72452-.22076,1.37891-.30679,1.85178a4.26168,4.26168,0,0,1-.16773.76046,4.26868,4.26868,0,0,1,.06925-.7756c.06088-.47665.1542-1.13382.26593-1.858a8.74425,8.74425,0,0,1,.39145-1.84369,1.75293,1.75293,0,0,1,.29974-.49423C113.02609,113.50723,113.091,113.4664,113.09561,113.4715Z"/><path class="cls-13" d="M112.333,106.68552a1.06289,1.06289,0,0,1,.07226.26645c.03781.17315.0849.42529.13633.738.1036.62491.2167,1.49414.28836,2.45883.07089.96528.08664,1.8415.076,2.4751-.00492.3168-.01435.573-.02652.74991a1.0503,1.0503,0,0,1-.03217.27429,8.92794,8.92794,0,0,1-.04089-1.02365c-.0149-.63171-.04624-1.50387-.11685-2.46506-.07142-.961-.16855-1.82827-.2465-2.45538A8.93946,8.93946,0,0,1,112.333,106.68552Z"/><path class="cls-13" d="M118.32007,114.62964a.75485.75485,0,0,1-.699.05951c-.39709-.1185-.58188-.42417-.547-.43936a1.82884,1.82884,0,0,0,1.246.37985Z"/><path class="cls-12" d="M111.04883,122.77856,105.5657,125.083h-3.267s-3.23151,1.00824-3.72849,4.03735c-.49719,3.02912-.56836,4.588.8522,4.96259a18.22321,18.22321,0,0,0,7.42148-.24372c1.98865-.65985,7.19748-4.86309,7.19748-4.86309l.50211-3.04078Z"/><path class="cls-13" d="M112.333,126.1261c-.007.0065-.06195-.04437-.15583-.1431a3.36292,3.36292,0,0,1-.35626-.45315,6.19554,6.19554,0,0,1-.7659-1.73407,10.28276,10.28276,0,0,1-.33761-1.86344,3.49,3.49,0,0,1-.0214-.78344,5.66016,5.66016,0,0,1,.12012.77206,13.96694,13.96694,0,0,0,.37445,1.83609,7.247,7.247,0,0,0,.71472,1.71976C112.15167,125.88641,112.35245,126.10852,112.333,126.1261Z"/><path class="cls-13" d="M114.72012,127.08755a5.6569,5.6569,0,0,0,.31247-1.17541,3.78952,3.78952,0,0,0-.73639-2.75186c-.33328-.46665-.7077-.87326-1.02343-1.26633a5.8612,5.8612,0,0,1-.74125-1.12085,2.939,2.939,0,0,1-.27484-.86459,1.00043,1.00043,0,0,1-.00949-.33249,3.75375,3.75375,0,0,0,.37332,1.15219,6.27131,6.27131,0,0,0,.75263,1.08319c.31787.38526.6969.79022,1.03778,1.26743a3.94893,3.94893,0,0,1,.6839,1.50009,3.8254,3.8254,0,0,1,.03653,1.34674,3.46078,3.46078,0,0,1-.25135.87082,1.89962,1.89962,0,0,1-.11065.22C114.74121,127.0654,114.72446,127.08972,114.72012,127.08755Z"/><path class="cls-11" d="M106.26709,113.88458a27.462,27.462,0,0,1-1.33615-2.431,27.3416,27.3416,0,0,1-1.21088-2.49618,54.59018,54.59018,0,0,1,2.547,4.92715Z"/><path class="cls-11" d="M115.13486,104.013a33.98649,33.98649,0,0,1,1.78058-3.99658,17.14288,17.14288,0,0,1-.82593,2.02707A17.02671,17.02671,0,0,1,115.13486,104.013Z"/><path class="cls-11" d="M123.81866,110.41962a24.68994,24.68994,0,0,1-2.37692-2.87113,24.6895,24.6895,0,0,1,2.37692,2.87113Z"/><path class="cls-11" d="M121.82074,119.23141a20.43177,20.43177,0,0,1,1.987-2.73995,20.37381,20.37381,0,0,1-1.987,2.73995Z"/><path class="cls-11" d="M119.13171,131.6774a2.59918,2.59918,0,0,1-.31762-.54349c-.17777-.34494-.408-.82947-.6398-1.37454-.23157-.54541-.42041-1.04752-.54566-1.41516a2.62491,2.62491,0,0,1-.17071-.60575,2.99107,2.99107,0,0,1,.26379.57059c.16986.40686.366.8765.58243,1.39508.22293.51566.425.98258.6,1.3873A3.00334,3.00334,0,0,1,119.13171,131.6774Z"/><path class="cls-11" d="M126.772,126.38638a19.52127,19.52127,0,0,1-3.25824-.63061,19.57477,19.57477,0,0,1,3.25824.63061Z"/><path class="cls-11" d="M132.6972,114.75674a40.12073,40.12073,0,0,1,3.23554-3.48928,40.313,40.313,0,0,1-3.23554,3.48928Z"/><path class="cls-11" d="M138.65833,130.26709c-.03006.02466-.90494-.98767-1.95377-2.26111-1.04938-1.27365-1.87534-2.326-1.84531-2.35086.03-.02466.90464.9877,1.954,2.26135C137.86212,129.18985,138.68835,130.24216,138.65833,130.26709Z"/><path class="cls-11" d="M101.65375,123.65616c.02.03891-.77933.44421-1.65021,1.11267-.87515.66363-1.4771,1.32721-1.50929,1.29773a2.04854,2.04854,0,0,1,.36821-.45963,8.75329,8.75329,0,0,1,2.2511-1.71707A2.04325,2.04325,0,0,1,101.65375,123.65616Z"/><path class="cls-11" d="M103.8829,117.67853a11.18246,11.18246,0,0,1-1.38836,2.0874,11.16067,11.16067,0,0,1,1.38836-2.0874Z"/><path class="cls-11" d="M108.90451,123.54871a3.58072,3.58072,0,0,1-.52536-2.3122c.042,0,.056.534.20288,1.16977C108.72433,123.04285,108.94266,123.53061,108.90451,123.54871Z"/><path class="cls-11" d="M109.64929,104.90326a8.04374,8.04374,0,0,1-2.10443.29919,8.04757,8.04757,0,0,1,2.10443-.29919Z"/><path class="cls-11" d="M113.42136,98.21439a8.351,8.351,0,0,1-1.893,1.04889,8.31763,8.31763,0,0,1,1.893-1.04889Z"/><path class="cls-11" d="M124.02826,101.03978a18.88208,18.88208,0,0,1-1.97485-2.59331,18.93754,18.93754,0,0,1,1.97485,2.59331Z"/><path class="cls-11" d="M137.49335,107.76651a6.61849,6.61849,0,0,1-1.63666-2.63062c.03812-.01651.3295.61463.78183,1.33808C137.08762,107.19922,137.525,107.73947,137.49335,107.76651Z"/><path class="cls-11" d="M142.63239,109.4606a16.08335,16.08335,0,0,1-1.2436,2.74069,16.14029,16.14029,0,0,1,1.2436-2.74069Z"/><path class="cls-11" d="M143.35086,102.44577a29.89116,29.89116,0,0,1-2.62515-3.15494,29.95621,29.95621,0,0,1,2.62515,3.15494Z"/><path class="cls-11" d="M135.50153,96.74756a12.2869,12.2869,0,0,1-.10364-2.62769,12.34263,12.34263,0,0,1,.10364,2.62769Z"/><path class="cls-11" d="M141.90115,96.39259a20.41388,20.41388,0,0,1-3.35943.44908,20.43033,20.43033,0,0,1,3.35943-.44908Z"/><path class="cls-11" d="M151.98141,103.797a16.69252,16.69252,0,0,1-1.00531-1.9159,16.66512,16.66512,0,0,1-.87814-1.97705,33.27855,33.27855,0,0,1,1.88345,3.893Z"/><path class="cls-11" d="M150.28409,110.19482a17.21624,17.21624,0,0,1,.60953-3.05212,17.21815,17.21815,0,0,1-.60953,3.05212Z"/><path class="cls-11" d="M154.95966,115.23859a35.22439,35.22439,0,0,1-1.47168-4.204,35.20839,35.20839,0,0,1,1.47168,4.204Z"/><path class="cls-11" d="M154.3085,118.18845a4.7566,4.7566,0,0,1-2.52243-1.36618c.02762-.03244.52619.37957,1.22312.754C153.70306,117.95526,154.32068,118.14789,154.3085,118.18845Z"/><path class="cls-11" d="M160.29782,124.91574a7.65182,7.65182,0,0,1-.84167-1.89154,7.625,7.625,0,0,1,.84167,1.89154Z"/><path class="cls-11" d="M124.92346,134.297a10.4975,10.4975,0,0,1-.28055-2.41181,10.50507,10.50507,0,0,1,.28055,2.41181Z"/><path class="cls-11" d="M143.30035,133.83267a9.95446,9.95446,0,0,1,.49183-2.31354,9.98769,9.98769,0,0,1-.49183,2.31354Z"/><path class="cls-5" d="M145.47113,72.71513l2.62793-4.63122a12.40836,12.40836,0,1,1,2.972,3.30618l.00418.0054Z"/><path class="cls-6" d="M145.47144,72.71518c.266-.06075,2.04-.46613,5.61248-1.28258l.0578-.01317-.03625-.047-.00412-.00569-.05359.05354a12.70089,12.70089,0,0,0,2.54837,1.53626,12.43361,12.43361,0,0,0,3.39771.97026,11.1767,11.1767,0,0,0,1.962.0993c.33746-.01912.68121-.02752,1.02768-.05653q.51649-.07809,1.04709-.15829a12.50336,12.50336,0,0,0,7.74387-4.9708,12.364,12.364,0,0,0,2.09426-4.7874,12.63933,12.63933,0,0,0-.1463-5.5126,12.22939,12.22939,0,0,0-2.65609-5.09647l-.50623-.55676c-.16635-.18729-.36468-.34166-.54507-.51338-.18851-.16246-.359-.34645-.56156-.49l-.59479-.44458a5.2091,5.2091,0,0,0-.616-.40748q-.31494-.19118-.62851-.38174-.32987-.16022-.65818-.31952a5.75985,5.75985,0,0,0-.66452-.29529,12.63981,12.63981,0,0,0-5.55478-.85356,12.22518,12.22518,0,0,0-5.09826,1.507,12.56862,12.56862,0,0,0-5.88175,7.238,13.38481,13.38481,0,0,0-.53854,4.03049,12.3239,12.3239,0,0,0,.60672,3.47972,12.57477,12.57477,0,0,0,1.2431,2.66653l-.00061-.0374c-1.65832,2.96964-2.46878,4.42124-2.59594,4.64922.13015-.22618.96066-1.66641,2.65966-4.613l.01075-.01855-.01166-.01885a12.5702,12.5702,0,0,1-1.21915-2.65608,12.26966,12.26966,0,0,1-.58725-3.45457,13.32667,13.32667,0,0,1,.54685-3.99251,12.46243,12.46243,0,0,1,5.83578-7.1503,12.09464,12.09464,0,0,1,5.041-1.48271,12.50693,12.50693,0,0,1,5.48752.84727,5.6726,5.6726,0,0,1,.65637.292l.64981.31594q.30963.188.62082.37726a5.11829,5.11829,0,0,1,.60821.40269l.58759.43918c.20041.14181.36828.32371.55469.48407.178.16994.374.32222.53817.5074l.49994.5499a12.08388,12.08388,0,0,1,2.62467,5.03332,12.4941,12.4941,0,0,1,.14868,5.44649,12.22988,12.22988,0,0,1-2.064,4.73415,12.39146,12.39146,0,0,1-7.65228,4.93461q-.52551.08125-1.03662.15978c-.34317.0299-.68366.03888-1.01782.05893a11.0547,11.0547,0,0,1-1.945-.09154,12.37347,12.37347,0,0,1-3.37442-.94811,12.68984,12.68984,0,0,1-2.53937-1.512l-.23068-.17651.17712.22978.00415.00568.02158-.06043C147.50525,72.22212,145.73645,72.65083,145.47144,72.71518Z"/><path class="cls-6" d="M161.997,61.07957a1.21045,1.21045,0,1,0,1.21048-1.21044A1.2103,1.2103,0,0,0,161.997,61.07957Z"/><path class="cls-6" d="M157.15216,61.07957a1.21064,1.21064,0,1,0,1.21082-1.21044A1.21056,1.21056,0,0,0,157.15216,61.07957Z"/><path class="cls-6" d="M152.32019,60.47435a1.21048,1.21048,0,1,0,1.6535-.44307A1.21,1.21,0,0,0,152.32019,60.47435Z"/></svg>